<svg xmlns="http://www.w3.org/2000/svg" width="885.587" height="402.451" viewBox="0 0 885.587 402.451">
    <defs>
        <style>
            .prefix__cls-1,.prefix__cls-6{fill:none}.prefix__cls-1{stroke:#195dff}.prefix__cls-1,.prefix__cls-6{stroke-linecap:round}.prefix__cls-1,.prefix__cls-3,.prefix__cls-6{stroke-miterlimit:10}.prefix__cls-3{fill:#fff;stroke:#263238}.prefix__cls-5{fill:#dcf5f8}.prefix__cls-10,.prefix__cls-11,.prefix__cls-12,.prefix__cls-14,.prefix__cls-5{stroke:#000}.prefix__cls-6{stroke:#002226}.prefix__cls-8{fill-rule:evenodd;fill:#a8cffa}.prefix__cls-10{fill:#002226}.prefix__cls-11{fill:#f8feff}.prefix__cls-12{fill:#e2edff}
        </style>
    </defs>
    <g id="prefix__Group_10367" data-name="Group 10367" transform="translate(-602.254 -374.924)">
        <g id="prefix__Group_10366" data-name="Group 10366" transform="translate(75 354.6)">
            <g id="prefix__Group_10365" data-name="Group 10365">
                <g id="prefix__Group_10244" data-name="Group 10244">
                    <path id="prefix__Line_194" d="M0 0L884.587 0" class="prefix__cls-1" data-name="Line 194" transform="translate(527.754 422.172)"/>
                    <g id="prefix__Group_2391" data-name="Group 2391" transform="translate(610.474 88.825)" style="opacity:.7">
                        <path id="prefix__Path_1413" d="M-1258.83 4201.171c2.873-1.565 4.179-.263 5.224-1.565s-2.873-4.706 4.963-8.1c0 0 .523-7.312 11.232-7.574s7.837 7.314 10.709 9.145 3.658-1.046 6.53.781 1.567 5.487 3.917 6.01 5.485-2.353 8.359-.522 2.874 3.4 4.18 3.4 3.918-1.044 5.485 0 3.4 2.352 3.4 2.352h-66.086s-.783-2.359 2.087-3.927z" class="prefix__cls-3" data-name="Path 1413" transform="translate(1261.017 -4183.924)"/>
                    </g>
                    <g id="prefix__Group_2391-2" data-name="Group 2391" transform="translate(1284.884 82.467)" style="opacity:.84">
                        <path id="prefix__Path_1413-2" d="M-512.743 4090.033c1.647-.9 2.4-.149 2.994-.9s-1.647-2.695 2.844-4.64c0 0 .3-4.193 6.437-4.341s4.491 4.191 6.137 5.239 2.1-.6 3.743.449.9 3.143 2.245 3.442 3.144-1.347 4.79-.3 1.647 1.946 2.4 1.946 2.245-.6 3.144 0 1.946 1.348 1.946 1.348h-37.873a1.933 1.933 0 0 1 1.193-2.243z" class="prefix__cls-3" data-name="Path 1413" transform="translate(513.997 -4080.15)"/>
                    </g>
                    <g id="prefix__Group_3619" data-name="Group 3619" transform="translate(590.887 292.806)">
                        <g id="prefix__Group_2390" data-name="Group 2390">
                            <path id="prefix__Path_659" d="M-417.675 4205.74c4.312-.326 6.985-5.209 5.839-9.475a8.791 8.791 0 0 0-1.785-3.252c-1.6-1.945-4.213-3.055-4.274-5.934-.044-2.062 1.579-3.706 1.694-5.743.208-3.666-3.689-3.6-5.129-6.14-.76-1.34-.126-2 .11-3.246 1.3-6.852-4.726-6.262-4.726-6.262-5.79.237-4.254 5.553-4.254 5.553 1.772 3.9-1.3 5.317-1.3 5.317-5.909 3.189-2.363 7.56-2.363 7.56a6.154 6.154 0 0 1-.356 6.066c-.882 1.44-2.262 2.153-3.287 3.409a7.982 7.982 0 0 0-.207 9.044 8.616 8.616 0 0 0 4.44 3.1c1.728.534 15.598.003 15.598.003z" class="prefix__cls-5" data-name="Path 659" transform="translate(439.016 -4165.677)"/>
                            <path id="prefix__Line_55" d="M0 20.439L0 0" class="prefix__cls-6" data-name="Line 55" transform="translate(14.251 31.321)"/>
                            <path id="prefix__Line_56" d="M0 14.295L0 0" class="prefix__cls-6" data-name="Line 56" transform="translate(14.251 15.608)"/>
                            <path id="prefix__Line_57" d="M3.663 3.544L0 0" class="prefix__cls-6" data-name="Line 57" transform="translate(10.588 21.397)"/>
                            <path id="prefix__Line_58" d="M0 2.363L2.363 0" class="prefix__cls-6" data-name="Line 58" transform="translate(14.251 15.372)"/>
                            <path id="prefix__Line_59" d="M0 4.962L0 0" class="prefix__cls-6" data-name="Line 59" transform="translate(13.896 7.811)"/>
                        </g>
                        <path id="prefix__Line_194-2" d="M0 0L14.001 0" class="prefix__cls-1" data-name="Line 194" transform="translate(7.796 51.734)"/>
                    </g>
                    <g id="prefix__Group_2393" data-name="Group 2393" transform="translate(923.7 20.825)">
                        <g id="prefix__Group_2341" data-name="Group 2341">
                            <path id="prefix__Path_1351" d="M-1158.81 3860.976a245.579 245.579 0 0 0 3.791 24.649c.669 3.1 1.412 6.168 2.253 9.188.618 2.278 1.312 4.535 2.056 6.764 1.066 3.221 2.255 6.365 3.592 9.413 6.192 14.27 15.48 26.752 29.576 35.546 29.378-18.309 37.775-52.764 41.244-85.563-14-4.776-23.9-6.389-41.244-6.932-17.341.544-27.271 2.159-41.268 6.935z" data-name="Path 1351" transform="translate(1167.223 -3846.176)" style="fill-rule:evenodd;stroke:#01272c;fill:#eaf9fb"/>
                            <path id="prefix__Path_1352" d="M-1117.523 3854.03c17.327.562 27.256 2.154 41.236 6.935l-2.9 1.888v-.017c-12.5-4.111-21.849-5.571-38.34-6.108-16.491.538-25.838 2-38.338 6.108v.017l-2.9-1.888c13.984-4.781 23.912-6.374 41.242-6.935z" class="prefix__cls-8" data-name="Path 1352" transform="translate(1167.196 -3846.169)"/>
                            <path id="prefix__Path_1353" d="M-1127.726 3946.117c36.2-19.7 46.036-59.825 49.674-99.978-18.369-6.825-29.6-8.848-49.674-9.478-20.076.629-31.305 2.653-49.675 9.478 3.637 40.153 13.474 80.283 49.675 99.978zm0-101.594c17.337.563 27.263 2.156 41.253 6.939-3.48 32.811-11.857 67.26-41.253 85.562-29.4-18.3-37.775-52.751-41.253-85.562 13.99-4.783 23.915-6.377 41.253-6.94z" data-name="Path 1353" transform="translate(1177.401 -3836.662)" style="fill:#dcecfe;fill-rule:evenodd;stroke:#01272c"/>
                            <path id="prefix__Path_1354" d="M-1158.773 3869.357l2.9 1.887c3.186 28.347 10.687 62.294 38.337 80.478v3.2c-29.4-18.3-37.775-52.749-41.254-85.557z" class="prefix__cls-8" data-name="Path 1354" transform="translate(1167.213 -3854.562)"/>
                            <path id="prefix__Path_1355" d="M-1029.284 3871.244l2.9-1.887.016.007c-3.48 32.808-11.856 67.257-41.253 85.557v-3.2c27.65-18.183 35.151-52.132 38.337-80.477z" class="prefix__cls-8" data-name="Path 1355" transform="translate(1117.296 -3854.562)"/>
                        </g>
                    </g>
                    <g id="prefix__Group_10243" data-name="Group 10243" transform="translate(779.064 37.544)">
                        <g id="prefix__Group_10231" data-name="Group 10231" transform="translate(38.507)">
                            <g id="prefix__Group_10228" data-name="Group 10228" transform="translate(44.383 50.385)">
                                <path id="prefix__Path_2355" d="M1593.654 428.644s14.161 6.7 17.379 5.854 15.441-3 17.158-2.242c0 0 1.946 3.1.478 5.148s-13.362 7.568-17.658 7.767-20.6-2.754-24.064-5.457z" class="prefix__cls-5" data-name="Path 2355" transform="translate(-1586.947 -428.644)"/>
                                <path id="prefix__Path_2356" d="M1718.54 438.518s5.461-2.267 7.249.265 2.8 5.1 2.579 6.4-3.909 1.869-5.384.86a35.817 35.817 0 0 0-5.125-2.418z" class="prefix__cls-5" data-name="Path 2356" transform="translate(-1677.726 -434.844)"/>
                            </g>
                            <path id="prefix__Path_2357" d="M1798.255 1467.958a23.049 23.049 0 0 0-3.079 10.536 2.267 2.267 0 0 0 2.272 2.284h18.792a2.794 2.794 0 0 0 2.714-3.475c-.874-3.442-2.748-8.642-6.5-11.8-5.989-5.031-14.199 2.455-14.199 2.455z" class="prefix__cls-5" data-name="Path 2357" transform="translate(-1686.957 -1096.046)"/>
                            <path id="prefix__Path_2358" d="M1610.913 1448.481s-1.08 17.424-4.45 17.674c-.449.034-17.1.034-17.1.034h-21.473s.361-5.244 6.574-6.327 16.61-5.449 20.374-13.66c3.962-8.638 16.075 2.279 16.075 2.279z" class="prefix__cls-5" data-name="Path 2358" transform="translate(-1529.349 -1081.56)"/>
                            <g id="prefix__Group_10229" data-name="Group 10229" transform="translate(48.76 167.443)">
                                <path id="prefix__Path_2359" d="M1643.026 902.317c-.751 9.679-.848 17.32.144 20.942 4.433 16.206-7.988 89.378-7.988 89.378-9.156 4.38-22.159-.046-22.159-.046.79-10.136-4.028-100.874-8.513-156.229-1.878-23.24-3.285-39.5-3.285-39.5l54.849-6.386s-10.45 58.224-13.048 91.841z" class="prefix__cls-10" data-name="Path 2359" transform="translate(-1601.225 -810.477)"/>
                            </g>
                            <path id="prefix__Path_2361" d="M1692.374 834.215s27.764 161.668 32.541 192.974a35.071 35.071 0 0 0 21.017-1.6s1.373-75.124-2.262-97.755 1.937-92.59-3.922-99.1-47.374 5.481-47.374 5.481z" class="prefix__cls-10" data-name="Path 2361" transform="translate(-1615.671 -654.356)"/>
                            <path id="prefix__Path_2362" d="M1698.46 398.737s-2.131 14.367-1.2 18.659 15.207 6.624 21.178 3.079 4.175-4.863 4.175-4.863-.911-16.448-1.749-17.621-22.404.746-22.404.746z" class="prefix__cls-11" data-name="Path 2362" transform="translate(-1618.897 -356.74)"/>
                            <path id="prefix__Path_2363" d="M1586.918 522.927c1.888-18.05 1.4-31.633-.376-41.851-5.214-29.99-21.551-30.989-21.551-30.8 0 4.036-8.682 7.761-15.685 7.3-5.9-.386-9.732-4.873-9.732-7.3 0-.02-.11-.018-.308 0a103.573 103.573 0 0 0-15.15 1.288c-4.8.829-9.4 2.192-11.554 4.439-1.114 1.159-5.086 4.405-10.187 8.819-13 11.238-33.315 30.049-32.417 41.258 0 0 25.117 18.444 41.034 6.882-.866 30.015-6.315 61.808-4.979 61.784 0 0 8.873 7.683 35.828 7.683 14.739 0 25.4-1.262 32.792-2.723 10.075-1.987 14.086-4.336 14.086-4.336 2.245-.026-2.454-46.213-1.801-52.443z" class="prefix__cls-12" data-name="Path 2363" transform="translate(-1461.421 -393.25)"/>
                            <path id="prefix__Path_2366" d="M1691.941 334.924a37.544 37.544 0 0 0 7.76 3.973 9.587 9.587 0 0 0 6.636.14 87.919 87.919 0 0 0 9.361-3.6c2.931-1.777 2.743-5.374 2.893-10.376.181-5.92.777-10.569.116-13.981-.785-4.082-3.374-6.4-10.62-7.036-13.3-1.155-18.845 2.177-19.077 6.637-.06 1.2-.116 2.34-.155 3.421-.533 13.906.566 18.838 3.086 20.822z" class="prefix__cls-11" data-name="Path 2366" transform="translate(-1613.139 -291.695)"/>
                            <path id="prefix__Path_2367" d="M1680.709 284.917a5.589 5.589 0 0 1 6.272-1.952c4.094 1.26 4.513 4.758 11.511 4.2s8.676-3.871 9.936-2.215 1.988 11.438 1.988 11.438 14.068-32.078-14.445-32.078c0 0-29.385-1.775-15.261 30.832z" class="prefix__cls-10" data-name="Path 2367" transform="translate(-1604.919 -264.291)"/>
                            <path id="prefix__Path_2368" d="M1520.395 430.671l.038.022c-.033.016-.038-.022-.038-.022z" class="prefix__cls-5" data-name="Path 2368" transform="translate(-1496.415 -379.664)"/>
                            <path id="prefix__Path_2369" d="M1556.386 650a16.043 16.043 0 0 1-9.189 2.939s-5.567-6.135-10.258-12.069c-3.036-3.843-11.45-3.81-12-5.763-1.4-4.965-43.881-25.932-47.088-29.431s35.052 3.5 35.052 3.5 26.586 4.066 30.583 9.289c1.59 2.079 3.957 7.5 6.233 13.269 3.438 8.73 6.667 18.266 6.667 18.266z" class="prefix__cls-10" data-name="Path 2369" transform="translate(-1466.779 -500.339)"/>
                            <g id="prefix__Group_10230" data-name="Group 10230" transform="translate(0 3.504)">
                                <path id="prefix__Path_2373" d="M1467.114 281.46s-4.781-9.785-16.328-3.8-.305 28.527-6.365 34.162 2.2 9.323.966 13.363 2.284 8.635 10.365 8.095 16.59-.1 20.241-7.174 2.821-22.625 1.41-24.812-10.289-19.834-10.289-19.834z" class="prefix__cls-10" data-name="Path 2373" transform="translate(-1442.174 -275.721)"/>
                                <path id="prefix__Path_2374" d="M1540.153 413.8l-19.635-11.849c.109-.043.506-.636 1.974-4.883a23.75 23.75 0 0 0 1.121-4.628c.015-.125.032-.245.043-.365a12.678 12.678 0 0 0 .054-2.854l4.3 1.555 7.956 2.882a9.856 9.856 0 0 0 .62 4.41 3.542 3.542 0 0 0 3.028 2.382z" class="prefix__cls-11" data-name="Path 2374" transform="translate(-1496.5 -354.425)"/>
                                <path id="prefix__Path_2376" d="M1533.711 346.427s-17.082 1.877-17.432-9.674-2.875-16.836 8.944-17.865 14.61 3.228 15.307 7.136c2.176 12.208-2.007 19.885-6.819 20.403z" class="prefix__cls-11" data-name="Path 2376" transform="translate(-1493.24 -305.547)"/>
                                <path id="prefix__Path_2377" d="M1509.03 301.8c-6.044-1.53-3.734 9.179-5.261 8.446-1.708-.82-4.645-.808-4.182 1.255s1.133 2.8 1.481 4.09 0 3.839-1.408 3.325-14.477-15.441-5.247-27.067 36.751-4.464 28.084 7.7c-1.523 2.135-9.163 3.34-13.467 2.251z" class="prefix__cls-10" data-name="Path 2377" transform="translate(-1476.129 -282.816)"/>
                                <path id="prefix__Path_2378" d="M1524.324 482.61a29.408 29.408 0 0 1-13.214 2.6c-5.148-.078-16.081-2.316-23.11-4.852-4.005-1.441-6.744-2.984-6.414-4.278.474-1.865 3.905-16.182 7.075-29.431 2.9-12.114 5.579-23.335 5.579-23.335s8 5.684 12.662 3.679 4.063-4.274 4.063-4.274a56.759 56.759 0 0 1 6.984-.5c2.378.28 10.78 3.343 10.78 3.343s1.1 3.1-1.824 7.946c-2.426 4.011-4.784 4.79-4.784 4.79s6.865 21.642 2.203 44.312z" class="prefix__cls-5" data-name="Path 2378" transform="translate(-1469.486 -377.286)"/>
                                <path id="prefix__Union_8" d="M24.793 42.552c-14.126-1.644-20.2-6.109-22.956-9.163A7.162 7.162 0 0 1 .22 26.84C6.212 3.217 21.407 0 21.407 0c4.247 1.217-3.131 16.363-4.249 19.045a64.293 64.293 0 0 1-4.4 7.494 2.218 2.218 0 0 0 .171 2.733 130.057 130.057 0 0 0 12.754 9.142c.691-.119 5-.8 6.769.358 1.93 1.263 2.5 3.241 1.111 4.048a7.757 7.757 0 0 1-3.95 1.059 9.9 9.9 0 0 1-4.82-1.327z" class="prefix__cls-11" data-name="Union 8" transform="translate(3.547 47.569)"/>
                                <path id="prefix__Path_2382" d="M1486.246 425.847s-8.935.636-16.219 10.348c0 0 2.465 8.935 14.037 11.32 0 0 7.136-16.087 2.182-21.668z" class="prefix__cls-5" data-name="Path 2382" transform="translate(-1461.488 -379.823)"/>
                            </g>
                            <path id="prefix__Path_2383" d="M1624.532 725.263a147.576 147.576 0 0 1-8.6 17.154c-.048.034-.1.068-.143.1-.847-.008-8.146-.168-8.861-3.1 0 0-.235-10.143.168-18.2 1.158 1.119 5.641 4.444 17.436 4.046z" class="prefix__cls-10" data-name="Path 2383" transform="translate(-1556.37 -581.142)"/>
                            <path id="prefix__Path_2384" d="M1690.478 711.158a16.043 16.043 0 0 1-9.188 2.939s-5.567-6.135-10.258-12.069c5.279-2.281 10.853-7.31 12.776-9.135 3.441 8.729 6.67 18.265 6.67 18.265z" class="prefix__cls-10" data-name="Path 2384" transform="translate(-1600.871 -561.498)"/>
                            <path id="prefix__Path_2385" d="M1619.333 792.829a1.68 1.68 0 0 1-1.994 1.332 77.521 77.521 0 0 1-7.782-1.888c-2.327-.846-6.789-3.483-9.115-4.329-.8-.291-2.722-1.067-3.966-1.573a1.387 1.387 0 0 1-.81-1.673 29.341 29.341 0 0 1 2.348-5.855 2.132 2.132 0 0 1 .97-.861 9.034 9.034 0 0 0 5.656 2.044 12.375 12.375 0 0 0 5.1-1.074c.158.324 3.331 6.723 5.578 7.54 2.022.735 4.67 2.666 4.015 6.337z" class="prefix__cls-5" data-name="Path 2385" transform="translate(-1548.572 -620.501)"/>
                            <path id="prefix__Path_2386" d="M1723.822 741.514a1.679 1.679 0 0 1-.741 2.281 77.254 77.254 0 0 1-7.28 3.337c-2.35.777-7.487 1.471-9.837 2.247-.808.267-2.8.848-4.087 1.221a1.387 1.387 0 0 1-1.673-.811 29.4 29.4 0 0 1-1.783-6.051 2.128 2.128 0 0 1 .23-1.277 9.03 9.03 0 0 0 5.7-1.9 12.385 12.385 0 0 0 3.34-4c.325.156 6.779 3.215 9.049 2.465 2.049-.676 5.323-.799 7.082 2.488z" class="prefix__cls-5" data-name="Path 2386" transform="translate(-1619.849 -591.778)"/>
                            <path id="prefix__Path_2387" d="M1522.879 635.056s-1.139 6.6-5.433 9.642c0 0-17.433-2.4-33.664-6.5-11.932-3.018-23.217-6.956-26.444-11.543-7.624-10.82 4.421-25.159 4.421-25.159s26.733.49 46.182 25.2c4.959 2.704 8.266 11.583 14.938 8.36z" class="prefix__cls-12" data-name="Path 2387" transform="translate(-1450.936 -498.117)"/>
                            <path id="prefix__Path_2388" d="M1567.13 742.427s-5.178.421-7.138 2.38-4.927 7.657-2.813 9.916 12.19-2.693 12.47-3.506-2.519-8.79-2.519-8.79z" class="prefix__cls-11" data-name="Path 2388" transform="translate(-1521.417 -595.846)"/>
                            <path id="prefix__Path_2390" d="M1673.483 457.888c-3.484-8.278-26.582-9.2-26.582-9.2-8.035 21.085 2.581 37.7 0 50.154-1.137 5.487-16.413 10.008-17.372 14.019a6.539 6.539 0 0 0-1.395 0s-16.382 6.392-40.732 24.076c0 0-2.547 6.982 2.027 12.7 0 0 41.956-9.261 53.675-16.129h.019l.35-.225q.267-.165.51-.327c38.11-24.756 34.485-63.223 29.5-75.068z" class="prefix__cls-12" data-name="Path 2390" transform="translate(-1542.389 -392.16)"/>
                            <path id="prefix__Path_2513" d="M1729.564 448.691l-8.658 21.705-12.262 14.715-1.962 18.889 14.224-12.508 16.187-5.15 2.207-25.016z" data-name="Path 2513" transform="translate(-1625.592 -392.16)" style="fill:#e2edff"/>
                        </g>
                        <g id="prefix__Group_10234" data-name="Group 10234" transform="translate(0 139.192)">
                            <path id="prefix__Path_2415" d="M1504.2 1481.273a8.352 8.352 0 0 0 5.27 3.989 9.086 9.086 0 0 1 5.464 3.357 2.131 2.131 0 0 1-1.713 3.394H1494.8a2.65 2.65 0 0 1-2.637-2.916c.138-1.365.282-2.954.344-4.174.136-2.661 2.8-4.8 2.8-4.8z" class="prefix__cls-10" data-name="Path 2415" transform="translate(-1438.32 -1246.578)"/>
                            <path id="prefix__Path_2416" d="M1460.8 1195c.769 14.014-1.142 45.865-1.142 45.865s-1.285 3.551-9.4 4.4a24.328 24.328 0 0 1-8.26-.674q-2.456-11.311-4.546-21.587c-10.017-49.145-13.924-79.5-13.924-79.5l39.542-9.192s-1.732 27.745-2.242 46.666c-.161 5.903-.201 10.95-.028 14.022z" class="prefix__cls-12" data-name="Path 2416" transform="translate(-1390.736 -1006.783)"/>
                            <path id="prefix__Path_2418" d="M1349.145 919.409s-15.3-6.964-26.877-.872-4.5 56.382 12.054 61.256 31.013 9.916 14.823-60.384z" class="prefix__cls-10" data-name="Path 2418" transform="translate(-1316.568 -855.426)"/>
                            <path id="prefix__Path_2419" d="M1541.405 984.625a1.812 1.812 0 0 0-.149-.195 25.7 25.7 0 0 1-1.434-3.013c3.078-15.068 1.007-23.781 1.007-23.781.365-4.387 2.985-35.033-3.047-49.23-2.91-6.85-7.784-6.862-7.784-6.862s1.143 10.944.388 16.827c-.692 5.4 4.457 56.008 5.306 64.279h-.029l.243 8.41 2.469-.584a1.762 1.762 0 0 0 .309-.109 1.76 1.76 0 0 0 .752-.658l1.994-3.158a1.779 1.779 0 0 0-.026-1.929zm-4.7-1.364l.1-.062-.052.068c.003.007-.016.004-.043-.007z" class="prefix__cls-11" data-name="Path 2419" transform="translate(-1464.568 -845.375)"/>
                            <path id="prefix__Path_2420" d="M1399.556 1481.273a8.351 8.351 0 0 0 5.27 3.989 9.085 9.085 0 0 1 5.464 3.357 2.131 2.131 0 0 1-1.713 3.394h-18.429a2.651 2.651 0 0 1-2.638-2.916c.137-1.365.281-2.954.344-4.174.136-2.661 2.8-4.8 2.8-4.8z" class="prefix__cls-10" data-name="Path 2420" transform="translate(-1365.752 -1246.578)"/>
                            <path id="prefix__Path_2421" d="M1418.393 718.326c-3.941 0-8.893 1.7-11.549 4.279-2.821 2.742-5.758 2.882-7.848 6.12-2.18 3.375-3.53 6.881-2.435 11.63 1.2 5.187.953 10.2 4.211 14.012 1.613 1.884 4.239 2.1 6.072 3.83 3.363 3.179 7.187 4.186 11.549 4.186 8.223 0 13.34-4.871 17.548-10.941 3.372-4.863 2.7-8.141 3.5-12.3 2.485-13.095-8.441-20.816-21.048-20.816z" class="prefix__cls-14" data-name="Path 2421" transform="translate(-1371.769 -718.326)"/>
                            <path id="prefix__Path_2422" d="M1463.738 841.173l-15.718 8.033-3.149-10.9a33.446 33.446 0 0 0 2.908-9.955 41.592 41.592 0 0 0 .326-8.976l12.805 6.558a24.347 24.347 0 0 0-.51 2.932 21.347 21.347 0 0 0 .221 6.852 9.488 9.488 0 0 0 3.117 5.456z" class="prefix__cls-11" data-name="Path 2422" transform="translate(-1405.537 -788.394)"/>
                            <path id="prefix__Path_2423" d="M1382.162 1145.925s-2.987 39.609-2.322 102.735a24.308 24.308 0 0 0 7.953 2.328c8.119.808 10.1-2.411 10.1-2.411s8.3-30.809 10.378-44.692c1.913-12.8 14.479-58.98 14.479-58.98z" class="prefix__cls-12" data-name="Path 2423" transform="translate(-1360.376 -1014.131)"/>
                            <path id="prefix__Path_2424" d="M1403.394 885.093a50.354 50.354 0 0 0-12.386-3.515c.069 2.26-.524 4.387-4.489 4.905-5.276.688-9.992-2.912-12.381-5.36s-3.72.4-8.056 1.348a50.457 50.457 0 0 0-6.584 1.865c-2.534.932-4.723 2.1-5.892 3.526-4.059 4.981-10.737 19.983-10.737 19.983s11.115 4.121 13.921 6.525l.064.536 1.741 14.448-5.182 28.777a4.328 4.328 0 0 0-.069.752 4.242 4.242 0 0 0 3.248 4.119s.445.074 1.266.188c5.493.772 27.794 3.431 45.278-1.315a8.49 8.49 0 0 0 6.2-8.885l-2.851-35.769c1.521-.261 3.277-.538 4.7-.7a8.831 8.831 0 0 1 2.536-.054s-1.977-27.927-10.327-31.374z" class="prefix__cls-5" data-name="Path 2424" transform="translate(-1334.804 -831.215)"/>
                            <path id="prefix__Path_2427" d="M1380.276 956.047l1.346-7.474c22.793-32.975 24.517-38.891 14.267-53.7a21.84 21.84 0 0 0-10.452-7.49 50.491 50.491 0 0 1 6.585-1.865 24.719 24.719 0 0 1 5.695 3.351c31.283 27.085-17.441 67.178-17.441 67.178z" class="prefix__cls-14" data-name="Path 2427" transform="translate(-1360.745 -834.264)"/>
                            <path id="prefix__Path_2428" d="M1376.393 972.461c-8.924.617-10.159 9.761-10.159 9.761s-14.976 1.359-17.188 2.343c0 0 1.215-3.287 3.375-8.256-1.953-1.92-8.37-4.776-12.62-6.088-3.241 8.268-4.486 16.452-2.668 24.342a1.911 1.911 0 0 0 1.778 1.47c4.767.222 20.516.143 32.048-9.406l.2-.054c2.76-.164 5.352-2.906 6.347-6.511s1.076-2.5 1.838-5.04-2.951-2.561-2.951-2.561z" class="prefix__cls-11" data-name="Path 2428" transform="translate(-1330.248 -892.997)"/>
                            <path id="prefix__Path_2430" d="M1461.312 795.063s-16.09 1.961-16.433-9.374 6.363-18.678 10.84-18.594c8.926.167 10.4 3.775 11.433 7.53s1.567 19.639-5.84 20.438z" class="prefix__cls-11" data-name="Path 2430" transform="translate(-1405.534 -752.143)"/>
                            <path id="prefix__Path_2432" d="M1451.62 765.948s-13.75-.009-10.59 9.432c1.991 5.949-4.631 6.874-4.631 6.874l-3.186-9.536 2-7.43z" class="prefix__cls-14" data-name="Path 2432" transform="translate(-1397.454 -750.891)"/>
                        </g>
                        <g id="prefix__Group_10236" data-name="Group 10236" transform="translate(134.399 40.74)">
                            <path id="prefix__Path_2433" d="M1861.565 596.449c-3.426-5.69-5.553-31.09-8.025-37.893-1.562-4.3-5.747-9.44-5.305-9.759-4.453-2.625-16.5-3.888-16.5-3.888v.026c-.469-.1-.937-.2-1.387-.286-1.445-.291-2.808-1.134-2.971-2.6-.005-.073-.013-.149-.022-.222a45.775 45.775 0 0 1-.2-5.234.292.292 0 0 1 0-.067c.04-2.606.238-4.54.238-4.54l-.048-.006-15.618-2.51c-.213 4.875-.5 8.505-.8 11.212a4.28 4.28 0 0 1-3.991 3.809c-.311.017-.627.036-.94.059s-10.067-.392-13.919.784a6.281 6.281 0 0 0-.979.405c.234.245-37.076 37.639-36.113 41.97s17.334 28.923 23.269 33.454h5.941s-13.169-30.032-13.339-32.466c-.25-3.564 33.112-23.512 33.112-27.148 0-1.322 9.3-1.722 15.384-1.675 6.442.05 18.573-3.315 18.573-3.315s5.245 39.738 11.872 51.525c5.227 9.294 28.312 33.109 28.312 33.109l4.869-4.319s-13.116-26.644-21.413-40.425z" class="prefix__cls-11" data-name="Path 2433" transform="translate(-1754.967 -488.917)"/>
                            <path id="prefix__Path_2434" d="M1839.408 975.248c2.818 27.756-.6 64.1-.6 64.1h-9.563c-14.442-37.983-14.875-61.813-15.7-70.76-.448-4.876-7.03-24.364-12.939-43.108-4.938-15.651-9.4-30.784-9.429-36.455-.064-12.995 12.883-33.838 12.883-33.838s18.6 7.176 30.085 14.266c3.833 2.368 6.765 4.682 7.767 6.645 2.662 5.219 4.634 42.478-2.449 65.238-4.262 13.7-2.08 20.731-2.08 20.731a116.007 116.007 0 0 1 2.025 13.181z" class="prefix__cls-5" data-name="Path 2434" transform="translate(-1780.079 -714.778)"/>
                            <path id="prefix__Path_2436" d="M1858.609 1455.912s-.542 6.238-1.344 7.522-4.171 5.615-8.022 7.059-14.865.7-15.721 4.7h38.823s.535-6-.962-9.947-3.209-9.332-3.209-9.332z" class="prefix__cls-11" data-name="Path 2436" transform="translate(-1809.44 -1131.339)"/>
                            <path id="prefix__Path_2437" d="M2102.613 1447.828s4.34 5.934 5.41 8.286 8.126 12.315 7.272 12.4-19.678 0-19.678 0-1.926-4.7-1.713-7.907-2.566-9.3-2.031-12.778 10.74-.001 10.74-.001z" class="prefix__cls-11" data-name="Path 2437" transform="translate(-1988.541 -1124.662)"/>
                            <path id="prefix__Path_2438" d="M1970.3 1033.953h-10.739s-41.874-60.535-43.314-75.926c-1.8-19.248-15.25-95.222-15.25-95.222l42.955-13.373s3.754 9.654 6.9 19.389c1.371 4.245 2.624 8.505 3.4 11.987 1.72 7.684-3.122 36.721-6.426 57.365-1.633 10.168-2.891 18.3-2.808 20.842.253 7.701 14.371 8.699 25.282 74.938z" class="prefix__cls-5" data-name="Path 2438" transform="translate(-1856.227 -710.787)"/>
                            <path id="prefix__Path_2439" d="M1939.237 543.218c-.023.388-.047.766-.073 1.131.024-.365.049-.743.073-1.131z" class="prefix__cls-5" data-name="Path 2439" transform="translate(-1882.695 -498.448)"/>
                            <path id="prefix__Path_2440" d="M1939.546 537.99c-.02.415-.044.819-.067 1.215l.067-1.215z" class="prefix__cls-5" data-name="Path 2440" transform="translate(-1882.914 -494.822)"/>
                            <path id="prefix__Path_2441" d="M1940.021 529.474c-.013.3-.026.6-.041.9.013-.294.027-.594.039-.9z" class="prefix__cls-5" data-name="Path 2441" transform="translate(-1883.261 -488.917)"/>
                            <path id="prefix__Path_2442" d="M1899.392 674.471c1.4 4.208-18.812 6.668-41.243 6.371a73.276 73.276 0 0 1-17.084-2.113c-10.267-2.655-15.917-7.487-11.408-12.61 1.283-1.457 15.5-21.8 15.5-21.8.839-1.821-.07-7.791-4.412-21.977-1.777-5.8.54-9.41 1.368-11.711a2.32 2.32 0 0 0 .088-1.965 48.248 48.248 0 0 0-7.283-9.173 71.994 71.994 0 0 0-6.092-5.551s8.325-9.073 12.979-11.406c4.795 5.027 15.195 14.033 28.255 14.134 11.268.086 22.215-6.262 28.881-11.077a4.644 4.644 0 0 1 1.185.935c4.164 4.886 5.352 13.7 5.352 13.7s-13.4 7.4-13.161 9.8c.665 6.635 1.292 8.575 1 10.944v.023a16.107 16.107 0 0 1-.692 2.885c-2.286 7.179-7.234 18.267-6 22 .322.97 10.76 22.549 12.767 28.591z" class="prefix__cls-10" data-name="Path 2442" transform="translate(-1805.673 -525.708)"/>
                            <path id="prefix__Path_2443" d="M1876.029 580.791c.217-.065.451-.128.7-.182-.253.057-.49.12-.706.185z" class="prefix__cls-5" data-name="Path 2443" transform="translate(-1838.913 -524.376)"/>
                            <path id="prefix__Path_2444" d="M1993.505 575.322a3.691 3.691 0 0 0 1.2.795 3.68 3.68 0 0 1-1.2-.795z" class="prefix__cls-5" data-name="Path 2444" transform="translate(-1920.377 -520.71)"/>
                            <path id="prefix__Path_2445" d="M1997.423 577.915a5.434 5.434 0 0 0 .517.188 4.4 4.4 0 0 1-.517-.188z" class="prefix__cls-5" data-name="Path 2445" transform="translate(-1923.094 -522.508)"/>
                            <path id="prefix__Path_2446" d="M2161.085 879.81s8.209 2.125 9.332 3.271 4.339 10.048 3.208 10.13c-5.883.428-8.984-2.727-8.984-2.727-3.557-3.914-8.871-4.538-8.606-7.4s5.05-3.274 5.05-3.274z" class="prefix__cls-5" data-name="Path 2446" transform="translate(-2033.074 -731.852)"/>
                            <path id="prefix__Path_2447" d="M1817.487 828.565s-5.944 7.507-5.944 8.871 1.2 7.059 2.646 7.139 1.926-4.652 3.048-5.535 5.134-2.541 5.7-4.078.494-6.4.494-6.4z" class="prefix__cls-5" data-name="Path 2447" transform="translate(-1794.199 -696.317)"/>
                            <g id="prefix__Group_10235" data-name="Group 10235" transform="translate(51.187 14.099)">
                                <path id="prefix__Path_2449" d="M1924.094 473.206s18.249 6.09 21.866-5.333 8.409-18.329-3.089-22.7-15.153-.733-17.288 2.785-6.143 23.369-1.489 25.248z" class="prefix__cls-11" data-name="Path 2449" transform="translate(-1921.937 -443.17)"/>
                            </g>
                            <path id="prefix__Path_2451" d="M1977.218 414.5c-2.043-2.626 4.666-8.041-8.966-14.55-10.339-4.937-13.543 2.542-14.488 6.443-6.148-3.509-16.182-13.616-22.582-7.031-7.663 7.883.649 14.823.649 14.823 2.906 2.117 4.318 1.531 8.566 2.465s1.535 5.849 1.867 7.507a5.317 5.317 0 0 0 7.161 3.317c3.93-1.693 3.477 4.78-.258 6.111-1.064.379-2.17 6.331-.626 6.582 1.3.211 5.979.255 6.455-3.566.282-2.268 3.165-3.453 6.219-5.8 2.115 2.011 5.088 3.037 6.726 2.8 2.414-.346 2.44-2.283 7.612-5.734s3.709-10.743 1.665-13.367z" class="prefix__cls-10" data-name="Path 2451" transform="translate(-1874.91 -397.181)"/>
                        </g>
                        <g id="prefix__Group_10238" data-name="Group 10238" transform="translate(208.171 48.216)">
                            <g id="prefix__Group_10237" data-name="Group 10237" transform="translate(3.302 159.913)">
                                <path id="prefix__Path_2453" d="M2031.256 1119.677l-1.536-164.626s-1.329-11.857-11.671-11.857c-11.038 0-11.671 11.857-11.671 11.857a1.255 1.255 0 0 0 1.292 1.025 1.336 1.336 0 0 0 1.382-1.025s.488-9.141 9-9.141c7.974 0 9 9.141 9 9.141v164.626z" class="prefix__cls-5" data-name="Path 2453" transform="translate(-2006.377 -943.194)"/>
                                <path id="prefix__Path_2454" d="M2069.17 1500.12h6.864l-.611-7.178s.058-1-1.328-1.053c-1.289-.053-3.835-.237-4.076.542-.213.685-.849 7.689-.849 7.689z" class="prefix__cls-5" data-name="Path 2454" transform="translate(-2049.92 -1323.637)"/>
                            </g>
                            <path id="prefix__Path_2455" d="M2010.495 914.737l-.469 2.355a15.085 15.085 0 0 0-14.36 12.429s-.738 5.19 3 4.082 3.16-3.756 8.458-5.208 8.751-2.562 9.555-6.419l.866-4.292z" class="prefix__cls-11" data-name="Path 2455" transform="translate(-1995.606 -763.548)"/>
                            <path id="prefix__Path_2456" d="M2083.391 581.784s-3.081 12.113-5.736 23.189c-1.069 4.461-2.068 8.752-2.774 12.015-.718 3.354-1.127 5.623-.97 5.875 2.309 3.748-1.909 26.6-5.244 34.9-.295.736-.7 1.6-1.188 2.556-4.667 9.147-17.087 27.1-17.087 27.1a15.533 15.533 0 0 1-5.8-.5 7.644 7.644 0 0 1-3.22-3.062c1.111-1.788 5.607-22.909 11.389-34.75 2.474-5.066 6.118-52.067 10.91-58.4 4.002-5.276 19.72-8.923 19.72-8.923z" class="prefix__cls-5" data-name="Path 2456" transform="translate(-2027.345 -532.667)"/>
                            <path id="prefix__Path_2458" d="M2160.688 1447.809s1.185 17.851-2.184 18.1c-.449.034-17.1.034-17.1.034h-21.474s.363-5.244 6.575-6.327 16.61-5.448 20.374-13.66c3.958-8.637 13.809 1.853 13.809 1.853z" class="prefix__cls-10" data-name="Path 2458" transform="translate(-2081.816 -1129.547)"/>
                            <path id="prefix__Path_2459" d="M2266.049 1447.809s1.186 17.851-2.184 18.1c-.449.034-17.1.034-17.1.034h-21.475s.362-5.244 6.574-6.327 16.612-5.448 20.374-13.66c3.962-8.637 13.811 1.853 13.811 1.853z" class="prefix__cls-10" data-name="Path 2459" transform="translate(-2154.877 -1129.547)"/>
                            <path id="prefix__Path_2460" d="M2172.9 1016.616c.531 7.549 1.606 17.255 1.223 26-.538 12.234-.925 22.551-.925 22.551-8.067 2.743-22.865-.584-22.865-.584s-5.25-30.917-9.573-55.6c-1.94-11.058-3.549-20.625-4.151-25.142-1.946-14.6 2.071-92.236 2.071-92.236s21.825-13.989 30.843-6.776 14.566 14.258.036 93.255c-1.101 5.999 2.161 21.625 3.341 38.532z" class="prefix__cls-12" data-name="Path 2460" transform="translate(-2093.014 -741.38)"/>
                            <path id="prefix__Path_2462" d="M2208.905 892.542s1.962 77.715 5.023 92.124 19.047 80.369 19.047 80.369 14.983 1.365 22.814-1.99c0 0-.5-30.548-3.156-48.5-2.482-16.767-6.933-32.1-6.294-38.157 8.416-79.879 2.341-86.479-7.2-92.977s-30.234 9.131-30.234 9.131z" class="prefix__cls-12" data-name="Path 2462" transform="translate(-2143.515 -740.731)"/>
                            <path id="prefix__Path_2463" d="M2302.471 930.344a15.086 15.086 0 0 0 4.787 18.379s4.328 2.96 4.991-.886-.1-2.506.943-7.9-.292-10.971-3.394-13.4z" class="prefix__cls-11" data-name="Path 2463" transform="translate(-2207.46 -771.731)"/>
                            <path id="prefix__Path_2464" d="M2162.777 508s5.992 9.108 4.8 17.608l8.867 21.364 16-24.457a56.156 56.156 0 0 1-11.6-21.739z" class="prefix__cls-11" data-name="Path 2464" transform="translate(-2111.528 -476.496)"/>
                            <path id="prefix__Path_2465" d="M2137.327 470.015s21.821.945 22.218-12.155 6.294-21.814-10.027-22.965c-13.422-.947-17.883 4.65-19.079 8.99s-1.2 25.428 6.888 26.13z" class="prefix__cls-11" data-name="Path 2465" transform="translate(-2088.706 -430.736)"/>
                            <path id="prefix__Path_2466" d="M2171.841 681.195c-4.688.436-11.142.977-18.974 1.469q-2.347.146-4.854.288c-23.644 1.324-33.042-2.5-33.042-2.5s-.629-.506-.428-3.283c1.027-14.3 4.065-18.523 3.7-21.24-.822-6.107-15.64-55.947-15.64-55.947s-.286-15.744 17.224-23.133a41.523 41.523 0 0 1 6-1.993c.767 2.038 2.868 5.441 8.245 4.814a28.109 28.109 0 0 0 16.034-8.016c.439 0 .613.014.613.014a48.055 48.055 0 0 1 1.467 5.195c1.436 6.188 2.276 12.7 6.074 17.566a133.328 133.328 0 0 1 9.692 14.179 118.151 118.151 0 0 1 5.9 11.333c15.496 34.253 3.505 60.736-2.011 61.254z" class="prefix__cls-5" data-name="Path 2466" transform="translate(-2069.799 -525.64)"/>
                            <path id="prefix__Path_2468" d="M2128.449 506.758s-4.249 16.852 2.961 19.226 26.346.472 26.338-20.189c0 0-10.042 5.99-14.84 5.838s-7.894-2.919-12.327-.757c-.001-.001-1.622-.109-2.132-4.118z" class="prefix__cls-10" data-name="Path 2468" transform="translate(-2086.861 -479.973)"/>
                            <path id="prefix__Path_2469" d="M2248.442 571.69s15.254.343 23.313 10.829c6.175 8.035 12.7 51.147 12.7 57.639s-6.952 42.317-10.846 46.209a14.67 14.67 0 0 1-5.882 0 11.894 11.894 0 0 1-5.67-2.754s1.943-39.885 1.943-43.626c0-5.416-16.933-38.572-16.933-38.572s-8.786-15.779 1.375-29.725z" class="prefix__cls-5" data-name="Path 2469" transform="translate(-2167.532 -525.668)"/>
                            <path id="prefix__Path_2470" d="M2170.666 429.8a3.789 3.789 0 0 0-2.015-2.04c-12.289-5.353-21.268.5-21.268.5 7.533-10.111 25.713-7.988 29.542 1.132 6.252 14.891-5.184 17.992-5.184 17.992s-11.421-4.8-4.806-10.814c2.191-1.993 3.25-3.766 3.6-5.308a5.3 5.3 0 0 0 .131-1.462z" class="prefix__cls-10" data-name="Path 2470" transform="translate(-2100.853 -421.568)"/>
                        </g>
                    </g>
                    <g id="prefix__Group_10361" data-name="Group 10361" transform="translate(1294.009 241.293)">
                        <g id="prefix__Group_3621" data-name="Group 3621" transform="translate(4.679 22.469)">
                            <path id="prefix__Path_659-2" d="M459.4 742.608a11.448 11.448 0 0 1-5.894-4.115c-2.37-3.327-2.329-8.814.274-12.007 1.36-1.668 3.192-2.614 4.363-4.527a8.168 8.168 0 0 0 .473-8.052s-4.706-5.8 3.137-10.037c0 0 4.078-1.882 1.725-7.057 0 0-2.039-7.057 5.647-7.371 0 0 8-.784 6.274 8.311-.312 1.65-1.154 2.531-.146 4.309 1.911 3.37 7.085 3.284 6.809 8.15-.153 2.706-2.307 4.886-2.249 7.624.081 3.822 3.549 5.3 5.674 7.878a11.655 11.655 0 0 1 2.37 4.316c1.521 5.662-3.355 9.984-7.751 12.577" data-name="Path 659" transform="translate(-451.781 -689.426)" style="fill:#eaf9fb;stroke:#000;stroke-miterlimit:10;stroke-linecap:round"/>
                            <path id="prefix__Line_55-2" d="M0 27.132L0 0" class="prefix__cls-6" data-name="Line 55" transform="translate(18.918 41.577)"/>
                            <path id="prefix__Line_56-2" d="M0 18.976L0 0" class="prefix__cls-6" data-name="Line 56" transform="translate(18.918 20.718)"/>
                            <path id="prefix__Line_57-2" d="M4.863 4.705L0 0" class="prefix__cls-6" data-name="Line 57" transform="translate(14.055 28.403)"/>
                            <path id="prefix__Line_58-2" d="M0 3.137L3.137 0" class="prefix__cls-6" data-name="Line 58" transform="translate(18.918 20.405)"/>
                            <path id="prefix__Line_59-2" d="M0 6.587L0 0" class="prefix__cls-6" data-name="Line 59" transform="translate(18.448 10.368)"/>
                        </g>
                        <path id="prefix__Line_194-3" d="M92.846 0L0 0" class="prefix__cls-1" data-name="Line 194" transform="translate(-36.255 92.478)"/>
                    </g>
                    <g id="prefix__Group_10364" data-name="Group 10364" transform="translate(638.665 261.172)">
                        <g id="prefix__Group_2390-2" data-name="Group 2390">
                            <path id="prefix__Path_659-3" d="M-400.836 4237.351c7.714-.583 12.5-9.318 10.446-16.95a15.724 15.724 0 0 0-3.194-5.818c-2.863-3.48-7.536-5.466-7.647-10.616-.078-3.69 2.825-6.63 3.031-10.275.373-6.557-6.6-6.443-9.176-10.983-1.359-2.4-.225-3.585.2-5.808 2.325-12.258-8.455-11.2-8.455-11.2-10.358.425-7.611 9.935-7.611 9.935 3.171 6.976-2.326 9.513-2.326 9.513-10.571 5.7-4.228 13.525-4.228 13.525a11.007 11.007 0 0 1-.637 10.852c-1.578 2.577-4.047 3.852-5.88 6.1-3.509 4.3-3.564 11.7-.37 16.18a15.415 15.415 0 0 0 7.943 5.547c3.09.947 27.904-.002 27.904-.002z" class="prefix__cls-5" data-name="Path 659" transform="translate(439.016 -4165.676)"/>
                            <path id="prefix__Line_55-3" d="M0 36.565L0 0" class="prefix__cls-6" data-name="Line 55" transform="translate(25.495 56.034)"/>
                            <path id="prefix__Line_56-3" d="M0 25.574L0 0" class="prefix__cls-6" data-name="Line 56" transform="translate(25.495 27.923)"/>
                            <path id="prefix__Line_57-3" d="M6.554 6.341L0 0" class="prefix__cls-6" data-name="Line 57" transform="translate(18.942 38.279)"/>
                            <path id="prefix__Line_58-3" d="M0 4.227L4.228 0" class="prefix__cls-6" data-name="Line 58" transform="translate(25.495 27.5)"/>
                            <path id="prefix__Line_59-3" d="M0 8.877L0 0" class="prefix__cls-6" data-name="Line 59" transform="translate(24.861 13.973)"/>
                        </g>
                        <path id="prefix__Line_194-4" d="M0 0L89.238 0" class="prefix__cls-1" data-name="Line 194" transform="translate(13.948 92.554)"/>
                    </g>
                </g>
                <path id="prefix__Path_1413-3" d="M-513.023 4087.826c1.279-.7 1.86-.116 2.326-.7s-1.279-2.093 2.209-3.6c0 0 .233-3.256 5-3.371s3.488 3.255 4.766 4.068 1.628-.464 2.907.349.7 2.441 1.744 2.674 2.441-1.046 3.721-.233 1.279 1.512 1.86 1.512 1.744-.464 2.442 0 1.511 1.047 1.511 1.047h-29.415a1.5 1.5 0 0 1 .929-1.746z" class="prefix__cls-3" data-name="Path 1413" transform="translate(1359.025 -3933.873)"/>
            </g>
        </g>
    </g>
</svg>
