<svg width="134" height="134" viewBox="0 0 134 134" fill="none" xmlns="http://www.w3.org/2000/svg">
<mask id="mask0_13794_65656" style="mask-type:alpha" maskUnits="userSpaceOnUse" x="0" y="0" width="134" height="134">
<path fill-rule="evenodd" clip-rule="evenodd" d="M0 67.0001C0 29.997 29.9968 0 67 0C104.003 0 134 29.997 134 67.0001C134 104.003 104.003 134 67 134C29.9968 134 0 104.003 0 67.0001Z" fill="white"/>
</mask>
<g mask="url(#mask0_13794_65656)">
<path d="M-1.18042 137.916H136.376V-3.22266H-1.18042V137.916Z" fill="url(#paint0_linear_13794_65656)"/>
<path fill-rule="evenodd" clip-rule="evenodd" d="M71.676 -4.05722C71.676 -4.05722 25.2795 40.0144 25.2795 57.9034C25.2795 75.7922 65.1523 137.218 68.1697 137.865C71.1872 138.511 98.98 132.623 98.775 129.89C98.5695 127.157 89.2916 76.8699 75.2822 64.5848C75.2822 64.5848 126.578 31.3931 123.561 23.4186C123.561 23.4186 99.1497 -6.31597 71.676 -4.05722Z" fill="#F59080"/>
<path fill-rule="evenodd" clip-rule="evenodd" d="M83.2931 -7.61162C83.2931 -7.61162 31.2016 39.0928 30.3442 57.1713C29.2776 79.6612 74.5828 142.383 74.6627 142.659C74.7425 142.935 74.5828 142.383 74.5828 142.383L97.0797 134.815C97.0797 134.815 87.0741 91.572 71.2699 67.2236C70.3201 65.7603 70.6841 63.8103 72.1096 62.8048C82.256 55.6478 118.661 28.9782 120.795 13.3246C120.795 13.3246 102.596 -9.67157 83.2931 -7.61162Z" fill="#5C429A"/>
<path fill-rule="evenodd" clip-rule="evenodd" d="M92.6313 1.07422C87.7746 7.40915 82.8687 13.7072 77.9307 19.9789C71.0054 28.774 64.2331 38.0279 56.3845 46.0201C55.5546 46.865 54.8925 47.5103 53.7232 47.8972C52.4573 48.3159 51.1109 48.4227 49.8169 48.7438C45.2528 49.8771 44.6725 55.4141 45.0683 59.3124C45.2711 61.3099 45.6042 63.9666 47.4324 65.1679C49.2 66.329 51.6486 65.5884 53.6043 66.2157C54.8115 66.6027 55.9609 67.1689 57.1926 67.4684C59.8408 68.1123 63.6454 67.4993 65.1836 65.0028C66.6707 62.5885 66.2165 59.2284 65.7163 56.6068C63.4556 44.7577 107.702 12.7314 107.703 9.58231C107.704 6.43338 99.5621 1.77705 92.6313 1.07422Z" fill="#F2F2F2"/>
<path fill-rule="evenodd" clip-rule="evenodd" d="M79.6511 137.915C79.6511 137.915 57.1136 84.8199 51.582 81.2229C48.3398 79.1144 43.6854 75.9979 42.3414 72.149C40.4426 66.711 49.3679 68.3586 51.9859 69.1148C54.962 69.9744 58.2356 70.8818 61.0611 69.6124C62.3589 69.0294 63.4534 68.0201 64.8113 67.5953C71.9724 65.3548 65.3069 79.5 64.1645 81.4991C61.399 86.3388 84.4908 122.872 84.9056 134.541C84.9056 134.541 82.9696 137.362 79.6511 137.915Z" fill="#F2F2F2"/>
<path fill-rule="evenodd" clip-rule="evenodd" d="M66.4755 84.0672C65.8138 82.98 66.2266 81.5503 67.3817 81.0157C67.3989 81.0078 67.4163 80.9997 67.434 80.9919C69.1958 80.1991 69.0195 77.8209 70.1646 78.3493C71.3096 78.8778 69.2833 82.4328 70.9802 85.4875C72.6775 88.5422 92.5331 128.933 90.8362 133.006C89.382 136.496 88.8 134.005 88.6632 133.22C88.6365 133.067 88.5944 132.919 88.5355 132.775C87.2329 129.593 72.8018 94.4624 66.4755 84.0672Z" fill="#F2F2F2"/>
<path fill-rule="evenodd" clip-rule="evenodd" d="M38.0266 54.8814C36.8941 55.8237 35.8955 57.3338 35.4388 58.3667C34.4902 60.5115 34.4181 63.0683 35.3872 65.2193C35.8701 66.2907 36.6326 67.2975 37.7135 67.759C39.0265 68.3197 40.7095 67.8925 41.5438 66.7338C41.9194 66.2119 42.1198 65.5861 42.2844 64.9644C42.9408 62.488 43.1198 59.8857 42.8088 57.3427C42.696 56.4185 42.4918 55.4467 41.8513 54.771C41.2588 54.1463 40.3224 53.8703 39.486 54.074C38.9959 54.1932 38.4998 54.4879 38.0266 54.8814Z" fill="#F2F2F2"/>
</g>
<defs>
<linearGradient id="paint0_linear_13794_65656" x1="-60.7631" y1="33.6288" x2="38.4152" y2="196.806" gradientUnits="userSpaceOnUse">
<stop stop-color="#9EB5D7"/>
<stop offset="0.41" stop-color="#C6D1E4"/>
<stop offset="0.79" stop-color="#E4E6EE"/>
<stop offset="1" stop-color="#F0EEF2"/>
</linearGradient>
</defs>
</svg>
