<svg width="134" height="134" viewBox="0 0 134 134" fill="none" xmlns="http://www.w3.org/2000/svg">
<path d="M67 134C104.087 134 134 103.968 134 67.0762C134 30.1843 104.087 0 67 0C29.9134 0 0 30.0319 0 66.9238C0 103.816 30.0661 134 67 134Z" fill="url(#paint0_linear_13794_65655)"/>
<mask id="mask0_13794_65655" style="mask-type:alpha" maskUnits="userSpaceOnUse" x="0" y="0" width="134" height="134">
<path d="M67 134C104.087 134 134 103.968 134 67.0762C134 30.1843 104.087 0 67 0C29.9134 0 0 30.0319 0 66.9238C0 103.816 30.0661 134 67 134Z" fill="url(#paint1_linear_13794_65655)"/>
</mask>
<g mask="url(#mask0_13794_65655)">
<path d="M62.7479 38.2558C61.7354 13.0154 77.7906 7.0167 82.8719 24.8009C87.1797 39.9688 78.5892 44.3853 66.4394 53.4237C66.7852 54.2086 67.1563 54.9873 67.5399 55.7472C73.6714 48.8952 80.174 43.4634 83.4316 39.0344C90.9781 28.8062 85.3182 11.4643 73.6651 13.0154C62.0121 14.5664 51.1074 29.8029 57.7294 52.3772C58.3465 54.4706 59.0835 56.5275 59.9368 58.5379C62.1756 56.6691 64.3389 54.9686 66.4394 53.4237C64.2623 48.6408 63.0102 43.4959 62.7479 38.2558Z" fill="#5C429A"/>
<path d="M73.6345 13.0142C85.2687 11.1891 90.9222 28.8051 83.4009 39.0333C80.1433 43.4622 73.6408 48.9003 67.5092 55.7461C67.1256 54.9861 66.7546 54.2075 66.4087 53.4226C78.5586 44.3841 85.0867 32.6479 82.8412 24.7998C82.8412 24.7998 80.2439 16.8078 76.609 15.3439L73.6345 13.0142Z" fill="#F59080"/>
<path d="M59.8313 58.5974C44.4553 71.6039 45.5747 91.1758 45.5747 91.1758C45.9143 93.954 46.5872 91.3938 48.1594 90.1729C49.7316 88.952 49.9517 89.9487 51.8635 91.1758C53.7752 92.403 53.4357 90.8394 53.4357 90.8394C52.4232 79.6768 56.4102 70.4453 61.8877 62.7274C61.1897 61.3819 60.5231 59.9865 59.9068 58.5352L59.8313 58.5974Z" fill="#F59080"/>
<path d="M90.0248 81.1672C90.0248 81.1672 75.3405 71.2878 67.5111 55.7461C65.5072 57.9682 63.6303 60.2995 61.8889 62.7289C70.2089 78.6942 83.7738 87.3402 84.5284 87.6455C85.4214 87.9756 85.7861 85.3095 85.5346 84.0824C85.2831 82.8553 86.2075 82.9736 88.5658 82.4192C90.9241 81.8648 90.0248 81.1672 90.0248 81.1672Z" fill="#5C429A"/>
<path d="M66.4083 53.4219C64.3268 54.9667 62.1446 56.6423 59.9058 58.536C60.5346 59.9874 61.1635 61.3827 61.8867 62.7282C63.6281 60.2987 65.505 57.9675 67.5089 55.7453C67.1127 54.9729 66.7542 54.2067 66.4083 53.4219Z" fill="#F59080"/>
<path d="M114.313 97.3825C114.161 99.0594 113.55 100.889 112.787 102.413C109.735 108.816 106.682 115.066 103.63 121.469C102.562 123.756 100.425 126.805 99.6619 129.396C99.5093 129.854 99.3566 130.311 99.3566 130.768C99.204 131.835 99.6619 133.207 100.12 134.579C93.5571 138.39 86.2314 140.982 78.4478 142.354C78.6004 140.982 79.0582 139.763 79.5161 138.543C81.6528 130.616 77.3794 122.536 78.9056 114.609C79.6687 110.34 82.1106 106.682 84.5525 103.023C86.9945 99.3643 90.5047 96.3154 93.5571 93.114C94.3202 92.1994 95.3885 91.2847 96.6095 91.2847C97.9831 91.4371 98.8988 92.9616 98.8988 94.3336C98.7462 95.7056 97.9831 97.0776 97.22 98.1448C95.0833 101.041 92.794 103.938 92.3361 107.444C94.3202 105.92 96.4569 104.395 98.4409 102.871C101.646 100.431 105.156 97.6874 106.682 93.8763C108.972 88.0833 107.445 81.3757 109.124 75.4303C109.43 74.2107 109.887 72.8387 111.108 72.5338C112.329 72.0765 113.55 72.8387 114.313 73.9059C114.924 74.973 115.076 76.1925 115.229 77.4121C115.229 83.8148 114.771 90.6749 114.313 97.3825Z" fill="#FCBB7E"/>
<path d="M57.5382 142.508C51.2808 141.594 45.3286 139.917 39.8343 137.478C37.8502 136.563 36.0188 135.648 34.0347 134.581C34.4926 133.209 34.9504 131.837 34.7978 130.77C34.7978 130.313 34.6452 129.855 34.4926 129.398C33.7295 126.806 31.5928 123.758 30.5245 121.471C27.4721 115.068 24.4197 108.818 21.3673 102.415C20.6042 100.891 19.8411 99.0613 19.8411 97.3844C19.3833 90.6768 18.9254 83.8167 19.3833 77.1091C19.5359 75.8895 19.6885 74.67 20.299 73.6028C20.9095 72.5357 22.283 71.9259 23.3514 72.2308C24.5723 72.6882 25.0302 74.0602 25.3354 75.1273C27.0142 81.0727 25.3354 87.7803 27.7773 93.5733C29.3035 97.3844 32.6612 100.128 36.0188 102.568C38.0028 104.092 40.1395 105.616 42.1236 107.141C41.5131 103.635 39.2238 100.738 37.2397 97.8417C36.4766 96.6222 35.5609 95.4026 35.4083 94.0306C35.2557 92.6586 36.324 90.9817 37.6976 90.9817C38.9186 90.8292 39.9869 91.8964 40.75 92.811C43.6498 96.0124 47.16 99.2138 49.7545 102.72C52.1965 106.379 54.6384 110.037 55.4015 114.306C56.3172 119.032 54.791 124.215 54.6384 129.093C54.6384 133.667 57.0803 138.087 57.5382 142.508Z" fill="#FCBB7E"/>
</g>
<defs>
<linearGradient id="paint0_linear_13794_65655" x1="37.9768" y1="4.35462" x2="96.0161" y2="129.632" gradientUnits="userSpaceOnUse">
<stop stop-color="#9FB5D6"/>
<stop offset="0.05" stop-color="#A5BAD9"/>
<stop offset="0.31" stop-color="#C6D0E4"/>
<stop offset="0.56" stop-color="#DDE1EC"/>
<stop offset="0.8" stop-color="#EBEAEF"/>
<stop offset="1" stop-color="#F1EEF1"/>
</linearGradient>
<linearGradient id="paint1_linear_13794_65655" x1="37.9768" y1="4.35462" x2="96.0161" y2="129.632" gradientUnits="userSpaceOnUse">
<stop stop-color="#9FB5D6"/>
<stop offset="0.05" stop-color="#A5BAD9"/>
<stop offset="0.31" stop-color="#C6D0E4"/>
<stop offset="0.56" stop-color="#DDE1EC"/>
<stop offset="0.8" stop-color="#EBEAEF"/>
<stop offset="1" stop-color="#F1EEF1"/>
</linearGradient>
</defs>
</svg>
