<svg width="134" height="134" viewBox="0 0 134 134" fill="none" xmlns="http://www.w3.org/2000/svg">
<g clip-path="url(#clip0_2689_2189)">
<mask id="mask0_2689_2189" style="mask-type:alpha" maskUnits="userSpaceOnUse" x="0" y="0" width="134" height="134">
<path fill-rule="evenodd" clip-rule="evenodd" d="M0 67.0001C0 29.997 29.9968 0 67 0C104.003 0 134 29.997 134 67.0001C134 104.003 104.003 134 67 134C29.9968 134 0 104.003 0 67.0001Z" fill="white"/>
</mask>
<g mask="url(#mask0_2689_2189)">
<path d="M-1.18066 137.916H136.376V-3.22266H-1.18066V137.916Z" fill="url(#paint0_linear_2689_2189)"/>
</g>
<path d="M92.3688 18.486L92.0472 102.879C92.0427 104.045 91.2193 105.047 90.0768 105.277L67.0223 109.921C65.5296 110.222 64.1259 109.106 64.0828 107.584L61.5332 17.5251C61.4928 16.1041 62.6639 14.9461 64.0843 15.0019L90.01 16.023C91.3311 16.0749 92.3737 17.1637 92.3688 18.486Z" fill="#9CA9AF"/>
<path d="M81.6539 74.394C81.7204 85.2983 81.7869 96.2022 81.8534 107.106L74.0709 108.802C74.0709 108.802 73.8598 73.0547 74.0627 73.1134C76.0598 74.4405 78.4736 75.0555 81.6539 74.394Z" fill="white"/>
<path d="M80.1897 75.7251C80.4145 79.0217 80.6386 82.3463 80.1818 85.6189C80.0871 86.2986 79.9574 86.9898 79.6142 87.5838C79.271 88.1782 78.6749 88.6659 77.9901 88.7096C77.1148 88.7655 76.3291 88.0807 75.9829 87.275C75.637 86.4693 75.6349 85.5636 75.6382 84.6869C75.6507 81.5296 75.6634 78.3721 75.6759 75.2148C77.0185 75.5346 78.4001 75.6871 80.1897 75.7251Z" fill="black"/>
<path d="M74.1866 45.499C70.7126 47.6914 68.0589 51.1518 66.8423 55.0755C65.6257 58.999 65.8565 63.3537 67.4807 67.1268C68.6417 69.8243 70.5143 72.2344 72.9339 73.8981C77.5613 77.0802 84.0647 77.1725 88.8701 74.2662C93.6755 71.3598 96.5986 65.6667 96.3316 60.0568C96.065 54.4472 92.6945 49.1231 87.8235 46.3278C84.1291 44.208 78.9644 42.4836 74.1866 45.499Z" fill="white"/>
<path d="M86.2802 71.595C91.3219 71.595 95.409 66.707 95.409 60.6774C95.409 54.6477 91.3219 49.7598 86.2802 49.7598C81.2385 49.7598 77.1514 54.6477 77.1514 60.6774C77.1514 66.707 81.2385 71.595 86.2802 71.595Z" fill="#24302D"/>
<path d="M78.7061 50.0254C79.0134 50.0254 79.7793 50.1909 80.059 50.3242C80.2658 50.4229 80.1984 50.6313 80.066 50.818C79.0805 52.2093 76.1532 56.3344 76.3257 61.4651C76.4487 65.1201 77.9316 69.1708 80.4128 71.8558C80.5231 71.9751 80.4344 72.1664 80.2722 72.1552L79.2949 72.0872" stroke="#262D30" stroke-width="2" stroke-miterlimit="10" stroke-linecap="round" stroke-linejoin="round"/>
<path d="M93.2613 51.5352C95.4391 53.9781 96.7265 57.1979 96.8334 60.469C96.9403 63.7398 95.8655 67.0371 93.852 69.6167C93.455 70.1251 93.0113 70.6161 92.444 70.9229C91.8767 71.2296 91.163 71.3271 90.5869 71.0374" stroke="#262D30" stroke-width="2" stroke-miterlimit="10" stroke-linecap="round" stroke-linejoin="round"/>
<path d="M100.905 56.4236C98.8459 55.1976 96.9794 53.6481 95.3956 51.849C95.2031 51.6304 95.0072 51.402 94.7466 51.2717C94.4857 51.1414 94.1389 51.1347 93.9297 51.3373C93.7201 51.5399 93.3933 51.8509 93.3387 52.1755C93.2843 52.5002 93.2126 53.7435 93.3132 53.9771C93.4137 54.2103 93.6664 54.3315 93.896 54.4411C95.2073 55.067 96.396 55.9477 97.3766 57.0201C97.7432 57.421 98.7463 58.4156 99.2538 58.6096C99.7616 58.804 99.8214 58.0639 100.905 56.4236Z" fill="#946867"/>
<path d="M83.5756 46.1607C83.6822 44.8697 83.7906 43.5678 84.1571 42.3254C84.5237 41.0826 85.1718 39.8879 86.1874 39.0831C87.5182 38.0283 89.2605 37.7784 90.9994 37.6994C91.666 37.6691 92.2519 38.1371 92.3612 38.7955L92.5926 40.1895C92.6807 40.7203 93.1235 41.1215 93.6604 41.1561C97.0549 41.3754 100.451 41.5622 103.849 41.7161C105.105 41.7732 106.216 40.9007 106.461 39.6677C107.01 36.9135 107.238 34.0952 107.137 31.2884C106.965 26.4784 103.515 25.9694 101.593 25.5121C99.6247 25.0438 95.6831 25.1701 93.6604 25.1261C89.5095 25.0359 86.0391 25.0362 82.2296 26.9297C78.8932 28.5882 77.515 31.0552 76.2859 34.5726C75.0571 38.09 74.7723 41.8571 74.5479 45.5761C77.3485 46.2309 80.265 46.3852 83.5756 46.1607Z" fill="white"/>
<path d="M77.9937 45.6178C77.8741 40.8987 78.4125 34.856 83.3777 32.732C84.9113 32.0769 86.5993 31.9457 88.2368 31.8521C89.874 31.7553 91.5125 31.6705 93.1561 31.6475C93.9922 31.6502 94.8043 31.6137 95.6406 31.7668C96.6805 32.0089 97.5573 32.8683 97.7896 33.9009C97.9415 34.2565 98.2734 34.474 98.6694 34.4658L99.282 34.5001C101.736 34.6243 104.194 34.5988 106.647 34.4345C104.201 34.692 101.733 34.7777 99.2738 34.6917L98.6585 34.6677C98.2187 34.6938 97.7589 34.4068 97.5858 33.9923C97.3438 33.0132 96.5545 32.2545 95.579 32.0219C94.8012 31.8846 93.9576 31.9199 93.1597 31.9235C91.5252 31.9554 89.8895 32.0502 88.2553 32.1546C85.8574 32.2506 83.2793 32.5607 81.4553 34.2687C78.3387 37.1268 78.0973 41.6509 77.9937 45.6178Z" fill="#609C96"/>
<path d="M94.2051 34.8937C94.2051 33.9817 94.7596 33.2422 95.4436 33.2422C96.1278 33.2422 96.682 33.9817 96.682 34.8937C96.682 35.8057 96.1275 36.5452 95.4436 36.5452C94.7596 36.5452 94.2051 35.8057 94.2051 34.8937Z" stroke="#609C96" stroke-miterlimit="10"/>
<path d="M94.0627 59.3155C94.0569 53.3594 93.9686 47.4033 93.7976 41.4496C93.7827 40.9349 93.7575 40.3885 93.4675 39.963C92.9976 39.2736 92.0425 39.1655 91.2095 39.1221C90.0785 39.0635 88.9333 39.0058 87.8235 39.2323C86.7141 39.4589 85.4887 39.7659 84.8403 40.6943C84.1658 41.6601 83.4503 43.0434 83.3759 44.219C83.0516 49.3451 82.0943 51.8658 82.6428 61.9543C82.6744 62.5332 84.0607 60.9187 84.4182 61.3749C84.8342 61.9052 85.5643 62.0485 86.2297 62.1551C87.8099 62.4081 89.4404 62.6598 90.9947 62.2796C92.5491 61.8991 94.0639 60.7216 94.0627 59.3155Z" fill="#B5EBE6"/>
<path d="M96.4764 61.2747C92.1062 60.5564 87.5963 59.2305 83.2707 60.1804C82.1294 60.431 80.6125 60.7723 79.6273 61.3803C79.1316 61.6862 78.9509 66.0524 79.2179 66.3482C80.0063 67.2223 91.0007 67.969 94.8276 67.9059C96.1915 67.8834 97.7045 67.7972 98.6624 66.8259C99.7439 65.7296 99.6245 63.7941 98.6326 62.6158C97.8282 61.66 96.532 61.1422 96.4764 61.2747Z" fill="#B5EBE6"/>
<path d="M91.6085 58.2138C92.5459 58.2138 93.3059 57.3923 93.3059 56.3789C93.3059 55.3655 92.5459 54.5439 91.6085 54.5439C90.6711 54.5439 89.9111 55.3655 89.9111 56.3789C89.9111 57.3923 90.6711 58.2138 91.6085 58.2138Z" fill="#24302D"/>
<path d="M87.7935 55.5783C91.2416 55.4095 95.3962 55.2373 98.8732 55.0587C99.2498 55.0392 99.5857 55.2874 99.6817 55.6521C99.7023 55.7308 99.7236 55.8109 99.7446 55.8905C99.8469 56.2789 99.5705 56.6658 99.1694 56.6898C95.5113 56.9082 91.5751 56.9875 87.959 57.2268C87.9717 56.7849 87.5217 56.2653 87.7935 55.5783Z" fill="#262D30"/>
<path d="M88.2721 58.749C91.5861 59.176 94.9107 59.5204 98.2416 59.7819C98.565 59.8074 98.798 60.1014 98.7476 60.4218L98.6887 60.7956C98.6237 61.2084 98.2395 61.4926 97.8259 61.4337L87.8555 60.0182C88.0049 59.6097 88.154 59.2009 88.2721 58.749Z" fill="#262D30"/>
<path d="M88.6361 55.7028C88.5064 56.6236 88.5307 58.1166 88.7074 59.0298C88.7557 59.2788 88.8074 59.564 88.651 59.7639C88.4627 60.0047 88.1568 60.0721 87.8559 60.018C87.6764 59.9215 87.4395 57.5584 87.3994 56.172C87.5892 56.1902 88.0545 55.2467 88.6361 55.7028Z" fill="#262D30"/>
<path d="M84.5654 50.2054C84.5654 49.3945 84.9967 48.7373 85.5288 48.7373C86.0608 48.7373 86.4921 49.3945 86.4921 50.2054C86.4921 51.0159 86.0608 51.6731 85.5288 51.6731C84.9967 51.6731 84.5654 51.0159 84.5654 50.2054Z" stroke="#6CB8B0" stroke-miterlimit="10"/>
<path d="M84.5654 45.112C84.5654 44.4794 84.9967 43.9668 85.5288 43.9668C86.0608 43.9668 86.4921 44.4794 86.4921 45.112C86.4921 45.7446 86.0608 46.2573 85.5288 46.2573C84.9967 46.2573 84.5654 45.7443 84.5654 45.112Z" stroke="#6CB8B0" stroke-miterlimit="10"/>
<path d="M87.8554 42.9629L87.7871 57.1039" stroke="#262D30" stroke-width="2" stroke-miterlimit="10" stroke-linecap="round" stroke-linejoin="round"/>
<path d="M82.9014 60.1807C83.7049 60.3693 84.3658 61.1309 84.4353 61.9539C83.95 61.2831 83.4969 60.7565 82.9014 60.1807Z" fill="#7EBDB6"/>
<path d="M85.0537 62.039C86.0547 61.8346 87.0608 61.8364 88.0603 62.0496C87.0596 62.2555 86.0535 62.2504 85.0537 62.039Z" fill="#7EBDB6"/>
<path d="M91.896 39.1994C90.8267 39.1714 89.7258 39.162 88.6737 39.2741C88.555 39.2929 88.4505 39.3302 88.3943 39.3925C88.2474 39.4906 88.3388 40.2845 88.3224 40.4788C88.3287 41.0218 88.3154 41.5661 88.2826 42.1109C88.1538 41.2946 88.0739 40.4967 88.0238 39.6707C88.0199 39.5273 88.0439 39.3351 88.1763 39.1918C88.3063 39.0505 88.4776 39.0019 88.6227 38.9752C89.7333 38.8653 90.8215 38.933 91.896 39.1994Z" fill="#7EBDB6"/>
<path d="M85.3877 105.838C88.0675 106.32 91.413 106.924 93.7554 108.005C94.8569 108.513 96.4766 109.374 96.3405 110.579C96.2093 111.743 94.4779 113.017 93.3916 113.456C88.1182 115.587 78.4266 115.519 71.6232 114.868C68.917 114.609 62.5056 113.912 60.3232 112.29L85.3877 105.838Z" fill="white"/>
<path d="M71.0664 108.293C75.8748 107.021 80.7461 105.986 85.656 105.191L87.3115 109.387L73.8443 112.29L71.5141 111.714L71.0664 108.293Z" fill="black"/>
<path d="M71.2549 108.309C72.2528 109.434 73.1181 110.631 73.8706 111.934C72.7885 110.891 71.9054 109.664 71.2549 108.309Z" fill="#1D5245"/>
<path d="M107.142 104.058C106.078 109.087 105.926 114.308 106.696 119.391C106.791 120.015 106.833 120.793 106.298 121.127C106.029 121.295 105.691 121.288 105.374 121.276C102.657 121.172 99.9397 121.068 97.2228 120.964C96.9565 120.953 96.6431 120.916 96.5146 120.682C96.3862 120.449 96.7557 120.054 97.0172 120.127C96.8095 119.75 97.1925 119.755 97.1882 119.746C97.1806 119.73 97.033 119.666 97.0288 119.584C97.0437 119.334 97.2295 119.373 97.3209 119.387C97.1569 119.331 97.105 119.283 97.1572 119.168C97.1894 119.097 97.3218 119.057 97.4913 119.124C97.03 118.733 98.2691 118.659 98.8765 118.55C100.06 118.336 101.574 117.888 102.324 116.948C103.002 116.099 102.972 114.901 102.868 113.819C102.591 110.916 102.028 108.041 101.189 105.248C101.072 104.859 100.999 104.337 101.354 104.14C101.532 104.041 101.751 104.075 101.951 104.107C103.63 104.379 105.353 104.374 107.142 104.058Z" fill="#946867"/>
<path d="M110.174 103.954C109.847 104.022 109.601 104.31 109.49 104.625C109.378 104.94 109.378 105.281 109.378 105.616C109.382 107.467 109.385 109.318 109.388 111.17C109.393 113.858 109.176 116.071 109.733 118.701C109.825 119.135 108.933 119.305 108.733 119.701C108.51 120.146 106.967 121.149 106.472 121.201C105.661 121.287 107.01 121.058 106.472 120.445C105.856 119.745 105.811 118.726 105.797 117.793C105.755 114.96 105.713 112.127 105.671 109.293C105.648 107.805 105.637 106.264 106.234 104.901C106.367 104.597 106.535 104.299 106.792 104.089C107.387 103.601 108.254 103.718 110.174 103.954Z" fill="#946867"/>
<path d="M106.9 104.105C106.554 109.515 106.573 114.963 106.939 120.372C106.163 114.992 106.147 109.489 106.9 104.105Z" fill="#5C3D3B"/>
<path d="M96.9707 120.101C97.1283 119.89 97.3257 119.882 97.4967 120.084C97.3394 120.297 97.1423 120.302 96.9707 120.101Z" fill="#5C3D3B"/>
<path d="M97.1807 119.672C97.3668 119.48 97.57 119.495 97.7237 119.715C97.5375 119.908 97.3346 119.891 97.1807 119.672Z" fill="#5C3D3B"/>
<path d="M97.1895 119.356C97.4057 119.155 97.6335 119.16 97.8382 119.374C97.6222 119.576 97.3944 119.569 97.1895 119.356Z" fill="#5C3D3B"/>
<path d="M97.418 119.007C97.5686 118.81 97.739 118.818 97.865 119.033C97.7147 119.231 97.5443 119.22 97.418 119.007Z" fill="#5C3D3B"/>
<path d="M99.2495 42.206C98.7912 44.382 99.0427 46.2668 98.9558 48.563C98.9188 49.5431 99.0895 50.7782 99.9304 51.2665C100.617 51.6653 101.471 51.6428 102.251 51.4691C103.671 51.1527 105.092 50.8362 106.513 50.5198C107.277 50.3497 108.086 50.1553 108.639 49.5965C109.397 48.8306 109.446 47.6103 109.25 46.5556C108.856 44.4303 107.604 42.4396 105.736 41.3773C103.868 40.3146 101.39 40.2909 99.2495 42.206Z" fill="#946867"/>
<path d="M102.969 49.0361C103.784 50.7753 103.981 52.8053 103.537 54.6247C105.744 55.2682 106.52 56.541 108.87 54.8239C107.728 53.3786 108.04 49.9314 108.455 48.1201C107.314 48.7652 106.517 49.0285 105.376 49.6735C104.918 49.9326 104.304 50.1801 102.969 49.0361Z" fill="#946867"/>
<path d="M108.07 53.335C110.211 55.9729 111.024 62.6603 109.689 65.7844C109.155 64.416 108.342 60.1958 107.582 58.9388C106.823 57.6818 105.822 56.5374 104.542 55.8174C104.224 55.6388 103.883 55.4809 103.642 55.2085C103.4 54.936 103.287 54.5048 103.496 54.2066C103.647 53.9922 103.916 53.902 104.169 53.8309C105.192 53.5424 106.243 53.3495 108.07 53.335Z" fill="#946867"/>
<path d="M100.554 45.555C100.514 45.4372 100.389 45.3749 100.277 45.4159C100.164 45.4569 100.105 45.586 100.146 45.7038C100.186 45.8217 100.311 45.8839 100.424 45.8429C100.536 45.8019 100.595 45.6732 100.554 45.555Z" fill="black"/>
<path opacity="0.2784" d="M102.839 46.9605C102.814 46.5198 102.331 46.1942 101.76 46.2337C101.19 46.2729 100.748 46.6619 100.774 47.1026C100.799 47.5433 101.282 47.8688 101.853 47.8296C102.423 47.7902 102.865 47.4011 102.839 46.9605Z" fill="#E9555B"/>
<path d="M101.333 45.1226C100.731 44.8022 100.177 44.6297 99.499 44.5507C100.024 43.9463 101.241 44.329 101.333 45.1226Z" fill="#262D30"/>
<path d="M99.2988 41.8838C99.5855 41.2706 100.168 40.836 100.797 40.5855C101.426 40.3349 102.106 40.2466 102.777 40.1603C103.963 40.0081 105.197 39.8602 106.33 40.2408C107.926 40.7768 109.021 42.2731 109.649 43.835C110.175 45.1461 110.446 46.6151 110.069 47.9769C109.693 49.3386 108.558 50.5473 107.154 50.7044C106.94 50.7284 106.71 50.7244 106.53 50.6066C106.147 50.3557 106.214 49.7911 106.257 49.3353C106.426 47.5486 105.492 45.7972 104.187 44.566C102.881 43.3348 101.234 42.5386 99.2988 41.8838Z" fill="#262D30"/>
<path d="M99.5734 41.4873C99.3972 42.1166 99.5983 42.7908 100.105 43.2035C101.527 44.3621 103.316 45.0642 105.147 45.1827C103.962 43.2542 102.27 41.7746 99.5734 41.4873Z" fill="#262D30"/>
<path d="M105.838 40.2794C106.181 39.9587 106.757 40.1476 107.105 40.4628C107.453 40.7781 107.712 41.2051 108.13 41.4192C108.522 41.6199 109.069 41.6561 109.244 42.0603C109.354 42.3142 109.26 42.6191 109.361 42.8766C109.545 43.344 110.279 43.4585 110.36 43.9538C110.406 44.2381 110.2 44.5117 110.218 44.7993C110.244 45.2327 110.75 45.4991 110.835 45.9251C110.925 46.3758 110.511 46.8207 110.619 47.2675C110.71 47.6392 111.147 47.9241 111.06 48.2967C110.97 48.6839 110.393 48.762 110.246 49.1313C110.15 49.3718 110.273 49.6369 110.368 49.8775C110.463 50.1183 110.517 50.429 110.327 50.6054C110.098 50.8198 109.697 50.6643 109.429 50.8277C109.106 51.0239 109.087 51.6046 108.713 51.658C108.339 51.7115 108.173 51.1673 107.826 51.02C107.442 50.8575 106.976 51.2313 106.602 51.0497C106.296 50.9018 106.254 50.4924 106.253 50.1532C106.252 49.3217 106.249 48.4902 106.202 47.5405C106.583 47.4245 106.691 46.9434 106.719 46.5456C106.856 44.5515 106.607 42.531 105.838 40.2794Z" fill="#262D30"/>
<path d="M99.8054 41.2588C99.2557 41.7335 98.7735 42.6285 98.6189 43.3385C98.464 44.0482 98.6656 44.3304 98.9681 44.9909C99.1428 43.3753 99.4434 42.6546 99.8054 41.2588Z" fill="#262D30"/>
<path d="M104.528 45.6481C104.751 45.2387 105.411 45.0249 105.697 45.1649C105.984 45.3046 106.188 45.5692 106.314 45.8565C106.479 46.2306 106.523 46.6755 106.343 47.0512C106.163 47.4272 105.727 47.7014 105.316 47.6231C105.096 46.8538 104.624 46.5 104.528 45.6481Z" fill="#946867"/>
<path d="M105.429 45.6387C105.799 45.4853 106.229 45.8758 106.12 46.2597C105.796 46.038 105.689 45.9308 105.429 45.6387Z" fill="#5C3D3B"/>
<path d="M105.782 45.8223C106.025 46.0983 105.899 46.5606 105.545 46.6687C105.543 46.2997 105.589 46.1363 105.782 45.8223Z" fill="#5C3D3B"/>
<path d="M105.524 47.7119C105.676 47.7119 105.799 47.5843 105.799 47.4268C105.799 47.2693 105.676 47.1416 105.524 47.1416C105.372 47.1416 105.249 47.2693 105.249 47.4268C105.249 47.5843 105.372 47.7119 105.524 47.7119Z" fill="#EFEED9"/>
<path d="M106.298 47.127C106.302 47.7189 105.573 48.1951 105.034 47.9451C105.56 47.7198 105.876 47.5142 106.298 47.127Z" fill="#5C3D3B"/>
<path d="M105.043 50.2109C104.819 50.7713 104.244 51.1731 103.637 51.1612C104.102 50.7667 104.5 50.4885 105.043 50.2109Z" fill="#5C3D3B"/>
<path d="M101.294 48.7568C101.422 49.4909 100.256 49.9416 99.8936 49.2701C100.442 49.4593 100.978 49.2279 101.294 48.7568Z" fill="#5C3D3B"/>
<path d="M99.1053 45.5381C99.0622 46.2381 98.8396 46.9278 98.4618 47.5322C98.3968 47.636 98.3245 47.756 98.3655 47.8705C98.398 47.961 98.493 48.0181 98.5872 48.0536C98.852 48.1541 99.1636 48.1396 99.4169 48.015C99.405 47.2124 99.3358 46.4103 99.1053 45.5381Z" fill="#946867"/>
<path d="M109.024 71.9952C110.071 69.1532 110.226 65.9893 109.46 63.0589C108.694 60.1285 107.011 57.4448 104.707 55.4786C104.271 55.1063 103.774 54.7443 103.202 54.7139C102.592 54.6814 102.013 55.0465 101.644 55.5327C101.275 56.0189 101.083 56.6145 100.924 57.2039C100.246 59.7255 100.076 62.3519 99.9084 64.9576C99.7754 67.0304 99.6518 69.1751 100.373 71.1227C100.659 71.8935 101.117 72.6594 101.861 73.0108C102.406 73.2683 103.034 73.2701 103.636 73.2313C105.366 73.1192 107.075 72.7074 109.024 71.9952Z" fill="#EFEED9"/>
<path d="M108.735 70.3883C109.835 73.6627 110.943 76.9752 111.244 80.416C111.534 83.7318 111.066 87.0612 110.962 90.3879C110.822 94.8915 111.356 99.4156 112.54 103.763C109.475 105.027 106.076 105.139 102.762 105.234C100.703 105.292 98.6446 105.351 96.5862 105.409C96.2743 105.418 95.9423 105.422 95.6757 105.26C95.1849 104.962 95.1463 104.277 95.1646 103.703C95.3322 98.4086 95.4995 93.1136 95.6669 87.819C95.734 85.6964 95.8023 83.5624 96.2208 81.4802C96.9931 77.636 98.9195 74.1365 100.82 70.7069C100.945 70.4806 101.089 70.2373 101.332 70.1462C101.594 70.0481 101.883 70.1593 102.14 70.2695C103.484 70.845 104.828 71.4202 108.735 70.3883Z" fill="#FCBB7F"/>
<path d="M92.88 81.1875C91.9789 82.6228 91.7125 84.4407 92.1635 86.074C92.2419 86.3582 92.3479 86.6477 92.5602 86.8521C92.7724 87.0564 93.1178 87.1491 93.3689 86.9951C93.3862 87.2065 93.5681 87.3923 93.7792 87.4142C93.99 87.4361 94.2065 87.2918 94.2672 87.0889C94.3444 87.2539 94.5521 87.3447 94.7252 87.2891C94.8986 87.2338 95.0149 87.0391 94.9821 86.8603C95.2193 86.9274 95.4547 86.6975 95.4975 86.4545C95.5404 86.2116 95.4529 85.9677 95.3855 85.7305C95.0517 84.5582 95.202 83.256 95.7936 82.1906C95.2509 82.0846 94.7292 81.8723 92.88 81.1875Z" fill="#946867"/>
<path d="M95.0091 86.7958C94.5633 86.2965 94.4248 85.5485 94.6666 84.9238C94.8527 85.5722 94.952 86.1237 95.0091 86.7958Z" fill="#5C3D3B"/>
<path d="M94.3082 87.1309C93.8101 86.7036 93.6221 85.9467 93.866 85.3369C94.0558 85.9698 94.1806 86.4828 94.3082 87.1309Z" fill="#5C3D3B"/>
<path d="M93.3067 86.9786C92.9119 86.5125 92.8241 85.8212 93.0941 85.2725C93.2502 85.8683 93.3104 86.3627 93.3067 86.9786Z" fill="#5C3D3B"/>
<path d="M103.604 72.1501C104.713 68.1012 104.978 63.8762 105.237 59.6864C105.293 58.7759 105.348 57.8478 105.124 56.9634C104.9 56.079 104.347 55.2293 103.504 54.881C102.539 54.4822 101.389 54.8287 100.592 55.5038C99.7957 56.179 99.2906 57.1308 98.8627 58.0831C97.1693 61.8532 96.404 65.9598 95.4643 69.9847C94.525 74.0096 93.3594 78.077 91 81.4706C92.6801 82.771 94.4776 83.9193 96.3636 84.8969C96.7739 85.1095 97.2425 85.3193 97.6829 85.179C98.0916 85.0487 98.3495 84.6554 98.5687 84.2864C100.825 80.4845 102.458 76.3357 103.604 72.1501Z" fill="#FCBB7F"/>
<path d="M102.763 55.9521C104.858 57.6316 104.9 60.8924 104.904 63.3645C104.845 66.0227 104.414 68.6573 103.852 71.2506C102.978 75.1315 101.762 78.9496 100.074 82.5557C99.5007 83.766 98.8684 84.9537 98.104 86.0567C97.6628 85.897 97.3041 85.5982 96.9339 85.3245C96.5773 85.0606 96.2314 84.77 95.8145 84.6066C96.652 84.9042 97.2746 85.6501 98.1007 85.9523L98.0451 85.9714C101.517 80.9668 107.98 60.398 102.763 55.9521Z" fill="#FCBB7F"/>
<path d="M103.634 72.769C105.453 72.8863 107.191 72.5446 108.832 71.752C107.433 72.9185 105.369 73.3205 103.634 72.769Z" fill="#FCBB7F"/>
<path d="M105.821 62.0273C106.159 64.6039 106.991 67.1073 108.325 69.3392C108.488 69.6213 108.741 70.0167 108.914 70.2903C106.913 68.0539 105.775 65.0285 105.821 62.0273Z" fill="#FCBB7F"/>
<path d="M107.041 62.8525C107.396 64.457 107.968 65.9168 108.792 67.3385C107.626 66.1868 106.966 64.4892 107.041 62.8525Z" fill="#FCBB7F"/>
<path d="M107.485 73.5928C108.189 75.6764 108.956 77.6833 109.817 79.7071C108.587 77.8895 107.779 75.7679 107.485 73.5928Z" fill="#FCBB7F"/>
<path d="M106.093 74.0186C106.404 75.4013 106.662 76.7379 106.88 78.1382C106.26 76.8678 105.986 75.428 106.093 74.0186Z" fill="#FCBB7F"/>
<path d="M97.2127 87.5332C97.3885 90.0961 97.4541 92.6617 97.5239 95.2286C97.571 97.7891 97.5206 100.367 98.0967 102.875C97.2795 100.422 97.298 97.7894 97.2206 95.235C97.1838 92.6675 97.1431 90.101 97.2127 87.5332Z" fill="#FCBB7F"/>
<path d="M108.913 91.4961C109.006 95.7038 108.703 99.948 108.022 104.102C108.282 100.039 108.601 95.5547 108.913 91.4961Z" fill="#FCBB7F"/>
<path d="M65.7874 71.2978C65.7353 71.2255 65.9042 68.5551 65.1965 68.1866C64.7285 67.943 64.2268 67.7858 63.7029 67.7132C56.6897 66.7411 49.6768 65.7687 42.6637 64.7966C42.0807 64.7159 41.4546 64.6418 40.931 64.9068C40.4015 65.1749 40.0875 65.7494 39.9893 66.3287C39.8908 66.9079 39.9766 67.5004 40.0621 68.0815C47.8464 70.0265 55.8587 71.2806 65.7874 71.2978Z" fill="#262D30"/>
<path opacity="0.5216" d="M43.8578 28.0885L62.0167 28C64.1227 27.9897 65.8353 29.6713 65.8353 31.7495V70.3485C65.8353 72.5678 63.8926 74.3015 61.6548 74.0791L43.4181 72.267C41.4739 72.0738 39.9951 70.4567 39.999 68.5287L40.0769 31.8303C40.0811 29.7695 41.7696 28.0985 43.8578 28.0885Z" fill="white"/>
<path d="M40.207 73.8635C40.2086 73.4103 40.2102 72.957 40.2118 72.5038C40.5416 74.6482 40.6849 81.9446 40.3598 82.8016L33.4287 84.5652L33.519 102.223L41.1106 104.542L37.3148 105.701L31.9824 109.357C34.8097 112.496 37.2125 113.812 42.1016 115.845C46.114 117.913 49.1356 118.815 55.1773 120.204L68.585 113.816L66.2352 112.389L65.8354 71.2969L40.207 73.8635Z" fill="#9CA9AF"/>
<path d="M61.8314 72.6461L65.3478 71.9391C65.4787 78.5415 65.5409 85.4323 65.6031 92.3264L65.6032 92.3279C65.666 99.2895 65.7289 106.254 65.8626 112.923L62.5466 113.743L61.8314 72.6461Z" fill="#9CA9AF" stroke="white"/>
<path d="M39.866 67.6494L65.836 71.3319L44.8481 75.5508L26.3086 71.3264L39.866 67.6494Z" fill="#262D30"/>
<path d="M40.3592 82.8018C46.0831 84.1228 51.807 85.4438 57.5309 86.7646L51.9426 88.8645L33.3379 84.769" fill="#9CA9AF"/>
<path d="M40.3592 82.8018C46.0831 84.1228 51.807 85.4438 57.5309 86.7646L51.9426 88.8645L33.3379 84.769" stroke="white" stroke-miterlimit="10" stroke-linecap="round" stroke-linejoin="round"/>
<path d="M33.5195 102.224C39.7732 104.144 46.2158 106.383 52.4694 108.303L57.7276 106.489" fill="#9CA9AF"/>
<path d="M33.5195 102.224C39.7732 104.144 46.2158 106.383 52.4694 108.303L57.7276 106.489" stroke="white" stroke-miterlimit="10" stroke-linecap="round" stroke-linejoin="round"/>
<path d="M52.0781 88.8164C52.2243 95.2667 52.3704 101.717 52.5165 108.167Z" fill="#263238"/>
<path d="M52.0781 88.8164C52.2243 95.2667 52.3704 101.717 52.5165 108.167" stroke="white" stroke-miterlimit="10" stroke-linecap="round" stroke-linejoin="round"/>
<path d="M57.5308 86.7646C57.5181 93.3079 57.7397 99.9449 57.7267 106.488Z" fill="#263238"/>
<path d="M57.5308 86.7646C57.5181 93.3079 57.7397 99.9449 57.7267 106.488" stroke="white" stroke-miterlimit="10" stroke-linecap="round" stroke-linejoin="round"/>
<path d="M38.0616 107.082C45.1669 109.396 52.2725 111.71 59.3777 114.024L56.0937 116.592L34.1973 109.389L38.0616 107.082Z" fill="#9CA9AF" stroke="white" stroke-miterlimit="10" stroke-linecap="round" stroke-linejoin="round"/>
<path d="M26.7525 71.3049C26.6434 71.0087 26.1447 71.0341 25.9911 71.3102C25.8373 71.5863 25.9771 71.9496 26.2214 72.1523C26.4661 72.3551 26.788 72.4359 27.0982 72.5111C32.9201 73.9197 38.7419 75.3284 44.5637 76.7371C44.5637 76.7371 65.7867 72.9299 65.7001 72.8703C65.739 72.3207 65.7782 71.7711 65.8171 71.2215C58.8085 72.1825 51.8445 73.4601 44.9542 75.0488L26.7525 71.3049Z" fill="#151A1C"/>
<path d="M48.2097 69.9552C48.4051 70.1485 48.4271 70.4524 48.2828 70.6854C47.8555 71.3761 47.1163 71.8716 46.3232 72.1091C45.3797 72.3916 44.3657 72.349 43.3928 72.1914C42.9777 72.1245 42.5589 72.0366 42.1398 72.0734C41.5071 72.1292 40.8908 72.4684 40.2244 71.5439C40.2229 71.5418 40.2215 71.5394 40.2202 71.537C40.0275 71.1659 40.0494 70.7079 40.2221 70.3269C40.3944 69.9459 40.7039 69.6373 41.0552 69.4051C42.139 68.6892 43.5403 68.6877 44.8407 68.7859C46.0397 68.8769 47.3067 69.0625 48.2097 69.9552Z" fill="#EFEED9"/>
<path d="M44.1719 69.2383C44.1719 68.8258 44.5997 68.4912 45.1276 68.4912C45.6555 68.4912 46.0833 68.8256 46.0833 69.2383C46.0833 69.6508 45.6555 69.9851 45.1276 69.9851C44.5997 69.9854 44.1719 69.651 44.1719 69.2383Z" fill="#943C41"/>
<path d="M43.26 69.5884C43.3246 69.4627 43.1962 69.3028 43.0805 69.2202C42.9648 69.1376 42.7874 69.1352 42.6876 69.2358C42.5698 69.3546 42.614 69.5794 42.7599 69.6628C42.9057 69.7465 43.1782 69.748 43.26 69.5884Z" fill="#CFC6A3"/>
<path d="M45.8596 70.6869C45.9242 70.5611 45.7958 70.4015 45.6801 70.3189C45.5644 70.2363 45.387 70.2336 45.2872 70.3345C45.1694 70.4534 45.2136 70.6781 45.3595 70.7615C45.5051 70.8449 45.7778 70.8462 45.8596 70.6869Z" fill="#CFC6A3"/>
<path d="M44.4826 70.9585C44.5472 70.8328 44.4191 70.6731 44.3031 70.5903C44.1874 70.5077 44.0101 70.5053 43.9103 70.6059C43.7925 70.7248 43.8367 70.9495 43.9825 71.0329C44.1284 71.1166 44.4008 71.1182 44.4826 70.9585Z" fill="#CFC6A3"/>
<path d="M42.6194 70.4146C42.684 70.2888 42.5556 70.1289 42.4399 70.0463C42.3242 69.9637 42.1468 69.9614 42.047 70.062C41.9292 70.1808 41.9734 70.4056 42.119 70.489C42.2649 70.5726 42.5373 70.574 42.6194 70.4146Z" fill="#CFC6A3"/>
<path d="M49.5576 71.2472C50.2264 71.0079 50.9817 71.0129 51.6469 71.2612C52.0194 71.4002 52.4022 71.6726 52.4295 72.0645C52.4504 72.3628 52.2479 72.6418 51.9914 72.801C51.7348 72.9601 51.4301 73.022 51.1326 73.0789C50.3857 73.2216 49.6164 73.3508 48.8688 73.2126C48.545 73.1528 48.1987 73.0162 48.0576 72.7226C47.907 72.4089 48.0545 72.0192 48.3115 71.7822C48.5688 71.5453 48.9276 71.473 49.5576 71.2472Z" fill="#CFC6A3"/>
<path d="M51.666 72.0458C52.1809 71.9574 52.707 72.0532 53.2245 72.1252C53.7418 72.197 54.2848 72.2423 54.7738 72.0604C55.2627 71.8782 55.6776 71.4057 55.6233 70.8929C55.5937 70.6123 55.439 70.3007 55.6064 70.0719C55.7165 69.9213 55.9211 69.8813 56.0937 69.8072C56.6341 69.5753 56.9041 68.9399 56.87 68.3593C56.8358 67.7788 56.5584 67.2419 56.2653 66.7373" stroke="#CFC6A3" stroke-miterlimit="10"/>
<path d="M54.7924 66.5586C54.6214 67.5453 54.5327 67.9662 54.5277 68.6903C54.5256 69.0042 54.4864 69.4204 54.4427 69.7908C54.3839 70.2906 54.004 70.6453 53.5831 70.5985C51.1846 70.3311 47.4505 70.393 47.6736 69.4257C47.8589 68.6233 48.7312 66.827 48.8594 66.7002C49.0619 66.4998 52.7084 66.8371 54.7924 66.5586Z" fill="#D6CFB2"/>
<path d="M58.803 51.8762L49.398 51.4412C48.4748 51.3986 47.6499 52.1287 47.4159 53.1959L45.0054 64.1862C44.6886 65.6314 45.568 67.0552 46.8184 67.12L55.74 67.5838C56.6316 67.6302 57.4386 66.9543 57.7057 65.9374L60.5995 54.918C60.9866 53.4442 60.096 51.936 58.803 51.8762Z" fill="#262D30"/>
<path d="M56.0417 53.3275C56.0417 53.3275 53.1987 65.7455 53.2811 65.763C54.3127 65.9173 54.4356 66.0682 55.4757 66.0645C55.8021 66.0635 56.2204 66.109 56.5042 65.9213C56.9294 65.6401 57.1152 64.7652 57.2688 64.2238C57.7146 62.6515 58.1602 61.079 58.6057 59.5067C59.0221 58.0374 59.4404 56.5602 59.6477 55.0316C59.6898 54.7208 59.7179 54.3782 59.5717 54.1137C59.4431 53.8808 59.2075 53.7632 58.9811 53.6796C57.8803 53.2727 57.767 53.1316 56.0417 53.3275Z" fill="#B5EBE6"/>
<path d="M47.8701 53.5799C48.1677 53.4994 59.5853 54.3145 59.7804 54.4948C59.428 53.9283 59.6999 52.8987 59.1289 52.7139C58.5581 52.5294 57.12 52.3475 56.5289 52.3176C54.5484 52.2173 52.5676 52.1169 50.5871 52.0169C50.0754 51.9909 49.5536 51.9663 49.0596 52.1291C48.5653 52.2919 48.0943 52.6763 47.8701 53.5799Z" fill="white"/>
<path d="M57.3728 65.7468C53.1073 65.2552 49.6268 65.0262 45.5898 64.8184C45.9422 65.3849 46.6406 66.2773 47.2114 66.4618C47.7821 66.6464 48.3791 66.6773 48.9703 66.7073C50.9508 66.8076 52.9315 66.9079 54.9123 67.008C55.424 67.0339 55.9458 67.0586 56.4398 66.8958C56.9341 66.7329 57.1485 66.6503 57.3728 65.7468Z" fill="white"/>
<path d="M48.2321 53.0879C48.2771 54.0457 48.7383 54.9424 49.2953 55.7387C49.852 56.535 50.5125 57.2633 51.0333 58.0819C51.554 58.9005 51.9358 59.8435 51.8519 60.7989C51.7711 61.7178 51.2387 62.5909 50.4429 63.1087C49.8046 63.5238 49.0374 63.7065 48.2882 63.8812C47.3254 64.106 46.3623 64.331 45.3994 64.5558C45.4497 64.3466 45.5 64.1372 45.5503 63.9281C46.8441 63.779 48.1148 63.4468 49.3083 62.9448C49.8107 62.7336 50.3129 62.4829 50.6722 62.0852C51.4251 61.2524 51.3629 59.9705 50.9049 58.9595C50.4472 57.9485 49.6643 57.1108 49.0316 56.1906C48.3992 55.2706 47.8993 54.1707 48.2321 53.0879Z" fill="#F59080"/>
<path opacity="0.2314" d="M48.1687 53.2725C47.4751 56.9904 46.5978 60.6766 45.5986 64.2514C46.9356 64.0099 48.242 63.6139 49.4805 63.0744C50.07 62.8176 50.6657 62.5113 51.0472 62.0096C51.4753 61.447 51.5753 60.7028 51.4718 60.0135C51.107 57.5842 48.5327 55.8791 48.1687 53.2725Z" fill="#F59080"/>
<path opacity="0.5412" d="M49.9391 57.196C49.498 56.9609 48.9516 57.065 48.6395 57.4729C48.2874 57.933 48.114 58.5909 48.0938 59.2027C48.0634 60.1288 48.2752 61.0582 48.1637 61.9771C48.1224 62.3181 48.0404 62.684 48.1852 62.9908C48.3289 63.2958 48.672 63.4504 48.9905 63.4306C49.309 63.4107 49.6044 63.2452 49.8641 63.0467C50.813 62.3213 51.4025 61.0858 51.3959 59.8375C51.3898 58.7807 50.9567 57.7384 49.9391 57.196Z" fill="#F59080"/>
<path d="M51.8204 60.2646C51.9464 60.4613 52.1977 60.5384 52.4139 60.6395C52.6302 60.7409 52.8516 60.931 52.8124 61.1587C52.7923 61.2754 52.7062 61.3713 52.6159 61.4523C52.3321 61.7075 51.9136 61.8867 51.5557 61.7408C51.769 61.3633 51.831 60.9098 51.8204 60.2646Z" fill="#F59080"/>
<path d="M50.8613 60.1703C50.1155 58.8519 49.117 57.6656 47.9307 56.6885C48.0866 57.4822 48.7003 58.1099 49.2872 58.6894C49.7833 59.1794 50.2797 59.6694 50.8613 60.1703Z" fill="#F59080"/>
<path d="M50.5442 60.5209C50.2233 60.1286 49.7431 59.8591 49.2292 59.7834C49.0365 59.755 48.835 59.7513 48.659 59.6711C48.3982 59.5525 48.2441 59.2909 48.0159 59.1213C47.8269 58.9807 47.5855 58.9065 47.3467 58.9158C47.7819 59.3145 48.2203 59.7159 48.7257 60.029C49.2308 60.3425 49.8132 60.5659 50.5442 60.5209Z" fill="#F59080"/>
<path d="M50.2798 61.1823C50.149 61.0817 49.968 61.0647 49.8012 61.0814C49.6344 61.0981 49.4716 61.1436 49.304 61.1524C48.9935 61.1688 48.6932 61.0581 48.3949 60.9739C47.9578 60.8506 47.5064 60.7817 47.0566 60.7129C47.5006 60.9122 47.947 61.1124 48.4177 61.244C48.8884 61.3755 49.3882 61.4369 50.2798 61.1823Z" fill="#F59080"/>
<path d="M50.0447 61.6671C49.7202 61.8607 49.3051 61.8305 48.9302 61.759C48.5553 61.6873 48.1744 61.58 47.7977 61.6412C47.2875 61.7238 46.8409 62.1074 46.3252 62.0693C46.367 62.203 46.5513 62.226 46.6969 62.2223C47.8022 62.1948 48.9056 62.0928 50.0447 61.6671Z" fill="#F59080"/>
<path d="M58.803 51.8762L49.398 51.4412C48.4748 51.3986 47.6499 52.1287 47.4159 53.1959L45.0054 64.1862C44.6886 65.6314 45.568 67.0552 46.8184 67.12L55.74 67.5838C56.6316 67.6302 57.4386 66.9543 57.7057 65.9374L60.5995 54.918C60.9866 53.4442 60.096 51.936 58.803 51.8762ZM59.3844 55.4348L56.8993 64.8975C56.67 65.7707 55.9769 66.3512 55.2113 66.3112L47.5498 65.9128C46.4763 65.857 45.7208 64.6344 45.9929 63.3936L48.0629 53.9557C48.2638 53.0394 48.9723 52.4123 49.7652 52.4491L58.3768 52.8226C59.4874 52.874 59.7169 54.1688 59.3844 55.4348Z" fill="#EFEED9"/>
<path d="M56.3185 54.5039L58.9777 54.9301L57.7298 59.5678L55.1875 59.1148L56.3185 54.5039Z" fill="#F9F791"/>
<path d="M54.4776 62.0391L57.0778 62.5561L56.3368 65.3377L53.7617 65.0054L54.4776 62.0391Z" fill="#070B0A"/>
<path d="M55.1095 59.2988C55.164 59.3182 57.7296 59.7653 57.7296 59.7653L57.0778 62.2885L54.54 61.8488L55.1095 59.2988Z" fill="#262D30"/>
<path d="M55.4365 59.9611C55.4757 59.9198 55.5686 59.8134 55.606 59.7734L55.5707 59.8539C55.5395 59.9312 55.6393 59.9865 55.6872 59.9169C55.7145 59.8785 55.7862 59.8844 55.8019 59.932C55.8222 60.0496 55.9062 60.1118 56.0017 60.0464C56.0248 60.0278 56.0174 60.026 56.0414 60.0448C56.1598 60.1345 56.3308 60.1555 56.473 60.0977C56.4735 60.1112 56.4756 60.2171 56.4761 60.2335L56.469 60.2261L56.5667 60.2497L56.4664 60.2428L56.4605 60.2425L56.4592 60.2354L56.4388 60.1239L56.4629 60.1382C56.3194 60.2084 56.1368 60.193 56.0036 60.0959L56.0433 60.0943C55.9202 60.2015 55.7622 60.0996 55.7492 59.9574C55.7383 59.9431 55.7481 59.9429 55.7246 59.9574C55.6425 60.0533 55.4778 59.954 55.5461 59.8404L55.5681 59.8576L55.4365 59.9611Z" fill="#070B0A"/>
<path d="M56.8027 60.2347C56.8938 60.2625 56.9716 60.226 57.046 60.1865C57.0288 60.2289 56.9746 60.2824 57.0429 60.3152C57.1318 60.3536 57.293 60.2485 57.3558 60.3671C57.2877 60.317 57.2194 60.3628 57.1453 60.3798C57.0635 60.415 56.9123 60.3546 56.9589 60.2352L56.9936 60.2739C56.9253 60.2932 56.8514 60.2773 56.8027 60.2347Z" fill="#070B0A"/>
<path d="M55.3389 60.3148C55.4527 60.4273 55.615 60.3828 55.6934 60.2764L55.6997 60.341C55.7143 60.449 55.8154 60.468 55.9128 60.4725C56.0261 60.4987 56.105 60.5708 56.1998 60.6293C56.0981 60.6007 55.9967 60.5435 55.9041 60.5295C55.7879 60.535 55.6483 60.4929 55.6399 60.3457L55.691 60.3645C55.5832 60.4683 55.3971 60.4297 55.3389 60.3148Z" fill="#070B0A"/>
<path d="M56.4375 60.6396C56.5227 60.6786 56.6096 60.6849 56.6903 60.6669C56.8193 60.6894 56.9466 60.7196 57.0686 60.776C56.9559 60.7805 56.757 60.7538 56.6969 60.7289C56.6 60.7474 56.4963 60.7106 56.4375 60.6396Z" fill="#070B0A"/>
<path d="M55.2941 60.6508C55.3187 60.7262 55.3979 60.7286 55.449 60.6738C55.4712 60.6468 55.5467 60.6267 55.5835 60.6738C55.615 60.7109 55.6235 60.7477 55.642 60.7657C55.6666 60.8075 55.7413 60.7641 55.8244 60.7638C55.9178 60.7665 55.9536 60.861 55.9636 60.9369C55.9049 60.8083 55.8416 60.7953 55.7238 60.8401C55.6888 60.8512 55.6264 60.8509 55.592 60.8091C55.5626 60.7715 55.5552 60.7328 55.5387 60.714C55.494 60.6717 55.4241 60.7778 55.3585 60.7426C55.319 60.727 55.2915 60.6884 55.2941 60.6508Z" fill="#070B0A"/>
<path d="M56.2686 60.9628C56.4165 61.0788 56.5161 60.9782 56.5939 60.8662C56.5844 60.9316 56.5354 61.0425 56.6379 61.0603C56.667 61.0695 56.7271 61.0211 56.7956 61.0319C56.9121 61.055 57.004 61.1026 57.1104 61.1471C57.0058 61.1357 56.8902 61.1063 56.7903 61.0902C56.7451 61.0799 56.7125 61.128 56.6294 61.1254C56.5563 61.1132 56.5021 61.0449 56.5153 60.9695L56.5651 60.9941C56.4764 61.0862 56.3194 61.0584 56.2686 60.9628Z" fill="#070B0A"/>
<path d="M55.1191 61.1059C55.2462 61.1729 55.3759 61.1048 55.4342 60.9971C55.445 61.0736 55.4532 61.1924 55.52 61.2269C55.6394 61.3023 55.6571 61.0535 55.79 61.1533C55.8453 61.2528 55.8803 61.3447 56.0132 61.3423C55.8866 61.3762 55.8072 61.287 55.7532 61.1924C55.6923 61.1684 55.6846 61.269 55.6184 61.2946C55.476 61.3545 55.3855 61.1771 55.3892 61.0712L55.4374 61.0852C55.3516 61.1797 55.2015 61.1824 55.1191 61.1059Z" fill="#070B0A"/>
<path d="M56.3086 61.3738C56.4338 61.4564 56.5265 61.3542 56.5966 61.2695C56.5879 61.3283 56.5249 61.4149 56.6077 61.4514C56.707 61.5004 56.877 61.3974 56.9548 61.5157C56.8794 61.4646 56.8013 61.5081 56.7192 61.5218C56.6289 61.5494 56.4794 61.4956 56.5085 61.3693L56.5567 61.3982C56.4796 61.4686 56.3557 61.4474 56.3086 61.3738Z" fill="#070B0A"/>
<path d="M55.1084 61.4863C55.2143 61.5647 55.3448 61.4546 55.4631 61.5049C55.5923 61.5295 55.7019 61.5787 55.8224 61.6153L55.8293 61.6256C55.892 61.7121 56.0525 61.6526 56.1541 61.6836C56.2044 61.6952 56.2349 61.7309 56.2624 61.7561C56.3746 61.8752 56.593 61.6904 56.7074 61.8276C56.5607 61.7145 56.3802 61.9332 56.2301 61.8019C56.1695 61.7325 56.1118 61.7304 56.0268 61.737C55.9511 61.7429 55.8396 61.7524 55.7755 61.6581L55.7917 61.6714C55.6789 61.6322 55.563 61.5827 55.4536 61.5493C55.3483 61.4951 55.1984 61.5819 55.1084 61.4863Z" fill="#070B0A"/>
<path d="M32.7472 111.296C33.0127 112.212 33.8856 112.831 34.7788 113.192C35.672 113.552 36.6386 113.729 37.5022 114.154C37.9032 114.352 38.3027 114.632 38.4444 115.052C38.658 115.684 38.1709 116.38 37.5511 116.645C36.9314 116.911 36.2256 116.86 35.5521 116.804C33.8549 116.662 32.1576 116.521 30.4604 116.38C29.8383 116.328 29.1823 116.264 28.6761 115.904C27.8308 115.302 27.7114 114.127 27.668 113.099C29.3911 112.597 31.1143 112.095 32.7472 111.296Z" fill="#262D30"/>
<path d="M30.4337 115.22C30.6993 116.135 31.5718 116.755 32.4653 117.116C33.3586 117.476 34.3251 117.653 35.1887 118.078C35.5898 118.276 35.9892 118.556 36.1309 118.976C36.3443 119.609 35.8574 120.304 35.2377 120.57C34.6179 120.835 33.9121 120.784 33.2386 120.728C31.5414 120.587 29.8442 120.445 28.1469 120.304C27.5251 120.252 26.8688 120.189 26.3626 119.828C25.5173 119.226 25.3979 118.051 25.3545 117.023C27.0777 116.521 28.8008 116.018 30.4337 115.22Z" fill="#262D30"/>
<path d="M30.7353 83.3218C30.6908 94.2192 31.2234 105.119 32.3308 115.962C29.9442 116.645 27.5349 117.251 25.108 117.779C24.658 117.877 24.1544 117.964 23.7626 117.725C23.1942 117.378 23.1887 116.579 23.2466 115.922C24.1542 105.608 24.0824 95.2106 23.033 84.91C22.9896 84.484 22.9615 84.0027 23.2501 83.6829C23.5244 83.379 23.9826 83.3369 24.3943 83.3154C26.2625 83.2188 28.1308 83.1222 30.7353 83.3218Z" fill="#263238"/>
<path d="M32.1361 83.3073C32.274 93.071 32.7741 102.83 33.635 112.558C32.2912 112.38 30.8881 112.679 29.7381 113.387C29.4577 104.96 28.7911 96.5441 27.7407 88.1755C27.5959 87.022 27.4563 85.79 27.9818 84.7498C28.5079 83.7097 29.9843 83.0605 32.1361 83.3073Z" fill="#263238"/>
<path d="M32.5497 81.1221C31.6165 91.6321 32.1451 102.181 32.0154 112.714C31.7803 102.308 31.271 91.4532 32.5497 81.1221Z" fill="#263238"/>
<path d="M31.0672 53.1827C31.7301 53.8464 31.6544 53.7879 32.4809 54.692C32.6578 54.8853 33.4395 56.3291 33.4414 56.5915C33.444 56.9378 32.8717 57.031 32.5421 57.1207C32.0092 57.266 31.364 57.3259 30.8223 57.2041C28.894 56.7705 25.5377 53.0273 25.7606 52.9241C26.5431 52.5611 27.4808 52.7083 28.346 52.7459C29.2114 52.7833 30.0845 52.9646 31.0672 53.1827Z" fill="#FA9274"/>
<path d="M31.3646 53.4814C33.2821 55.4253 31.3792 55.7414 28.9542 55.0923C27.491 54.7005 27.1341 54.0378 25.7599 52.9238C25.2778 56.7731 24.8219 61.7277 24.3398 65.5769C28.5335 66.3288 30.846 66.5832 35.3627 66.4058C35.9618 66.3823 35.1687 60.6282 35.1687 60.6282C35.0678 59.3291 34.4727 56.5481 31.3646 53.4814Z" fill="#0A3B4C"/>
<path d="M35.6552 42.2569C36.0899 44.4481 35.8512 46.346 35.9338 48.6582C35.969 49.6452 35.8072 50.8889 35.0096 51.3805C34.358 51.7821 33.5487 51.7594 32.8091 51.5844C31.4615 51.2656 30.1143 50.9469 28.7668 50.6282C28.0425 50.4569 27.2753 50.261 26.7506 49.6984C26.0313 48.927 25.9852 47.6983 26.1708 46.6364C26.5446 44.4963 27.7322 42.4917 29.5038 41.4219C31.2752 40.3524 33.625 40.3286 35.6552 42.2569Z" fill="#946867"/>
<path d="M32.1297 49.1353C31.3561 50.8868 31.1698 52.9308 31.5907 54.7631C29.4977 55.4109 28.3262 54.6601 26.0977 52.9311C26.5803 51.8001 28.4549 48.7075 27.0552 46.9131C28.1369 47.5625 28.7649 49.1276 29.8463 49.7773C30.2816 50.038 30.8632 50.2872 32.1297 49.1353Z" fill="#946867"/>
<path d="M34.4185 45.6294C34.4569 45.5106 34.575 45.4478 34.6819 45.4894C34.7889 45.5307 34.8445 45.6607 34.8061 45.7793C34.7675 45.8981 34.6497 45.9606 34.5427 45.9193C34.4355 45.878 34.3799 45.748 34.4185 45.6294Z" fill="#262D30"/>
<path opacity="0.2784" d="M32.253 47.0448C32.2771 46.6011 32.7353 46.2733 33.2764 46.3128C33.8176 46.3522 34.2364 46.744 34.2123 47.1877C34.1882 47.6314 33.7299 47.9592 33.1888 47.9197C32.6477 47.8803 32.2286 47.4885 32.253 47.0448Z" fill="#E9555B"/>
<path d="M33.6807 45.1925C33.7688 44.4431 34.9077 44.0481 35.4203 44.6167C34.7695 44.6485 34.2295 44.847 33.6807 45.1925Z" fill="#262D30"/>
<path d="M35.6553 42.2575C35.4361 43.0954 34.8283 43.4723 34.0928 43.8832C33.1366 44.4177 31.9564 44.405 31.0256 44.9858C30.1274 45.5463 30.108 46.946 29.6116 47.9054C29.1153 48.8648 28.0465 49.4864 27.1109 49.9767C26.5635 49.6018 26.2124 48.9662 26.0708 48.3004C25.9289 47.6345 25.9797 46.9388 26.1068 46.2698C26.3805 44.8296 26.8015 43.0773 27.7802 42.02C28.7589 40.9624 30.0694 40.3164 31.706 40.3164C33.117 40.3167 35.5505 41.1652 35.6553 42.2575Z" fill="#262D30"/>
<path d="M26.4518 47.0885C26.2663 46.4957 25.629 46.1201 25.0336 46.19C24.4382 46.2596 23.9207 46.725 23.698 47.3037C23.4754 47.8824 23.5265 48.552 23.7637 49.1243C24.0268 49.7594 24.5627 50.3151 25.2224 50.398C26.0574 50.5028 26.8595 49.7705 27.0096 48.9099C27.16 48.0487 26.7475 47.1507 26.4518 47.0885Z" fill="#262D30"/>
<path d="M26.5442 46.5377C25.5988 45.6619 23.8261 45.2712 23.7626 47.028C23.6114 48.3818 24.883 49.6611 26.1521 48.7832C25.6843 49.3137 24.8104 49.2941 24.2593 48.883C23.6837 48.4565 23.4526 47.6999 23.4989 47.0092C23.6043 45.0496 25.6023 45.3511 26.5442 46.5377Z" fill="#262D30"/>
<path d="M24.6329 47.1309C24.2051 47.7707 23.8167 48.5152 23.8935 49.2991C23.9385 50.0573 24.5069 50.7294 25.2923 50.7178C27.0258 50.6887 27.4653 48.5072 26.9136 47.1655C27.7282 48.5663 27.1828 50.9711 25.2868 50.9825C24.3935 51.0011 23.6756 50.1764 23.6912 49.312C23.6581 48.4784 24.0994 47.7273 24.6329 47.1309Z" fill="#262D30"/>
<path d="M30.6504 45.724C30.4391 45.3118 29.8136 45.0966 29.5419 45.2374C29.2703 45.3783 29.0768 45.6446 28.9569 45.9337C28.8007 46.3104 28.7591 46.7584 28.9293 47.1367C29.0996 47.515 29.5131 47.7916 29.9036 47.7125C30.1122 46.9384 30.5601 46.582 30.6504 45.724Z" fill="#946867"/>
<path d="M29.7971 45.7139C29.5424 45.9802 29.4307 46.1086 29.1416 46.3392C29.0498 45.9773 29.4366 45.5937 29.7971 45.7139Z" fill="#946867"/>
<path d="M29.4614 45.8994C29.628 46.2113 29.6756 46.3984 29.6862 46.7516C29.36 46.6161 29.2488 46.179 29.4614 45.8994Z" fill="#946867"/>
<path d="M28.9717 47.2119C29.3505 47.6045 29.6589 47.8393 30.1701 48.0358C29.6428 48.256 28.9727 47.7724 28.9717 47.2119Z" fill="#DB7458"/>
<path d="M30.1621 50.3174C30.6651 50.6147 31.0461 50.9025 31.4964 51.2744C30.9145 51.2543 30.3781 50.8527 30.1621 50.3174Z" fill="#946867"/>
<path d="M33.8363 48.5469C34.1201 49.0197 34.6596 49.2564 35.1788 49.0192C34.819 49.6821 33.7386 49.2519 33.8363 48.5469Z" fill="#946867"/>
<path d="M35.7925 45.6123C35.8336 46.3173 36.0445 47.0114 36.4027 47.6203C36.4644 47.7252 36.533 47.8459 36.4941 47.9608C36.4634 48.0519 36.3731 48.1093 36.2839 48.1453C36.0326 48.2464 35.7372 48.2319 35.4971 48.1064C35.5082 47.2984 35.5741 46.4907 35.7925 45.6123Z" fill="#946867"/>
<path d="M26.5256 52.0234C27.8612 53.5467 29.2993 54.2883 30.8123 55.6601C32.3252 57.032 34.5345 58.698 35.1696 60.6263C35.7234 62.3077 35.757 65.0141 35.72 66.7817C35.654 69.9419 34.4619 75.2062 34.1877 78.3553C33.8721 81.9774 33.5565 82.5818 33.241 86.2039C33.2222 86.4197 33.1989 86.6476 33.0678 86.8213C32.8417 87.1212 32.4015 87.14 32.0226 87.131C29.2233 87.0635 26.4242 86.9963 23.6249 86.9288C22.7732 86.9084 21.8869 86.8793 21.1319 86.4896C20.1431 85.9789 19.5511 84.9271 19.2636 83.8628C18.6492 81.5882 19.1927 79.1609 20.0327 76.9577C20.873 74.7546 22.0095 72.6571 22.6411 70.3872C23.788 66.2668 23.1976 61.8971 23.4115 57.6292C23.51 55.6771 23.6924 53.4911 26.5256 52.0234Z" fill="#FCBB7F"/>
<path d="M43.1723 69.1324C44.168 69.448 45.2354 69.0029 46.2811 68.9905C47.2831 68.9783 48.283 69.3884 48.9811 70.0976C49.0892 70.2075 49.1977 70.3528 49.1545 70.4998C49.1114 70.6467 48.83 70.6581 48.7558 70.5159C48.8379 70.6496 48.9197 70.7836 49.0018 70.9173C48.9086 70.9474 48.8154 70.9776 48.7222 71.0075C48.7675 71.0713 48.8125 71.1351 48.8578 71.1992C48.8011 71.2728 48.7447 71.3461 48.6883 71.4197C47.9042 71.0046 46.9503 71.2495 46.0738 71.3996C44.9007 71.6008 43.6943 71.6119 42.5176 71.4324C42.7754 70.7589 43.0338 70.0852 43.1723 69.1324Z" fill="#946867"/>
<path d="M26.5651 54.3041C27.6749 54.1609 28.7275 54.8426 29.1461 55.8669L30.9405 60.256C31.3839 61.3403 31.8332 62.4355 32.5149 63.392C33.7387 65.1086 35.6414 66.2631 37.6468 66.9617C39.4512 67.5905 41.3528 67.8828 43.2515 68.1385C43.0744 70.4166 43.1467 69.4871 42.9696 71.7651C40.7805 71.7331 38.576 71.7117 36.4232 71.3135C34.3368 70.9275 32.2811 70.1659 30.6535 68.8215C29.3224 67.7218 28.3188 66.2689 27.4629 64.8028C26.8185 63.6989 26.2504 62.5541 25.7177 61.3938C25.1949 60.2552 24.5738 59.1038 24.4102 57.8511C24.2731 56.8017 24.506 55.6506 25.2706 54.9088C25.6049 54.584 26.0539 54.3701 26.5651 54.3041Z" fill="#54522D"/>
<path d="M29.8809 58.9307C30.8 61.4708 32.3389 63.8267 34.5741 65.3871C34.851 65.5851 35.2627 65.8475 35.5499 66.0246C35.3723 65.9449 35.1949 65.8625 35.0189 65.7773C32.3712 64.4398 30.5239 61.7946 29.8809 58.9307Z" fill="#D4CCAE"/>
<path d="M24.5957 59.3018C25.8908 61.7246 26.8619 64.3572 28.4744 66.5916C29.245 67.726 30.2905 68.634 31.3777 69.4706C32.4677 70.2947 33.723 70.9327 35.0978 71.1323C34.4082 71.0823 33.7241 70.9166 33.0789 70.654C28.0423 68.401 26.608 63.9754 24.5957 59.3018Z" fill="#D4CCAE"/>
<path d="M26.5293 52.3154C26.6627 53.5732 27.1146 54.8903 27.4448 56.1104C27.4511 56.152 27.4786 56.1973 27.5215 56.1597C27.8255 55.8348 28.1124 55.5119 28.478 55.2455C28.7152 55.0547 29.0006 55.1145 28.9318 55.4518C28.7883 56.0072 28.4187 56.4641 28.3332 57.009C28.3242 57.0982 28.3422 57.154 28.3732 57.1673C28.3999 57.1837 28.4651 57.2062 28.4947 57.2197C32.4337 58.7062 35.4147 61.0351 35.1015 65.6209C35.11 60.9715 32.2601 58.9685 28.2927 57.4037C27.6801 57.0691 28.6371 55.8764 28.7091 55.4073C28.7287 55.2982 28.6951 55.3522 28.7462 55.3581C28.7036 55.3686 28.6477 55.397 28.6001 55.4295C28.2551 55.6654 27.947 55.9887 27.6502 56.2886C27.5255 56.4199 27.2933 56.3315 27.2772 56.1533C26.9799 54.9228 26.5783 53.5833 26.5293 52.3154Z" fill="#D4CCAE"/>
<path d="M34.0895 71.2256C33.7983 75.9098 33.0565 80.5721 31.8818 85.1158C32.6869 80.6251 33.4636 75.7446 34.0895 71.2256Z" fill="#D4CCAE"/>
</g>
<defs>
<linearGradient id="paint0_linear_2689_2189" x1="-60.7633" y1="33.6288" x2="38.4149" y2="196.806" gradientUnits="userSpaceOnUse">
<stop stop-color="#9EB5D7"/>
<stop offset="0.41" stop-color="#C6D1E4"/>
<stop offset="0.79" stop-color="#E4E6EE"/>
<stop offset="1" stop-color="#F0EEF2"/>
</linearGradient>
<clipPath id="clip0_2689_2189">
<rect width="134" height="134" fill="white"/>
</clipPath>
</defs>
</svg>
