<svg width="134" height="134" viewBox="0 0 134 134" fill="none" xmlns="http://www.w3.org/2000/svg">
<g clip-path="url(#clip0_2693_57700)">
<mask id="mask0_2693_57700" style="mask-type:alpha" maskUnits="userSpaceOnUse" x="0" y="0" width="134" height="134">
<path fill-rule="evenodd" clip-rule="evenodd" d="M0 67.0001C0 29.997 29.9968 0 67 0C104.003 0 134 29.997 134 67.0001C134 104.003 104.003 134 67 134C29.9968 134 0 104.003 0 67.0001Z" fill="white"/>
</mask>
<g mask="url(#mask0_2693_57700)">
<path d="M-1.18066 137.916H136.376V-3.22266H-1.18066V137.916Z" fill="url(#paint0_linear_2693_57700)"/>
</g>
<mask id="mask1_2693_57700" style="mask-type:luminance" maskUnits="userSpaceOnUse" x="11" y="28" width="113" height="82">
<path d="M124 28H11V109.947H124V28Z" fill="white"/>
</mask>
<g mask="url(#mask1_2693_57700)">
<path d="M49.7492 100.187H46.1846V113.241H49.7492V100.187Z" fill="#BCB8D1"/>
</g>
<mask id="mask2_2693_57700" style="mask-type:luminance" maskUnits="userSpaceOnUse" x="11" y="28" width="113" height="82">
<path d="M124 28H11V109.947H124V28Z" fill="white"/>
</mask>
<g mask="url(#mask2_2693_57700)">
<path d="M11 78.4817L11.8447 83.656L20.7137 83.2329L20.7673 77.585L11 78.4817Z" fill="#716E7B"/>
<path d="M38.4323 104.286H14.3477V109.947H38.4323V104.286Z" fill="#716E7B"/>
<path d="M12.922 79.2789L11.2236 79.4902L14.7554 107.867L16.4537 107.656L12.922 79.2789Z" fill="#716E7B"/>
</g>
<mask id="mask3_2693_57700" style="mask-type:luminance" maskUnits="userSpaceOnUse" x="11" y="28" width="113" height="82">
<path d="M124 28H11V109.947H124V28Z" fill="white"/>
</mask>
<g mask="url(#mask3_2693_57700)">
<path d="M97.4423 41.5746C97.4423 41.5746 98.0345 42.5784 98.808 42.3389C99.5823 42.0994 99.632 40.5692 98.808 40.1943C99.7047 38.6029 101.409 35.0406 99.3352 32.7981C99.1554 31.6107 98.6619 30.3934 96.0751 30.1685C94.7537 27.6528 92.5212 27.7844 91.4064 28.5105C88.9466 27.1249 87.5472 28.9198 87.2993 29.704C85.1571 29.3682 84.9673 32.4791 85.2956 32.9963C83.3239 34.9756 83.897 39.873 87.522 37.2265C91.147 34.5793 97.4423 41.5746 97.4423 41.5746Z" fill="#45322B"/>
<path d="M66.1246 72.2271C66.1009 72.0619 66.0688 71.9655 66.0688 71.9655C66.0688 71.9655 65.309 70.2914 63.2953 69.7046C63.042 69.6304 62.7735 69.547 62.4973 69.459L59.7467 70.2348C59.6649 70.4054 59.4927 70.586 59.1377 70.7191V74.869C59.85 75.146 60.7184 75.4436 61.1453 75.3962C61.6495 75.3419 63.1086 75.1597 64.5592 74.6456C65.6418 74.2607 66.2807 73.2944 66.1246 72.2271Z" fill="#86A1BC"/>
<path d="M57.9586 68.2314C57.7191 68.8098 57.83 68.9522 59.8744 70.0394C59.8606 70.1067 59.8247 70.1847 59.7566 70.2628C60.0106 71.1411 60.9279 71.6476 61.807 71.3936L64.5025 70.614C64.1291 70.2865 63.6525 69.9759 63.0526 69.757C61.0817 69.0394 58.1973 67.653 57.9586 68.2314Z" fill="#86A1BC"/>
<g opacity="0.85">
<path d="M59.8428 65.3555V75.9223C59.8428 76.4005 60.2345 76.7914 60.7127 76.7914H61.0746C61.5528 76.7914 61.9437 76.4005 61.9437 75.9223V65.3555H59.8428Z" fill="#D1ECF6"/>
</g>
<path d="M61.9855 65.292H59.7988V65.5353H61.9855V65.292Z" fill="white"/>
<path d="M61.3238 70.2551C61.1478 69.6821 57.8793 70.7073 57.8793 70.7073C57.499 71.2016 57.7898 71.5489 58.0446 71.7119C58.2993 71.8749 59.8969 71.7417 60.6826 71.3676C61.4691 70.9935 61.5005 70.829 61.3238 70.2551Z" fill="#86A1BC"/>
<path d="M61.3238 71.469C61.1478 70.896 57.8793 71.9212 57.8793 71.9212C57.499 72.4154 57.7898 72.7636 58.0446 72.9258C58.2993 73.0887 59.8969 72.9556 60.6826 72.5815C61.4691 72.2073 61.5005 72.0428 61.3238 71.469Z" fill="#86A1BC"/>
<path d="M61.3238 72.5241C61.1478 71.9503 57.8793 72.9755 57.8793 72.9755C57.499 73.4705 57.7898 73.8179 58.0446 73.9808C58.2993 74.143 59.8969 74.0107 60.6826 73.6366C61.4691 73.2617 61.5005 73.0972 61.3238 72.5241Z" fill="#86A1BC"/>
<path d="M61.0093 73.5748C60.8548 72.9987 58.2374 73.9512 58.2374 73.9512C57.9413 74.437 58.1838 74.7898 58.3927 74.9565C58.6015 75.1249 59.8884 75.0262 60.5151 74.6696C61.1424 74.3139 61.1639 74.1501 61.0093 73.5748Z" fill="#86A1BC"/>
<path d="M88.1656 49.8145C87.4342 50.0103 86.7808 50.376 86.3852 50.9001L76.3854 63.1211C70.4306 65.3659 63.9058 68.4561 62.6182 68.9121L64.9264 74.456C68.1368 73.567 74.7672 71.9618 79.9852 70.5502C81.4496 70.1531 85.7303 68.1554 86.158 66.9634L88.1664 60.4302L88.1656 49.8145Z" fill="#FCBB7F"/>
<path d="M110.662 105.526H83.4809C82.8236 105.526 82.3118 104.992 82.3432 104.343L84.6989 55.1615C84.9109 50.7385 89.3699 47.2305 94.6146 47.2305H96.8801C103.582 47.2305 109.279 51.7308 109.553 57.4545L111.8 104.343C111.831 104.992 111.318 105.526 110.662 105.526Z" fill="#FCBB7F"/>
<path d="M93.0597 42.7034C93.0505 42.7301 93.039 42.7577 93.0252 42.7829C92.788 43.2604 92.0252 43.5939 91.3037 43.2627C91.6411 42.8572 92.6388 41.7852 93.0597 42.7034Z" fill="#EC6957"/>
<path d="M93.0583 42.7027C93.0491 42.7295 93.0376 42.757 93.0238 42.7823C92.7866 43.2597 92.0238 43.5933 91.3024 43.262C91.1608 43.1969 91.0193 43.1059 90.8838 42.9842C90.6849 42.8052 90.7416 42.4854 91.0047 42.4387C91.3812 42.3722 91.8502 42.2176 92.1134 41.8641C92.5832 41.2314 93.3108 42.0256 93.0583 42.7027Z" fill="#6A4A3F"/>
<path d="M96.4931 52.0898C98.3293 51.7983 99.5825 50.0722 99.2903 48.2352L97.884 39.3838L91.2314 40.4412L92.6377 49.2926C92.93 51.1296 94.656 52.3821 96.4931 52.0898Z" fill="#A34200"/>
<path d="M93.0723 46.8066C95.4816 46.4232 96.7249 43.7301 96.7379 43.6995C96.7609 43.649 96.741 43.5863 96.6936 43.5602C96.6446 43.5342 96.5872 43.5541 96.565 43.6054C96.5505 43.6375 95.0708 46.8372 92.2368 46.6344C92.184 46.6314 92.1389 46.6742 92.1358 46.7308C92.1335 46.7882 92.1749 46.8372 92.2284 46.841C92.5238 46.8632 92.8053 46.8494 93.0723 46.8066Z" fill="#45322B"/>
<path d="M98.0654 38.2794C98.0654 38.2794 97.2116 46.173 92.0869 46.6886C86.9631 47.2043 85.1957 37.1027 85.6723 34.8609C86.1497 32.6192 91.318 29.2275 95.8053 32.4539C98.3615 34.2925 98.0654 38.2794 98.0654 38.2794Z" fill="#A34200"/>
<path d="M85.5083 37.9345C85.5243 38.0676 85.6345 38.1701 85.7684 38.1732C86.2466 38.1847 86.3109 37.5236 87.6291 36.4227C88.9298 35.3347 89.9122 33.4678 92.1363 34.1121C94.3597 34.757 94.0613 35.0256 95.1003 36.8565C96.1393 38.6874 98.0422 38.884 98.0422 38.884C98.7881 37.5168 98.811 35.8695 98.1033 34.4816L97.7261 33.7425C97.2189 32.7479 96.3635 31.9744 95.323 31.5696L93.4867 30.855C92.8218 30.5964 92.0897 30.5635 91.4034 30.7617L87.9512 31.7617C87.5702 31.8718 87.2236 32.0738 86.939 32.3493L86.6559 32.6239C85.6536 33.5964 85.1617 34.9804 85.3246 36.3676L85.5083 37.9345Z" fill="#45322B"/>
<path d="M88.675 42.4043C88.4072 42.4472 87.675 42.5107 87.5403 41.9736C87.4187 41.4885 87.8579 41.2031 88.1494 41.1029L88.2381 39.6362C88.2404 39.5911 88.2794 39.5574 88.323 39.5597C88.3682 39.5627 88.4026 39.601 88.3996 39.6454L88.3078 41.1672C88.3062 41.2016 88.2825 41.2307 88.2496 41.2399C88.222 41.2475 87.574 41.4388 87.6972 41.9323C87.8219 42.4265 88.7285 42.2284 88.7377 42.2261C88.7813 42.2161 88.8242 42.2437 88.8341 42.2873C88.8441 42.3309 88.8173 42.3745 88.7729 42.3837C88.7668 42.3875 88.7309 42.3951 88.675 42.4043Z" fill="#603F36"/>
<path d="M87.6336 40.1581C87.8876 40.5873 87.2128 40.9867 86.958 40.5582C86.707 40.1344 87.3711 39.7166 87.6336 40.1581Z" fill="#45322B"/>
<path d="M90.4422 39.4457C90.6962 39.8749 90.0206 40.2743 89.7666 39.8458C89.5156 39.4212 90.1797 39.0035 90.4422 39.4457Z" fill="#45322B"/>
<path d="M96.3184 38.4102C96.8164 37.9473 98.0758 36.9856 98.6741 38.1769C99.3267 39.476 97.3956 40.4316 96.7774 40.6979L96.3184 38.4102Z" fill="#A34200"/>
<path d="M96.8408 39.1307C96.8798 39.1246 96.9135 39.0971 96.9242 39.0565C97.1675 38.1919 97.9976 38.358 98.0328 38.3656C98.0894 38.3771 98.1445 38.3419 98.156 38.2853C98.1682 38.2294 98.1323 38.1743 98.0764 38.1621C98.0657 38.1598 97.0206 37.9502 96.7245 38.9999C96.7092 39.055 96.7413 39.1124 96.7972 39.1277C96.8117 39.1322 96.827 39.133 96.8408 39.1307Z" fill="#45322B"/>
<path d="M101.312 48.3203C99.3345 50.8062 97.0353 56.5383 92.7906 55.8948C89.8847 55.4541 90.8533 50.1221 91.6644 47.8031C91.7309 47.7702 91.7975 47.7381 91.8648 47.7067C93.1876 47.0847 94.6276 46.82 96.0599 46.8858L97.0782 46.9324C98.0453 46.9768 99.0009 47.162 99.9052 47.5109C100.399 47.7006 100.861 47.9386 101.312 48.3203Z" fill="#A34200"/>
<path d="M86.9762 95.5225C86.9954 96.612 86.0994 97.495 85.0114 97.4613L82.749 97.5309L83.2349 84.8945L86.7995 85.2181L86.9762 95.5225Z" fill="#DCE6FF"/>
<path d="M79.9813 68.457C79.9813 68.457 74.5597 66.6024 74.295 67.128C73.4381 68.8288 77.197 69.5885 78.1098 70.0354C78.9705 70.4569 81.1932 69.4661 79.9813 68.457Z" fill="#86A1BC"/>
<path d="M74.9173 72.0739L76.3664 71.4771L74.0956 65.9585C74.0321 65.8039 73.8546 65.7297 73.6993 65.7932L72.8118 66.1589C72.6565 66.2232 72.5823 66.4 72.6458 66.5553L74.9173 72.0739Z" fill="#D6D5D3"/>
<path d="M73.4188 66.4405L73.1797 66.5391L75.3403 71.777L75.5793 71.6784L73.4188 66.4405Z" fill="#F2F2F2"/>
<path d="M71.8057 62.3975C71.8217 62.3906 73.1607 65.6438 73.1607 65.6438L73.0543 65.6882L71.8271 62.7058C71.8256 62.6025 71.8179 62.5 71.8057 62.3975Z" fill="#86A1BC"/>
<path d="M73.3064 66.2044L73.3438 66.1884C73.4219 66.157 73.4586 66.0675 73.4265 65.9902L73.3094 65.7048C73.2773 65.6276 73.1886 65.5908 73.1113 65.623L73.073 65.6383C72.9958 65.6704 72.959 65.7592 72.9911 65.8372L73.1082 66.1218C73.1403 66.1983 73.2291 66.2358 73.3064 66.2044Z" fill="#9B968E"/>
<path d="M73.1725 66.6306L73.738 66.3981C73.9124 66.3254 73.9973 66.1241 73.9254 65.9482C73.8535 65.773 73.6515 65.6888 73.4763 65.7615L72.9109 65.9941C72.7349 66.0668 72.6507 66.268 72.7234 66.4432C72.7953 66.6192 72.9973 66.7033 73.1725 66.6306Z" fill="#1E232E"/>
<path d="M74.7927 71.8171L76.2433 71.2211L74.1202 66.062C74.059 65.9121 73.8868 65.8402 73.7368 65.9021L72.8302 66.2747C72.681 66.3367 72.6091 66.5089 72.6703 66.6588L74.7927 71.8171Z" fill="#1E232E"/>
<path d="M72.9073 66.78L74.0511 66.3094C74.1261 66.2788 74.1621 66.1939 74.13 66.1189L74.0932 66.0294C74.0626 65.9544 73.9769 65.9185 73.9019 65.9498L72.7581 66.4204C72.6839 66.451 72.648 66.5366 72.6793 66.6116L72.716 66.7011C72.7474 66.7761 72.8331 66.8106 72.9073 66.78Z" fill="#1E232E"/>
<path d="M76.614 74.7265L77.0287 74.5566L76.0211 71.5391L75.207 71.8742L76.614 74.7265Z" fill="#1E232E"/>
<path d="M76.7232 74.6829L77.0644 74.5421L76.0216 71.5391L75.3506 71.8153L76.7232 74.6829Z" fill="#F2F2F2"/>
<path d="M76.8334 74.6362L77.0284 74.5566L76.0208 71.5391L75.6367 71.6967L76.8334 74.6362Z" fill="#1E232E"/>
<path d="M74.8548 72.224L76.5167 71.5408C76.5756 71.517 76.6031 71.4497 76.5794 71.3908C76.5557 71.3327 76.4883 71.3051 76.4302 71.3288L74.7676 72.0128C74.7103 72.0365 74.682 72.1046 74.7057 72.1628C74.7294 72.2202 74.7967 72.2477 74.8548 72.224Z" fill="#D6D5D3"/>
<path d="M77.6038 74.2019L75.958 74.8789L76.0599 75.1265L77.7057 74.4496L77.6038 74.2019Z" fill="#1E232E"/>
<path d="M72.8063 66.5545L73.5874 66.2332C73.5729 66.198 72.7918 66.5193 72.7918 66.5193C72.7856 66.5537 72.7971 66.5591 72.8063 66.5545Z" fill="white"/>
<path d="M73.2292 67.576L74.0104 67.2546C73.9966 67.2195 73.2147 67.5408 73.2147 67.5408C73.2086 67.576 73.2193 67.5806 73.2292 67.576Z" fill="white"/>
<path d="M73.6492 68.6004L74.4304 68.2791C74.4151 68.2439 73.6347 68.5652 73.6347 68.5652C73.6286 68.5996 73.6385 68.6042 73.6492 68.6004Z" fill="white"/>
<path d="M74.0717 69.6249L74.8521 69.3036C74.8376 69.2676 74.0572 69.589 74.0572 69.589C74.0495 69.6242 74.061 69.6287 74.0717 69.6249Z" fill="white"/>
<path d="M72.8917 66.7575L73.213 66.6251C73.1977 66.5899 72.8771 66.7223 72.8771 66.7223C72.8702 66.7567 72.8817 66.762 72.8917 66.7575Z" fill="white"/>
<path d="M72.9763 66.9635L73.2977 66.8311C73.2823 66.796 72.9618 66.9283 72.9618 66.9283C72.9556 66.9628 72.9664 66.9681 72.9763 66.9635Z" fill="white"/>
<path d="M73.0592 67.1676L73.3805 67.0352C73.366 67.0001 73.0446 67.1324 73.0446 67.1324C73.0385 67.1669 73.0508 67.1722 73.0592 67.1676Z" fill="white"/>
<path d="M73.1432 67.3737L73.4646 67.2413C73.4501 67.2061 73.1294 67.3385 73.1294 67.3385C73.1218 67.3729 73.1333 67.3783 73.1432 67.3737Z" fill="white"/>
<path d="M73.3107 67.7819L73.6328 67.6495C73.6175 67.6143 73.2969 67.7467 73.2969 67.7467C73.2901 67.7811 73.3023 67.7857 73.3107 67.7819Z" fill="white"/>
<path d="M73.3971 67.9879L73.7185 67.8556C73.7039 67.8204 73.3834 67.9527 73.3834 67.9527C73.3757 67.9871 73.3872 67.9925 73.3971 67.9879Z" fill="white"/>
<path d="M73.4802 68.1911L73.8015 68.0587C73.787 68.0235 73.4657 68.1558 73.4657 68.1558C73.4595 68.1903 73.4702 68.1949 73.4802 68.1911Z" fill="white"/>
<path d="M73.5654 68.3952L73.8868 68.2628C73.8722 68.2276 73.5509 68.3599 73.5509 68.3599C73.544 68.3944 73.5555 68.399 73.5654 68.3952Z" fill="white"/>
<path d="M73.7341 68.8053L74.0554 68.6729C74.0416 68.6378 73.7196 68.7701 73.7196 68.7701C73.7134 68.8045 73.7241 68.8091 73.7341 68.8053Z" fill="white"/>
<path d="M73.817 69.0114L74.1384 68.879C74.1238 68.8438 73.8025 68.9762 73.8025 68.9762C73.7964 69.0106 73.8078 69.0144 73.817 69.0114Z" fill="white"/>
<path d="M73.9024 69.2154L74.2237 69.0831C74.2084 69.0479 73.8878 69.1803 73.8878 69.1803C73.8809 69.2147 73.8925 69.2193 73.9024 69.2154Z" fill="white"/>
<path d="M73.9856 69.4196L74.3069 69.2872C74.2924 69.252 73.9718 69.3844 73.9718 69.3844C73.9649 69.4188 73.9764 69.4234 73.9856 69.4196Z" fill="white"/>
<path d="M74.1544 69.8297L74.4758 69.6974C74.4612 69.6622 74.1391 69.7945 74.1391 69.7945C74.1338 69.829 74.1445 69.8335 74.1544 69.8297Z" fill="white"/>
<path d="M74.2399 70.0339L74.5612 69.9015C74.5467 69.8663 74.2254 69.9979 74.2254 69.9979C74.2192 70.0331 74.2307 70.0377 74.2399 70.0339Z" fill="white"/>
<path d="M74.323 70.2399L74.6451 70.1075C74.6305 70.0723 74.3084 70.204 74.3084 70.204C74.3023 70.2391 74.313 70.2437 74.323 70.2399Z" fill="white"/>
<path d="M74.4079 70.4432L74.7293 70.3109C74.714 70.2749 74.3934 70.4073 74.3934 70.4073C74.3873 70.4425 74.398 70.4463 74.4079 70.4432Z" fill="white"/>
<path d="M74.4914 70.6484L75.2726 70.327C75.2589 70.2911 74.4777 70.6124 74.4777 70.6124C74.4708 70.6476 74.4822 70.6522 74.4914 70.6484Z" fill="white"/>
<path d="M75.8917 71.1444C75.9782 71.1084 76.0142 71.0227 75.9828 70.9478L74.0341 66.211C74.0027 66.136 73.9178 66.1001 73.8428 66.1315C73.7563 66.1667 73.7204 66.2531 73.751 66.3281L75.7004 71.0648C75.7303 71.1391 75.8167 71.175 75.8917 71.1444Z" fill="white"/>
<path d="M72.9354 65.9018L72.7403 65.429C72.6883 65.3028 72.7488 65.1559 72.8758 65.1046C73.002 65.0526 73.1482 65.113 73.2002 65.24L73.3953 65.7128C73.4596 65.6868 73.4932 65.6998 73.5054 65.7297C73.5177 65.7595 73.5039 65.7932 73.4741 65.8054L72.9799 66.009C72.9508 66.0212 72.9171 66.0074 72.9049 65.9783C72.8926 65.9477 72.9056 65.9141 72.9354 65.9018Z" fill="white"/>
<path d="M74.9056 72.0069C74.8742 72.0069 74.8436 71.9886 74.8306 71.9572C74.813 71.9151 74.8329 71.8685 74.875 71.8509L76.2736 71.2755C76.3157 71.2587 76.3616 71.2786 76.3799 71.3199C76.3968 71.3612 76.3769 71.4086 76.3348 71.4255L74.9362 72.0016C74.927 72.0054 74.9163 72.0069 74.9056 72.0069Z" fill="#9B968E"/>
<path d="M80.3692 68.7701C80.3692 68.7701 74.7044 68.2314 72.898 71.1281C71.0923 74.0255 79.2735 74.1954 79.2735 74.1954L80.3692 68.7701Z" fill="#86A1BC"/>
<path d="M72.7165 68.2398C73.0042 67.7371 75.9926 69.3874 75.9926 69.3874C76.2642 69.933 75.9108 70.1985 75.6284 70.2979C75.3469 70.3974 73.8113 69.9368 73.1189 69.4203C72.4258 68.9031 72.4288 68.7417 72.7165 68.2398Z" fill="#86A1BC"/>
<path d="M72.4718 69.3824C72.7594 68.8797 75.7479 70.53 75.7479 70.53C76.0203 71.0755 75.6661 71.341 75.383 71.4405C75.1014 71.54 73.5658 71.0794 72.8734 70.5629C72.181 70.0457 72.1833 69.885 72.4718 69.3824Z" fill="#86A1BC"/>
<path d="M72.2589 70.3736C72.5473 69.8709 75.535 71.5212 75.535 71.5212C75.8074 72.0668 75.4531 72.333 75.1708 72.4317C74.8885 72.5312 73.3537 72.0706 72.6606 71.5541C71.9681 71.0369 71.9704 70.8763 72.2589 70.3736Z" fill="#86A1BC"/>
<path d="M72.3546 71.4288C72.6224 70.92 74.9889 72.366 74.9889 72.366C75.1802 72.8848 74.8726 73.1656 74.6339 73.2796C74.3959 73.3928 73.1565 73.0309 72.6163 72.5634C72.0754 72.0967 72.0869 71.9384 72.3546 71.4288Z" fill="#86A1BC"/>
<path d="M108.547 54.6546C109.333 56.0677 109.503 57.7234 109.184 59.3094C108.375 63.3354 103.604 71.8158 98.9686 76.7912C96.9633 77.6864 95.2831 77.8379 93.0865 77.6803C79.9765 76.7392 78.835 75.6818 78.835 75.6818L79.9795 68.4578C79.9795 68.4578 88.0995 69.672 94.5325 69.5013C94.5325 69.5013 99.0696 59.4188 101.311 56.0302C103.19 53.1917 106.528 51.031 108.547 54.6546Z" fill="#FCBB7F"/>
<path d="M91.3517 43.5845C91.3425 43.6113 91.3318 43.6388 91.318 43.6641C91.0801 44.1407 90.3181 44.4743 89.5973 44.143C89.4558 44.0788 89.3143 43.987 89.1788 43.8653C88.9799 43.687 89.0365 43.3672 89.2989 43.3205C89.6761 43.254 90.1444 43.0987 90.4075 42.746C90.8773 42.1132 91.6049 42.9074 91.3517 43.5845Z" fill="#45322B"/>
<path d="M91.352 43.5852C91.3428 43.612 91.3321 43.6395 91.3183 43.6648C91.0804 44.1414 90.3184 44.475 89.5977 44.1437C89.9351 43.739 90.9327 42.6671 91.352 43.5852Z" fill="#EE7035"/>
<path d="M91.6309 55.5486L93.0723 60.3504L96.7494 54.5127C96.7494 54.5127 96.3324 56.5073 91.6309 55.5486Z" fill="white"/>
<path d="M99.0449 46.3662L96.8399 52.4021L93.1689 60.6437L99.1673 53.5788L98.5782 52.8956L102.674 48.4335L99.0449 46.3662Z" fill="#FCBB7F"/>
<path d="M92.1821 47.3242L89.7139 47.9264L89.502 51.3884L90.7391 51.9944L89.5563 53.2507L93.1683 60.6439L92.1821 47.3242Z" fill="#FCBB7F"/>
<path d="M93.0424 69.193C92.9598 69.1915 92.8947 69.1249 92.8955 69.0438L93.021 60.6415C93.021 60.6071 93.034 60.5742 93.0554 60.5482L98.9727 53.5796L98.4662 52.992C98.4165 52.9354 98.418 52.8513 98.4685 52.7962L102.564 48.3349C102.619 48.2744 102.713 48.2714 102.771 48.3257C102.832 48.3808 102.836 48.4733 102.781 48.533L98.7746 52.8987L99.278 53.4832C99.3255 53.5375 99.3262 53.6194 99.2788 53.6745L93.314 60.6989L93.1901 69.0484C93.1893 69.128 93.1235 69.193 93.0424 69.193Z" fill="white"/>
<path d="M92.3483 59.1137C92.2948 59.1137 92.2419 59.0831 92.2159 59.031L89.4241 53.315C89.3973 53.2599 89.4065 53.1941 89.4486 53.1489L90.4937 52.0388L89.4356 51.52C89.3828 51.4948 89.3507 51.4382 89.3537 51.3793L89.5664 47.9172C89.571 47.8369 89.6406 47.7756 89.7225 47.7795C89.8028 47.7841 89.8648 47.8545 89.8602 47.9356L89.6536 51.2997L90.8028 51.862C90.8449 51.8827 90.874 51.9217 90.8824 51.9684C90.8916 52.0143 90.877 52.061 90.8449 52.0954L89.7324 53.2775L92.4807 58.9017C92.5166 58.9752 92.486 59.0632 92.4133 59.0991C92.3919 59.1091 92.3713 59.1137 92.3483 59.1137Z" fill="white"/>
<path d="M93.8059 77.7372C87.5818 77.7372 79.246 75.9239 78.8053 75.8267C78.7288 75.8099 78.6791 75.7364 78.6913 75.6591L79.8367 68.4358C79.8489 68.3555 79.9247 68.3004 80.005 68.3134C80.0853 68.3264 80.1404 68.4014 80.1267 68.4817L79.0035 75.5689C80.4403 75.8734 92.8334 78.4334 98.0384 77.008C98.1164 76.9881 98.1976 77.0325 98.2182 77.1113C98.2396 77.1901 98.1945 77.2704 98.1157 77.2919C96.9512 77.6102 95.4516 77.7372 93.8059 77.7372Z" fill="white"/>
<path d="M83.3325 75.3023C83.2354 75.2916 83.1772 75.2197 83.1871 75.1386L83.8734 69.1372L80.875 68.7309C80.7954 68.7194 80.738 68.646 80.7495 68.5649C80.7602 68.4845 80.8337 68.4287 80.9156 68.4386L84.0555 68.8656C84.1351 68.8763 84.1909 68.9482 84.1818 69.0278L83.4779 75.1715C83.471 75.2473 83.4067 75.3023 83.3325 75.3023Z" fill="white"/>
<path d="M91.6009 69.6872C88.8228 69.6872 85.7188 69.2825 85.5191 69.2557C85.4395 69.2442 85.3822 69.1708 85.3929 69.0905C85.4036 69.0101 85.4771 68.9527 85.5582 68.9634C85.6339 68.9741 93.1219 69.9512 95.2481 68.913C97.3636 67.8793 101.328 57.8802 101.368 57.7792C101.398 57.7035 101.483 57.6675 101.559 57.6966C101.635 57.7264 101.672 57.8121 101.642 57.8878C101.478 58.3041 97.594 68.0943 95.3767 69.1777C94.5886 69.5625 93.1449 69.6872 91.6009 69.6872Z" fill="white"/>
<path opacity="0.6" d="M86.7598 42.0771L87.974 40.9325C87.974 40.9325 88.1254 39.6922 89.0091 40.5277C92.2417 40.784 96.3197 37.6035 96.3197 37.6035C96.3197 37.6035 95.2508 42.1811 97.4421 40.3541C97.8231 46.0533 93.6548 47.4588 91.0558 46.7488C88.4568 46.0395 87.6534 44.6126 86.7598 42.0771Z" fill="#FEFEFE"/>
</g>
<mask id="mask4_2693_57700" style="mask-type:luminance" maskUnits="userSpaceOnUse" x="11" y="28" width="113" height="82">
<path d="M124 28H11V109.947H124V28Z" fill="white"/>
</mask>
<g mask="url(#mask4_2693_57700)">
<path d="M25.9424 63.7829L31.6561 62.5273H33.9782L40.5436 64.1425C40.5436 64.1425 39.3431 66.8854 35.5758 67.525C31.8084 68.1646 26.9837 66.3995 25.9424 63.7829Z" fill="#FFC192"/>
</g>
<mask id="mask5_2693_57700" style="mask-type:luminance" maskUnits="userSpaceOnUse" x="11" y="28" width="113" height="82">
<path d="M124 28H11V109.947H124V28Z" fill="white"/>
</mask>
<g mask="url(#mask5_2693_57700)">
<path d="M49.0518 85.3764C49.0518 85.3764 57.5314 79.0582 67.6009 85.3764C59.21 89.3458 50.5537 87.078 49.0518 85.3764Z" fill="#DCE6FF"/>
</g>
<mask id="mask6_2693_57700" style="mask-type:luminance" maskUnits="userSpaceOnUse" x="11" y="28" width="113" height="82">
<path d="M124 28H11V109.947H124V28Z" fill="white"/>
</mask>
<g mask="url(#mask6_2693_57700)">
<path d="M47.3253 91.4629H46.0361V110.447H47.3253V91.4629Z" fill="#1E232E"/>
</g>
<mask id="mask7_2693_57700" style="mask-type:luminance" maskUnits="userSpaceOnUse" x="11" y="28" width="113" height="82">
<path d="M124 28H11V109.947H124V28Z" fill="white"/>
</mask>
<g mask="url(#mask7_2693_57700)">
<path d="M115.367 84.1572H45.7627V95.102H115.367V84.1572Z" fill="#E4EAE8"/>
<path d="M115.365 94.8467H46.0947V105.526H115.365V94.8467Z" fill="#E4EAE8"/>
</g>
<mask id="mask8_2693_57700" style="mask-type:luminance" maskUnits="userSpaceOnUse" x="11" y="28" width="113" height="82">
<path d="M124 28H11V109.947H124V28Z" fill="white"/>
</mask>
<g mask="url(#mask8_2693_57700)">
<path d="M37.6755 110.447H56.7724C56.5743 109.996 56.3302 109.56 56.0395 109.147C55.4924 108.37 54.9637 107.566 54.2622 106.93L54.1306 106.81L53.9951 106.697L53.7205 106.474C53.6286 106.4 53.533 106.334 53.4382 106.266L53.1719 106.077L52.4971 105.605C50.6998 104.341 48.9095 103.066 47.136 101.764L45.8055 100.788L44.4826 99.8006C43.6013 99.1403 42.7252 98.4723 41.8568 97.7914C41.6089 97.5986 41.3174 97.4111 41.0259 97.2658C38.6426 96.0829 36.6044 97.7233 34.5807 99.4654C29.3115 104.002 32.7636 107.761 37.6755 110.447Z" fill="black"/>
<path d="M38.0342 108.479L31.6372 110.056C25.8982 110.06 21.1331 106.741 21.5157 101.372L22.4797 92.7197L42.37 93.7564L38.0342 108.479Z" fill="black"/>
<path d="M28.0483 110.405C28.1516 110.418 28.2541 110.432 28.3574 110.446H56.8857C56.4641 109.867 55.9844 109.346 55.4558 108.896C55.1933 108.658 54.9041 108.454 54.6233 108.247C54.4787 108.149 31.137 95.4832 29.8861 95.3309C25.7232 94.8237 21.9367 97.7869 21.4294 101.949C20.9229 106.112 23.8854 109.898 28.0483 110.405Z" fill="black"/>
<path d="M30.5771 51.9321C30.5771 54.701 28.5022 56.9458 25.9414 56.9458C23.3806 56.9458 21.3057 54.701 21.3057 51.9321C21.3057 49.164 23.3806 46.9199 25.9414 46.9199C28.5022 46.9199 30.5771 49.164 30.5771 51.9321Z" fill="#603F36"/>
<path d="M26.7856 48.9201C26.7856 48.9201 24.9593 59.0164 29.4374 59.1219C30.0877 59.1372 30.6807 60.3186 31.3287 60.3859C34.3685 60.7034 35.852 56.3599 34.9446 52.1427C33.9217 47.3968 28.4382 43.8819 26.7856 48.9201Z" fill="#603F36"/>
<path d="M30.9736 56.2689C30.9736 56.2689 36.1502 59.4441 40.7293 52.4426C41.1685 51.7701 41.4669 50.904 41.5235 49.9683C41.7913 45.5988 37.861 43.4405 32.4961 45.0594C27.3539 46.6118 25.4702 54.0677 30.9736 56.2689Z" fill="#603F36"/>
<path d="M39.8825 55.4291C39.8465 55.4605 39.7906 55.4628 39.7501 55.4322C39.7027 55.3962 39.6935 55.3296 39.7272 55.2845C42.0638 52.1438 41.1717 48.7819 41.1617 48.749C41.1457 48.6924 41.1793 48.635 41.2344 48.6212C41.291 48.6075 41.3484 48.6411 41.3645 48.6977C41.3744 48.7322 42.2933 52.1935 39.8978 55.4138C39.8932 55.4192 39.8878 55.4245 39.8825 55.4291Z" fill="#603F36"/>
<path d="M32.5276 67.0416C30.52 67.0416 28.8926 65.4142 28.8926 63.4074V54.7158H36.1618V63.4074C36.1618 65.4142 34.5345 67.0416 32.5276 67.0416Z" fill="#FFC192"/>
<path d="M35.2783 61.2882C32.6463 61.2882 30.8644 58.8238 30.8453 58.7963C30.8124 58.7496 30.8231 58.6845 30.869 58.6509C30.9164 58.618 30.9807 58.6287 31.0144 58.6754C31.035 58.7052 33.1543 61.631 36.1397 60.9867C36.1964 60.9745 36.2515 61.0097 36.2637 61.0663C36.276 61.1222 36.24 61.178 36.1842 61.1902C35.8728 61.2583 35.5705 61.2882 35.2783 61.2882Z" fill="#EE7035"/>
<path d="M28.5409 53.6564C28.5409 53.6564 30.6227 61.3158 35.7626 61.0205C40.9026 60.7252 41.0625 50.4759 40.2401 48.3374C39.4176 46.199 33.7833 43.6611 29.8591 47.5509C27.6235 49.7666 28.5409 53.6564 28.5409 53.6564Z" fill="#FFC192"/>
<path d="M31.6517 44.6026C31.6517 45.562 30.729 46.3409 29.5905 46.3409C28.4528 46.3409 27.5293 45.562 27.5293 44.6026C27.5293 43.6424 28.4528 42.8643 29.5905 42.8643C30.729 42.8643 31.6517 43.6424 31.6517 44.6026Z" fill="#603F36"/>
<path d="M30.9998 47.2365C30.9998 48.9235 29.6318 50.2915 27.9447 50.2915C26.2577 50.2915 24.8896 48.9235 24.8896 47.2365C24.8896 45.5487 26.2577 44.1807 27.9447 44.1807C29.6318 44.1807 30.9998 45.5487 30.9998 47.2365Z" fill="#603F36"/>
<path d="M41.2609 50.1681C40.6695 50.7587 39.6328 49.9485 38.6588 48.9738C37.6849 47.999 37.1416 47.2301 37.7323 46.6387C38.3237 46.0472 39.593 46.3579 40.567 47.3326C41.541 48.3073 41.8516 49.5767 41.2609 50.1681Z" fill="#603F36"/>
<path d="M40.6594 50.9033C39.1865 48.8689 38.0764 50.7564 36.3924 49.0724C34.7091 47.3884 33.8898 45.4787 34.5623 44.8054C35.2356 44.1329 37.146 44.9523 38.8292 46.6363C40.5117 48.3195 41.3326 50.23 40.6594 50.9033Z" fill="#603F36"/>
<path d="M28.4404 55.3911C28.4404 55.3911 30.1756 54.0139 29.7655 51.6437C29.7265 51.4164 29.6194 51.2022 29.4487 51.0492C28.653 50.3323 27.2774 51.4409 26.6102 52.9902C25.8596 54.7339 26.8642 56.6903 28.4404 55.3911Z" fill="#603F36"/>
<path d="M29.6014 53.7146C29.5563 53.697 29.5302 53.648 29.5402 53.5975C29.5517 53.5401 29.6068 53.5019 29.6634 53.5118C33.5111 54.2257 36.1362 51.9434 36.1622 51.9204C36.2058 51.8814 36.2708 51.8852 36.3083 51.9296C36.3458 51.974 36.3404 52.0413 36.296 52.0796C36.2693 52.1033 33.5677 54.4537 29.6206 53.7215C29.6144 53.7199 29.6075 53.7177 29.6014 53.7146Z" fill="#6A4A3F"/>
<path d="M29.0846 52.5775C29.0846 52.5775 33.9231 54.862 38.2949 50.5645C38.7157 50.1521 39.0286 49.5943 39.1441 48.9677C39.6835 46.0404 35.5397 43.5011 31.5918 44.0458C27.1504 44.6579 24.5911 50.5683 29.0846 52.5775Z" fill="#603F36"/>
<path d="M30.2052 53.1862C29.6398 52.8067 28.2466 52.0546 27.8426 53.3254C27.4019 54.711 29.4577 55.3506 30.1104 55.5174L30.2052 53.1862Z" fill="#FFC192"/>
<path d="M29.801 53.9792C29.762 53.9792 29.7237 53.9571 29.7069 53.9188C29.3312 53.104 28.5378 53.3978 28.5041 53.4108C28.4506 53.4307 28.3909 53.4046 28.3703 53.3511C28.3496 53.2975 28.3764 53.2379 28.4292 53.2164C28.4399 53.2126 29.4384 52.8423 29.8959 53.8323C29.9196 53.8844 29.8967 53.9456 29.8454 53.9701C29.8301 53.9762 29.8163 53.9792 29.801 53.9792Z" fill="#FFAB6D"/>
<path d="M38.1898 56.6507C38.4598 56.6507 39.1882 56.5994 39.2365 56.0531C39.2808 55.5573 38.8011 55.3469 38.4989 55.2957L38.1814 53.858C38.1722 53.8175 38.1324 53.7915 38.0926 53.8007C38.0521 53.8099 38.026 53.8496 38.036 53.8902L38.365 55.3775C38.3719 55.4089 38.3979 55.4319 38.4293 55.4357C38.4576 55.4395 39.1332 55.5267 39.0873 56.0394C39.0413 56.5535 38.1095 56.4992 38.1003 56.4992C38.0597 56.4961 38.023 56.5275 38.0207 56.5688C38.0177 56.6101 38.049 56.6461 38.0903 56.6484C38.098 56.6484 38.1347 56.6507 38.1898 56.6507Z" fill="#603F36"/>
<path d="M39.0966 53.8725C38.9137 54.3353 39.6421 54.6245 39.8257 54.1617C40.0071 53.7041 39.2856 53.395 39.0966 53.8725Z" fill="#603F36"/>
<path d="M36.212 53.6119C36.0284 54.0748 36.7575 54.364 36.9412 53.9011C37.1233 53.4428 36.401 53.1345 36.212 53.6119Z" fill="#603F36"/>
<path d="M35.5744 55.1524C35.5744 55.3996 35.374 55.6 35.1261 55.6C34.879 55.6 34.6777 55.3996 34.6777 55.1524C34.6777 54.9053 34.879 54.7041 35.1261 54.7041C35.374 54.7041 35.5744 54.9053 35.5744 55.1524Z" fill="#FFAB6D"/>
<path d="M35.054 57.4655C35.0632 57.4922 35.0747 57.519 35.0885 57.545C35.3264 58.0217 36.0877 58.3561 36.8084 58.024C36.95 57.9597 37.0923 57.8679 37.227 57.747C37.4259 57.5688 37.3692 57.2482 37.1068 57.2015C36.7296 57.1349 36.2614 56.9804 35.9982 56.6269C35.5284 55.9942 34.8008 56.7876 35.054 57.4655Z" fill="#6A4A3F"/>
<path d="M35.0547 57.4645C35.0639 57.4912 35.0753 57.518 35.0891 57.544C35.3271 58.0207 36.0884 58.355 36.8091 58.023C36.4717 57.6183 35.4747 56.5456 35.0547 57.4645Z" fill="#EE7035"/>
<path d="M58.6463 81.6822C58.6463 81.6822 44.6419 63.0428 39.0949 66.2662C35.7155 68.2302 37.7415 71.8078 39.8409 74.3036C41.0046 75.6876 42.3489 76.9064 43.8186 77.9531L51.5653 83.4695C53.4061 84.7809 55.9172 84.5398 57.481 82.9025L58.6463 81.6822Z" fill="#FFC192"/>
<path d="M50.9576 75.9395L48.4297 81.2164L46.875 80.1835L50.9576 75.9395Z" fill="#603F36"/>
<path d="M52.2495 74.0679L47.3437 81.4749C47.3437 81.4749 33.0731 72.2164 36.6675 66.0206C40.8778 58.7629 52.2495 74.0679 52.2495 74.0679Z" fill="#FCBB7F"/>
<path d="M64.8019 76.0556C66.4201 74.286 68.5632 71.3174 69.2105 71.8514C69.8562 72.3855 69.834 72.6005 68.3857 74.8231C68.6251 75.0977 69.378 75.4099 70.7858 74.553C71.0283 74.4053 71.2823 74.2638 71.5341 74.1398C71.6664 74.0748 71.8087 74.0694 71.9357 74.11L72.889 79.2002C72.8133 79.4099 72.7054 79.608 72.5639 79.787C72.1117 80.3609 71.6098 80.911 71.2318 81.0617C70.6764 81.2843 69.0505 81.9048 67.1867 82.1573C65.7958 82.3448 64.4248 81.6485 63.789 80.3961C63.6903 80.2025 63.652 80.0801 63.652 80.0801C63.652 80.0801 63.183 77.8268 64.8019 76.0556Z" fill="#FFC192"/>
<path d="M67.8173 82.0029C67.8173 82.0029 67.7508 82.0343 67.6269 82.0886C67.408 82.1857 67.0079 82.3579 66.4731 82.5698C64.1939 83.4772 59.4487 85.1298 55.6652 84.8896C55.2743 84.8651 54.894 84.82 54.5275 84.7504C54.4847 84.7427 54.4426 84.7343 54.3998 84.7259C54.2223 84.6907 54.0486 84.6494 53.8788 84.6012C53.7946 84.5782 53.728 84.5583 53.6622 84.5377C53.2445 84.4061 52.8527 84.2354 52.4931 84.0205C52.4197 83.9776 52.3478 83.9325 52.2767 83.885C52.0456 83.7297 51.8344 83.5568 51.6378 83.3648C51.4404 83.1704 51.2613 82.957 51.0999 82.719C47.6944 77.7007 53.207 76.8193 53.207 76.8193L54.7043 76.8453L54.8191 76.8469C54.8298 76.8476 54.9491 76.8492 54.9491 76.8492C54.9598 76.8492 56.1128 76.869 56.1128 76.869C56.132 76.869 56.3233 76.8721 56.3233 76.8721C56.3248 76.8721 64.1311 77.0075 64.1311 77.0075L66.509 77.0481L67.0094 77.0565L67.2902 77.0619L67.6674 80.6081L67.8173 82.0029Z" fill="#FFC192"/>
<path d="M71.1319 76.1C71.1319 76.1 67.1212 73.8399 66.7823 78.2614C66.4441 82.683 71.695 80.1642 71.695 80.1642L71.1319 76.1Z" fill="#FFAB6D"/>
<path d="M69.5182 76.062C69.7661 76.5249 70.6505 76.5364 71.4937 76.0857C72.3368 75.6351 72.8188 74.8937 72.5709 74.43C72.3231 73.9664 71.4378 73.9557 70.5954 74.4063C69.7523 74.857 69.2703 75.5983 69.5182 76.062Z" fill="#FFC192"/>
<path d="M69.977 77.5343C70.192 77.9375 71.0505 77.9 71.8936 77.4493C72.7368 76.9987 73.2456 76.3063 73.029 75.9031C72.814 75.4998 71.9556 75.5381 71.1125 75.9887C70.2701 76.4394 69.762 77.1318 69.977 77.5343Z" fill="#FFC192"/>
<path d="M70.186 78.8707C70.401 79.2731 71.3467 79.2632 72.189 78.8125C73.0322 78.3619 73.4538 77.6427 73.238 77.2387C73.023 76.8362 72.1653 76.8737 71.3222 77.3244C70.479 77.7758 69.971 78.4675 70.186 78.8707Z" fill="#FFC192"/>
<path d="M70.1049 79.8856C70.3199 80.288 71.2656 80.2773 72.1079 79.8274C72.9511 79.3768 73.3726 78.6576 73.1569 78.2536C72.9419 77.8504 72.0842 77.8887 71.2411 78.3393C70.3987 78.7907 69.8899 79.4824 70.1049 79.8856Z" fill="#FFC192"/>
<path d="M19.663 69.1528L19.6569 101.553L43.0268 97.3139L42.44 80.9079C42.414 78.3012 42.6696 75.6975 43.2013 73.1497L43.9327 69.6548C44.479 67.0343 42.8417 64.4613 40.3008 63.9471L38.6268 63.4597C36.333 64.7168 34.3261 65.4995 32.5266 65.3977C29.4976 65.2271 28.4058 64.143 27.3323 63.3281C27.3216 63.3289 24.7486 63.6426 24.7379 63.6434C22.174 63.9693 19.399 66.4918 19.663 69.1528Z" fill="#FCBB7F"/>
<path d="M42.4688 88.1239C42.4237 88.1239 42.3877 88.0879 42.3877 88.0428V72.2717C42.3877 72.2266 42.4244 72.1914 42.4688 72.1914C42.514 72.1914 42.5491 72.2274 42.5491 72.2717V88.0428C42.5491 88.0879 42.514 88.1239 42.4688 88.1239Z" fill="#603F36"/>
<path d="M56.1152 76.8651C56.1136 76.8697 55.7609 78.0855 55.7609 78.0855L55.7234 78.214L54.5276 82.3096L53.9461 84.3042L53.8619 84.5965C53.7946 84.5781 53.728 84.5582 53.6622 84.5376C53.2445 84.406 52.8528 84.2354 52.4932 84.0204C52.5046 83.9844 54.7555 77.0763 54.7555 77.0763L54.7961 76.9524L54.8168 76.8881L54.8298 76.8483C54.8313 76.8437 56.1152 76.8651 56.1152 76.8651Z" fill="#603F36"/>
<path d="M56.3256 76.8695C56.3256 76.8734 56.1833 78.5933 56.1833 78.5933L56.1702 78.7517L55.7365 84.0408L55.6806 84.721L55.6668 84.8901C55.2759 84.8656 54.8956 84.8204 54.5291 84.7508C54.4863 84.7432 54.4442 84.7348 54.4014 84.7264L54.4235 84.3063L54.5291 82.3109L54.8053 77.1343L54.8138 76.9721L54.8183 76.8886L54.8206 76.8481C54.8329 76.8443 56.1159 76.8657 56.1159 76.8657L56.3256 76.8695Z" fill="#603F36"/>
<path d="M32.8132 65.4028C31.8791 65.4028 31.0711 65.2521 30.4101 65.0524C28.4682 64.4663 27.3451 63.3393 27.3336 63.3278C27.3022 63.2957 27.303 63.2452 27.3351 63.2139C27.3665 63.1825 27.4178 63.1825 27.4491 63.2146C27.4606 63.2261 28.5601 64.3271 30.4652 64.9001C32.2218 65.4281 35.0435 65.6033 38.5155 63.4334C38.5538 63.4105 38.6035 63.4212 38.6272 63.4594C38.651 63.4977 38.6402 63.5467 38.602 63.5712C36.3771 64.9614 34.4108 65.4028 32.8132 65.4028Z" fill="black"/>
<path d="M17.944 90.3008L18.475 90.5036C19.0763 90.7324 19.7542 90.4852 20.0663 89.9214C22.3257 85.8518 30.246 70.6722 25.8138 67.3348C22.6998 64.9898 20.4918 67.8635 19.0113 70.7594C18.1903 72.3654 17.5905 74.0723 17.1988 75.8274L15.8124 82.0278L15.3212 84.2221L15.1291 85.0836C14.6387 87.2825 15.8323 89.4975 17.944 90.3008Z" fill="#FFC192"/>
<path d="M24.4514 82.3693C24.4514 81.8789 30.9961 71.6311 26.8508 65.5845C25.7031 63.9105 23.3588 63.5455 21.7835 64.8263C17.9327 67.9586 14.6543 82.2637 14.6543 82.2637L24.4514 82.3693Z" fill="#FCBB7F"/>
<path d="M37.5949 90.4562L19.0511 90.5587C17.8515 90.5649 16.9203 89.3415 17.0443 87.936C17.182 86.3821 17.5768 84.542 18.6258 83.6078C20.6464 81.8068 39.9093 86.7348 39.9093 86.7348L39.8642 90.4647L37.5949 90.4562Z" fill="#FFC192"/>
<path d="M36.7734 87.671C36.7734 87.671 36.8714 85.4851 38.778 84.2342C40.6862 82.9832 43.3586 80.7514 43.8292 81.3956C44.299 82.0406 44.2278 82.2326 42.3717 83.9396C42.527 84.2495 43.1482 84.7139 44.6463 84.2548C46.1444 83.7957 47.924 83.6259 47.2102 85.0635C47.2102 85.0635 48.0786 85.7697 46.7779 86.7896C47.9385 86.9304 46.7848 88.0535 46.2201 88.5363C45.6555 89.0191 44.237 90.2647 43.5293 90.358C42.9654 90.4322 41.3212 90.6227 39.5446 90.4162C38.218 90.2624 37.1178 89.2983 36.8263 87.9954C36.7796 87.7926 36.7734 87.671 36.7734 87.671Z" fill="#FFC192"/>
<path d="M47.2458 85.1145C46.1387 85.862 44.2986 86.1152 44.2213 86.1251C44.1869 86.1297 44.1555 86.1068 44.151 86.0724C44.1464 86.0387 44.1701 86.0073 44.2045 86.0027C44.2221 85.9997 46.0935 85.7418 47.1739 85.0127C47.2022 84.9936 47.2412 85.0005 47.2596 85.0295C47.2787 85.0578 47.2726 85.0953 47.2458 85.1145Z" fill="#EE7035"/>
<path d="M46.8093 86.7565C45.7022 87.504 43.8621 87.758 43.7841 87.768C43.7504 87.7726 43.719 87.7488 43.7144 87.7152C43.7098 87.6808 43.7335 87.6494 43.7672 87.6448C43.7863 87.6425 45.6563 87.3839 46.7373 86.6547C46.7656 86.6364 46.8047 86.6433 46.823 86.6716C46.8422 86.6999 46.8353 86.7366 46.8093 86.7565Z" fill="#EE7035"/>
<path d="M17.3994 85.2568C19.0933 82.8965 23.5562 83.2813 23.6013 83.2859L23.6151 83.1375C23.5692 83.1329 19.0222 82.7396 17.2793 85.1696L17.3994 85.2568Z" fill="#EE7035"/>
<path d="M24.5131 82.3896C24.5422 82.3896 24.569 82.3727 24.5812 82.3459C24.8016 81.8678 25.012 81.3835 25.2155 80.916C25.5843 80.0667 25.9653 79.1876 26.4091 78.3498C26.4282 78.3139 26.4144 78.2687 26.3777 78.2488C26.3417 78.2297 26.2966 78.2435 26.2775 78.2802C25.8314 79.1226 25.4481 80.004 25.0786 80.8555C24.8819 81.3092 24.6784 81.7767 24.4657 82.2396C21.8253 82.2396 19.0955 82.2396 16.3939 82.1883C16.3541 82.1876 16.3189 82.2205 16.3174 82.2626C16.3166 82.3039 16.3495 82.3375 16.3909 82.3391C19.1108 82.3895 21.8575 82.3896 24.5131 82.3896Z" fill="#603F36"/>
</g>
<mask id="mask9_2693_57700" style="mask-type:luminance" maskUnits="userSpaceOnUse" x="11" y="28" width="113" height="82">
<path d="M124 28H11V109.947H124V28Z" fill="white"/>
</mask>
<g mask="url(#mask9_2693_57700)">
<path d="M90.9922 81.9033V92.4701C90.9922 92.9483 91.3832 93.3393 91.8606 93.3393H92.224C92.7014 93.3393 93.0932 92.9483 93.0932 92.4701V81.9033H90.9922Z" fill="white"/>
<path d="M93.332 81.3486H90.749V82.9117H93.332V81.3486Z" fill="#86A1BC"/>
<path d="M91.1475 85.1064V92.3037C91.1475 92.7972 91.5469 93.1974 92.0411 93.1974C92.5354 93.1974 92.9355 92.7972 92.9355 92.3037V85.1064H91.1475Z" fill="#F59678"/>
<path d="M87.3916 81.9033V92.4701C87.3916 92.9483 87.7826 93.3393 88.2607 93.3393H88.6234C89.1016 93.3393 89.4925 92.9483 89.4925 92.4701V81.9033H87.3916Z" fill="white"/>
<path d="M89.7314 81.3486H87.1484V82.9117H89.7314V81.3486Z" fill="#86A1BC"/>
<path d="M87.5469 87.5361V92.3035C87.5469 92.797 87.947 93.1971 88.4405 93.1971C88.9356 93.1971 89.3349 92.797 89.3349 92.3035V87.5361H87.5469Z" fill="#F59678"/>
<path d="M83.8379 81.9033V92.4701C83.8379 92.9483 84.2297 93.3393 84.7071 93.3393H85.0697C85.5479 93.3393 85.9389 92.9483 85.9389 92.4701V81.9033H83.8379Z" fill="white"/>
<path d="M86.1779 81.3486H83.5957V82.9117H86.1779V81.3486Z" fill="#86A1BC"/>
<path d="M84.8563 93.198C84.3628 93.198 83.9619 92.7978 83.9619 92.3043V84.2471H85.7507V92.3043C85.7507 92.7971 85.3506 93.198 84.8563 93.198Z" fill="#F59678"/>
<path d="M94.416 91.7725H82.8408V92.4236H83.3129V92.4871C83.3129 93.22 83.9977 93.8199 84.8339 93.8199C85.671 93.8199 86.3549 93.22 86.3549 92.4871V92.4236H86.9341V92.4871C86.9341 93.22 87.6189 93.8199 88.4551 93.8199C89.2914 93.8199 89.9754 93.22 89.9754 92.4871V92.4236H90.5553V92.4871C90.5553 93.22 91.2394 93.8199 92.0764 93.8199C92.9126 93.8199 93.5966 93.22 93.5966 92.4871V92.4236H93.9593C94.1253 92.4236 94.2806 92.3838 94.4153 92.3157V91.7725H94.416Z" fill="#6B6B6B"/>
<path d="M92.7428 87.834H91.4131V88.7215H92.7428V87.834Z" fill="white"/>
<path d="M94.416 85.5537H82.8408V86.4581H94.413L94.416 85.5537Z" fill="#6B6B6B"/>
<path d="M83.0736 85.5527H82.499V92.3927H83.0736V85.5527Z" fill="#6B6B6B"/>
<path d="M94.4164 85.5537H93.8916V92.3937H94.4164V85.5537Z" fill="#6B6B6B"/>
</g>
<path d="M115.366 100.187H111.802V113.241H115.366V100.187Z" fill="#E4EAE8"/>
<path d="M84.7194 81.4756H85.3633V83.0393H84.7194V81.4756Z" fill="#D7F0FC" stroke="#8EA6B2" stroke-linecap="round" stroke-linejoin="round"/>
<g style="mix-blend-mode:multiply">
<path d="M84.983 81.8389C84.89 81.8326 84.7985 81.8125 84.7115 81.7791V81.4639H85.3691V81.7683C85.2553 81.8343 85.1114 81.8488 84.983 81.8389Z" fill="#D7F0FC"/>
</g>
<path d="M83.0953 77.6114C83.2793 77.1489 84.2393 77.0337 84.8214 77.007C84.9058 77.0031 84.9823 77.0011 85.0472 77.0001C85.112 76.9992 85.1886 77.0031 85.273 77.007C85.855 77.0337 86.8137 77.1489 86.9991 77.6114C87.1994 78.1125 87.2578 81.184 85.3631 81.6357C85.2592 81.66 85.1536 81.6763 85.0472 81.6844C84.9409 81.6765 84.8353 81.6603 84.7314 81.6361C82.8366 81.184 82.8948 78.1125 83.0953 77.6114Z" fill="#EDEDEE" stroke="#9FB9C6" stroke-linecap="round" stroke-linejoin="round"/>
<g style="mix-blend-mode:multiply">
<path d="M83.1922 77.5274C83.3681 77.1901 84.2797 77.0675 84.8327 77.0482C84.913 77.0454 85.1816 77.0597 85.2618 77.0625C85.8149 77.082 86.7265 77.1901 86.9021 77.5274C87.0928 77.8931 87.148 80.1336 85.3476 80.4633C85.2483 80.4811 85.148 80.4929 85.0473 80.4985C84.9466 80.4927 84.8463 80.4808 84.747 80.4629C82.9464 80.1336 83.0018 77.8931 83.1922 77.5274Z" fill="#B9D7E6"/>
</g>
<path d="M83.5312 77.5472C83.6742 77.2204 84.4202 77.139 84.8723 77.1202C84.9378 77.1174 84.9972 77.116 85.0478 77.1153C85.0983 77.1147 85.1577 77.1174 85.2232 77.1202C85.6753 77.139 86.4206 77.2204 86.5643 77.5472C86.72 77.9011 86.7653 80.0712 85.2933 80.3907C85.2124 80.408 85.1303 80.4194 85.0478 80.4249C84.9648 80.4195 84.8823 80.408 84.801 80.3907C83.3293 80.0712 83.3753 77.9011 83.5312 77.5472Z" fill="#00214B"/>
<path d="M83.5605 77.5546C83.7015 77.2411 84.4323 77.1636 84.8756 77.145C84.9389 77.1406 84.998 77.1406 85.0477 77.1406C85.0973 77.1406 85.1553 77.1427 85.2197 77.1452C85.663 77.1634 86.3938 77.2413 86.5348 77.5548C86.6866 77.8931 86.7326 79.9749 85.2884 80.281C85.2091 80.2978 85.1286 80.3088 85.0477 80.3141C84.9667 80.3088 84.8862 80.2978 84.8069 80.281C83.3634 79.9749 83.4078 77.8931 83.5605 77.5546Z" fill="#024985"/>
<path d="M85.5275 77.6816H84.441C84.2344 77.6817 84.0363 77.7638 83.8902 77.9099C83.7442 78.056 83.6621 78.2542 83.6621 78.4607V78.4665C83.6621 78.6731 83.7442 78.8712 83.8902 79.0172C84.0363 79.1633 84.2344 79.2454 84.441 79.2454H85.5275C85.6299 79.2454 85.7312 79.2253 85.8257 79.1861C85.9203 79.147 86.0062 79.0896 86.0785 79.0172C86.1509 78.9449 86.2083 78.859 86.2474 78.7644C86.2865 78.6699 86.3067 78.5686 86.3066 78.4663V78.4607C86.3067 78.3584 86.2865 78.2571 86.2474 78.1626C86.2083 78.068 86.1509 77.9821 86.0785 77.9098C86.0062 77.8374 85.9203 77.78 85.8257 77.7409C85.7312 77.7017 85.6299 77.6816 85.5275 77.6816Z" fill="#B9D7E6" stroke="white" stroke-linecap="round" stroke-linejoin="round"/>
<path d="M83.7547 78.4631C83.7564 78.6591 83.8354 78.8464 83.9747 78.9843C84.1139 79.1221 84.302 79.1993 84.4979 79.199H85.4983C85.6939 79.1992 85.8816 79.1219 86.0203 78.9839C86.159 78.846 86.2374 78.6587 86.2383 78.4631V78.4578C86.2371 78.2628 86.1584 78.0761 86.0197 77.939C85.8809 77.8019 85.6934 77.7255 85.4983 77.7266H84.4979C84.0872 77.7266 83.7547 78.0566 83.7547 78.4578V78.4631Z" fill="white" stroke="#B9D7E6" stroke-linecap="round" stroke-linejoin="round"/>
<path d="M85.6289 78.2617V78.0715L85.5576 78V78.2796L85.5841 78.3063L85.6289 78.2617ZM85.5576 78.3606V78.6391L85.6289 78.5673V78.3776L85.5829 78.333L85.5576 78.3606Z" fill="black"/>
<path d="M85.3291 78.2604L85.3737 78.3051L85.4004 78.2784V77.999L85.3291 78.0703V78.2604ZM85.3291 78.5661L85.4004 78.6373V78.3591L85.3737 78.3315L85.3291 78.3763V78.5661ZM85.0154 77.9863L85.0858 78.0576H85.3158L85.3861 77.9863H85.0154ZM85.0154 78.6505H85.3861L85.3158 78.5794H85.0858L85.0154 78.6505ZM85.0021 78.2779L85.0281 78.3046L85.0741 78.26V78.0703L85.0028 77.999L85.0021 78.2779ZM85.0021 78.6373L85.0734 78.5661V78.3763L85.0274 78.3317L85.0014 78.3593L85.0021 78.6373Z" fill="black"/>
<path d="M84.8154 78.261L84.8603 78.3056L84.8867 78.2789V77.9995L84.8154 78.0708V78.261ZM84.8154 78.567L84.8867 78.6383V78.3596L84.8603 78.332L84.8154 78.3766V78.567ZM84.5008 77.9873L84.5698 78.0586H84.8032L84.8722 77.9873H84.5008ZM84.5008 78.6514H84.8734L84.8044 78.5804H84.5721L84.5008 78.6514ZM84.4875 78.2789L84.5135 78.3056L84.5595 78.261V78.0708L84.4882 77.9995L84.4875 78.2789ZM84.4875 78.6383L84.5588 78.567V78.3769L84.5128 78.3322L84.4868 78.3598L84.4875 78.6383Z" fill="black"/>
<path d="M84.8535 78.9023H84.8273V78.9166C84.8231 78.9113 84.8177 78.9071 84.8116 78.9043C84.8055 78.9016 84.7988 78.9002 84.7921 78.9005C84.7842 78.9002 84.7763 78.9019 84.7691 78.9053C84.7633 78.9088 84.758 78.9131 84.7535 78.9182C84.7482 78.9122 84.7417 78.9076 84.7345 78.9045C84.7272 78.9014 84.7193 78.9001 84.7114 78.9005C84.7001 78.9005 84.6892 78.9048 84.6808 78.9124C84.676 78.9168 84.6723 78.9222 84.6698 78.9282C84.6673 78.9342 84.6662 78.9407 84.6666 78.9471V79.0366H84.6928V78.9575C84.6925 78.9536 84.693 78.9496 84.6942 78.9459C84.6955 78.9422 84.6975 78.9388 84.7001 78.9359C84.7054 78.931 84.7124 78.9283 84.7196 78.9283C84.7268 78.9283 84.7337 78.931 84.739 78.9359C84.7417 78.9387 84.7439 78.9421 84.7452 78.9458C84.7465 78.9496 84.7471 78.9535 84.7468 78.9575V79.0375H84.773V78.9575C84.7728 78.9536 84.7733 78.9496 84.7746 78.9459C84.7759 78.9422 84.778 78.9388 84.7806 78.9359C84.7859 78.931 84.7929 78.9283 84.8001 78.9283C84.8072 78.9283 84.8142 78.931 84.8195 78.9359C84.8222 78.9387 84.8243 78.9421 84.8257 78.9458C84.827 78.9496 84.8276 78.9535 84.8273 78.9575V79.0375H84.8535V78.9023Z" fill="black"/>
<path d="M84.553 79.0225C84.5571 79.0274 84.5623 79.0313 84.5681 79.0339C84.5739 79.0366 84.5802 79.038 84.5866 79.0379C84.594 79.0382 84.6013 79.0363 84.6075 79.0324C84.6127 79.0298 84.6172 79.0261 84.6209 79.0216C84.6245 79.0168 84.627 79.0113 84.6282 79.0055C84.6303 78.9936 84.6312 78.9815 84.6308 78.9694C84.6312 78.9571 84.6303 78.9449 84.6282 78.9328C84.6271 78.927 84.6245 78.9214 84.6209 78.9167C84.6173 78.9121 84.6127 78.9082 84.6075 78.9055C84.6011 78.9021 84.5939 78.9003 84.5866 78.9004C84.5802 78.9004 84.5738 78.9018 84.568 78.9046C84.5622 78.9074 84.557 78.9115 84.553 78.9165V78.9022H84.5268V79.0333C84.5263 79.0415 84.5276 79.0497 84.5305 79.0574C84.5334 79.065 84.538 79.0719 84.5438 79.0777C84.5546 79.0875 84.5688 79.0928 84.5834 79.0924C84.5921 79.0922 84.6006 79.09 84.6084 79.086C84.6162 79.082 84.6229 79.0763 84.6282 79.0694L84.608 79.0529C84.6045 79.056 84.6007 79.0587 84.5965 79.0609C84.5923 79.0634 84.5876 79.0648 84.5827 79.065C84.5788 79.0653 84.5749 79.0647 84.5712 79.0633C84.5675 79.062 84.5641 79.0599 84.5613 79.0572C84.5585 79.0545 84.5563 79.0511 84.5548 79.0474C84.5534 79.0437 84.5528 79.0398 84.553 79.0358V79.0225ZM84.6045 78.9694C84.605 78.9765 84.605 78.9836 84.6045 78.9908C84.604 78.9944 84.6026 78.9979 84.6004 79.0009C84.5982 79.0036 84.5954 79.0059 84.5924 79.0076C84.5885 79.01 84.584 79.0113 84.5795 79.0112C84.575 79.0113 84.5706 79.01 84.5668 79.0076C84.5638 79.0058 84.5612 79.0036 84.559 79.0009C84.5568 78.9979 84.5553 78.9944 84.5546 78.9908C84.5546 78.9868 84.5546 78.9797 84.5546 78.9694C84.5546 78.959 84.5546 78.9517 84.5546 78.9464C84.5552 78.9428 84.5567 78.9395 84.559 78.9367C84.5612 78.9339 84.5638 78.9315 84.5668 78.9296C84.5707 78.9273 84.5751 78.9261 84.5796 78.9261C84.5841 78.9261 84.5885 78.9273 84.5924 78.9296C84.5955 78.9314 84.5982 78.9338 84.6004 78.9367C84.6026 78.9395 84.6041 78.9428 84.6045 78.9464C84.6051 78.954 84.6051 78.9617 84.6045 78.9694Z" fill="black"/>
<path d="M84.4427 78.8457H84.4227L84.4839 79.0373H84.5039L84.4427 78.8457Z" fill="black"/>
<path d="M84.3227 79.0231C84.3268 79.028 84.3319 79.0319 84.3377 79.0346C84.3435 79.0372 84.3498 79.0386 84.3562 79.0385C84.3633 79.0386 84.3703 79.0369 84.3765 79.0335C84.3822 79.0304 84.3872 79.0262 84.3912 79.021C84.395 79.0161 84.3975 79.0102 84.3983 79.004C84.4011 78.9811 84.4011 78.958 84.3983 78.935C84.3975 78.929 84.395 78.9233 84.3912 78.9185C84.3873 78.9128 84.3821 78.9082 84.376 78.9051C84.3699 78.902 84.3631 78.9005 84.3562 78.9008C84.3498 78.9008 84.3435 78.9023 84.3378 78.9051C84.3323 78.9083 84.3272 78.9122 84.3227 78.9166V78.8477H84.2964V79.0362H84.3227V79.0231ZM84.3484 78.9279C84.3533 78.9276 84.3582 78.9288 84.3624 78.9314C84.366 78.9336 84.3687 78.9369 84.3703 78.9408C84.3719 78.9451 84.373 78.9496 84.3735 78.9541C84.3735 78.9592 84.3735 78.9645 84.3735 78.9698C84.3735 78.9751 84.3735 78.9799 84.3735 78.9847C84.3731 78.9894 84.372 78.9941 84.3703 78.9985C84.3687 79.0024 84.3659 79.0058 84.3624 79.0082C84.3582 79.0108 84.3533 79.0121 84.3484 79.0118C84.3432 79.0121 84.3381 79.0108 84.3337 79.0079C84.3302 79.0056 84.3276 79.0021 84.3263 78.9981C84.3244 78.9937 84.3233 78.989 84.3229 78.9843C84.3229 78.9794 84.3229 78.9746 84.3229 78.9698C84.3229 78.9649 84.3229 78.9596 84.3229 78.9548C84.3233 78.9503 84.3245 78.9459 84.3263 78.9417C84.3275 78.9376 84.3301 78.9341 84.3337 78.9318C84.3381 78.929 84.3432 78.9276 84.3484 78.9279Z" fill="black"/>
<path d="M84.2607 78.8477H84.2329V79.0086H84.1439V79.0355H84.2607V78.8477Z" fill="black"/>
<path d="M84.6478 80.5367C84.6219 80.5213 84.5923 80.5134 84.5622 80.5137C84.4309 80.5087 84.0471 80.8311 84.0255 80.8667C84.0104 80.8871 84.0019 80.9116 84.0014 80.937C84.0009 80.9623 84.0083 80.9872 84.0225 81.0081C84.0455 81.0495 84.4351 81.3761 84.5664 81.3722C84.5987 81.373 84.6303 81.3626 84.6558 81.3427C84.6661 81.336 84.6743 81.3266 84.6795 81.3154C84.6846 81.3043 84.6866 81.2919 84.685 81.2797V80.6041C84.6862 80.5904 84.6833 80.5767 84.6767 80.5647C84.6701 80.5527 84.66 80.543 84.6478 80.5367Z" fill="#00214B"/>
<path d="M84.6152 80.5644C84.5911 80.5505 84.5639 80.5431 84.5361 80.543C84.4278 80.5384 84.1077 80.8298 84.0897 80.862C84.0743 80.8809 84.0662 80.9047 84.0667 80.9291C84.0652 80.9507 84.071 80.9721 84.0831 80.9901C84.1012 81.0273 84.4223 81.3233 84.5303 81.3189C84.5625 81.3189 84.594 81.3097 84.6212 81.2925C84.6392 81.2774 84.6532 81.2583 84.6621 81.2366V80.6251C84.6529 80.6007 84.6365 80.5795 84.6152 80.5644Z" fill="#024985"/>
<path d="M85.4159 80.5367C85.4425 80.5213 85.4728 80.5134 85.5035 80.5137C85.6348 80.5082 86.0186 80.8306 86.0416 80.8658C86.059 80.8864 86.0679 80.9129 86.0662 80.9399C86.0675 80.9641 86.0601 80.988 86.0453 81.0072C86.0223 81.0486 85.633 81.3752 85.5017 81.3713C85.4681 81.372 85.4353 81.3617 85.4083 81.3418C85.398 81.335 85.3896 81.3258 85.3837 81.315C85.3779 81.3042 85.3748 81.292 85.3747 81.2797V80.6041C85.375 80.5902 85.379 80.5767 85.3862 80.5649C85.3934 80.553 85.4037 80.5433 85.4159 80.5367Z" fill="#00214B"/>
<path d="M85.4616 80.5647C85.4841 80.5511 85.51 80.5439 85.5363 80.544C85.6444 80.5394 85.9629 80.8308 85.9806 80.863C85.9955 80.8821 86.003 80.9059 86.0018 80.9301C86.0031 80.9517 85.9972 80.9732 85.985 80.991C85.9668 81.0283 85.6456 81.3243 85.5375 81.3199C85.5076 81.3201 85.4785 81.3108 85.4542 81.2934C85.4368 81.2793 85.4249 81.2596 85.4207 81.2376V80.6254C85.4231 80.6131 85.4279 80.6013 85.4349 80.5909C85.442 80.5805 85.451 80.5715 85.4616 80.5647Z" fill="#024985"/>
<path d="M85.0034 80.498H85.0103C85.1481 80.498 85.2598 80.6098 85.2598 80.7476V81.1224C85.2598 81.2602 85.1481 81.3719 85.0103 81.3719H85.0034C84.8656 81.3719 84.7539 81.2602 84.7539 81.1224V80.7476C84.7539 80.6098 84.8656 80.498 85.0034 80.498Z" fill="#00214B"/>
<path d="M84.7768 81.1242C84.7768 81.2474 84.895 81.3477 85.0183 81.3477C85.1416 81.3477 85.2598 81.2474 85.2598 81.1242V80.7919C85.2598 80.6684 85.1416 80.5684 85.0183 80.5684C84.895 80.5684 84.7768 80.6684 84.7768 80.7919V81.1242Z" fill="#024985"/>
<path d="M84.9613 81.0451C84.9613 81.0603 84.9857 81.0732 85.0011 81.0732H85.0107C85.0259 81.0732 85.0303 81.0603 85.0303 81.0451V80.9051C85.0303 80.8899 85.0259 80.8662 85.0107 80.8662H85.0011C84.9914 80.8682 84.9826 80.873 84.9755 80.8798C84.9685 80.8867 84.9635 80.8955 84.9613 80.9051V81.0451Z" fill="white"/>
<path d="M84.8649 80.9631C84.8649 80.9938 84.874 81.0239 84.8911 81.0494C84.9082 81.075 84.9324 81.0949 84.9608 81.1067C84.9892 81.1185 85.0205 81.1215 85.0507 81.1155C85.0808 81.1095 85.1085 81.0947 85.1303 81.073C85.152 81.0513 85.1668 81.0236 85.1728 80.9934C85.1788 80.9632 85.1757 80.932 85.1639 80.9036C85.1522 80.8752 85.1323 80.8509 85.1067 80.8338C85.0811 80.8167 85.0511 80.8076 85.0203 80.8076C84.9791 80.8076 84.9396 80.824 84.9104 80.8531C84.8813 80.8823 84.8649 80.9218 84.8649 80.9631Z" stroke="white" stroke-linecap="round" stroke-linejoin="round"/>
<g style="mix-blend-mode:screen">
<path d="M86.9141 79.6113C86.9141 79.6113 86.6422 81.4202 85.1204 81.635C85.1197 81.6347 86.3849 81.3484 86.9141 79.6113Z" fill="#EDEDEE"/>
</g>
<g style="mix-blend-mode:multiply">
<path d="M83.1751 79.6113C83.1751 79.6113 83.4466 81.4202 84.9687 81.635C84.9694 81.6347 83.704 81.3484 83.1751 79.6113Z" fill="#EDEDEE"/>
</g>
<path d="M84.9749 82.8256L84.9933 82.7969C84.9986 82.8047 85.0046 82.8144 85.0117 82.8256C85.1517 83.0482 85.6282 83.8781 85.0303 83.9984C85.0058 84.0007 84.9811 84.0007 84.9565 83.9984C84.3586 83.8788 84.8349 83.0482 84.9749 82.8256Z" fill="#9F1021"/>
<path d="M85.0227 83.0585L85.0365 83.0371C85.0404 83.0431 85.045 83.0502 85.05 83.0585C85.1547 83.225 85.51 83.8447 85.0638 83.9349C85.0456 83.9367 85.0272 83.9367 85.0089 83.9349C84.5625 83.8447 84.918 83.225 85.0227 83.0585Z" fill="#EE1D4F"/>
<g style="mix-blend-mode:screen" opacity="0.6">
<path d="M84.9756 83.7425C84.9755 83.7675 84.9829 83.792 84.9968 83.8128C85.0107 83.8336 85.0304 83.8499 85.0535 83.8595C85.0767 83.8691 85.1021 83.8716 85.1267 83.8667C85.1512 83.8619 85.1738 83.8498 85.1915 83.8321C85.2092 83.8144 85.2212 83.7919 85.2261 83.7673C85.231 83.7428 85.2284 83.7173 85.2188 83.6942C85.2092 83.6711 85.193 83.6513 85.1722 83.6374C85.1513 83.6236 85.1268 83.6162 85.1018 83.6162C85.0683 83.6162 85.0362 83.6295 85.0125 83.6532C84.9889 83.6769 84.9756 83.709 84.9756 83.7425Z" fill="white"/>
<path d="M85.1579 83.4962C85.1579 83.5005 85.1592 83.5047 85.1616 83.5082C85.164 83.5118 85.1673 83.5146 85.1713 83.5162C85.1752 83.5178 85.1796 83.5183 85.1838 83.5174C85.188 83.5166 85.1918 83.5145 85.1948 83.5115C85.1979 83.5085 85.1999 83.5046 85.2008 83.5004C85.2016 83.4962 85.2012 83.4919 85.1995 83.488C85.1979 83.484 85.1951 83.4806 85.1916 83.4783C85.188 83.4759 85.1838 83.4746 85.1796 83.4746C85.1738 83.4746 85.1683 83.4769 85.1643 83.4809C85.1602 83.485 85.1579 83.4905 85.1579 83.4962Z" fill="white"/>
</g>
</g>
<defs>
<linearGradient id="paint0_linear_2693_57700" x1="-60.7633" y1="33.6288" x2="38.4149" y2="196.806" gradientUnits="userSpaceOnUse">
<stop stop-color="#9EB5D7"/>
<stop offset="0.41" stop-color="#C6D1E4"/>
<stop offset="0.79" stop-color="#E4E6EE"/>
<stop offset="1" stop-color="#F0EEF2"/>
</linearGradient>
<clipPath id="clip0_2693_57700">
<rect width="134" height="134" fill="white"/>
</clipPath>
</defs>
</svg>
