<svg width="134" height="134" viewBox="0 0 134 134" fill="none" xmlns="http://www.w3.org/2000/svg">
<path d="M67 134C29.9969 134 0 104.003 0 67C0 29.9969 29.9969 0 67 0C104.003 0 134 29.9969 134 67C134 104.003 104.003 134 67 134Z" fill="url(#paint0_linear_13794_65649)"/>
<mask id="mask0_13794_65649" style="mask-type:alpha" maskUnits="userSpaceOnUse" x="0" y="0" width="134" height="134">
<path d="M67 134C29.9969 134 0 104.003 0 67C0 29.9969 29.9969 0 67 0C104.003 0 134 29.9969 134 67C134 104.003 104.003 134 67 134Z" fill="url(#paint1_linear_13794_65649)"/>
</mask>
<g mask="url(#mask0_13794_65649)">
<path fill-rule="evenodd" clip-rule="evenodd" d="M26.6965 86.7401C26.5677 90.1674 22.6508 93.2081 24.1969 94.6254C25.7688 96.0685 29.1446 94.2647 30.1238 95.2181C31.1031 96.1458 23.2434 97.9497 26.2069 100.372C29.1446 102.794 29.9434 101.377 30.7165 104.212C31.7988 108.077 30.4846 112.406 34.6592 114.829C37.8546 116.684 41.2304 115.653 44.6319 115.602C53.78 115.447 60.2738 125.42 63.1342 132.996C63.6496 134.336 64.1134 135.753 65.1442 136.732C66.2781 137.789 67.8758 138.124 69.3961 138.33C80.9408 139.85 92.3823 135.289 101.144 128.048C101.53 127.739 101.917 127.378 101.968 126.889C102.046 126.399 101.737 125.909 101.427 125.497C95.7323 117.509 85.9658 109.314 85.8885 98.9805C85.8112 89.6778 91.4804 81.4574 94.0831 72.8247C97.7423 60.7389 99.6492 45.097 89.4961 35.5366C77.7711 24.4816 65.7369 23.4508 57.5938 24.5847C51.4865 25.4351 47.5438 27.4966 47.5438 27.4966C47.5438 27.4966 32.8296 32.6247 29.2477 49.0912C28.7838 51.2558 28.5004 53.6266 28.4746 56.2035C28.4488 57.6724 28.5261 59.2443 28.655 60.842C28.6807 61.2801 28.7065 61.6666 28.6808 62.0531C28.655 63.8054 28.1654 65.532 27.2377 67.0266C25.1504 70.4797 20.5119 75.8397 18.3215 79.937C14.7654 86.8174 26.8254 83.3385 26.6965 86.7401Z" fill="#FCBB7F"/>
<path d="M98.5149 102.846C90.4027 102.846 83.8264 96.2694 83.8264 88.1572C83.8264 80.045 90.4027 73.4688 98.5149 73.4688C106.627 73.4688 113.203 80.045 113.203 88.1572C113.203 96.2694 106.627 102.846 98.5149 102.846Z" fill="#5C429A"/>
<path fill-rule="evenodd" clip-rule="evenodd" d="M90.0887 30.5391V84.1133H106.968V57.1329C105.267 57.1329 103.463 57.0556 102.999 57.0556C103.025 56.6948 103.051 56.3083 103.076 55.9218C103.051 56.0248 105.035 55.8445 106.968 55.7929V49.9691C105.267 49.9691 103.463 49.8918 102.999 49.8918C103.025 49.5052 103.051 49.1444 103.076 48.7579C103.051 48.861 105.035 48.6806 106.968 48.6291V42.7794C105.241 42.8052 103.463 42.7279 102.999 42.7279C103.025 42.3414 103.051 41.9548 103.076 41.5941C103.051 41.6714 105.035 41.491 106.968 41.4652V35.6156C105.267 35.6156 103.463 35.5383 102.999 35.5383C103.025 35.1775 103.051 34.791 103.076 34.4044C103.051 34.5075 105.035 34.3271 106.968 34.2756V30.5391H90.0887Z" fill="#5C429A"/>
<path d="M98.5153 97.7707C93.2067 97.7707 88.9034 93.4673 88.9034 88.1588C88.9034 82.8503 93.2067 78.5469 98.5153 78.5469C103.824 78.5469 108.127 82.8503 108.127 88.1588C108.127 93.4673 103.824 97.7707 98.5153 97.7707Z" fill="#F59080"/>
<path d="M95.1913 48.7578H101.814V84.0874H95.1913V48.7578Z" fill="#F59080"/>
<path fill-rule="evenodd" clip-rule="evenodd" d="M21.9031 83.1842C21.3362 83.1327 20.7951 83.0811 20.2282 83.0296C19.6097 82.978 18.9397 82.875 18.5789 82.3596C18.1924 81.7927 18.4758 81.0454 18.7593 80.4269C21.1301 75.7369 25.5108 72.3353 28.062 67.7227C28.2166 70.3253 27.8558 72.928 27.4693 75.505C27.2374 77.0511 27.1085 78.623 27.057 80.195C27.0054 81.3546 27.5466 82.7204 26.1293 83.2615C25.5366 83.4934 24.8666 83.4419 24.2224 83.3903C23.475 83.313 22.702 83.2615 21.9031 83.1842Z" fill="#F59080"/>
</g>
<defs>
<linearGradient id="paint0_linear_13794_65649" x1="96.0605" y1="4.37484" x2="37.9617" y2="129.639" gradientUnits="userSpaceOnUse">
<stop stop-color="#9EB5D7"/>
<stop offset="0.05" stop-color="#A5BAD9"/>
<stop offset="0.31" stop-color="#C5D0E4"/>
<stop offset="0.56" stop-color="#DDE1EC"/>
<stop offset="0.8" stop-color="#EBEBF0"/>
<stop offset="1" stop-color="#F0EEF2"/>
</linearGradient>
<linearGradient id="paint1_linear_13794_65649" x1="96.0605" y1="4.37484" x2="37.9617" y2="129.639" gradientUnits="userSpaceOnUse">
<stop stop-color="#9EB5D7"/>
<stop offset="0.05" stop-color="#A5BAD9"/>
<stop offset="0.31" stop-color="#C5D0E4"/>
<stop offset="0.56" stop-color="#DDE1EC"/>
<stop offset="0.8" stop-color="#EBEBF0"/>
<stop offset="1" stop-color="#F0EEF2"/>
</linearGradient>
</defs>
</svg>
