<svg xmlns="http://www.w3.org/2000/svg" width="20" height="20" viewBox="0 0 20 20">
    <path fill="#787887" fill-rule="nonzero" d="M16.386 5.508L13.948 3.07v2.188c0 .138.112.25.25.25h2.188zM12.448 1.57l-.07-.07H3a.5.5 0 0 0-.5.5v16a.5.5 0 0 0 .5.5h14a.5.5 0 0 0 .5-.5V7.008h-3.302a1.75 1.75 0 0 1-1.75-1.75V1.57zM3 0h10l6 6v12a2 2 0 0 1-2 2H3a2 2 0 0 1-2-2V2a2 2 0 0 1 2-2zm4.665 11.471a.6.6 0 0 1-.529.316H5.5a.6.6 0 0 1 0-1.2h1.278l.691-1.285a.6.6 0 0 1 1.1.1l.379 1.175 1.82-2.909a.6.6 0 0 1 1.091.172l.693 2.747H14.5a.6.6 0 1 1 0 1.2h-2.416a.6.6 0 0 1-.582-.454l-.463-1.836-1.758 2.808a.6.6 0 0 1-1.08-.134L7.86 11.11l-.194.361z"/>
</svg>
