<svg xmlns="http://www.w3.org/2000/svg" width="20" height="20" viewBox="0 0 20 20">
    <path fill="#787887" fill-rule="nonzero" d="M9.996 1.5C8.074 1.5 6.5 3.26 6.5 5.5s1.574 4 3.496 4c1.924 0 3.504-1.763 3.504-4s-1.58-4-3.504-4zm0-1.5C12.825 0 15 2.51 15 5.5S12.825 11 9.996 11C7.167 11 5 8.49 5 5.5S7.167 0 9.996 0zM1.509 15.604c-.003.138-.002-.007-.05.133.014-.044.031-.089.05-.133zm-.004.32a142.876 142.876 0 0 0-.003 2.092c.467.09 1.109.174 1.891.245 1.76.159 4.134.245 6.607.245s4.848-.086 6.607-.245c.782-.07 1.424-.154 1.89-.245a168.825 168.825 0 0 0-.006-2.407c.004.063.006.062.009.062-.532-1.407-2.815-2.657-5.987-3.117l-2.52 2.593-1.075-1.112-1.433-1.48c-3.135.454-5.4 1.68-5.976 3.049l-.004.32zm.004 2.779l-.003-.057c.002.011.002.044.004.142l-.001-.085zm16.99-3.032c.008-.001.022 0 .053.097a1.932 1.932 0 0 0-.041-.116l-.011.019zm-9.546-3.757l-.033.033h.065l1.011 1.046 1.013-1.043h.065l-.032-.034.743-.765a.542.542 0 0 1 .438-.148c3.89.457 7.035 2.043 7.758 4.309.025.08.025 3.608 0 3.688C19.553 20.342.447 20.342.02 19c-.025-.08-.025-3.608 0-3.688.723-2.266 3.867-3.852 7.758-4.309.16-.018.33.039.438.148l.738.763zm4.6 3.107h1a.5.5 0 1 1 0 1h-1v1a.5.5 0 1 1-1 0v-1h-1a.5.5 0 1 1 0-1h1v-1a.5.5 0 1 1 1 0v1z"/>
</svg>
