<svg width="134" height="134" viewBox="0 0 134 134" fill="none" xmlns="http://www.w3.org/2000/svg">
<circle cx="67" cy="67" r="67" fill="#D8D8D8"/>
<mask id="mask0_13794_65650" style="mask-type:alpha" maskUnits="userSpaceOnUse" x="0" y="0" width="134" height="134">
<circle cx="67" cy="67" r="67" fill="white"/>
</mask>
<g mask="url(#mask0_13794_65650)">
<circle cx="67" cy="67" r="67" fill="#D8D8D8"/>
<mask id="mask1_13794_65650" style="mask-type:alpha" maskUnits="userSpaceOnUse" x="0" y="0" width="134" height="134">
<circle cx="67" cy="67" r="67" fill="white"/>
</mask>
<g mask="url(#mask1_13794_65650)">
<rect x="-0.62793" y="-5.98828" width="136.311" height="139.863" fill="url(#paint0_linear_13794_65650)"/>
<path d="M42.0092 67.4122C40.7111 60.8379 43.5334 56.8514 44.6557 55.7291C50.3561 49.696 50.1925 40.214 44.2872 34.3812C38.2907 28.77 28.5589 28.77 22.9393 34.7581C7.58794 50.8632 7.58794 77.077 22.9393 93.1737C25.8033 96.0948 29.7362 97.7194 33.8268 97.6711C37.7041 97.6048 41.4272 96.1417 44.3123 93.5506C50.3004 87.931 50.3004 78.1992 44.6808 72.2027C43.4598 70.9382 42.5607 69.3986 42.0594 67.7137L42.0092 67.4122Z" fill="#A183BC" stroke="#A183BC" stroke-width="1.77778"/>
<path d="M31.4811 54.5234C31.6737 55.4279 32.595 60.8046 27.6118 58.8114C27.0958 58.6038 26.518 58.6119 26.0079 58.8338C25.4979 59.0558 25.0982 59.4731 24.8983 59.9922C24.67 60.6008 24.7411 61.2814 25.0902 61.8297C25.4393 62.378 26.0258 62.7304 26.6738 62.7811C29.312 62.9821 32.8295 63.8029 32.7206 66.7174C32.6033 70.0674 26.8581 72.3537 23.5667 73.4174C23.0042 73.5958 22.5457 74.0078 22.3084 74.5481C22.0711 75.0885 22.078 75.7048 22.3272 76.2397L22.3775 76.3486C22.633 76.8885 23.1102 77.2909 23.6854 77.4516C24.2607 77.6123 24.8774 77.5154 25.3757 77.1861C27.6705 75.6786 31.6905 73.5681 35.677 73.9534C39.6635 74.3386 40.568 77.1777 40.7606 79.1459C40.8611 80.2176 41.7697 81.0313 42.846 81.0135H43.6835C44.332 81.005 44.9386 80.6916 45.3209 80.1677C45.7031 79.6437 45.8163 78.9704 45.6265 78.3502C44.4707 74.5229 43.0218 67.7224 46.866 66.2819C51.1121 64.6906 55.8105 67.6219 57.586 70.1595C58.0801 70.8714 58.8506 73.5095 58.8506 83.6767L58.9092 154.337C58.923 155.465 59.8414 156.372 60.9695 156.372H64.1017C64.6547 156.374 65.1852 156.153 65.5731 155.759C65.9609 155.365 66.1733 154.831 66.162 154.278C66.162 154.278 65.4836 79.7907 65.5255 75.2264C65.6092 65.8547 59.663 60.3859 51.5895 59.272C44.3618 58.2754 38.0136 51.4916 35.6267 48.6357C35.0123 47.8987 33.9704 47.6834 33.1142 48.1165L31.8496 48.7446C30.9276 49.208 30.4882 50.2799 30.8195 51.2571C31.1433 52.2094 31.3377 53.201 31.3973 54.2051C31.4152 54.3136 31.4432 54.4201 31.4811 54.5234Z" fill="#F59080"/>
<path d="M91.9078 67.7137C91.4065 69.3986 90.5075 70.9382 89.2864 72.2027C83.6668 78.1992 83.6668 87.931 89.6633 93.5506C92.5484 96.1417 96.2716 97.6048 100.149 97.6711C104.239 97.7194 108.172 96.0948 111.036 93.1737C126.388 77.077 126.388 50.8632 111.036 34.7581C105.417 28.77 95.6766 28.77 89.6884 34.3812C83.7763 40.2098 83.6089 49.6955 89.3116 55.7291C90.4338 56.8514 93.2562 60.8379 91.9664 67.4122L91.9078 67.7137Z" fill="#A183BC" stroke="#A183BC" stroke-width="1.77778"/>
<path d="M102.46 54.5234C102.276 55.4279 101.346 60.8046 106.329 58.8114C106.845 58.6014 107.424 58.6083 107.934 58.8305C108.445 59.0528 108.845 59.4716 109.043 59.9922C109.275 60.6008 109.205 61.2833 108.855 61.8327C108.506 62.3822 107.917 62.7338 107.267 62.7811C104.629 62.9821 101.12 63.8029 101.22 66.7174C101.346 70.0674 107.083 72.3537 110.374 73.4174C110.937 73.5958 111.395 74.0078 111.632 74.5481C111.87 75.0885 111.863 75.7048 111.614 76.2397L111.563 76.3486C111.308 76.8885 110.831 77.2909 110.255 77.4516C109.68 77.6123 109.064 77.5154 108.565 77.1861C106.27 75.6786 102.25 73.5681 98.2723 73.9534C94.2942 74.3386 93.3813 77.1777 93.1803 79.1459C93.0798 80.2176 92.1712 81.0313 91.095 81.0135H90.2575C89.6103 81.0015 89.006 80.6873 88.6245 80.1644C88.243 79.6415 88.1283 78.9702 88.3145 78.3502C89.4786 74.5229 90.9191 67.7224 87.0833 66.2819C82.8372 64.6906 78.1388 67.6219 76.355 70.1595C75.8608 70.8714 75.0903 73.5095 75.0903 83.6767L75.0317 154.337C75.018 155.465 74.0996 156.372 72.9715 156.372H69.8476C69.2946 156.372 68.7646 156.15 68.3759 155.757C67.9872 155.364 67.7722 154.831 67.779 154.278C67.779 154.278 68.4573 79.7907 68.4238 75.2264C68.3317 65.8547 74.2863 60.3859 82.3515 59.272C89.5875 58.2754 95.9273 51.4916 98.3142 48.6357C98.9286 47.8987 99.9705 47.6834 100.827 48.1165L102.091 48.7446C103.013 49.208 103.453 50.2799 103.121 51.2571C102.801 52.2099 102.609 53.2014 102.552 54.2051C102.531 54.3138 102.5 54.4204 102.46 54.5234Z" fill="#F59080"/>
<g style="mix-blend-mode:multiply" opacity="0.77">
<path d="M37.5199 54.2523C37.3393 53.9147 37.4278 53.4961 37.7296 53.2605C38.0313 53.0249 38.4589 53.0405 38.7426 53.2976C40.1952 54.7501 41.8047 56.0366 43.5415 57.1333C45.5903 58.333 47.8019 59.2301 50.1075 59.7966C51.3638 60.1065 59.32 60.7011 63.0804 67.3341C63.2626 67.6531 63.2 68.0558 62.9294 68.3044C62.6588 68.5529 62.2522 68.5812 61.9498 68.3726C57.966 65.5475 53.3775 63.692 48.5498 62.954C43.0893 62.2421 39.5131 57.7866 37.5199 54.2523Z" fill="#F59080"/>
</g>
<g style="mix-blend-mode:multiply" opacity="0.77">
<path d="M96.6225 54.7889C96.8143 54.4505 96.7303 54.0228 96.4248 53.7821C96.1192 53.5414 95.6837 53.56 95.3997 53.8258C93.9516 55.2831 92.3415 56.5701 90.6008 57.6615C88.5525 58.8621 86.3408 59.7592 84.0348 60.3248C82.7702 60.643 74.8223 61.2293 71.062 67.9041C70.8674 68.2227 70.9262 68.6345 71.2021 68.8858C71.478 69.1372 71.8935 69.1575 72.1926 68.9342C76.1747 66.1077 80.7643 64.2547 85.5926 63.524C91.0447 62.8121 94.6292 58.2729 96.6225 54.7889Z" fill="#F59080"/>
</g>
</g>
</g>
<defs>
<linearGradient id="paint0_linear_13794_65650" x1="-59.6719" y1="30.5283" x2="38.6131" y2="192.235" gradientUnits="userSpaceOnUse">
<stop stop-color="#9EB5D7"/>
<stop offset="0.12" stop-color="#B1C2DD"/>
<stop offset="0.34" stop-color="#CCD5E6"/>
<stop offset="0.56" stop-color="#E0E3ED"/>
<stop offset="0.78" stop-color="#ECEBF1"/>
<stop offset="1" stop-color="#F0EEF2"/>
</linearGradient>
</defs>
</svg>
