<svg width="134" height="134" viewBox="0 0 134 134" fill="none" xmlns="http://www.w3.org/2000/svg">
<circle cx="67" cy="67" r="67" fill="#D8D8D8"/>
<mask id="mask0_13794_65642" style="mask-type:alpha" maskUnits="userSpaceOnUse" x="0" y="0" width="134" height="134">
<circle cx="67" cy="67" r="67" fill="white"/>
</mask>
<g mask="url(#mask0_13794_65642)">
<circle cx="66.1184" cy="66.1174" r="69.6447" fill="#D8D8D8"/>
<mask id="mask1_13794_65642" style="mask-type:alpha" maskUnits="userSpaceOnUse" x="-4" y="-4" width="140" height="140">
<circle cx="66.1184" cy="66.1174" r="69.6447" fill="white"/>
</mask>
<g mask="url(#mask1_13794_65642)">
<rect x="-14.77" y="-4.64062" width="138.786" height="142.403" fill="url(#paint0_linear_13794_65642)"/>
<path d="M53.3476 13.9394C53.3476 13.9394 29.5258 24.9399 35.391 54.3837C35.8768 56.8321 35.5589 59.3719 34.4848 61.625C32.4878 65.8205 27.7721 72.5333 25.6827 77.4755C22.234 85.7574 35.7518 80.4207 35.9616 84.3309C36.1714 88.2411 32.0514 92.168 34.0065 93.6365C35.9616 95.1049 39.6368 92.6631 40.8619 93.6365C42.087 94.6098 33.2681 97.555 36.9434 100.005C40.6186 102.455 41.3486 100.744 42.5737 103.924C43.7987 107.104 42.3303 119.103 57.0229 115.923C71.7154 112.743 74.4089 112.004 82.4893 127.922C82.4893 127.922 118 136.002 120.693 125.715C123.387 115.428 101.1 107.104 104.532 84.3309C104.532 84.3309 126.206 36.8298 102.46 18.4621C76.7164 -1.4412 53.3476 13.9394 53.3476 13.9394Z" fill="#FCBB7F"/>
<path d="M63.8443 90.1448C60.7732 91.437 63.6681 96.5554 65.7491 96.5554C67.83 96.5554 71.2871 87.0317 63.8443 90.1448Z" fill="#F59080"/>
<path d="M51.8454 78.2792C48.833 81.4258 52.2901 82.4747 55.4367 81.9544C58.5833 81.4342 56.7625 73.1188 51.8454 78.2792Z" fill="#F59080"/>
<path d="M67.7887 0.243914C56.6539 1.08301 31.4392 16.8328 31.7077 38.2548C31.7516 41.7591 33.3578 45.0607 36.0878 47.2583C45.1919 54.5836 42.0789 66.5575 100.765 72.5486C100.765 72.5486 103.652 76.3245 98.4911 87.174C93.3307 98.0235 87.0375 101.766 91.2581 111.843C95.4788 121.921 84.2265 129.884 94.0691 130.941C103.912 131.998 126.609 135.741 130.36 123.792C134.111 111.843 158.663 -6.61987 67.7887 0.243914Z" fill="#5C429A"/>
<g style="mix-blend-mode:multiply">
<path d="M55.4364 76.7773C55.4364 76.7773 56.2755 79.5967 54.891 80.3938C53.5065 81.191 51.0899 81.3672 51.3332 81.5098C52.7381 82.0958 54.2937 82.2163 55.772 81.8538C57.7187 81.2245 57.0978 77.1214 55.4364 76.7773Z" fill="#FCBB7F"/>
</g>
<path d="M71.1441 75.9559L71.035 76.0986C70.7252 76.6229 70.6487 77.2529 70.824 77.8362C70.9993 78.4195 71.4105 78.903 71.958 79.1697C73.1399 79.618 74.4687 79.0902 75.0207 77.953C76.3297 75.0833 72.7635 73.8582 71.1441 75.9559Z" fill="#F59080"/>
<g style="mix-blend-mode:multiply">
<path d="M74.5427 75.3008C74.5427 75.3008 75.3063 78.439 71.3625 78.7746C71.7902 79.1969 72.3841 79.4062 72.982 79.3452C73.8606 79.2932 74.6371 78.7561 74.9958 77.9523C75.2224 77.2978 75.7258 76.2741 74.5427 75.3008Z" fill="#FCBB7F"/>
</g>
<path d="M52.1386 94.4001H52.0463C51.7537 94.5108 51.5205 94.7384 51.4026 95.0282C51.2848 95.318 51.293 95.6438 51.4253 95.9272C51.751 96.4869 52.45 96.7054 53.0364 96.4307C54.4964 95.7342 53.4727 94.098 52.1386 94.4001Z" fill="#F59080"/>
<g style="mix-blend-mode:multiply">
<path d="M53.7169 95.2461C53.7169 95.2461 53.0036 96.8143 51.3254 95.6228C51.3605 95.9415 51.5296 96.2273 51.7869 96.4026C52.1536 96.6746 52.6336 96.7149 53.0372 96.5077C53.3393 96.3062 53.8763 96.0521 53.7169 95.2461Z" fill="#FCBB7F"/>
</g>
<g style="mix-blend-mode:multiply">
<path d="M63.9956 95.5766C65.7106 95.6661 67.2541 94.5426 67.696 92.8831C68.7029 89.9127 68.2918 92.7069 68.2918 92.7069C68.2918 92.7069 67.889 95.2242 66.1856 96.4241C66.1856 96.4241 65.5815 97.1625 63.9956 95.5766Z" fill="#FCBB7F"/>
</g>
</g>
</g>
<defs>
<linearGradient id="paint0_linear_13794_65642" x1="-74.8863" y1="32.5532" x2="25.19" y2="197.191" gradientUnits="userSpaceOnUse">
<stop stop-color="#9EB5D7"/>
<stop offset="0.01" stop-color="#A0B6D8"/>
<stop offset="0.3" stop-color="#C3CEE3"/>
<stop offset="0.56" stop-color="#DCE0EB"/>
<stop offset="0.8" stop-color="#EBEAF0"/>
<stop offset="1" stop-color="#F0EEF2"/>
</linearGradient>
</defs>
</svg>
