<svg width="134" height="134" viewBox="0 0 134 134" fill="none" xmlns="http://www.w3.org/2000/svg">
<circle cx="67" cy="67" r="67" fill="#D8D8D8"/>
<mask id="mask0_13794_65654" style="mask-type:alpha" maskUnits="userSpaceOnUse" x="0" y="0" width="134" height="134">
<circle cx="67" cy="67" r="67" fill="white"/>
</mask>
<g mask="url(#mask0_13794_65654)">
<path d="M-11.5911 -15.293H136.043V136.186H-11.5911V-15.293Z" fill="url(#paint0_linear_13794_65654)"/>
<path d="M31.4561 92.7192C28.1898 102.242 28.6672 107.92 32.0005 124.787L24.8147 123.514C20.9203 122.819 17.0343 122.099 13.14 121.429C12.47 121.32 12.5621 104.997 12.5453 104.26C12.4197 98.2215 11.7916 92.1999 12.2857 86.1532C12.6291 81.9657 13.3577 77.8619 15.418 74.1183C18.5846 68.422 24.9377 65.2704 31.3891 66.1955C35.1997 66.7315 38.9266 67.6612 42.7456 68.44C46.5646 69.2189 50.124 69.8052 53.9262 68.7415C55.1876 68.3861 56.3797 67.8198 57.4521 67.0665C60.5306 64.8981 62.8484 61.8156 64.0767 58.256C64.9392 55.9531 64.7808 53.3918 63.6412 51.2127C62.5946 49.2078 61.4342 47.2644 60.1656 45.392C57.695 41.6652 55.2913 37.9215 53.7252 33.667C49.2613 19.9488 51.5561 -0.997093 51.8408 -6.44922H71.5137C71.7566 -2.78934 66.4887 15.4263 73.6326 27.5282C73.7498 27.3188 73.8587 27.1597 73.9341 26.9922C77.2402 19.0228 85.3622 14.1462 93.9503 14.974C103.649 15.7445 110.7 20.8365 115.859 28.7425C119.717 34.7422 121.432 41.8704 120.725 48.9682C119.888 59.4453 115.977 68.7918 110.265 77.4432C103.9 87.0828 95.8263 94.9302 85.4832 100.257C79.2418 103.567 72.263 105.241 65.199 105.123C58.7049 105.008 52.3623 103.141 46.841 99.7207C42.8293 97.2668 38.9768 94.5365 35.0573 91.9319C34.9066 91.8426 34.7558 91.7421 34.6051 91.6304C34.06 91.2717 33.3793 91.1865 32.7626 91.3997C32.1459 91.6129 31.6632 92.1004 31.4561 92.7192Z" fill="#FCBB7F"/>
<path d="M57.5606 74.9369C64.0261 71.7042 68.1382 65.2554 72.778 59.7112C74.0761 58.1702 76.396 56.0094 78.942 55.3645C82.0575 54.5689 85.9351 55.4985 89.1343 55.8252L107.978 57.7514C111.269 58.0948 115.516 59.4264 115.516 62.7262C115.425 63.7736 115.093 64.7857 114.544 65.6825C111.939 70.7829 109.276 75.9587 105.332 80.0708C102.526 82.9853 94.7707 89.501 91.3118 91.6032C82.5097 96.9799 78.3557 99.7269 68.1215 101.025C57.8872 102.323 50.467 99.5845 42.4186 93.1358C38.2311 89.7858 30.1408 82.9853 30.0068 77.575C30.6517 70.4479 49.0935 78.3288 57.6443 74.9788" fill="#F59080"/>
<path d="M61.129 76.4955C66.2629 73.5642 69.6213 68.3969 73.1555 63.6566C74.0666 62.2811 75.2355 61.0951 76.5977 60.1642C78.8505 58.8159 81.6227 58.8912 84.2775 59.0169L99.7462 59.7287C102.46 59.8544 105.986 60.7337 106.12 63.4472C106.095 64.3058 105.868 65.1466 105.458 65.9011C103.565 70.1807 101.631 74.5357 98.5737 78.0784C96.3411 80.523 93.8085 82.6757 91.0362 84.4852C84.0933 89.2757 76.4469 93.3041 68.1557 94.8367C59.8644 96.3694 54.6803 96.5117 47.8128 91.604C44.2115 89.0329 37.3189 83.8822 36.9253 79.4686C37.1682 74.8456 44.9234 82.6344 61.0453 76.4787" fill="#F59080"/>
<g style="mix-blend-mode:multiply" opacity="0.5">
<path d="M86.614 34.5611C86.1055 34.5879 85.6369 34.8444 85.3403 35.2582C85.0438 35.6721 84.9516 36.1984 85.0897 36.6884C85.2181 37.1938 85.5746 37.6105 86.054 37.8157C86.5333 38.0209 87.0809 37.9912 87.5352 37.7353C88.0244 37.4781 88.3738 37.0167 88.4887 36.4761C88.6036 35.9356 88.4721 35.3719 88.1298 34.938C87.8013 34.593 87.3414 34.4041 86.8652 34.4188C86.1632 34.4367 85.601 35.0063 85.5922 35.7085C85.5968 36.2894 86.0666 36.7592 86.6475 36.7638C87.2262 36.7507 87.6934 36.2871 87.7111 35.7085C87.7111 36.1711 87.3361 36.546 86.8736 36.546H86.7312C86.8317 36.546 86.7982 36.546 86.614 36.4874H86.681L86.5637 36.4036C86.4576 36.2417 86.4325 36.2082 86.4883 36.3031C86.4289 36.2076 86.3971 36.0974 86.3962 35.9849C86.4046 36.0235 86.4046 36.0635 86.3962 36.1021C86.3962 35.9263 86.3962 35.8928 86.3962 36.01L86.4548 35.8676C86.4548 35.9095 86.413 35.943 86.3962 35.9765C86.4967 35.8509 86.5135 35.8258 86.4381 35.9095C86.3627 35.9933 86.3795 35.9681 86.5135 35.8593L86.4046 35.9263C86.5637 35.8676 86.5972 35.8425 86.5218 35.8676C86.4465 35.8928 86.48 35.8676 86.6558 35.8676C86.5386 35.8676 86.5721 35.8676 86.7563 35.8676C86.9406 35.8676 86.9573 35.9598 86.8652 35.9095C87.016 36.0351 87.0495 36.0603 86.9741 35.9849C87.083 36.144 87.1165 36.1775 87.0746 36.1105C87.0327 36.0435 87.0746 36.1105 87.1332 36.2613C87.0495 36.01 87.1332 36.479 87.1332 36.3115C87.1332 36.144 87.0746 36.5209 87.1332 36.3534C87.1918 36.1859 87.2421 36.1524 87.1332 36.4288C87.1835 36.345 87.1332 36.3785 87.0411 36.5376C87.1165 36.4623 87.0411 36.4874 86.9238 36.613C87.016 36.5628 86.9238 36.613 86.7898 36.6633C86.8903 36.6633 86.8485 36.6633 86.6475 36.6633C87.1962 36.6144 87.6168 36.1547 87.6168 35.6038C87.6168 35.0529 87.1962 34.5932 86.6475 34.5444L86.614 34.5611Z" fill="#F59080"/>
</g>
<g style="mix-blend-mode:multiply" opacity="0.5">
<path d="M93.6485 38.1106C92.9113 37.7213 92.0087 37.8387 91.3956 38.4037C90.72 38.9539 90.549 39.9157 90.9936 40.665C91.6709 41.3618 92.7753 41.4059 93.5061 40.7655C94.1536 40.1589 94.2929 39.1841 93.8411 38.4205C93.5436 37.9237 92.9033 37.7562 92.4006 38.0436C91.8997 38.3415 91.7286 38.9851 92.0154 39.4925C92.1326 39.6851 91.9651 39.2747 92.0154 39.4925V39.3501C92.0154 39.4422 92.0154 39.4422 92.0154 39.3501C92.0154 39.258 92.0154 39.258 92.0154 39.3501L92.074 39.2245C91.9651 39.4087 92.2415 39.0905 92.074 39.2245L92.1829 39.1407C92.0991 39.1826 92.0991 39.191 92.1829 39.1407C92.2666 39.0905 92.2666 39.0989 92.1829 39.1407H92.3253C92.1243 39.1407 92.5179 39.2245 92.3253 39.1407C92.4676 39.1994 92.4593 39.2161 92.3253 39.1407L92.811 39.7772C92.7524 39.5679 92.811 40.0117 92.811 39.7772C92.811 39.9531 92.811 39.995 92.811 39.9112C92.811 39.8275 92.811 39.9112 92.7524 40.0285C92.7509 40.0006 92.7509 39.9726 92.7524 39.9447L92.6854 40.0369L92.8194 39.9029L92.7021 39.995L92.811 39.9364L92.6686 39.995H92.7943H92.6268C92.7189 39.995 92.7105 39.995 92.6268 39.995C92.543 39.995 92.5179 39.995 92.6268 39.995C92.476 39.9196 92.4425 39.9112 92.543 39.995C93.0472 40.291 93.6959 40.1223 93.9919 39.6181C94.2879 39.114 94.1192 38.4653 93.615 38.1692L93.6485 38.1106Z" fill="#F59080"/>
</g>
<g style="mix-blend-mode:multiply" opacity="0.5">
<path d="M84.7967 43.0225C84.7828 42.5904 84.5573 42.1927 84.1937 41.9588C83.8897 41.7923 83.5356 41.7418 83.1971 41.8165C82.4832 41.9863 82.0412 42.7017 82.2088 43.4161C82.4008 44.1175 83.0234 44.6148 83.7498 44.6472C84.2907 44.6609 84.8127 44.4484 85.1903 44.061C85.5752 43.6463 85.7248 43.0654 85.5879 42.5164C85.4511 41.9674 85.0464 41.5246 84.512 41.3391C84.0255 41.1901 83.4977 41.2702 83.0774 41.5569C82.6571 41.8436 82.3899 42.3058 82.3512 42.8131C82.3558 43.394 82.8256 43.8638 83.4065 43.8683C83.9855 43.8594 84.4527 43.3921 84.4617 42.8131C84.4617 42.9973 84.4198 43.056 84.4617 42.9722C84.5036 42.8885 84.4617 42.9722 84.4031 43.123C84.3445 43.2737 84.2523 43.3072 84.311 43.2486C84.3696 43.19 84.311 43.2486 84.1853 43.3407C84.3277 43.2486 83.9341 43.4245 84.11 43.3407C84.2858 43.257 83.8755 43.3407 84.0011 43.3407C84.1267 43.3407 83.8168 43.2905 83.9257 43.3407C84.0346 43.391 83.8755 43.3407 83.8336 43.2905C83.9927 43.3826 83.641 43.1062 83.7666 43.2318C83.7005 43.1733 83.6514 43.0981 83.6242 43.0141C83.6242 42.9136 83.5823 42.9136 83.6242 43.0141C83.6242 42.9387 83.6242 42.6037 83.6242 42.7628L83.6745 42.6288C83.775 42.5116 83.7917 42.4865 83.7415 42.5451C83.6912 42.6037 83.6912 42.587 83.7415 42.5451C83.5656 42.6707 83.9425 42.4948 83.7415 42.5451C83.5405 42.5953 83.6577 42.5451 83.7415 42.5451C83.8148 42.5202 83.8943 42.5202 83.9676 42.5451C83.8168 42.5451 84.0765 42.5953 84.1183 42.6372C84.2466 42.8485 84.275 43.1057 84.1958 43.3399C84.1167 43.5741 83.9381 43.7614 83.708 43.8516H83.5237C82.9961 43.5166 82.8035 43.4496 82.971 43.6422L82.6946 43.1732V42.9806C82.7079 43.5578 83.1726 44.0226 83.7498 44.0358C84.2775 44.0358 84.8805 43.5668 84.8135 42.9806L84.7967 43.0225Z" fill="#F59080"/>
</g>
<g style="mix-blend-mode:multiply" opacity="0.5">
<path d="M90.9273 44.6379C90.7231 44.1169 90.2721 43.7323 89.7254 43.6128C89.1786 43.4934 88.6084 43.6549 88.2054 44.0433C87.8214 44.5143 87.7008 45.1473 87.8849 45.7265C88.0689 46.3057 88.5328 46.753 89.1183 46.9159C90.2406 47.2593 91.6308 46.2878 91.2456 45.0315C91.0415 44.4506 90.4961 44.0591 89.8804 44.0516C89.258 44.0134 88.6974 44.4259 88.5488 45.0315C88.4074 45.5938 88.7315 46.1682 89.2858 46.338C89.8472 46.4882 90.4252 46.1601 90.5839 45.601C90.6342 45.3414 90.5086 45.5005 90.2071 46.0533L90.0312 46.137C89.9356 46.1662 89.8336 46.1662 89.7381 46.137C89.632 46.137 89.6152 46.137 89.6878 46.137C89.5371 46.0868 89.5287 46.137 89.4198 45.9863C89.187 45.7435 89.1364 45.3788 89.2942 45.0818L89.3863 44.9645C89.3137 45.0427 89.3388 45.0259 89.4617 44.9143L89.5957 44.864C89.5036 44.864 89.5119 44.864 89.5957 44.864C89.8386 44.931 89.3696 44.7886 89.5957 44.864C89.6681 44.8646 89.7384 44.8881 89.7967 44.931C89.7213 44.8808 89.7213 44.8808 89.7967 44.931C89.8721 44.9813 89.8637 44.9813 89.7967 44.931L89.7464 44.8808C89.8386 45.0064 89.8553 45.0148 89.7967 44.9226L89.8553 45.0483C89.8553 44.9561 89.8553 44.9561 89.8553 45.0483C89.8758 45.1194 89.8758 45.1949 89.8553 45.266C89.8553 45.1823 89.8553 45.1823 89.8553 45.266C89.8379 45.3411 89.7968 45.4086 89.7381 45.4586C89.6844 45.5207 89.615 45.567 89.5371 45.5926C89.7213 45.5424 89.2774 45.5926 89.4868 45.5926H89.3109C89.3947 45.5926 89.3863 45.5926 89.3109 45.5926C89.1337 45.51 88.9976 45.3589 88.9341 45.1739C89.0063 45.5696 89.2956 45.8906 89.6816 46.0036C90.0676 46.1166 90.4844 46.0022 90.7585 45.7079C91.0327 45.4136 91.1175 44.9899 90.9776 44.6128L90.9273 44.6379Z" fill="#F59080"/>
</g>
<g style="mix-blend-mode:multiply" opacity="0.5">
<path d="M98.6748 46.7465C98.1209 47.1082 97.8503 47.7763 97.9965 48.4215C98.142 49.0271 98.6325 49.489 99.2457 49.5978C99.859 49.7065 100.478 49.4416 100.823 48.923C101.168 48.4043 101.173 47.7306 100.836 47.2071C100.691 46.9751 100.468 46.8027 100.207 46.7214C99.9248 46.6473 99.6243 46.6863 99.37 46.8303C98.8721 47.131 98.7048 47.7739 98.9931 48.2791C99.0768 48.388 98.9931 48.1619 98.9931 48.1451C99.0433 48.3126 98.9931 47.9274 98.9931 48.0279C98.9931 48.1284 98.9931 47.7683 98.9931 47.8855C98.9931 48.0028 99.1271 47.651 98.9931 47.785C98.8591 47.919 99.0685 47.7013 99.0768 47.6845C98.9763 47.8101 99.2611 47.5756 99.1606 47.6259C99.0601 47.6761 99.4035 47.5421 99.2862 47.5756H99.3616C99.4514 47.5462 99.5482 47.5462 99.638 47.5756C99.638 47.5756 99.8808 47.7013 99.772 47.6259C99.6631 47.5505 99.9897 47.8101 99.8892 47.7096C100.001 47.866 100.034 47.9079 99.9897 47.8353C99.9897 47.8353 99.9897 47.8353 99.9897 47.9023C99.9897 47.9693 99.9897 47.9693 99.9897 47.9023C99.9897 47.8353 99.9897 48.1954 99.9897 48.0279C99.9897 47.8604 99.9897 48.1786 99.9897 48.1786C99.9897 48.0195 99.8725 48.388 99.9395 48.2875C100.006 48.187 99.9395 48.2875 99.8892 48.3461C99.839 48.4216 99.7696 48.4823 99.6882 48.522C99.9187 48.376 100.091 48.1537 100.174 47.8939C100.253 47.6115 100.214 47.3092 100.065 47.0564C99.7676 46.5596 99.1273 46.3921 98.6246 46.6795L98.6748 46.7465Z" fill="#F59080"/>
</g>
<g style="mix-blend-mode:multiply" opacity="0.5">
<path d="M100.441 55.2718C100.046 55.692 99.8944 56.2864 100.041 56.8448C100.187 57.4031 100.611 57.8467 101.162 58.0188C101.72 58.1696 102.316 58.0091 102.723 57.5986C103.13 57.1881 103.285 56.5907 103.13 56.0339C102.979 55.4823 102.557 55.0458 102.011 54.8762C101.465 54.7066 100.87 54.8273 100.433 55.1964C100.089 55.5252 99.8906 55.9772 99.8803 56.4527C99.8721 57.042 100.174 57.5922 100.676 57.9015C100.972 58.065 101.321 58.107 101.647 58.0188C101.959 57.9344 102.226 57.7334 102.393 57.4577C102.566 57.171 102.612 56.8247 102.518 56.5029C102.417 56.2003 102.216 55.9408 101.949 55.7659L102.292 56.1009C102.25 56.0339 102.292 56.0507 102.292 56.1679C102.332 56.2334 102.353 56.309 102.351 56.3857C102.351 56.5197 102.351 56.5448 102.351 56.4527C102.351 56.3605 102.284 56.7877 102.351 56.6369L102.259 56.8463C102.309 56.7709 102.259 56.7877 102.259 56.8882C102.035 57.1681 101.667 57.2897 101.321 57.198C101.132 57.1497 100.966 57.0371 100.852 56.8798C100.776 56.7793 100.76 56.7625 100.793 56.8128C100.827 56.863 100.793 56.8128 100.718 56.6202C100.76 56.7793 100.718 56.4275 100.718 56.4275C100.718 56.6202 100.776 56.1512 100.718 56.26C100.794 56.0304 100.948 55.8347 101.153 55.7073C101.382 55.6049 101.636 55.5757 101.882 55.6235C101.994 55.6462 102.098 55.6982 102.183 55.7743C102.276 55.8497 102.292 55.8664 102.25 55.8245C102.209 55.7827 102.25 55.8245 102.301 55.8915C102.377 55.9736 102.429 56.075 102.451 56.1847C102.451 56.0172 102.451 56.3689 102.451 56.3689C102.462 56.531 102.408 56.6907 102.301 56.8128C102.142 57.0222 102.108 57.0808 102.209 56.997C102.444 56.7669 102.577 56.4514 102.577 56.1218C102.577 55.7923 102.444 55.4768 102.209 55.2467C101.708 54.7827 100.934 54.7827 100.433 55.2467L100.441 55.2718Z" fill="#F59080"/>
</g>
<g style="mix-blend-mode:multiply" opacity="0.5">
<path d="M86.1121 55.6417C85.4305 55.49 84.7263 55.777 84.345 56.362C84.0567 56.8672 84.2239 57.5101 84.7218 57.8108C85.3315 58.2128 86.1221 58.2128 86.7318 57.8108C87.4662 57.3091 87.7076 56.3364 87.293 55.5496C86.9314 54.8203 86.1202 54.4302 85.3248 54.6032C84.4749 54.8101 83.8894 55.5885 83.9262 56.4625C83.9346 56.934 84.2457 57.3464 84.6967 57.4842C85.264 57.648 85.8743 57.5595 86.3717 57.2413C86.8759 56.9453 87.0446 56.2966 86.7486 55.7925C86.4526 55.2883 85.8039 55.1196 85.2997 55.4156L85.1573 55.5077C85.283 55.4575 85.283 55.4491 85.1573 55.5077C85.2997 55.5077 85.3081 55.5077 85.1573 55.5077C85.2913 55.5077 85.3081 55.5077 85.1573 55.5077L85.9278 56.5211C85.9278 56.3871 85.9278 56.5211 85.9278 56.5713C85.9278 56.3955 85.9278 56.5713 85.8692 56.6467C85.8106 56.7221 85.953 56.5713 85.8692 56.6467C85.7855 56.7221 85.8106 56.697 85.8692 56.6467L85.7603 56.7053C85.6751 56.7263 85.586 56.7263 85.5007 56.7053C85.6682 56.7053 85.4505 56.6635 85.3918 56.6383C85.3332 56.6132 85.3248 56.5881 85.3918 56.6383C85.4588 56.6886 85.3918 56.6383 85.3918 56.6383C85.3918 56.6383 85.3918 56.8226 85.3332 56.5295C85.3835 56.6635 85.3332 56.5295 85.3332 56.4541C85.3332 56.5965 85.3332 56.4541 85.3332 56.3871C85.3332 56.3201 85.4086 56.2196 85.3332 56.2866C85.2578 56.3536 85.3332 56.3285 85.3332 56.2866C85.3332 56.2447 85.5175 56.1275 85.4505 56.1693C85.3835 56.2112 85.6682 56.094 85.4505 56.1693C85.2327 56.2447 85.4505 56.1693 85.5258 56.1693C85.3583 56.1693 85.6096 56.1693 85.6682 56.1693C85.7268 56.1693 85.6682 56.1693 85.618 56.1693L86.0032 57.6182C85.8785 57.8339 85.6232 57.9374 85.3835 57.8695C85.9475 58.0056 86.5201 57.679 86.69 57.1241C86.8301 56.5615 86.5011 55.9886 85.9446 55.826L86.1121 55.6417Z" fill="#F59080"/>
</g>
<g style="mix-blend-mode:multiply" opacity="0.6">
<path d="M80.4416 34.7501L80.249 34.5575C79.835 34.1459 79.1657 34.1477 78.7541 34.5617C78.3424 34.9757 78.3443 35.645 78.7582 36.0566L78.9425 36.2493C79.2017 36.555 79.6109 36.689 80.0008 36.5959C80.3907 36.5028 80.6952 36.1984 80.7883 35.8085C80.8814 35.4186 80.7474 35.0094 80.4416 34.7501Z" fill="#F59080"/>
</g>
</g>
<defs>
<linearGradient id="paint0_linear_13794_65654" x1="-75.5385" y1="24.2608" x2="30.9118" y2="199.402" gradientUnits="userSpaceOnUse">
<stop stop-color="#9EB5D7"/>
<stop offset="0.12" stop-color="#B1C2DD"/>
<stop offset="0.34" stop-color="#CCD5E6"/>
<stop offset="0.56" stop-color="#E0E3ED"/>
<stop offset="0.78" stop-color="#ECEBF1"/>
<stop offset="1" stop-color="#F0EEF2"/>
</linearGradient>
</defs>
</svg>
