<svg width="32" height="32" viewBox="0 0 32 32" fill="none" xmlns="http://www.w3.org/2000/svg">
<rect width="32" height="32" rx="8" fill="#9E81FC"/>
<g clip-path="url(#clip0_35_18217)">
<path d="M24.4615 10H20.6146V9.25C20.6139 8.65347 20.3706 8.08157 19.938 7.65976C19.5053 7.23795 18.9188 7.00068 18.3069 7H13.6916C13.0797 7.00068 12.4932 7.23795 12.0605 7.65976C11.6279 8.08157 11.3846 8.65347 11.3839 9.25V10H7.53846C7.13058 10.0005 6.73954 10.1586 6.45112 10.4398C6.1627 10.721 6.00047 11.1023 6 11.5V23.5C6.00047 23.8977 6.1627 24.279 6.45112 24.5602C6.73954 24.8414 7.13058 24.9995 7.53846 25H24.4615C24.8694 24.9995 25.2605 24.8414 25.5489 24.5602C25.8373 24.279 25.9995 23.8977 26 23.5V11.5C25.9995 11.1023 25.8373 10.721 25.5489 10.4398C25.2605 10.1586 24.8694 10.0005 24.4615 10ZM12.9223 9.25C12.9226 9.05116 13.0037 8.86052 13.1479 8.71992C13.2921 8.57932 13.4876 8.50023 13.6916 8.5H18.3069C18.5109 8.50023 18.7064 8.57932 18.8506 8.71992C18.9948 8.86052 19.0759 9.05116 19.0762 9.25V10H12.9223V9.25ZM18.6916 18.25H16.7685V20.125C16.7685 20.3239 16.6874 20.5147 16.5432 20.6553C16.3989 20.796 16.2033 20.875 15.9992 20.875C15.7952 20.875 15.5996 20.796 15.4553 20.6553C15.3111 20.5147 15.23 20.3239 15.23 20.125V18.25H13.3069C13.1029 18.25 12.9073 18.171 12.763 18.0303C12.6188 17.8897 12.5377 17.6989 12.5377 17.5C12.5377 17.3011 12.6188 17.1103 12.763 16.9697C12.9073 16.829 13.1029 16.75 13.3069 16.75H15.23V14.875C15.23 14.6761 15.3111 14.4853 15.4553 14.3447C15.5996 14.204 15.7952 14.125 15.9992 14.125C16.2033 14.125 16.3989 14.204 16.5432 14.3447C16.6874 14.4853 16.7685 14.6761 16.7685 14.875V16.75H18.6916C18.8956 16.75 19.0912 16.829 19.2355 16.9697C19.3797 17.1103 19.4608 17.3011 19.4608 17.5C19.4608 17.6989 19.3797 17.8897 19.2355 18.0303C19.0912 18.171 18.8956 18.25 18.6916 18.25Z" fill="white"/>
</g>
<defs>
<clipPath id="clip0_35_18217">
<rect width="24" height="24" fill="white" transform="translate(4 4)"/>
</clipPath>
</defs>
</svg>
