<svg width="32" height="32" viewBox="0 0 32 32" fill="none" xmlns="http://www.w3.org/2000/svg">
<rect width="32" height="32" rx="8" fill="#9E81FC"/>
<rect x="8" y="11" width="16" height="9" fill="white"/>
<path d="M18.3483 9.19449C18.9706 8.61374 19.3215 7.82453 19.3215 7.00004C19.3215 6.17554 18.9706 5.38634 18.3483 4.80559C17.7263 4.22505 16.8841 3.9 16.0073 3.9C15.1304 3.9 14.2882 4.22505 13.6662 4.80559C13.044 5.38634 12.693 6.17554 12.693 7.00004C12.693 7.82453 13.044 8.61374 13.6662 9.19449C14.2882 9.77502 15.1304 10.1001 16.0073 10.1001C16.8841 10.1001 17.7263 9.77502 18.3483 9.19449ZM17.8358 7.00004C17.8358 7.4486 17.645 7.88031 17.3027 8.19974C16.9603 8.51939 16.4944 8.70006 16.0073 8.70006C15.5201 8.70006 15.0543 8.51939 14.7118 8.19974C14.3695 7.88031 14.1787 7.4486 14.1787 7.00004C14.1787 6.55148 14.3695 6.11977 14.7118 5.80033C15.0543 5.48068 15.5201 5.30001 16.0073 5.30001C16.4944 5.30001 16.9603 5.48068 17.3027 5.80033C17.645 6.11977 17.8358 6.55148 17.8358 7.00004Z" fill="white" stroke="#9E81FC" strokeWidth="0.2"/>
<path d="M11.5 21.9H11.4V22V26.2001C11.4 26.7063 11.6155 27.1903 11.9966 27.546C12.3775 27.9015 12.8927 28.1001 13.4286 28.1001H13.4838C13.4838 28.1001 13.4838 28.1001 13.4839 28.1001C13.9258 28.1002 14.3563 27.9652 14.7095 27.7147C15.0627 27.4641 15.3195 27.1114 15.4389 26.7097L15.4389 26.7096C15.4715 26.5996 15.4935 26.4869 15.5049 26.3732L15.5049 26.3729L15.9292 22.0097L15.9398 21.9H15.8296H14.5388H14.4481L14.4393 21.9903L14.0246 26.2444L14.0246 26.2444C14.0128 26.3666 13.9523 26.4818 13.8528 26.5668C13.7532 26.6518 13.6218 26.6999 13.4844 26.7001H13.4286C13.2825 26.7001 13.1436 26.6458 13.0422 26.5512C12.9411 26.4568 12.8857 26.3303 12.8857 26.2001V22V21.9H12.7857H11.5ZM17.9747 26.2444L17.9747 26.2444L17.5601 21.9903L17.5513 21.9H17.4606H16.1697H16.0595L16.0702 22.0097L16.4951 26.3729L16.4951 26.3732C16.5065 26.4869 16.5285 26.5995 16.5611 26.7096L16.5611 26.7097C16.6805 27.1113 16.9372 27.4639 17.2903 27.7145C17.6433 27.965 18.0737 28.1001 18.5155 28.1001H18.5714C19.1073 28.1001 19.6225 27.9015 20.0034 27.546C20.3845 27.1903 20.6 26.7063 20.6 26.2001V22V21.9H20.5H19.2143H19.1143V22V26.2001C19.1143 26.3303 19.0589 26.4568 18.9578 26.5512C18.8564 26.6458 18.7175 26.7001 18.5714 26.7001H18.5155C18.378 26.7001 18.2465 26.652 18.1467 26.5669C18.0471 26.482 17.9866 26.3667 17.9747 26.2444Z" fill="white" stroke="#9E81FC" strokeWidth="0.2"/>
<path d="M12.3561 12.9899L11.9172 13.1263L12.1457 13.5533L12.433 14.0903L12.4331 14.0905L12.7205 14.6269L12.8336 14.838H13.0731H13.0744H13.1762L13.2588 14.793C13.4676 14.7011 13.6809 14.6181 13.898 14.5443C14.2774 14.4156 14.6653 14.3192 14.9571 14.3038V14.7016H14.8429C13.9622 14.7016 13.0767 15.1307 12.5293 15.4397L12.5292 15.4398C12.2289 15.6094 11.9722 15.7784 11.792 15.903L11.7916 15.9033C11.6992 15.9673 11.6081 16.0331 11.5183 16.1005L11.5077 16.1081L11.43 16.1564L11.3795 16.2508L11.3788 16.252L11.2468 16.4986L11.4331 16.7072L11.8445 17.168L12.2559 17.6288L12.4799 17.8798L12.7656 17.7021L12.7675 17.7009L12.7885 17.6878L12.8078 17.6722L12.811 17.6696C13.0587 17.4858 13.3186 17.3165 13.5892 17.1626C14.1029 16.872 14.5669 16.7016 14.8429 16.7016H14.9571V17.307C14.5828 17.4355 14.2276 17.611 13.9015 17.8293C13.614 18.0173 13.357 18.245 13.1396 18.5052L13.1396 18.5051L13.1349 18.511C12.9978 18.6814 12.8443 18.9168 12.7636 19.2017H8.68571V12.2016H14.9571V12.3025C14.3152 12.317 13.6516 12.5055 13.2007 12.6589L13.2006 12.6589C12.9527 12.7434 12.7396 12.8276 12.589 12.8895L12.3561 12.9899ZM21.0721 16.4019L20.5661 16.1661C20.4978 16.0999 20.4275 16.0354 20.3555 15.9728L20.3552 15.9725C20.1485 15.7931 19.9292 15.6272 19.6987 15.4759L19.6982 15.4755C19.1685 15.1289 18.3317 14.7016 17.35 14.7016H17.0429V14.3016H17.125C17.5038 14.3016 17.8865 14.4052 18.1952 14.5269L18.1954 14.527C18.3532 14.5891 18.5059 14.6616 18.6522 14.7438L18.9656 14.939L19.1838 14.6331L19.5399 14.1339L19.8961 13.6347L20.1306 13.306L19.7996 13.0746L19.7971 13.0728L19.7971 13.0727L19.7898 13.0678L19.7853 13.0648L19.7782 13.0601L19.7708 13.0556L19.758 13.0478L19.758 13.0478L19.7544 13.0456C19.6855 13.0049 19.6156 12.966 19.5445 12.9289L19.5437 12.9285C19.3631 12.8348 19.1773 12.7506 18.987 12.6761C18.533 12.4972 17.8708 12.3016 17.125 12.3016H17.0429V12.2016H23.3143V19.2017H19.236C19.1538 18.9124 18.9966 18.6735 18.8603 18.5036L18.8604 18.5036L18.856 18.4983C18.6368 18.2344 18.3781 18.0028 18.0887 17.8103C17.7673 17.59 17.415 17.4143 17.0429 17.2875V16.7016H17.35C17.7191 16.7016 18.1358 16.8745 18.521 17.1274C18.7229 17.2603 18.9112 17.4095 19.0838 17.5733L19.3338 17.8649L19.6371 17.6097L20.1147 17.2077L20.5924 16.8057L21.0721 16.4019ZM16.4282 19.2017H15.6241C15.7703 19.1486 15.9105 19.1143 16.0305 19.1023C16.1338 19.1082 16.2734 19.1412 16.4282 19.2017ZM7.64286 10.2016C7.37484 10.2016 7.11271 10.3007 6.91536 10.4849C6.71707 10.67 6.6 10.9271 6.6 11.2016V20.2017C6.6 20.4761 6.71707 20.7333 6.91536 20.9184C7.11271 21.1026 7.37484 21.2017 7.64286 21.2017H24.3571C24.6252 21.2017 24.8873 21.1026 25.0846 20.9184C25.2829 20.7333 25.4 20.4761 25.4 20.2017V11.2016C25.4 10.9271 25.2829 10.67 25.0846 10.4849C24.8873 10.3007 24.6252 10.2016 24.3571 10.2016H7.64286Z" fill="#9E81FC" stroke="white" strokeWidth="0.8"/>
</svg>
