<svg width="134" height="134" viewBox="0 0 134 134" fill="none" xmlns="http://www.w3.org/2000/svg">
<g clip-path="url(#clip0_2690_2912)">
<mask id="mask0_2690_2912" style="mask-type:alpha" maskUnits="userSpaceOnUse" x="0" y="0" width="134" height="134">
<path fill-rule="evenodd" clip-rule="evenodd" d="M0 67.0001C0 29.997 29.9968 0 67 0C104.003 0 134 29.997 134 67.0001C134 104.003 104.003 134 67 134C29.9968 134 0 104.003 0 67.0001Z" fill="white"/>
</mask>
<g mask="url(#mask0_2690_2912)">
<path d="M-1.18066 137.916H136.376V-3.22266H-1.18066V137.916Z" fill="url(#paint0_linear_2690_2912)"/>
</g>
<path d="M130 103.249H4V103.308H130V103.249Z" fill="#EBEBEB"/>
<path d="M117.375 107.08H109.028V107.139H117.375V107.08Z" fill="#EBEBEB"/>
<path d="M87.467 107.725H85.2764V107.783H87.467V107.725Z" fill="#EBEBEB"/>
<path d="M108.777 104.869H103.94V104.928H108.777V104.869Z" fill="#EBEBEB"/>
<path d="M28.1044 105.269H17.2197V105.327H28.1044V105.269Z" fill="#EBEBEB"/>
<path d="M31.9445 105.269H30.3486V105.327H31.9445V105.269Z" fill="#EBEBEB"/>
<path d="M60.7382 106.274H37.1318V106.333H60.7382V106.274Z" fill="#EBEBEB"/>
<path d="M63.7273 92.6352H15.0663C14.2733 92.6352 13.6279 92.0257 13.6279 91.2767V26.6778C13.6279 25.9288 14.2733 25.3193 15.0663 25.3193H63.7273C64.5201 25.3193 65.1655 25.9288 65.1655 26.6778V91.2767C65.1655 92.0257 64.5201 92.6352 63.7273 92.6352ZM15.0663 25.3791C14.3078 25.3791 13.6909 25.9617 13.6909 26.678V91.2769C13.6909 91.9933 14.3078 92.5759 15.0663 92.5759H63.7273C64.4856 92.5759 65.1025 91.9933 65.1025 91.2769V26.6778C65.1025 25.9617 64.4856 25.3788 63.7273 25.3788L15.0663 25.3791Z" fill="#EBEBEB"/>
<path d="M118.235 92.6352H69.5739C68.7809 92.6352 68.1357 92.0257 68.1357 91.2767V26.6778C68.1357 25.9288 68.7811 25.3193 69.5739 25.3193H118.235C119.028 25.3193 119.673 25.9288 119.673 26.6778V91.2767C119.673 92.0257 119.028 92.6352 118.235 92.6352ZM69.5739 25.3791C68.8156 25.3791 68.1987 25.9617 68.1987 26.678V91.2769C68.1987 91.9933 68.8156 92.5759 69.5739 92.5759H118.235C118.993 92.5759 119.61 91.9933 119.61 91.2769V26.6778C119.61 25.9617 118.993 25.3788 118.235 25.3788L69.5739 25.3791Z" fill="#EBEBEB"/>
<path d="M57.1158 36.5957H18.4648V103.249H57.1158V36.5957Z" fill="#EBEBEB"/>
<path d="M51.4486 28.4453H24.1318V32.8667H51.4486V28.4453Z" fill="#FAFAFA"/>
<path d="M55.1281 38.2129H20.4531V103.249H55.1281V38.2129Z" fill="white"/>
<path d="M53.4668 67.333H46.5648C46.1956 67.333 45.8965 67.6155 45.8965 67.9642C45.8965 68.3128 46.1956 68.5953 46.5648 68.5953H53.4668C53.836 68.5953 54.1351 68.3128 54.1351 67.9642C54.1351 67.6155 53.836 67.333 53.4668 67.333Z" fill="#EBEBEB"/>
<path d="M33.6692 41.8154H25.6357V96.7349H33.6692V41.8154Z" fill="#EBEBEB"/>
<path d="M33.6692 49.5811L25.6357 53.3739V62.6769L33.6692 58.884V49.5811Z" fill="#F5F5F5"/>
<path d="M33.6692 60.7852L25.6357 64.578V68.1401L33.6692 64.3472V60.7852Z" fill="#F5F5F5"/>
<path d="M33.6692 80.1406L25.6357 83.9335V87.4956L33.6692 83.7027V80.1406Z" fill="#F5F5F5"/>
<path d="M62.8895 85.623H115.539V32.8683L62.8895 32.8683L62.8895 85.623Z" fill="#EBEBEB"/>
<path d="M63.2975 85.2148H115.132V33.2769L63.2975 33.2769L63.2975 85.2148Z" fill="white"/>
<path d="M69.25 72.1157L86.2021 72.9316L86.88 60.3713L69.9278 59.5553L69.25 72.1157Z" fill="#F0F0F0"/>
<path d="M88.4478 58.9536L105.307 57.0908L103.759 44.5996L86.9004 46.4624L88.4478 58.9536Z" fill="#F0F0F0"/>
<path d="M77.8184 35.5602H100.61C101.644 35.5602 102.482 34.7686 102.482 33.7922V33.3364C102.482 32.3599 101.644 31.5684 100.61 31.5684H77.8184C76.7844 31.5684 75.9463 32.3599 75.9463 33.3364V33.7922C75.9463 34.7686 76.7844 35.5602 77.8184 35.5602Z" fill="#E6E6E6"/>
<path d="M77.9263 35.1986H100.503C101.113 35.1986 101.608 34.7314 101.608 34.155V34.0827C101.608 33.5062 101.113 33.0391 100.503 33.0391H77.9263C77.316 33.0391 76.8213 33.5062 76.8213 34.0827V34.155C76.821 34.7314 77.316 35.1986 77.9263 35.1986Z" fill="white"/>
<path d="M67.864 55.8594H90.1123V39.3748H67.864V55.8594Z" fill="#E6E6E6"/>
<path d="M70.8401 41.3301C69.4148 41.283 69.2618 42.0748 69.821 42.5515C70.3802 43.0282 75.802 45.901 75.9884 46.7461C76.1749 47.5913 76.5255 48.8505 77.0761 47.7752C77.6267 46.7 78.6581 46.9853 79.0175 46.0762C79.2763 45.4215 76.662 45.3608 75.8942 44.8503C73.6453 43.3547 71.6777 41.3577 70.8401 41.3301Z" fill="white"/>
<path d="M86.2608 53.9018C86.9011 54.0627 87.016 53.7659 86.4568 53.2892C85.8976 52.8125 81.4211 50.3845 81.1124 48.486C80.9738 47.6328 80.5754 46.3817 80.0248 47.457C79.4742 48.5322 78.4427 48.2469 78.0834 49.156C77.8246 49.8107 80.4388 49.8714 81.2067 50.3819C83.4555 51.8772 85.4506 53.6983 86.2608 53.9018Z" fill="white"/>
<path d="M79.4227 47.7799C79.899 47.2811 79.2398 46.5654 78.2529 46.9831C77.2661 47.4008 78.1408 49.1224 79.4227 47.7799Z" fill="white"/>
<path d="M80.8453 47.8496C82.4133 49.6153 86.8009 52.52 87.419 52.7337C88.0372 52.9472 88.5497 53.9299 86.7255 52.7906C84.9013 51.6515 81.1016 48.946 80.8453 48.4903C80.5891 48.0348 80.8453 47.8496 80.8453 47.8496Z" fill="white"/>
<path d="M87.2868 77.4521H109.535V60.9676H87.2868V77.4521Z" fill="#E6E6E6"/>
<path d="M100.624 63.4037C98.7031 63.3535 99.6733 67.8354 100.035 70.3415C100.397 72.8475 100.94 75.8094 103.835 75.6954C106.729 75.5814 107.407 73.7548 106.819 71.3044C105.915 67.5365 102.35 63.449 100.624 63.4037Z" fill="white"/>
<path d="M96.2015 63.4037C98.122 63.3535 97.1518 67.8354 96.7899 70.3415C96.4281 72.8475 95.8853 75.8094 92.9905 75.6954C90.0958 75.5814 89.4177 73.7548 90.0058 71.3044C90.9098 67.5365 94.4753 63.449 96.2015 63.4037Z" fill="white"/>
<path d="M100.401 67.0163C100.311 67.0163 100.221 66.9954 100.137 66.9511C100.044 66.9021 97.8691 65.7171 97.8691 62.8017C97.8691 62.5187 98.1123 62.2891 98.412 62.2891C98.7118 62.2891 98.9548 62.5185 98.9548 62.8017C98.9548 65.0974 100.6 66.0201 100.67 66.0582C100.929 66.199 101.02 66.5113 100.872 66.7564C100.773 66.9228 100.589 67.0163 100.401 67.0163Z" fill="white"/>
<path d="M96.4213 67.0166C96.2313 67.0166 96.0469 66.9223 95.9473 66.7545C95.8012 66.5082 95.8934 66.1969 96.153 66.0579C96.2296 66.016 97.8683 65.0926 97.8683 62.8017C97.8683 62.5187 98.1115 62.2891 98.4111 62.2891C98.711 62.2891 98.954 62.5185 98.954 62.8017C98.954 65.7169 96.7787 66.9021 96.686 66.9511C96.6023 66.9954 96.5111 67.0166 96.4213 67.0166Z" fill="white"/>
<path d="M102.635 72.9701C102.635 73.6936 103.256 74.28 104.022 74.28C104.788 74.28 105.409 73.6936 105.409 72.9701C105.409 72.2466 104.788 71.6602 104.022 71.6602C103.256 71.6599 102.635 72.2466 102.635 72.9701Z" fill="#F5F5F5"/>
<path d="M95.1901 67.8619C94.9557 68.5507 95.0615 69.1987 95.4262 69.3094C95.7908 69.4201 96.2764 68.9512 96.5106 68.2625C96.7449 67.5737 96.6391 66.9254 96.2744 66.815C95.9098 66.7043 95.4244 67.173 95.1901 67.8619Z" fill="#F5F5F5"/>
<path d="M67.0007 114C93.9853 114 115.861 112.793 115.861 111.305C115.861 109.817 93.9853 108.61 67.0007 108.61C40.016 108.61 18.1406 109.817 18.1406 111.305C18.1406 112.793 40.016 114 67.0007 114Z" fill="#F5F5F5"/>
<path d="M26.5751 94.4208H26.5741C26.5045 94.4203 26.4486 94.3663 26.4491 94.3008C26.4922 89.7747 24.9562 72.5511 21.2506 67.4362C21.2113 67.3819 21.2259 67.3079 21.2833 67.2708C21.341 67.2336 21.4192 67.2477 21.4585 67.3017C25.2538 72.5404 26.7459 89.6002 26.7011 94.3027C26.7006 94.3684 26.6441 94.4208 26.5751 94.4208Z" fill="#FCBB7F"/>
<path d="M27.9208 93.168H25.2297C23.1018 98.6692 24.0164 110.499 25.2297 110.499H27.9206C29.134 110.499 30.0487 98.6692 27.9208 93.168Z" fill="#263238"/>
<path d="M22.3184 69.6824C22.8968 70.0624 22.9593 70.4825 22.7274 70.7974C22.4953 71.1122 22.0566 71.2024 21.4785 70.8224C20.9004 70.4423 20.4688 69.3125 20.4688 69.3125C20.4688 69.3125 21.7403 69.3021 22.3184 69.6824Z" fill="#FCBB7F"/>
<path d="M25.7469 74.8082C25.5552 75.4484 25.1553 75.6414 24.7647 75.5372C24.3738 75.433 24.1402 75.0707 24.332 74.4303C24.5237 73.7901 25.5136 73.0361 25.5136 73.0361C25.5136 73.0361 25.9387 74.168 25.7469 74.8082Z" fill="#FCBB7F"/>
<path d="M24.8131 79.0782C25.2976 79.5613 25.2687 79.9844 24.9738 80.2481C24.679 80.5118 24.2299 80.5161 23.7453 80.0332C23.2607 79.5501 23.0811 78.3613 23.0811 78.3613C23.0811 78.3613 24.3287 78.595 24.8131 79.0782Z" fill="#FCBB7F"/>
<path d="M27.5758 86.7456C27.2981 87.3573 26.8752 87.4998 26.502 87.3487C26.1288 87.1976 25.9466 86.8099 26.224 86.1985C26.5017 85.5868 27.5861 84.96 27.5861 84.96C27.5861 84.96 27.8535 86.1342 27.5758 86.7456Z" fill="#FCBB7F"/>
<path d="M20.3209 66.0883C19.8547 65.6728 20.9005 64.4588 21.6078 64.499C21.9793 64.5202 21.9009 65.0169 21.917 65.4298C21.9332 65.8427 21.8659 66.2226 21.2858 66.3266C20.7057 66.4308 20.5424 66.2859 20.3209 66.0883Z" fill="#FCBB7F"/>
<path opacity="0.2" d="M20.3209 66.0883C19.8547 65.6728 20.9005 64.4588 21.6078 64.499C21.9793 64.5202 21.9009 65.0169 21.917 65.4298C21.9332 65.8427 21.8659 66.2226 21.2858 66.3266C20.7057 66.4308 20.5424 66.2859 20.3209 66.0883Z" fill="black"/>
<path d="M21.446 65.5877C21.4037 64.9835 19.7465 64.9718 19.3292 65.5123C19.1099 65.7962 19.8085 65.8602 20.0194 66.2222C20.2306 66.5842 20.5715 66.7982 21.0262 66.4421C21.4805 66.0861 21.4661 65.8748 21.446 65.5877Z" fill="#FCBB7F"/>
<path d="M21.9616 66.0503C21.9059 65.2535 19.7203 65.2378 19.1696 65.9509C18.8804 66.3255 19.4811 66.6675 19.912 67.0299C20.343 67.3924 20.8084 67.6468 21.4077 67.1772C22.0069 66.7077 21.988 66.429 21.9616 66.0503Z" fill="#FCBB7F"/>
<path opacity="0.2" d="M21.9616 66.0503C21.9059 65.2535 19.7203 65.2378 19.1696 65.9509C18.8804 66.3255 19.4811 66.6675 19.912 67.0299C20.343 67.3924 20.8084 67.6468 21.4077 67.1772C22.0069 66.7077 21.988 66.429 21.9616 66.0503Z" fill="black"/>
<path d="M20.4751 66.7096C19.8599 66.1615 21.2396 64.5603 22.1723 64.6136C22.6622 64.6417 22.1443 65.3661 22.3565 65.8728C22.5689 66.3795 22.5127 66.8869 21.7477 67.0242C20.9823 67.1613 20.7669 66.97 20.4751 66.7096Z" fill="#FCBB7F"/>
<path d="M21.9616 66.0503C21.9059 65.2535 19.7203 65.2378 19.1696 65.9509C18.8804 66.3255 19.4811 66.6675 19.912 67.0299C20.343 67.3924 20.8084 67.6468 21.4077 67.1772C22.0069 66.7077 21.988 66.429 21.9616 66.0503Z" fill="#FCBB7F"/>
<path opacity="0.2" d="M21.9616 66.0503C21.9059 65.2535 19.7203 65.2378 19.1696 65.9509C18.8804 66.3255 19.4811 66.6675 19.912 67.0299C20.343 67.3924 20.8084 67.6468 21.4077 67.1772C22.0069 66.7077 21.988 66.429 21.9616 66.0503Z" fill="black"/>
<path d="M20.4751 66.7096C19.8599 66.1615 21.2396 64.5603 22.1723 64.6136C22.6622 64.6417 22.1443 65.3661 22.3565 65.8728C22.5689 66.3795 22.5127 66.8869 21.7477 67.0242C20.9823 67.1613 20.7669 66.97 20.4751 66.7096Z" fill="#FCBB7F"/>
<path d="M20.6328 67.6203C19.925 66.9892 21.5131 65.1462 22.5866 65.2076C23.1506 65.2397 23.0316 65.9939 23.0561 66.621C23.0807 67.2479 22.9784 67.8248 22.0977 67.9826C21.2172 68.1401 20.9692 67.92 20.6328 67.6203Z" fill="#FCBB7F"/>
<path opacity="0.2" d="M20.6328 67.6203C19.925 66.9892 21.5131 65.1462 22.5866 65.2076C23.1506 65.2397 23.0316 65.9939 23.0561 66.621C23.0807 67.2479 22.9784 67.8248 22.0977 67.9826C21.2172 68.1401 20.9692 67.92 20.6328 67.6203Z" fill="black"/>
<path d="M22.3414 66.8624C22.2771 65.9449 19.7611 65.9271 19.1274 66.7479C18.7945 67.1789 19.8551 67.276 20.1754 67.8258C20.496 68.3753 21.0138 68.7004 21.7036 68.1597C22.3935 67.619 22.3719 67.2982 22.3414 66.8624Z" fill="#FCBB7F"/>
<path d="M70.9346 33.0246C71.9487 28.9686 69.2893 24.9042 64.9946 23.9464C60.6999 22.9887 56.3962 25.5003 55.3821 29.5563C54.368 33.6124 57.0275 37.6768 61.3222 38.6345C65.6169 39.5923 69.9205 37.0806 70.9346 33.0246Z" fill="#FCBB7F"/>
<path d="M57.4176 35.9004L54.0957 39.3158L61.2737 37.9209L57.4176 35.9004Z" fill="#FCBB7F"/>
<path d="M63.1561 38.0101C67.0872 38.0101 70.2741 35.0004 70.2741 31.2878C70.2741 27.5751 67.0872 24.5654 63.1561 24.5654C59.2249 24.5654 56.0381 27.5751 56.0381 31.2878C56.0381 35.0004 59.2249 38.0101 63.1561 38.0101Z" fill="white"/>
<path d="M57.884 31.8547L58.3764 34.698C58.4235 34.9705 58.6959 35.1554 58.9845 35.1109L61.4868 34.7244C61.5123 34.7206 61.538 34.7182 61.5639 34.718L65.1433 34.6642C65.195 34.6635 65.2464 34.6556 65.2955 34.6406L67.0273 34.1199C67.4189 34.0021 67.6923 33.668 67.7142 33.2805L67.875 30.4351C67.9153 29.7216 67.2838 29.1364 66.5291 29.1878L64.6605 29.3156C64.3548 29.3365 64.0943 29.1085 64.0927 28.8191L64.0875 27.7736C64.0849 27.2833 63.9078 26.8083 63.5845 26.4249C63.465 26.2833 63.274 26.2138 63.0847 26.2428C62.806 26.2859 62.612 26.5279 62.644 26.7931L62.7491 27.6646C62.7609 27.7622 62.742 27.8609 62.6946 27.9485L61.3875 30.3672C61.3182 30.4953 61.194 30.5893 61.0463 30.6245L58.2766 31.2892C58.0097 31.353 57.8396 31.5986 57.884 31.8547Z" fill="#FCBB7F"/>
<path d="M68.7207 24.0572L69.5447 22L69.7758 22.7299L68.7207 24.0572Z" fill="#FCBB7F"/>
<path d="M54.2389 26.7694L51.3076 27.1564L51.8844 26.3193L54.2389 26.7694Z" fill="#FCBB7F"/>
<path d="M55.2826 26.2653L53.3203 25.4794L54.0047 25.1641L55.2826 26.2653Z" fill="#FCBB7F"/>
<path d="M69.5 24.2187L70.5977 23.3086L70.5156 23.8826L69.5 24.2187Z" fill="#FCBB7F"/>
<path d="M42.1154 43.5542C40.1838 45.5657 37.0769 50.525 41.7784 54.3679C40.4038 48.8893 44.1737 47.6429 43.0311 44.0337C42.3006 43.3845 42.1154 43.5542 42.1154 43.5542Z" fill="#263238"/>
<path d="M42.7914 41.8173C42.547 43.0917 41.5947 43.4654 42.166 44.0156C42.737 44.5656 43.2544 44.1765 43.3176 43.7802C43.3809 43.384 44.0739 42.6786 44.0739 42.6786C44.0739 42.6786 43.9857 41.6164 42.7914 41.8173Z" fill="#FCBB7F"/>
<path d="M41.2494 103.758L38.4648 103.951C38.8494 106.044 39.2125 109.349 39.2125 109.349H41.4198C41.4198 109.349 41.167 105.19 41.2494 103.758Z" fill="#FFC3BD"/>
<path d="M55.0781 103.794L52.3086 103.87C52.8292 105.988 53.4076 109.321 53.4076 109.321L55.6126 109.413C55.6126 109.413 55.0892 105.228 55.0781 103.794Z" fill="#FFC3BD"/>
<path d="M43.8104 111.417C41.8919 111.417 42.028 111.39 40.9475 111.355C40.0221 111.324 39.8097 111.433 39.0665 111.417C38.4458 111.405 38.4254 110.845 38.5671 110.2C38.621 109.953 38.7024 109.664 38.7785 109.308C38.8223 109.102 39.0083 108.958 39.2339 108.958H41.4784C41.6417 108.958 41.803 109.032 41.9028 109.16C42.375 109.771 43.1469 110.22 44.133 110.344C45.175 110.474 44.5752 111.417 43.8104 111.417Z" fill="#263238"/>
<path d="M58.7542 110.855C56.8509 111.082 56.9764 111.039 55.8925 111.134C54.9636 111.214 54.7903 111.344 54.0479 111.417C53.4277 111.479 53.2153 110.939 53.1341 110.299C53.1026 110.054 53.0842 109.764 53.0376 109.411C53.0106 109.208 53.1454 109.046 53.3692 109.019L55.5959 108.753C55.7579 108.734 55.9432 108.786 56.0863 108.898C56.7647 109.433 57.6845 109.775 58.7051 109.778C59.7839 109.781 59.513 110.764 58.7542 110.855Z" fill="#263238"/>
<path d="M52.8608 62.877C52.8608 62.877 54.6051 75.6898 54.4529 83.8265C55.1147 91.4651 55.4067 106.128 55.4067 106.128C55.3568 106.517 53.1843 106.269 52.8094 106.019C52.8094 106.019 48.5833 96.2169 49.3953 83.8265C43.8462 70.9042 44.1776 62.877 44.1776 62.877H52.8608Z" fill="#FCBB7F"/>
<path opacity="0.2" d="M45.7227 73.2242C46.1533 74.8927 46.7065 76.7438 47.4138 78.7573C47.62 74.7004 48.7812 69.2709 48.8205 69.0859L45.7227 73.2242Z" fill="black"/>
<path d="M50.4965 62.877C50.4965 62.877 46.5295 77.3388 44.958 84.4403C43.3074 91.8983 40.9936 101.121 41.4532 106.076C41.0112 106.323 39.4322 106.338 38.5391 106.076C38.5391 106.076 35.1419 91.9499 39.4619 84.7702C37.8988 67.1035 42.847 62.877 42.847 62.877H50.4965Z" fill="#FCBB7F"/>
<path d="M41.6439 105.043C41.66 105.293 41.6973 105.728 41.7762 106.06C41.8047 106.18 41.7225 106.291 41.5953 106.311C40.5336 106.472 38.9828 106.238 38.4904 106.155C38.3961 106.139 38.3228 106.069 38.3052 105.98L38.1172 105.028C38.0915 104.898 38.1961 104.781 38.3357 104.783L41.4181 104.839C41.5373 104.842 41.6366 104.93 41.6439 105.043Z" fill="#E0E0E0"/>
<path d="M55.6702 105.062C55.6866 105.328 55.7186 105.803 55.7559 106.154C55.7682 106.27 55.6805 106.368 55.5583 106.379C54.643 106.46 53.1736 106.29 52.6913 106.228C52.5958 106.216 52.5184 106.148 52.4975 106.058L52.273 105.097C52.2425 104.966 52.3453 104.844 52.4864 104.845L55.4414 104.858C55.5618 104.858 55.6631 104.948 55.6702 105.062Z" fill="#E0E0E0"/>
<path d="M64.3987 50.9817L63.6648 51.2104C63.3889 51.2963 63.1739 51.5031 63.0878 51.7651L62.6856 52.9901C62.5248 53.4799 62.6251 54.0127 62.9547 54.4202L63.1588 54.6724C64.4032 54.3719 65.5135 53.1809 65.5135 53.1809L65.8698 52.8746C66.1871 52.6017 66.2199 52.1654 65.9444 51.8725L65.3109 51.1977C65.0924 50.9643 64.7293 50.8784 64.3987 50.9817Z" fill="#FFC3BD"/>
<path d="M53.3835 50.5511C53.3793 50.5466 53.3931 50.5899 53.3999 50.6142L53.4297 50.707L53.498 50.9026C53.5448 51.0357 53.6045 51.1685 53.6618 51.3022C53.7802 51.569 53.9115 51.8346 54.0531 52.095C54.3343 52.6174 54.6735 53.1105 55.045 53.571C55.7942 54.4875 56.7062 55.2572 57.7447 55.7698C57.8747 55.8336 58.0045 55.8974 58.1388 55.9514L58.2386 55.9942C58.2658 56.0059 58.3235 56.0314 58.3054 56.0223C58.3003 56.0214 58.294 56.0195 58.294 56.0195C58.2799 56.024 58.3769 56.0261 58.544 55.9683C58.7093 55.9129 58.9263 55.8084 59.146 55.6706C59.366 55.5299 59.5936 55.3595 59.8189 55.1736C60.2679 54.796 60.7059 54.3533 61.1126 53.878C61.3188 53.6424 61.5131 53.3939 61.7036 53.1443C61.7978 53.0186 61.889 52.8908 61.9783 52.7635C62.0637 52.6404 62.1584 52.496 62.2187 52.3944L65.1711 54.4026C65.0234 54.5699 64.9037 54.6898 64.7719 54.829L64.3844 55.2272C64.1268 55.4916 63.8604 55.7479 63.5926 56.0052C63.051 56.5155 62.4878 57.0159 61.8525 57.4905C61.5342 57.7285 61.1973 57.9596 60.8213 58.1752C60.4446 58.3913 60.0333 58.6 59.5293 58.7569C59.0311 58.9075 58.4069 59.0218 57.6973 58.8935C57.5234 58.8618 57.3478 58.8147 57.1789 58.7519C57.0771 58.7157 57.0562 58.7033 57.0025 58.6817L56.8611 58.6217C56.6714 58.5443 56.4874 58.4563 56.3042 58.3666C54.8368 57.6473 53.5801 56.6271 52.5552 55.4773C52.0389 54.9028 51.5812 54.2914 51.1629 53.6574C50.9543 53.3397 50.7585 53.0146 50.5748 52.6797C50.483 52.5115 50.3958 52.3415 50.3074 52.1671L50.1773 51.8996L50.1131 51.7592C50.0899 51.7054 50.0733 51.6704 50.041 51.5869L53.3835 50.5511Z" fill="#FCBB7F"/>
<path opacity="0.7" d="M53.3835 50.5511C53.3793 50.5466 53.3931 50.5899 53.3999 50.6142L53.4297 50.707L53.498 50.9026C53.5448 51.0357 53.6045 51.1685 53.6618 51.3022C53.7802 51.569 53.9115 51.8346 54.0531 52.095C54.3343 52.6174 54.6735 53.1105 55.045 53.571C55.7942 54.4875 56.7062 55.2572 57.7447 55.7698C57.8747 55.8336 58.0045 55.8974 58.1388 55.9514L58.2386 55.9942C58.2658 56.0059 58.3235 56.0314 58.3054 56.0223C58.3003 56.0214 58.294 56.0195 58.294 56.0195C58.2799 56.024 58.3769 56.0261 58.544 55.9683C58.7093 55.9129 58.9263 55.8084 59.146 55.6706C59.366 55.5299 59.5936 55.3595 59.8189 55.1736C60.2679 54.796 60.7059 54.3533 61.1126 53.878C61.3188 53.6424 61.5131 53.3939 61.7036 53.1443C61.7978 53.0186 61.889 52.8908 61.9783 52.7635C62.0637 52.6404 62.1584 52.496 62.2187 52.3944L65.1711 54.4026C65.0234 54.5699 64.9037 54.6898 64.7719 54.829L64.3844 55.2272C64.1268 55.4916 63.8604 55.7479 63.5926 56.0052C63.051 56.5155 62.4878 57.0159 61.8525 57.4905C61.5342 57.7285 61.1973 57.9596 60.8213 58.1752C60.4446 58.3913 60.0333 58.6 59.5293 58.7569C59.0311 58.9075 58.4069 59.0218 57.6973 58.8935C57.5234 58.8618 57.3478 58.8147 57.1789 58.7519C57.0771 58.7157 57.0562 58.7033 57.0025 58.6817L56.8611 58.6217C56.6714 58.5443 56.4874 58.4563 56.3042 58.3666C54.8368 57.6473 53.5801 56.6271 52.5552 55.4773C52.0389 54.9028 51.5812 54.2914 51.1629 53.6574C50.9543 53.3397 50.7585 53.0146 50.5748 52.6797C50.483 52.5115 50.3958 52.3415 50.3074 52.1671L50.1773 51.8996L50.1131 51.7592C50.0899 51.7054 50.0733 51.6704 50.041 51.5869L53.3835 50.5511Z" fill="white"/>
<path d="M53.7895 52.0375C53.821 52.9421 53.8626 54.0871 53.7214 56.2462C53.6413 58.0739 53.2144 59.9945 52.6925 62.9523C51.6336 63.5385 46.2756 63.2953 42.8466 62.8769C43.0548 60.2851 42.7148 57.3233 40.8553 51.4918C40.4242 50.1397 41.3858 48.8413 42.921 48.7027C43.3312 48.6658 43.7664 48.6349 44.2132 48.6156C45.9498 48.5409 47.3733 48.4916 48.9158 48.6159C49.4271 48.657 49.9566 48.7142 50.4631 48.7768C52.2908 49.0024 53.7333 50.4163 53.7895 52.0375Z" fill="white"/>
<path d="M52.8777 63.5755C49.4611 63.9423 45.8963 63.9223 42.4794 63.5556C42.3282 63.5396 42.237 63.3816 42.299 63.2438C42.3836 63.0558 42.4678 62.8673 42.551 62.6788C42.5898 62.591 42.6797 62.5379 42.7742 62.5481C46.0586 62.8877 49.4885 62.9011 52.7718 62.5484C52.8923 62.5346 53.0004 62.624 53.0137 62.7454C53.0347 62.9408 53.0553 63.1357 53.076 63.3311C53.0896 63.4525 53.0006 63.562 52.8777 63.5755Z" fill="#263238"/>
<path opacity="0.2" d="M48.1406 50.4954C47.5116 50.6999 47.0129 51.7839 47.1404 52.4332C45.5684 51.5667 44.1504 49.1325 44.1504 49.1325L44.7998 48.665L48.1406 50.4954Z" fill="#FCBB7F"/>
<path opacity="0.2" d="M48.2891 50.496C49.0456 50.7005 49.701 51.8909 49.7456 52.2584C51.216 51.2452 49.8489 49.0604 49.8489 49.0604L49.0834 48.792L48.2891 50.496Z" fill="#FCBB7F"/>
<path d="M44.543 43.6191C44.9522 45.0481 45.455 47.6664 44.4717 48.6198C44.4717 48.6198 45.7682 49.9988 48.3767 50.6999C50.2115 49.7068 49.1743 48.6201 49.1743 48.6201C47.4569 48.2395 47.4072 47.0572 47.6136 45.9469L44.543 43.6191Z" fill="#FFC3BD"/>
<path d="M44.3642 48.3975C44.3642 48.3975 46.1448 49.8911 46.6745 53.491C47.6868 60.3678 45.7235 86.9026 45.7235 86.9026C45.7235 86.9026 39.643 86.5211 37.2699 84.5952C37.1585 82.6694 41.0993 64.9242 40.7528 59.8307C40.4063 54.7371 39.7392 50.3007 40.4353 49.3423C41.131 48.3839 44.3642 48.3975 44.3642 48.3975Z" fill="#FCBB7F"/>
<path opacity="0.8" d="M44.3642 48.3975C44.3642 48.3975 46.1448 49.8911 46.6745 53.491C47.6868 60.3678 45.7235 86.9026 45.7235 86.9026C45.7235 86.9026 39.643 86.5211 37.2699 84.5952C37.1585 82.6694 41.0993 64.9242 40.7528 59.8307C40.4063 54.7371 39.7392 50.3007 40.4353 49.3423C41.131 48.3839 44.3642 48.3975 44.3642 48.3975Z" fill="white"/>
<path d="M49.0469 48.541C51.7586 51.8282 51.7372 71.237 50.9543 86.5723C53.3609 86.2983 55.934 83.6424 55.934 83.6424C55.934 83.6424 53.3185 67.3758 53.8215 60.4749C54.3248 53.5741 54.254 51.1727 53.0796 49.8992C51.9056 48.626 49.0469 48.541 49.0469 48.541Z" fill="#FCBB7F"/>
<path opacity="0.8" d="M49.0469 48.541C51.7586 51.8282 51.7372 71.237 50.9543 86.5723C53.3609 86.2983 55.934 83.6424 55.934 83.6424C55.934 83.6424 53.3185 67.3758 53.8215 60.4749C54.3248 53.5741 54.254 51.1727 53.0796 49.8992C51.9056 48.626 49.0469 48.541 49.0469 48.541Z" fill="white"/>
<path d="M44.5932 48.2741C45.0644 48.6506 47.2878 50.5538 46.9852 58.3483C46.7614 57.4647 45.7433 53.2805 44.6476 51.2883C44.8825 51.071 45.4016 51.0469 45.4016 51.0469C45.4016 51.0469 44.9032 50.7852 44.4465 50.8877C44.1409 50.3058 43.5131 49.0821 42.9043 48.4247C43.5638 48.0413 44.5932 48.2741 44.5932 48.2741Z" fill="#FCBB7F"/>
<path d="M51.0309 58.3478C51.0309 58.3478 50.5478 51.0874 48.9531 48.4997C49.3445 48.4173 50.1421 48.3738 50.7655 48.7667C51.0989 49.1458 51.5339 50.6014 51.5339 50.9165C51.1062 50.8137 50.769 50.9953 50.769 50.9953C50.769 50.9953 51.2461 51.08 51.5555 51.2725C51.6606 51.7961 51.7098 54.538 51.0309 58.3478Z" fill="#FCBB7F"/>
<path opacity="0.2" d="M45.796 44.5693L47.6132 45.9461C47.5633 46.2089 47.5295 46.4754 47.5303 46.7344C46.8789 46.6463 45.9407 45.978 45.822 45.3407C45.763 45.023 45.7529 44.7176 45.796 44.5693Z" fill="black"/>
<path d="M43.2523 40.7509C43.7114 43.0582 43.8538 44.0414 45.2479 45.1481C47.345 46.8128 50.2262 45.932 50.5016 43.5797C50.7496 41.4623 49.957 38.0447 47.4395 37.2829C44.9591 36.5325 42.7932 38.4436 43.2523 40.7509Z" fill="#FFC3BD"/>
<path d="M44.1502 42.3447C44.8926 40.9036 45.6761 39.5599 45.3049 39.073C44.9337 38.586 43.1258 37.8418 42.2532 38.6446C40.9402 39.8519 42.1307 42.3251 42.9033 42.5393C43.6757 42.7538 44.1502 42.3447 44.1502 42.3447Z" fill="#263238"/>
<path d="M44.7546 38.8404C46.6746 39.9061 48.3774 37.4615 48.9719 38.2461C49.8622 37.3408 48.1405 36.6787 46.3155 36.6787C43.7739 36.6787 40.8512 37.9446 42.3977 38.7431C43.9442 39.5413 44.7546 38.8404 44.7546 38.8404Z" fill="#263238"/>
<path d="M43.3978 42.2305C43.3698 42.2305 43.3449 42.2126 43.3378 42.1862C43.3295 42.1548 43.3499 42.1232 43.3829 42.1153L45.7542 41.5622L46.1453 41.5605C46.1796 41.5605 46.2071 41.5867 46.2071 41.6189C46.2071 41.651 46.1793 41.6772 46.1453 41.6772H45.7691L43.4126 42.2286C43.4076 42.23 43.4028 42.2305 43.3978 42.2305Z" fill="white"/>
<path d="M47.1212 41.1363C47.1509 41.3315 47.2822 41.4824 47.4145 41.4731C47.5468 41.4638 47.6302 41.2982 47.6005 41.1028C47.5707 40.9076 47.4394 40.7567 47.3071 40.766C47.1748 40.7753 47.0917 40.941 47.1212 41.1363Z" fill="#263238"/>
<path d="M49.6164 40.9965C49.6461 41.1916 49.7774 41.3425 49.9097 41.3332C50.042 41.3239 50.1254 41.1583 50.0957 40.9631C50.0659 40.768 49.9346 40.6171 49.8023 40.6264C49.67 40.6354 49.5866 40.8013 49.6164 40.9965Z" fill="#263238"/>
<path d="M49.7461 40.6416L50.2118 40.4727C50.2118 40.4727 50.018 40.8563 49.7461 40.6416Z" fill="#263238"/>
<path d="M49.1357 41.6172C49.1357 41.6172 49.4603 42.4951 49.8292 42.9369C49.5571 43.1572 49.1055 43.0078 49.1055 43.0078L49.1357 41.6172Z" fill="#ED847E"/>
<path d="M46.7158 42.293C46.5353 42.293 46.3718 42.2287 46.2528 42.11C46.1231 41.9805 46.0626 41.8037 46.083 41.6121C46.1238 41.2287 46.4819 40.9029 46.8808 40.8857L48.221 40.8277C48.4147 40.8208 48.5904 40.8841 48.7169 41.01C48.8467 41.1394 48.9072 41.3165 48.8867 41.5078C48.8459 41.8912 48.4878 42.2171 48.0889 42.2344L46.749 42.2925C46.7377 42.2927 46.7268 42.293 46.7158 42.293ZM48.2542 40.9438C48.2451 40.9438 48.2361 40.944 48.2268 40.9445L46.8866 41.0026C46.5464 41.0171 46.2412 41.296 46.2062 41.6237C46.1893 41.7811 46.2377 41.925 46.3425 42.0298C46.4433 42.1307 46.5832 42.1823 46.7432 42.1757L48.0831 42.1176C48.4233 42.1031 48.7285 41.8241 48.7635 41.4962C48.7804 41.3389 48.732 41.1946 48.6269 41.0902C48.5319 40.9952 48.4004 40.9438 48.2542 40.9438Z" fill="white"/>
<path d="M50.017 42.1495C49.8366 42.1495 49.6733 42.0852 49.5544 41.9664C49.4246 41.8367 49.3643 41.6599 49.3848 41.4686C49.4256 41.0854 49.7837 40.7593 50.1826 40.7422L50.7622 40.7172C50.953 40.711 51.1319 40.7736 51.2584 40.8995C51.3882 41.029 51.4486 41.2058 51.428 41.3974C51.3871 41.7808 51.0291 42.1066 50.6301 42.1238L50.0503 42.1487C50.0392 42.1492 50.0281 42.1495 50.017 42.1495ZM50.7955 40.8331C50.7864 40.8331 50.7773 40.8334 50.768 40.8338L50.1884 40.8588C49.8482 40.8736 49.543 41.1525 49.5082 41.4802C49.4914 41.6375 49.5397 41.7815 49.6446 41.8862C49.7454 41.9869 49.8837 42.0393 50.0452 42.0321L50.6251 42.0071C50.9653 41.9926 51.2705 41.7137 51.3055 41.386C51.3224 41.2287 51.274 41.0847 51.1689 40.98C51.0734 40.8845 50.9416 40.8331 50.7955 40.8331Z" fill="white"/>
<path d="M48.8294 41.5036C48.8052 41.5036 48.7823 41.4903 48.7725 41.4677C48.7591 41.4379 48.774 41.4036 48.8055 41.3913C48.8992 41.3541 49.3733 41.179 49.5086 41.3874C49.5265 41.4151 49.5171 41.451 49.4882 41.4679C49.4599 41.4846 49.4211 41.4762 49.403 41.4486C49.344 41.3577 49.0404 41.4251 48.8534 41.4991C48.8456 41.5022 48.8375 41.5036 48.8294 41.5036Z" fill="white"/>
<path d="M48.1257 43.5438C48.2333 43.5545 48.348 43.5569 48.4697 43.5483C48.5024 43.5462 48.5251 43.5186 48.5203 43.4867C48.5155 43.4553 48.4858 43.4315 48.452 43.4336C47.5642 43.496 47.0575 42.926 47.0524 42.9203C47.0305 42.8948 46.9924 42.8901 46.9677 42.9091C46.9428 42.9281 46.9403 42.9643 46.9622 42.9895C46.9816 43.0119 47.3891 43.4712 48.1257 43.5438Z" fill="#263238"/>
<path d="M43.0063 43.085C43.3155 43.526 43.7608 43.768 44.1481 43.8187C44.7308 43.8949 44.8963 43.2554 44.6295 42.6671C44.389 42.1373 43.7963 41.4593 43.2621 41.6558C42.7357 41.8493 42.6528 42.5807 43.0063 43.085Z" fill="#FFC3BD"/>
<path d="M46.3073 40.2677C46.3383 40.2615 46.3658 40.2439 46.3822 40.2163C46.6339 39.787 47.0807 39.7715 47.0858 39.7713C47.1521 39.7691 47.202 39.7177 47.1954 39.6551C47.1888 39.5928 47.1291 39.5435 47.0618 39.545C47.0384 39.5457 46.4777 39.5647 46.1652 40.0976C46.134 40.1506 46.1574 40.2204 46.2171 40.2532C46.2461 40.2692 46.2784 40.2734 46.3073 40.2677Z" fill="#263238"/>
<path d="M50.3793 39.9064C50.4093 39.9085 50.4395 39.9002 50.4627 39.8809C50.5108 39.8407 50.5128 39.7688 50.4667 39.72C50.0058 39.2309 49.4562 39.2823 49.4328 39.285C49.3673 39.2919 49.3239 39.3483 49.336 39.4111C49.3481 39.4737 49.4111 39.5189 49.4766 39.5125C49.498 39.5101 49.9252 39.4761 50.2916 39.8652C50.3158 39.8902 50.3475 39.9042 50.3793 39.9064Z" fill="#263238"/>
<path d="M50.377 69.2951L44.481 67.5256C44.3661 67.4911 44.3164 67.375 44.3731 67.2727L46.5058 63.4215C46.5103 63.4134 46.5141 63.405 46.5174 63.3967L48.0554 59.3673C48.0962 59.2602 48.2285 59.1988 48.3434 59.2333L54.2392 61.0027C54.3488 61.0356 54.4 61.1434 54.3533 61.2433L50.6595 69.1737C50.6132 69.2737 50.4866 69.328 50.377 69.2951Z" fill="white"/>
<path d="M50.8238 70.0935L44.6147 68.23C44.3741 68.1577 44.2617 67.9211 44.364 67.7017L48.0359 59.8182C48.1382 59.5985 48.4162 59.4791 48.6571 59.5514L54.8661 61.4149C55.1068 61.4872 55.2192 61.7238 55.1168 61.9435L51.4449 69.827C51.3426 70.0464 51.0644 70.1659 50.8238 70.0935Z" fill="#FCBB7F"/>
<path opacity="0.3" d="M50.8238 70.0935L44.6147 68.23C44.3741 68.1577 44.2617 67.9211 44.364 67.7017L48.0359 59.8182C48.1382 59.5985 48.4162 59.4791 48.6571 59.5514L54.8661 61.4149C55.1068 61.4872 55.2192 61.7238 55.1168 61.9435L51.4449 69.827C51.3426 70.0464 51.0644 70.1659 50.8238 70.0935Z" fill="black"/>
<path d="M47.251 40.7803L47.7169 40.6113C47.7169 40.6113 47.5229 40.995 47.251 40.7803Z" fill="#263238"/>
<path d="M47.6472 63.6581L47.2747 63.0186C47.1346 62.7782 46.8801 62.6164 46.5915 62.5845L45.2428 62.4355C44.7036 62.376 44.1673 62.5667 43.8034 62.9472L43.5781 63.1828C44.1189 64.2831 45.5619 65.096 45.5619 65.096L45.9459 65.3709C46.2881 65.6153 46.7483 65.5658 47.0031 65.2567L47.5895 64.5449C47.7921 64.299 47.815 63.9461 47.6472 63.6581Z" fill="#FFC3BD"/>
<path d="M42.9894 51.6438C42.9821 51.6466 42.941 51.6788 42.9133 51.6999L42.817 51.7763L42.6197 51.9398C42.4877 52.0519 42.3591 52.1721 42.2306 52.293C41.9746 52.536 41.7256 52.7892 41.4865 53.0501C41.0112 53.5744 40.576 54.1308 40.2058 54.7136C39.8313 55.2943 39.5171 55.8998 39.2822 56.5188C39.1613 56.8277 39.0663 57.14 38.9856 57.4537C38.9143 57.7678 38.8546 58.0827 38.8246 58.3971L38.8175 58.4561L38.8158 58.4708L38.8168 58.4668L38.818 58.4568C38.8168 58.4418 38.8188 58.433 38.8168 58.4237C38.8153 58.4075 38.8125 58.4032 38.8158 58.4128C38.8211 58.4306 38.8465 58.4949 38.9017 58.5741C39.0098 58.7367 39.2094 58.9523 39.441 59.1591C39.9097 59.5825 40.5178 59.9821 41.1455 60.3581C41.7813 60.7291 42.4539 61.0761 43.1459 61.3946C43.4914 61.555 43.8452 61.7023 44.1982 61.8487L44.7295 62.0619C44.9033 62.1278 45.0946 62.1971 45.2493 62.249L43.7615 65.3848C43.5486 65.2793 43.375 65.1853 43.1854 65.0858L42.6305 64.7936C42.2626 64.5972 41.9008 64.3916 41.5371 64.1877C40.8114 63.7766 40.0901 63.3518 39.3787 62.883C38.6628 62.416 37.962 61.9117 37.2665 61.2768C36.9215 60.9521 36.576 60.5968 36.2587 60.1101C36.103 59.8648 35.9495 59.5837 35.8399 59.236C35.7852 59.063 35.7439 58.8707 35.7257 58.6646C35.7177 58.5603 35.7124 58.4563 35.7184 58.3461L35.7225 58.2647L35.725 58.225L35.7273 58.2043L35.7366 58.1212C35.915 56.3344 36.5808 54.6832 37.4411 53.2079C37.8763 52.4691 38.3627 51.7685 38.8921 51.0997C39.1555 50.7641 39.4309 50.4376 39.7199 50.1182C39.8643 49.9583 40.0135 49.8015 40.166 49.6432L40.3993 49.405L40.5223 49.2843C40.5684 49.2405 40.6014 49.2079 40.6695 49.1475L42.9894 51.6438Z" fill="#FCBB7F"/>
<path opacity="0.8" d="M42.9894 51.6438C42.9821 51.6466 42.941 51.6788 42.9133 51.6999L42.817 51.7763L42.6197 51.9398C42.4877 52.0519 42.3591 52.1721 42.2306 52.293C41.9746 52.536 41.7256 52.7892 41.4865 53.0501C41.0112 53.5744 40.576 54.1308 40.2058 54.7136C39.8313 55.2943 39.5171 55.8998 39.2822 56.5188C39.1613 56.8277 39.0663 57.14 38.9856 57.4537C38.9143 57.7678 38.8546 58.0827 38.8246 58.3971L38.8175 58.4561L38.8158 58.4708L38.8168 58.4668L38.818 58.4568C38.8168 58.4418 38.8188 58.433 38.8168 58.4237C38.8153 58.4075 38.8125 58.4032 38.8158 58.4128C38.8211 58.4306 38.8465 58.4949 38.9017 58.5741C39.0098 58.7367 39.2094 58.9523 39.441 59.1591C39.9097 59.5825 40.5178 59.9821 41.1455 60.3581C41.7813 60.7291 42.4539 61.0761 43.1459 61.3946C43.4914 61.555 43.8452 61.7023 44.1982 61.8487L44.7295 62.0619C44.9033 62.1278 45.0946 62.1971 45.2493 62.249L43.7615 65.3848C43.5486 65.2793 43.375 65.1853 43.1854 65.0858L42.6305 64.7936C42.2626 64.5972 41.9008 64.3916 41.5371 64.1877C40.8114 63.7766 40.0901 63.3518 39.3787 62.883C38.6628 62.416 37.962 61.9117 37.2665 61.2768C36.9215 60.9521 36.576 60.5968 36.2587 60.1101C36.103 59.8648 35.9495 59.5837 35.8399 59.236C35.7852 59.063 35.7439 58.8707 35.7257 58.6646C35.7177 58.5603 35.7124 58.4563 35.7184 58.3461L35.7225 58.2647L35.725 58.225L35.7273 58.2043L35.7366 58.1212C35.915 56.3344 36.5808 54.6832 37.4411 53.2079C37.8763 52.4691 38.3627 51.7685 38.8921 51.0997C39.1555 50.7641 39.4309 50.4376 39.7199 50.1182C39.8643 49.9583 40.0135 49.8015 40.166 49.6432L40.3993 49.405L40.5223 49.2843C40.5684 49.2405 40.6014 49.2079 40.6695 49.1475L42.9894 51.6438Z" fill="white"/>
<path d="M79.733 46.7508L79.0077 47.4881L78.2782 48.2526C77.7982 48.7669 77.3257 49.2843 76.8794 49.8102C76.4293 50.3326 76.0084 50.8683 75.6272 51.3974C75.2509 51.9241 74.919 52.4712 74.7195 52.9379C74.6915 52.9977 74.6703 53.0533 74.6529 53.1057C74.632 53.1604 74.6121 53.2138 74.602 53.2585C74.571 53.3637 74.5539 53.4182 74.5408 53.5377C74.5156 53.7569 74.5131 54.047 74.5347 54.3478C74.5821 54.9549 74.6917 55.6201 74.8303 56.2865C75.1023 57.6233 75.4833 59.0044 75.8376 60.3645L75.8434 60.3871C75.9659 60.8574 75.6614 61.3322 75.1637 61.4478C74.7618 61.5411 74.3561 61.3707 74.1505 61.0544C73.7304 60.4069 73.3698 59.7626 73.0253 59.0915C72.682 58.4229 72.3681 57.7382 72.0863 57.0266C71.8084 56.3131 71.5561 55.5801 71.3875 54.7657C71.3039 54.3561 71.2323 53.9287 71.2318 53.4301C71.2283 53.1911 71.2522 52.887 71.3008 52.6414C71.3215 52.5088 71.3502 52.3886 71.381 52.2706C71.41 52.149 71.4425 52.0324 71.4792 51.9234C71.7622 51.0266 72.1692 50.306 72.5898 49.6129C73.0114 48.9227 73.4796 48.2916 73.9579 47.6776C74.4415 47.0678 74.9425 46.4817 75.4661 45.9176C75.7275 45.6351 75.9916 45.3559 76.2647 45.0837C76.5399 44.8059 76.806 44.5506 77.116 44.2655C77.8503 43.5903 79.0249 43.605 79.7398 44.2983C80.4321 44.9694 80.4394 46.0307 79.7733 46.7104L79.733 46.7508Z" fill="#FF8B7B"/>
<path d="M81.3209 102.422L82.502 107.994L79.688 108.552L78.5068 102.98L81.3209 102.422Z" fill="#FF8B7B"/>
<path d="M79.4937 107.92L82.6485 107.281C82.752 107.26 82.8498 107.312 82.8839 107.405L83.6401 109.482C83.7185 109.698 83.5665 109.947 83.3269 109.991C82.3272 110.175 81.9966 110.166 80.7424 110.418C79.276 110.712 78.7846 111.365 77.0276 111.424C75.9652 111.459 75.7401 110.453 76.1897 110.341C77.6128 109.986 78.4093 108.933 78.9058 108.233C79.0361 108.05 79.2752 107.964 79.4937 107.92Z" fill="#263238"/>
<path opacity="0.2" d="M81.3251 102.423L81.9334 105.295L79.1181 105.854L78.5098 102.981L81.3251 102.423Z" fill="black"/>
<path d="M79.2753 83.0976C82.6022 73.8556 85.2369 61.5723 85.2369 61.5723L75.7468 61.0068C75.7468 61.0068 73.8183 76.5858 73.3662 83.1323C73.1515 86.2419 78.0829 104.81 78.0829 104.81L82.3694 104.017C82.3694 104.017 80.7768 89.5198 79.2753 83.0976Z" fill="#263238"/>
<path opacity="0.2" d="M80.9123 68.2285C80.9123 68.2285 80.4866 72.491 81.1474 77.396C81.8426 75.1013 82.4787 72.8039 83.0303 70.7008L80.9123 68.2285Z" fill="black"/>
<path d="M78.3737 105.311L82.3285 104.64C82.4911 104.612 82.606 104.474 82.5954 104.318L82.5107 103.056C82.4986 102.875 82.3235 102.743 82.1335 102.773L77.8147 103.441C77.6169 103.472 77.4954 103.663 77.5589 103.842L78.0078 105.106C78.0589 105.251 78.2146 105.338 78.3737 105.311Z" fill="#FCBB7F"/>
<path opacity="0.2" d="M78.3737 105.311L82.3285 104.64C82.4911 104.612 82.606 104.474 82.5954 104.318L82.5107 103.056C82.4986 102.875 82.3235 102.743 82.1335 102.773L77.8147 103.441C77.6169 103.472 77.4954 103.663 77.5589 103.842L78.0078 105.106C78.0589 105.251 78.2146 105.338 78.3737 105.311Z" fill="white"/>
<path d="M89.9516 104.116L90.128 109.798L87.2506 109.759L87.0742 104.078L89.9516 104.116Z" fill="#FF8B7B"/>
<path d="M87.182 108.595L90.241 108.637C90.3468 108.638 90.43 108.709 90.4411 108.807L90.6873 110.992C90.7127 111.218 90.5056 111.429 90.2619 111.422C89.2441 111.39 88.9238 111.312 87.6419 111.293C86.143 111.27 85.8184 111.448 84.0607 111.422C82.9978 111.406 82.8277 110.39 83.2828 110.3C84.7232 110.015 85.8857 109.354 86.5351 108.776C86.7049 108.625 86.9584 108.592 87.182 108.595Z" fill="#263238"/>
<path opacity="0.2" d="M89.9538 104.117L90.044 107.046L87.1654 107.008L87.0752 104.079L89.9538 104.117Z" fill="black"/>
<path d="M89.2364 82.9103C89.0395 73.5779 89.1114 66.5597 87.9149 61.7313L79.2783 61.2256C79.2783 61.2256 81.9593 76.8974 83.4404 83.3634C84.9269 89.8545 86.511 105.528 86.511 105.528L90.7564 105.577C90.7564 105.577 91.2758 90.4959 89.2364 82.9103Z" fill="#263238"/>
<path d="M86.5218 106.249L90.5369 106.308C90.71 106.311 90.8549 106.185 90.8665 106.021L90.9547 104.769C90.967 104.596 90.8244 104.447 90.6405 104.442L86.268 104.314C86.0596 104.307 85.8991 104.485 85.9386 104.679L86.2078 106C86.2368 106.142 86.3678 106.246 86.5218 106.249Z" fill="#FCBB7F"/>
<path opacity="0.2" d="M86.5218 106.249L90.5369 106.308C90.71 106.311 90.8549 106.185 90.8665 106.021L90.9547 104.769C90.967 104.596 90.8244 104.447 90.6405 104.442L86.268 104.314C86.0596 104.307 85.8991 104.485 85.9386 104.679L86.2078 106C86.2368 106.142 86.3678 106.246 86.5218 106.249Z" fill="white"/>
<path d="M86.4326 43.4225C84.5101 43.1105 82.4543 42.927 80.625 42.9317C78.0261 42.9384 75.8445 44.8045 75.5457 47.2425C75.0961 50.9093 75.1493 55.0044 75.7271 61.2279C77.9876 62.8125 83.4751 62.2975 87.9141 61.7336C88.3649 58.7885 88.2487 54.6136 89.7237 47.9788C90.1965 45.8533 88.6991 43.7902 86.4326 43.4225Z" fill="#FF8B7B"/>
<path d="M76.694 59.7434L75.7215 59.6351C75.3899 59.5982 75.0585 59.7044 74.8191 59.9238L74.5281 60.1906C74.1735 60.5157 74.0783 61.0291 74.3217 61.4353C74.5671 61.8451 74.9799 62.2638 75.3698 62.6072C75.8304 63.0132 76.5778 62.8606 76.815 62.3092L77.4198 60.9024C77.642 60.3846 77.2817 59.8089 76.694 59.7434Z" fill="#FF8B7B"/>
<path opacity="0.2" d="M79.7169 59.5604C79.6887 59.7132 79.5894 59.8246 79.4956 59.8089C79.4017 59.7934 79.3485 59.6568 79.3767 59.504C79.4049 59.3513 79.5042 59.2399 79.5982 59.2553C79.692 59.271 79.7454 59.4077 79.7169 59.5604Z" fill="black"/>
<path opacity="0.2" d="M85.0419 50.2924C85.0268 50.4016 84.9376 50.4804 84.8431 50.4687C84.7486 50.4571 84.6844 50.359 84.6995 50.2498C84.7146 50.1405 84.8038 50.0617 84.8983 50.0734C84.9928 50.0853 85.0573 50.1834 85.0419 50.2924Z" fill="black"/>
<path opacity="0.2" d="M77.5712 49.9584C77.5561 50.0676 77.4669 50.1464 77.3724 50.1347C77.2779 50.1231 77.2136 50.025 77.2288 49.9158C77.2439 49.8065 77.3331 49.7278 77.4276 49.7394C77.5221 49.7513 77.5864 49.8494 77.5712 49.9584Z" fill="black"/>
<path d="M85.7471 38.5127L81.8658 40.4447C82.1387 41.6835 82.1125 42.9441 80.1857 43.0879C79.9858 43.1029 79.8142 43.1909 79.7049 43.3225C79.1873 43.9454 79.0328 44.9349 81.0697 45.2298C83.0131 45.5114 84.3475 45.0225 85.3865 44.4599C85.6813 44.3004 85.7536 43.9768 85.5886 43.6869C84.7827 42.2711 85.3033 39.8664 85.7471 38.5127Z" fill="#FF8B7B"/>
<path opacity="0.2" d="M84.1651 39.2998L81.8682 40.4422C81.937 40.7485 81.9851 41.0552 81.9891 41.3461C82.8205 41.392 84.0071 40.8501 84.1467 40.1606C84.2163 39.8165 84.2234 39.4757 84.1651 39.2998Z" fill="black"/>
<path d="M79.417 38.1389C79.5697 37.477 79.5962 36.0588 80.1987 35.98C80.8015 35.9013 79.6897 38.9192 79.417 38.1389Z" fill="#263238"/>
<path d="M86.5891 35.8309C85.9009 37.8641 85.8888 39.0143 84.6515 40.0003C82.7899 41.4833 80.1039 40.2569 79.7644 38.0881C79.4587 36.136 80.059 33.0121 82.3396 32.3686C84.5859 31.7346 87.2773 33.7978 86.5891 35.8309Z" fill="#FF8B7B"/>
<path d="M79.7175 37.7194C79.0202 38.1107 79.1232 40.2215 79.9344 40.6506C80.7141 41.063 82.0527 41.2598 84.0133 40.7862C85.6394 40.3935 85.2269 38.6174 85.5054 37.9881C85.7838 37.3586 85.9796 36.2793 85.3096 36.4448C84.6395 36.6104 84.4709 38.3649 83.8936 38.0436C83.3163 37.7223 82.4728 37.4943 81.6893 37.4403C80.9056 37.3867 80.0108 37.5548 79.7175 37.7194Z" fill="#263238"/>
<path d="M86.8352 37.8445C86.5046 38.321 86.0087 38.6118 85.5689 38.7039C84.9074 38.8422 84.6852 38.2165 84.9598 37.5958C85.2071 37.0372 85.8494 36.2923 86.4696 36.4335C87.0807 36.5724 87.2132 37.2998 86.8352 37.8445Z" fill="#FF8B7B"/>
<path d="M83.0068 35.7044C83.0143 35.8851 82.9188 36.0343 82.7936 36.0379C82.6683 36.0414 82.5607 35.8979 82.5532 35.7173C82.5456 35.5366 82.6411 35.3874 82.7663 35.3839C82.8916 35.3803 82.9992 35.5238 83.0068 35.7044Z" fill="#263238"/>
<path d="M80.8317 35.6165C80.8393 35.7972 80.7438 35.9464 80.6185 35.95C80.4933 35.9535 80.3857 35.81 80.3783 35.6294C80.3708 35.4488 80.4663 35.2995 80.5915 35.296C80.7165 35.2924 80.8241 35.4359 80.8317 35.6165Z" fill="#263238"/>
<path d="M81.6193 35.7334C81.6193 35.7334 81.2272 36.7877 80.7686 37.3042C81.1198 37.5926 81.6901 37.4398 81.6901 37.4398L81.6193 35.7334Z" fill="#FF5652"/>
<path d="M81.78 38.4746C82.5022 38.6019 82.9772 38.2473 82.9991 38.2304C83.0231 38.2121 83.0269 38.1785 83.0072 38.1557C82.9876 38.1328 82.9523 38.129 82.9283 38.1474C82.9228 38.1516 82.3689 38.5624 81.5723 38.3144C81.5428 38.3054 81.5113 38.3204 81.5018 38.3482C81.4922 38.3761 81.5086 38.4063 81.5381 38.4153C81.6215 38.4415 81.7021 38.461 81.78 38.4746Z" fill="#FF8B7B"/>
<path d="M83.9044 35.1751C83.923 35.1746 83.9419 35.1698 83.9591 35.1603C84.0123 35.1303 84.0291 35.0653 83.9971 35.0147C83.6753 34.5089 83.1567 34.4825 83.1348 34.4816C83.0725 34.4789 83.0206 34.5246 83.0186 34.5832C83.0166 34.6415 83.065 34.691 83.1267 34.6938C83.1439 34.6948 83.5478 34.7193 83.8046 35.1229C83.8265 35.157 83.8651 35.1758 83.9044 35.1751Z" fill="#263238"/>
<path d="M79.8912 34.7538C79.9272 34.7591 79.965 34.7476 79.9909 34.72C80.3208 34.3723 80.722 34.4247 80.7391 34.4271C80.8004 34.4356 80.8573 34.3961 80.8664 34.3383C80.8752 34.2805 80.8334 34.2264 80.7724 34.2172C80.7502 34.2143 80.2369 34.1417 79.8234 34.5772C79.782 34.6208 79.7863 34.6879 79.8324 34.7274C79.8496 34.7422 79.87 34.751 79.8912 34.7538Z" fill="#263238"/>
<path d="M88.4722 44.2438C88.6499 44.4021 88.7882 44.5304 88.9404 44.6729C89.0898 44.8117 89.2332 44.9535 89.3764 45.0953C89.6631 45.3786 89.9419 45.6675 90.2138 45.9628C90.7616 46.5497 91.279 47.1649 91.7782 47.8018C92.7602 49.0889 93.6745 50.4588 94.2904 52.1204C94.4413 52.536 94.5666 52.9751 94.6507 53.4422C94.6973 53.6721 94.7223 53.9175 94.745 54.1612C94.753 54.294 94.7553 54.4668 94.7488 54.6086C94.7369 54.7488 94.7296 54.8992 94.7052 55.027C94.621 55.5611 94.458 56.0092 94.2818 56.4248C94.1049 56.8398 93.8995 57.2178 93.6788 57.5762C93.2423 58.294 92.7499 58.9382 92.226 59.5472C91.9647 59.8519 91.6933 60.1458 91.4123 60.4304C91.13 60.7186 90.8468 60.9854 90.5283 61.2646C90.1523 61.594 89.5649 61.573 89.2161 61.2179C88.9402 60.9371 88.8966 60.5313 89.0762 60.211L89.0969 60.1746C89.8033 58.9211 90.5305 57.6166 91.0184 56.3731C91.1368 56.0621 91.2404 55.7565 91.318 55.469C91.3949 55.1827 91.4329 54.9085 91.4334 54.7041C91.4387 54.6481 91.4271 54.6122 91.4274 54.5675C91.4211 54.5241 91.4148 54.5111 91.407 54.4592C91.3815 54.3345 91.3616 54.211 91.3213 54.0784C91.2523 53.8178 91.1507 53.5434 91.0237 53.2649C90.7825 52.7059 90.4456 52.1338 90.0658 51.5733C89.6929 51.0083 89.263 50.4535 88.8154 49.9073C88.3676 49.3595 87.8893 48.8245 87.3992 48.2966C87.1525 48.0343 86.903 47.7732 86.6512 47.5157L86.272 47.134L85.9063 46.7761L85.8637 46.7344C85.1523 46.0378 85.1735 44.9285 85.9111 44.2567C86.626 43.6055 87.756 43.6079 88.4722 44.2438Z" fill="#FF8B7B"/>
<path d="M89.2534 59.8085L87.4678 60.1779L88.7933 62.4717C88.7933 62.4717 90.1644 62.019 90.5145 61.2617C90.6223 61.0285 90.5759 60.7565 90.4111 60.5549L90.0142 60.0699C89.8353 59.8511 89.5392 59.7495 89.2534 59.8085Z" fill="#FF8B7B"/>
<path d="M86.1605 62.0726L86.7686 62.8025C87.0108 63.0931 87.4399 63.1755 87.7827 62.997L88.7944 62.4705L87.4689 60.1768L86.3077 61.0028C85.9499 61.2572 85.8833 61.7401 86.1605 62.0726Z" fill="#FF8B7B"/>
<path d="M109.298 60.1759H109.06V56.7931C109.06 56.0458 108.75 55.3423 108.189 54.8123L108.358 54.6533C108.964 55.2257 109.298 55.9856 109.298 56.7931V60.1759Z" fill="#FCBB7F"/>
<path d="M109.298 61.793H109.06V63.0898H109.298V61.793Z" fill="#FCBB7F"/>
<path d="M106.091 54.5537C104.781 54.5537 103.719 55.5569 103.719 56.7942V111.425H108.463V56.7939C108.463 55.5566 107.401 54.5537 106.091 54.5537Z" fill="#FCBB7F"/>
<path d="M107.865 56.791C107.865 57.7154 107.071 58.4648 106.093 58.4648C105.114 58.4648 104.32 57.7154 104.32 56.791C104.32 55.8666 105.114 55.1172 106.093 55.1172C107.071 55.1172 107.865 55.8666 107.865 56.791Z" fill="white"/>
<path d="M106.964 57.483C107.418 56.9735 107.349 56.2124 106.81 55.783L98.6182 49.2646V52.42L105.164 57.6284C105.703 58.0575 106.509 57.9926 106.964 57.483Z" fill="#FCBB7F"/>
<path d="M99.8814 50.2699L98.6182 49.2646V52.42L100.239 53.7101L99.8814 50.2699Z" fill="#263238"/>
<path opacity="0.7" d="M97.6848 64.7981H64.2529L65.7216 45.3096H99.1534L97.6848 64.7981Z" fill="#263238"/>
<path d="M97.7183 46.2442C97.8531 46.2442 97.9342 46.2977 97.9786 46.3427C98.0234 46.3882 98.0751 46.47 98.0653 46.5997L96.801 63.3749C96.7813 63.635 96.5238 63.8633 96.2496 63.8633H65.6906C65.5558 63.8633 65.4746 63.8097 65.4303 63.7647C65.3854 63.7193 65.3337 63.6374 65.3436 63.5077L66.6079 46.7325C66.6275 46.4724 66.8851 46.2442 67.1592 46.2442H97.7183ZM97.7183 45.3096H67.1592C66.3659 45.3096 65.677 45.9169 65.6205 46.6664L64.3562 63.4418C64.2998 64.191 64.897 64.7986 65.6906 64.7986H96.2496C97.0429 64.7986 97.7319 64.1912 97.7883 63.4418L99.0526 46.6664C99.109 45.9169 98.5116 45.3096 97.7183 45.3096Z" fill="white"/>
<path d="M97.6496 65.2671H64.2177C63.9443 65.2671 63.7387 65.0579 63.7581 64.7997L65.2268 45.3112C65.2462 45.0529 65.4835 44.8438 65.757 44.8438H99.1888C99.4622 44.8438 99.6679 45.0529 99.6484 45.3112L98.1798 64.7997C98.1601 65.0579 97.923 65.2671 97.6496 65.2671ZM64.783 64.3323H97.225L98.6233 45.7783H66.1813L64.783 64.3323Z" fill="#FCBB7F"/>
<path d="M81.15 46.7126C80.9298 46.7766 80.7642 46.9634 80.7052 47.1919C79.9502 50.1137 78.8016 60.9588 80.4585 61.8903C81.1074 62.2552 80.8456 55.633 81.6356 51.8908C82.1598 49.4074 82.4549 48.1712 82.6197 47.5144C82.7207 47.1115 82.4559 46.7057 82.0562 46.6547C81.7278 46.6131 81.4043 46.6386 81.15 46.7126Z" fill="white"/>
<path d="M87.2893 46.7494C86.4028 46.4719 84.8973 48.0288 82.2587 47.3032C82.2587 47.3032 82.2375 47.8905 82.0518 48.5127C86.4025 48.9272 88.1761 47.0266 87.2893 46.7494Z" fill="white"/>
<path d="M87.8461 48.8868C86.7809 48.6359 84.9728 50.0439 81.8032 49.3875C81.8032 49.3875 81.7777 49.9187 81.5547 50.4813C86.7812 50.8564 88.9113 49.1376 87.8461 48.8868Z" fill="white"/>
<path d="M87.1712 51.581C86.2162 51.2004 84.3347 52.582 81.4798 51.5496C81.4798 51.5496 81.3808 52.1345 81.0938 52.7348C85.9012 53.6553 88.1263 51.9613 87.1712 51.581Z" fill="white"/>
<path d="M86.3292 53.9376C85.4565 53.6004 83.7278 54.8436 81.1186 53.9293C81.1186 53.9293 81.0251 54.4533 80.7598 54.9917C85.1569 55.7992 87.2019 54.2748 86.3292 53.9376Z" fill="white"/>
<path d="M77.3406 46.786C78.0789 46.5116 78.8659 48.0541 81.0402 47.336C81.0402 47.336 80.9213 47.9179 80.9195 48.5341C77.5145 48.9437 76.6022 47.0604 77.3406 46.786Z" fill="white"/>
<path d="M76.4976 48.904C77.3715 48.6558 78.3894 50.0509 80.9676 49.4016C80.9676 49.4016 80.8519 49.9278 80.8784 50.4852C76.8071 50.8555 75.6234 49.1522 76.4976 48.904Z" fill="white"/>
<path d="M76.5057 51.5762C77.3136 51.1997 78.4494 52.5689 80.8421 51.547C80.8421 51.547 80.7925 52.1265 80.8824 52.7212C77.0281 53.6316 75.6978 51.9527 76.5057 51.5762Z" fill="white"/>
<path d="M76.7182 53.9135C77.4585 53.5796 78.4915 54.8119 80.6841 53.9069C80.6841 53.9069 80.6363 54.4259 80.7159 54.9595C77.1871 55.758 75.9778 54.2474 76.7182 53.9135Z" fill="white"/>
<path d="M77.3329 63.1999C76.7415 63.1593 76.2909 62.6895 76.2987 62.1295C76.3183 60.6829 76.0925 59.2486 77.3989 59.7145C79.0004 60.2857 79.5024 61.2465 82.5095 60.4157C85.5166 59.5848 87.6059 59.7926 87.6611 61.4802C87.673 61.8401 87.6581 62.1268 87.6273 62.3551C87.5588 62.8672 87.0944 63.2492 86.548 63.2616C84.8259 63.3006 80.0356 63.3858 77.3329 63.1999Z" fill="white"/>
<path d="M90.0019 47.3701C91.3312 48.5913 94.3426 53.1105 93.4921 53.8354C93.0053 54.2505 90.4954 49.9497 89.5607 48.7119C88.6258 47.4739 89.0514 46.4969 90.0019 47.3701Z" fill="white"/>
<path d="M75.4493 47.2887C74.2909 48.4749 71.7464 52.7876 72.5569 53.4256C73.0208 53.7909 75.1169 49.701 75.9143 48.5154C76.7116 47.3294 76.2777 46.4405 75.4493 47.2887Z" fill="white"/>
<path d="M93.6052 55.4876C93.1722 56.8563 90.8017 60.8303 89.8842 60.7053C89.359 60.6337 91.7583 57.0552 92.3633 55.9038C92.9684 54.7524 93.9149 54.509 93.6052 55.4876Z" fill="white"/>
<path d="M73.2269 54.6625C73.9398 55.8217 75.441 59.9947 74.8866 60.5823C74.5693 60.9186 73.3529 56.9694 72.8762 55.8194C72.3994 54.6696 72.7169 53.8336 73.2269 54.6625Z" fill="white"/>
</g>
<defs>
<linearGradient id="paint0_linear_2690_2912" x1="-60.7633" y1="33.6288" x2="38.4149" y2="196.806" gradientUnits="userSpaceOnUse">
<stop stop-color="#9EB5D7"/>
<stop offset="0.41" stop-color="#C6D1E4"/>
<stop offset="0.79" stop-color="#E4E6EE"/>
<stop offset="1" stop-color="#F0EEF2"/>
</linearGradient>
<clipPath id="clip0_2690_2912">
<rect width="134" height="134" fill="white"/>
</clipPath>
</defs>
</svg>
