<svg width="134" height="134" viewBox="0 0 134 134" fill="none" xmlns="http://www.w3.org/2000/svg">
<g clip-path="url(#clip0_2690_2555)">
<mask id="mask0_2690_2555" style="mask-type:alpha" maskUnits="userSpaceOnUse" x="0" y="0" width="134" height="134">
<path fill-rule="evenodd" clip-rule="evenodd" d="M0 67.0001C0 29.997 29.9968 0 67 0C104.003 0 134 29.997 134 67.0001C134 104.003 104.003 134 67 134C29.9968 134 0 104.003 0 67.0001Z" fill="white"/>
</mask>
<g mask="url(#mask0_2690_2555)">
<path d="M-1.18066 137.916H136.376V-3.22266H-1.18066V137.916Z" fill="url(#paint0_linear_2690_2555)"/>
</g>
<path d="M67.9477 111.019C95.5907 111.019 118 110.552 118 109.976C118 109.4 95.5907 108.934 67.9477 108.934C40.3046 108.934 17.8955 109.4 17.8955 109.976C17.8955 110.552 40.3046 111.019 67.9477 111.019Z" fill="#ECF1FD"/>
<path d="M90.534 36.3349C89.9738 36.2606 87.6369 35.9279 84.832 35.1965C81.3505 34.2851 77.1483 32.7592 74.7533 30.3454C73.005 28.5849 72.7387 24.9885 72.7169 23.2601V18.3601C72.7209 18.0638 72.7307 17.8891 72.7307 17.8891C72.7259 17.8865 72.7217 17.8841 72.7169 17.8814V17.8681H72.6927C69.2771 15.9067 67.7649 17.8363 67.7405 17.8681H67.7386V17.8764C67.7336 17.9295 67.5976 23.7879 67.7386 25.859V101.358C67.7386 101.358 68.2667 102.471 70.2279 102.471C71.8753 102.471 72.7172 101.358 72.7172 101.358V37.6321C72.736 37.6481 72.753 37.6651 72.7719 37.6807C77.7257 41.7731 87.039 44.312 87.039 44.312C89.048 43.862 88.3955 42.0585 88.3955 42.0585C78.2073 38.4278 76.12 34.9498 76.0584 34.8442C76.8477 35.2589 77.6814 35.6266 78.5387 35.9513C83.8 37.9545 89.7994 38.3692 89.7994 38.3692C90.6604 37.9115 90.6604 36.3503 90.6604 36.3503C90.6604 36.3503 90.6158 36.3426 90.534 36.3349Z" fill="#FCBB7F"/>
<path d="M70.7318 92.3661C70.0052 91.2558 69.7033 89.7735 69.4949 88.4325C69.2246 86.6919 69.1198 84.9134 69.0029 83.1526C68.7441 79.2458 67.8756 66.252 67.7402 65.6904V101.357C67.7402 101.357 68.2683 102.47 70.2295 102.47C71.8769 102.47 72.7188 101.357 72.7188 101.357V94.2885C71.9489 93.7918 71.2541 93.1636 70.7318 92.3661Z" fill="#D8995F"/>
<path d="M88.3934 42.056C87.1113 41.5989 85.9585 41.1443 84.921 40.6988C84.8811 40.7036 84.8429 40.7129 84.8028 40.7174C82.5538 40.967 82.0751 42.8435 76.5987 39.991C76.5002 39.9398 76.3773 39.9969 76.2666 39.9987C81.1653 42.7078 87.0372 44.3101 87.0372 44.3101C89.0483 43.8611 88.3934 42.056 88.3934 42.056Z" fill="#D8995F"/>
<path d="M90.6598 36.3514C90.6598 36.3514 90.6598 37.9125 89.7988 38.3702C89.7988 38.3702 83.7994 37.9555 78.5381 35.9523C78.5962 35.9133 78.644 35.8897 78.6714 35.8897C80.6631 35.9993 83.2597 36.5431 84.8314 35.1973C87.6363 35.929 89.9732 36.2614 90.5334 36.3357C90.6155 36.3434 90.6598 36.3514 90.6598 36.3514Z" fill="#D8995F"/>
<path d="M86.9097 44.8012C86.9097 44.8012 79.5114 43.0797 75.7117 48.9785C74.0337 51.5833 73.3594 56.3011 73.3594 65.0476C73.3594 73.7941 73.3594 96.3031 73.3594 96.3031C73.3594 96.3031 74.9064 96.859 77.028 96.2489C77.028 96.2489 77.1591 62.1999 78.4258 57.1146C79.6925 52.0293 83.3115 51.2923 87.835 51.6608C87.835 51.6608 89.57 46.7263 86.9097 44.8012Z" fill="#F9DDB3"/>
<path d="M86.9103 44.8014C86.9103 44.8014 84.9451 44.3466 82.5214 44.7103C82.9836 46.5725 82.3674 48.4222 81.3099 49.931C80.5254 51.0506 79.414 51.8593 78.6948 53.031C78.031 54.1118 77.6354 55.3822 77.3638 56.6494C76.7959 59.2996 76.8204 62.0631 76.788 64.7722C76.7654 66.6628 76.6433 68.547 76.6255 70.4371C76.5942 73.7699 76.7659 77.3782 75.7666 80.5703C75.3232 81.9864 74.6048 83.3718 73.4016 84.1226C73.3878 84.1311 73.3732 84.1364 73.3594 84.1446C73.3594 85.217 73.3594 96.3033 73.3594 96.3033C73.3594 96.3033 74.9064 96.8592 77.028 96.2491C77.028 96.2491 77.1591 62.2001 78.4258 57.1148C79.6925 52.0295 83.3115 51.2925 87.835 51.661C87.8355 51.6613 89.5705 46.7265 86.9103 44.8014Z" fill="#D9BE92"/>
<path d="M114.491 50.1113C112.376 56.4641 108.343 61.5794 102.887 64.3262C93.9869 68.8099 84.3027 67.3322 81.703 61.2696C77.6975 51.9462 87.2606 46.7388 87.2606 46.7388C87.2606 46.7388 85.164 45.4976 84.418 41.0986C83.6382 36.523 86.4628 33.1613 86.4628 33.1613C86.4628 33.1613 79.5076 30.0627 81.0085 22.4247C81.0926 21.9534 81.219 21.4665 81.3749 20.9645C84.1464 12.1742 94.1202 12.3096 99.0337 13.717C105.463 15.5603 114.526 22.3312 115.945 35.1942C116.534 40.5222 115.99 45.6231 114.491 50.1113Z" fill="#DF7185"/>
<path d="M91.1358 15.9592C84.7023 17.343 84.4222 26.0348 91.2961 27.7238C95.338 28.7171 96.973 31.0943 97.3078 33.8584C97.698 37.0802 94.9024 41.194 97.0683 43.3905C99.2342 45.5869 99.0791 47.2842 96.67 50.4587C94.2609 53.6333 97.6341 59.5928 103.577 56.023C109.52 52.4531 114.557 41.627 111.608 31.2722C108.66 20.9176 100.045 14.0429 91.1358 15.9592Z" fill="#F59080"/>
<path d="M114.491 50.1105C112.376 56.4632 108.343 61.5785 102.887 64.3254C93.9869 68.809 84.3027 67.3313 81.703 61.2687C77.6975 51.9453 87.2606 46.7379 87.2606 46.7379C87.2606 46.7379 85.164 45.4967 84.418 41.0977C83.6382 36.5222 86.4628 33.1605 86.4628 33.1605C86.4628 33.1605 79.5076 30.0619 81.0085 22.4238C81.7813 30.4965 87.5452 30.8668 91.3373 32.9189C92.2705 33.4222 93.2467 33.9222 93.8868 34.7656C94.5264 35.603 94.7155 36.8992 94.0077 37.6824C93.1751 38.5999 91.6761 38.3604 90.5344 37.8807C89.3928 37.4009 88.1747 36.7481 86.9842 37.0893C85.6031 38.2569 85.8036 40.4987 86.7081 42.0628C87.6188 43.6263 89.0548 44.8115 90.0356 46.3256C91.0232 47.8455 91.4395 50.0072 90.2474 51.3633C89.1905 52.5597 87.3158 52.6364 86.0762 53.6437C84.2807 55.106 84.5106 58.1436 86.0768 59.8502C87.6435 61.5629 90.095 62.1679 92.4102 62.2524C98.4993 62.4783 104.403 59.6813 109.047 55.7278C111.039 54.0321 112.829 52.1309 114.491 50.1105Z" fill="#F59080"/>
<path opacity="0.33" d="M93.2382 19.7513C92.7465 20.9526 93.3008 22.6006 94.4589 23.6463C97.1274 26.057 100.334 27.8693 103.776 28.9122C104.579 29.1556 105.64 29.2677 106.079 28.5516C106.955 27.1225 104.639 24.1564 103.801 23.1066C102.432 21.3926 100.687 19.9759 98.7127 19.0158C97.7009 18.5239 96.5839 18.1421 95.4678 18.2807C94.2513 18.432 93.5435 19.0058 93.2382 19.7513Z" fill="white"/>
<path d="M64.8953 39.5898C62.8735 40.1543 60.6287 40.7394 59.2654 41.0939C56.9105 41.7061 53.7774 42.2788 49.6529 42.6414C49.6529 42.6414 48.4523 44.3804 50.6817 45.3968C50.6817 45.3968 58.3882 45.2627 64.895 43.5529V39.5898H64.8953Z" fill="#D8995F"/>
<path d="M49.6552 42.6411C51.2598 42.4998 52.7134 42.3264 54.0305 42.1318C54.0757 42.1475 54.1341 42.1454 54.1635 42.1833C56.5076 45.2076 64.1517 43.6778 64.2802 43.7094C57.9134 45.2711 50.6837 45.3966 50.6837 45.3966C48.4514 44.3808 49.6552 42.6411 49.6552 42.6411Z" fill="#FCBB7F"/>
<path d="M44.4997 49.3238C45.0485 49.2559 47.3373 48.9516 50.0849 48.282C53.4949 47.4478 57.6109 46.0513 59.9568 43.8424C61.6693 42.2314 61.93 38.94 61.9515 37.3585V15.8669C61.9475 15.5958 61.938 15.4357 61.938 15.4357C61.9425 15.4333 61.947 15.4312 61.9515 15.4288V15.4166H61.9751C65.3206 13.6216 66.8018 15.3874 66.826 15.4166H66.8276V15.4241C66.8326 15.4726 66.9656 37.8414 66.8276 39.7368V105.414C66.8276 105.414 66.3104 106.432 64.3895 106.432C62.7759 106.432 61.9515 105.414 61.9515 105.414V50.5111C61.9332 50.5255 61.9165 50.5411 61.8979 50.5555C57.0457 54.3005 47.9233 56.6241 47.9233 56.6241C45.9557 56.2124 46.5947 54.5618 46.5947 54.5618C56.5736 51.2391 58.6182 48.0563 58.6785 47.9597C57.9054 48.3394 57.089 48.6758 56.2489 48.9728C51.0954 50.8061 45.2192 51.1855 45.2192 51.1855C44.376 50.7665 44.376 49.3379 44.376 49.3379C44.376 49.3379 44.4193 49.331 44.4997 49.3238Z" fill="#FCBB7F"/>
<path d="M66.8276 15.4236V15.4161H66.8261C66.8114 15.3986 66.264 14.755 65.1035 14.6348V106.378C66.4408 106.169 66.8276 105.413 66.8276 105.413V39.7363C66.9657 37.8409 66.8327 15.4721 66.8276 15.4236Z" fill="#D8995F"/>
<path d="M52.5782 49.5011C51.7913 49.2086 51.2242 48.7134 50.8294 48.0908C50.5785 48.1564 50.3294 48.2201 50.0849 48.2799C47.3376 48.9494 45.0485 49.2537 44.4997 49.3217C44.4193 49.3288 44.376 49.336 44.376 49.336C44.376 49.336 44.376 50.7646 45.2192 51.1836C45.2192 51.1836 49.3352 50.917 53.6988 49.7557C53.3147 49.7149 52.9382 49.6349 52.5782 49.5011Z" fill="#D8995F"/>
<path d="M63.8963 93.5761C64.6081 92.56 64.9038 91.2034 65.1077 89.9762C65.3724 88.3833 65.4752 86.7558 65.5896 85.1445C65.8432 81.5693 66.6935 69.6778 66.8263 69.1641V105.414C66.8263 105.414 66.3091 106.432 64.3882 106.432C62.7746 106.432 61.9502 105.414 61.9502 105.414V95.3353C62.7042 94.8807 63.3849 94.3059 63.8963 93.5761Z" fill="#D8995F"/>
<path d="M46.5959 54.5604C47.8514 54.142 48.9808 53.7262 49.9969 53.3184C50.0359 53.3227 50.0733 53.3314 50.1126 53.3354C52.3157 53.5638 57.6041 52.6409 58.1484 52.6706C58.2569 52.6765 58.3653 52.6759 58.4739 52.6775C53.6758 55.157 47.9244 56.6231 47.9244 56.6231C45.9544 56.2123 46.5959 54.5604 46.5959 54.5604Z" fill="#D8995F"/>
<path d="M48.56 57.0391C48.56 57.0391 55.4735 55.6081 59.0245 60.5118C60.5925 62.6772 61.2228 66.599 61.2228 73.8702C61.2228 81.1413 61.2228 94.3006 61.2228 94.3006C61.2228 94.3006 59.7772 94.7628 57.7944 94.2554C57.7944 94.2554 57.6718 71.5028 56.4882 67.2755C55.3046 63.0483 51.9228 62.4353 47.6953 62.7417C47.6953 62.7417 46.0739 58.6392 48.56 57.0391Z" fill="#F9DDB3"/>
<path d="M48.56 57.0396C48.56 57.0396 50.3964 56.6615 52.6613 56.9639C52.2294 58.512 52.8052 60.0498 53.7934 61.304C54.5264 62.2345 55.5651 62.907 56.2373 63.8809C56.8575 64.7793 57.2273 65.8354 57.4809 66.8889C58.0116 69.092 57.9888 71.3893 58.019 73.6415C58.04 75.213 58.1709 76.7794 58.1709 78.3509C58.1709 85.2814 61.21 89.5328 61.223 89.5397C61.223 90.4312 61.223 94.3013 61.223 94.3013C61.223 94.3013 59.7774 94.7636 57.7947 94.2562C57.7947 94.2562 57.672 71.5035 56.4885 67.2763C55.3049 63.0491 51.923 62.436 47.6955 62.7424C47.6955 62.7424 46.0739 58.6397 48.56 57.0396Z" fill="#D9BE92"/>
<path d="M22.7671 60.5968C24.7543 66.7756 28.5576 71.7452 33.7135 74.4062C42.123 78.7497 51.2885 77.2892 53.7618 71.382C57.5727 62.2978 48.5374 57.251 48.5374 57.251C48.5374 57.251 50.5238 56.0379 51.2399 51.7544C51.9881 47.2989 49.3235 44.0333 49.3235 44.0333C49.3235 44.0333 55.9107 41.0011 54.5087 33.5701C54.4301 33.1116 54.3117 32.638 54.1654 32.1497C51.5635 23.6003 42.127 23.7548 37.4753 25.1359C31.3888 26.945 22.7982 33.5563 21.4264 46.08C20.8569 51.2678 21.3597 56.2317 22.7671 60.5968Z" fill="#F59080"/>
<path d="M45.0205 28.2059C50.9248 29.5049 51.1574 37.7778 44.8399 39.4053C41.1251 40.3621 38.4813 42.5514 39.3017 45.2618C40.1924 48.2043 41.4899 52.238 39.4947 54.3349C37.4995 56.4317 37.637 58.047 39.8404 61.0623C42.0437 64.0772 38.9292 69.7596 33.4818 66.3783C28.0341 62.9969 23.4389 52.7058 26.1761 42.8408C28.9134 32.9758 36.844 26.4069 45.0205 28.2059Z" fill="#E890A3"/>
<path d="M22.7676 60.5969C24.7548 66.7758 28.558 71.7453 33.7139 74.4064C42.1235 78.7499 51.2889 77.2894 53.7623 71.3822C57.5732 62.298 48.5379 57.2512 48.5379 57.2512C48.5379 57.2512 50.5243 56.0381 51.2404 51.7546C51.9885 47.2991 49.324 44.0335 49.324 44.0335C49.324 44.0335 55.9112 41.0013 54.5091 33.5703C53.7594 41.4298 48.3053 41.8033 44.7132 43.8094C43.8291 44.3016 42.9043 44.7904 42.2969 45.6129C41.69 46.4296 41.5081 47.6915 42.1758 48.4521C42.9614 49.3434 44.3802 49.1068 45.4613 48.6372C46.5427 48.1675 47.6965 47.5293 48.822 47.8587C50.1258 48.9921 49.9312 51.1748 49.0718 52.699C48.2065 54.2229 46.8453 55.38 45.9137 56.8561C44.976 58.3378 44.577 60.443 45.7016 61.7601C46.6988 62.9219 48.472 62.9922 49.6426 63.9701C51.3381 65.3894 51.1134 68.3465 49.6277 70.0111C48.1415 71.6816 45.8208 72.2763 43.6302 72.3637C37.8687 72.5976 32.2896 69.8888 27.9054 66.0513C26.0244 64.4063 24.3356 62.56 22.7676 60.5969Z" fill="#DF7185"/>
<path d="M31.1279 53.6882C31.1279 53.6882 32.6962 52.1691 32.7801 51.9949C32.864 51.8207 33.2904 50.8145 33.442 50.7229C33.5936 50.6311 33.884 50.5541 34.0322 50.5851C34.1952 50.6191 34.7796 50.9863 34.7796 51.0646C34.7796 51.2903 34.4049 51.3025 34.4129 51.6569C34.4209 52.0114 34.4296 52.0934 34.2438 52.3199C34.0577 52.5463 33.8453 52.536 33.5761 52.6632C33.3071 52.7901 32.8898 53.547 32.0396 54.4701L31.1279 53.6882Z" fill="#EDBAA8"/>
<path d="M22.4753 59.0109C22.4753 59.0109 21.7058 63.9526 23.8755 62.2258C25.2274 61.1497 27.9766 59.2913 29.2364 58.0187C30.3326 56.9114 32.7789 53.9665 32.7789 53.9665C32.7789 53.9665 32.37 52.9003 31.8146 52.8867L27.9938 56.0809C27.9938 56.0809 22.6807 58.208 22.4753 59.0109Z" fill="white"/>
<path d="M37.3183 109.617L31.8525 78.3916H32.9209L38.3866 109.617H37.3183Z" fill="#AEB0BA"/>
<path d="M30.2997 109.617L24.834 78.3916H25.9023L31.3681 109.617H30.2997Z" fill="#AEB0BA"/>
<path d="M26.4276 84.4306H33.4464L33.2757 83.457H26.2568L26.4276 84.4306Z" fill="#AEB0BA"/>
<path d="M27.6043 91.1516H34.6232L34.4525 90.1777H27.4336L27.6043 91.1516Z" fill="#AEB0BA"/>
<path d="M28.7833 97.872H35.8019L35.6312 96.8984H28.6123L28.7833 97.872Z" fill="#AEB0BA"/>
<path d="M29.9627 104.593H36.9813L36.8106 103.619H29.792L29.9627 104.593Z" fill="#AEB0BA"/>
<path d="M33.0787 78.3916H24.834V79.6033H33.0787V78.3916Z" fill="#BEC1CB"/>
<path d="M18.0684 109.617L26.0404 78.3916H24.972L17 109.617H18.0684Z" fill="#BEC1CB"/>
<path d="M25.0869 109.617L33.0592 78.3916H31.9908L24.0186 109.617H25.0869Z" fill="#BEC1CB"/>
<path d="M30.9808 84.4306H23.9619L24.2109 83.457H31.2296L30.9808 84.4306Z" fill="#BEC1CB"/>
<path d="M29.264 91.1516H22.2451L22.4942 90.1777H29.5128L29.264 91.1516Z" fill="#BEC1CB"/>
<path d="M27.546 97.872H20.5273L20.7764 96.8984H27.795L27.546 97.872Z" fill="#BEC1CB"/>
<path d="M25.8292 104.593H18.8105L19.0596 103.619H26.0782L25.8292 104.593Z" fill="#BEC1CB"/>
<path d="M35.8865 53.4955L33.8908 52.8238C33.6813 52.7534 33.5688 52.5264 33.6391 52.3169L36.8803 42.6869C36.9172 42.577 37.0364 42.518 37.146 42.5549L39.5026 43.348C39.6125 43.3849 39.6714 43.5038 39.6345 43.6137L36.3934 53.2438C36.323 53.4533 36.096 53.5661 35.8865 53.4955Z" fill="#7B8A9C"/>
<path d="M38.9759 45.5749L39.6356 43.6147C39.6725 43.5048 39.6136 43.3859 39.5037 43.349L37.1471 42.5559C37.0372 42.519 36.9183 42.578 36.8814 42.6879L36.1709 44.7986C37.0077 45.3152 37.9773 45.5316 38.9759 45.5749Z" fill="#556372"/>
<path d="M33.1939 60.7837L31.6317 60.258C31.024 60.0536 30.6972 59.3952 30.9019 58.7874L34.7829 47.2567C34.9873 46.649 35.6457 46.3222 36.2535 46.5269L37.8156 47.0525C38.4233 47.257 38.7502 47.9154 38.5455 48.5231L34.6645 60.0536C34.4598 60.6613 33.8013 60.9881 33.1939 60.7837Z" fill="#556372"/>
<path d="M46.2093 20.3973C39.4755 18.1308 32.1792 21.7524 29.9129 28.4861C27.6464 35.2199 31.268 42.516 38.0018 44.7825C44.7355 47.049 52.0319 43.4274 54.2981 36.6937C56.5647 29.9599 52.943 22.6638 46.2093 20.3973ZM38.7486 42.5635C33.2404 40.7095 30.278 34.7412 32.1319 29.233C33.9859 23.7247 39.9542 20.7624 45.4625 22.6163C50.9707 24.4703 53.9331 30.4386 52.0791 35.9468C50.2252 41.4551 44.2568 44.4175 38.7486 42.5635Z" fill="#556372"/>
<path opacity="0.48" d="M45.7666 21.7177C39.7613 19.6965 33.2546 22.9262 31.2333 28.9315C29.2121 34.9367 32.4419 41.4435 38.4471 43.4647C44.4524 45.4859 50.9591 42.2562 52.9803 36.2509C55.0013 30.2457 51.7718 23.7389 45.7666 21.7177ZM38.7498 42.5647C33.2415 40.7107 30.2791 34.7424 32.1331 29.2342C33.9871 23.7259 39.9554 20.7635 45.4636 22.6175C50.9719 24.4714 53.9342 30.4398 52.0803 35.948C50.2263 41.4562 44.258 44.4186 38.7498 42.5647Z" fill="#ABB1BB"/>
<path opacity="0.29" d="M52.4475 34.5469C53.5279 28.8361 49.7743 23.3307 44.0635 22.2503C38.3527 21.1698 32.8473 24.9235 31.7669 30.6343C30.6864 36.3451 34.4401 41.8505 40.1509 42.9309C45.8617 44.0114 51.3671 40.2577 52.4475 34.5469Z" fill="white"/>
<path d="M21.1816 95.3877V96.8962H23.3255C23.3255 96.8962 23.6322 96.3501 22.6156 96.0982L22.4661 95.3877H21.1816Z" fill="#283D50"/>
<path d="M25.5918 95.3877V96.8962H27.7166C27.7166 96.8962 27.6252 96.3722 27.0072 96.0982L26.8048 95.3877H25.5918Z" fill="#283D50"/>
<path d="M21.6682 70.5479C21.6682 70.5479 21.2625 75.4069 21.2481 79.3697C21.2338 83.3322 20.998 95.7319 20.998 95.7319H22.5985C22.5985 95.7319 24.2482 85.0582 24.8483 82.5108C25.448 79.9634 27.0075 70.5956 27.0075 70.5956L21.6682 70.5479Z" fill="#263238"/>
<path d="M24.3076 75.2997C24.3076 75.2997 25.1689 82.8658 25.2289 84.0544C25.2889 85.2433 25.5079 95.7264 25.5079 95.7264C25.5079 95.7264 27.0074 95.767 27.0074 95.7264C27.0074 95.6857 28.4212 84.9167 28.6044 81.9872C28.7876 79.058 29.2578 74.5005 29.2825 74.0285C29.3345 73.0395 28.791 71.3876 28.791 71.3876L26.1443 71.1338L24.3076 75.2997Z" fill="#263238"/>
<path d="M27.3105 53.0781C27.6459 53.2796 27.7842 53.842 27.7842 53.842C27.7842 53.842 27.9151 54.4815 27.9971 54.9677C28.0791 55.4538 28.4933 55.834 28.4434 55.9625C28.3935 56.0912 28.1115 56.0942 28.1134 56.2736C28.1152 56.4531 28.0438 56.9708 28.0478 57.3274C28.0515 57.6839 27.6934 57.7392 27.3604 57.7681C27.0275 57.7973 26.5926 57.8788 26.5175 58.0333C26.4421 58.1878 26.3542 59.7636 26.3542 59.7636L23.9111 58.8043C23.9111 58.8043 24.1705 58.0169 24.1448 57.333C24.119 56.649 24.0845 55.8292 24.0845 55.8292C24.0845 55.8292 24.2226 54.3411 25.1388 53.7416C26.055 53.1426 27.3105 53.0781 27.3105 53.0781Z" fill="#EDBAA8"/>
<path d="M26.6528 53.8541C26.8832 53.826 27.2666 53.7846 27.5632 53.59C27.9582 53.3306 28.0692 52.8838 28.0692 52.8838C27.8305 52.7353 27.3842 52.7441 26.6374 52.4189C25.8906 52.0936 24.481 52.1085 24.0053 53.1646C24.0053 53.1646 23.0612 53.5592 23.0176 54.3031C22.9744 55.047 23.135 55.3359 23.4953 55.8361C23.8598 56.3421 24.1449 57.3337 24.1449 57.3337C24.1449 57.3337 24.588 57.3624 25.0235 57.3321C25.4589 57.3019 25.8622 56.6567 26.0382 56.3471C26.0382 56.3471 25.4002 55.8669 25.5576 55.3783C25.7151 54.8896 26.3584 55.1134 26.4375 55.3433C26.5169 55.5732 26.751 55.9038 26.751 55.9038L26.8957 55.8124C26.8957 55.8124 26.8397 55.3765 26.8092 54.9358C26.7794 54.495 26.6528 53.8541 26.6528 53.8541Z" fill="#40201D"/>
<path d="M24.1602 58.5051C24.1602 58.5051 25.1784 58.5428 25.6911 58.6113C26.2037 58.6795 26.9822 58.764 26.9822 58.764C26.9822 58.764 28.448 59.4505 28.7796 60.4387C29.3015 61.9948 29.549 77.4482 29.605 77.9951C29.605 77.9951 28.0824 79.2554 24.4456 79.1543C22.3328 79.0956 20.8086 78.4852 20.8086 78.4852C20.8086 78.4852 21.2575 67.8559 21.2459 66.419C21.1994 60.7061 21.4864 59.5581 22.204 58.8404C22.7602 58.2845 24.1602 58.5051 24.1602 58.5051Z" fill="white"/>
<path d="M35.97 53.9796C36.0356 53.8585 36.1187 53.5323 36.1251 53.3475C36.1314 53.1624 36.1367 52.9583 36.236 52.735C36.3356 52.5117 36.3228 52.3458 36.342 52.2757C36.3611 52.2056 36.4792 52.2499 36.5127 52.4445C36.5461 52.6391 36.5175 52.7477 36.5127 52.8433C36.5079 52.9389 36.505 53.0966 36.5286 53.091C36.5525 53.0857 36.9223 52.8242 37.0118 52.7411C37.101 52.6582 37.353 52.17 37.3915 52.0553C37.43 51.9406 37.4905 51.7441 37.4905 51.7441C37.4905 51.7441 37.6049 51.9372 37.5986 52.0967C37.5922 52.2563 37.6304 52.3073 37.6304 52.3837C37.6304 52.4602 37.7005 52.6389 37.6814 52.7793C37.6623 52.9198 37.6177 53.1311 37.6177 53.1311C37.6177 53.1311 37.6941 53.4364 37.6432 53.6276C37.5922 53.819 37.3179 54.3394 37.1584 54.5672C36.9988 54.7949 36.7883 54.7599 36.5522 55.0453C36.3162 55.3307 36.0292 55.7518 36.0292 55.7518L35.46 56.5108L34.543 55.8474C34.543 55.8474 35.5829 54.629 35.6912 54.4185C35.7998 54.2087 35.8659 54.1718 35.97 53.9796Z" fill="#EDBAA8"/>
<path d="M35.5351 54.624L32.1174 58.1758C32.1174 58.1758 29.279 58.9166 27.3348 59.2144C27.0191 59.2628 26.7491 59.3185 26.5184 59.3804C26.5046 59.4255 26.4895 59.4701 26.4783 59.516C26.4316 59.7048 26.43 59.713 26.4217 59.8824C26.4183 59.9557 26.418 60.029 26.421 60.1023C26.4215 60.1174 26.4332 60.2385 26.4326 60.2539C26.4528 60.384 26.4847 60.5127 26.5258 60.6375C26.5879 60.8265 26.7183 61.0737 26.8869 61.3095C26.9012 61.3288 26.9095 61.3397 26.9142 61.3464C26.9326 61.3692 26.9511 61.392 26.97 61.4146C27.0175 61.4711 27.0669 61.5261 27.1176 61.5797C27.2143 61.682 27.3165 61.7791 27.4224 61.8718C27.5413 61.9756 27.6566 62.0635 27.7837 62.1506C27.9539 62.1102 28.1339 62.0656 28.3277 62.0175C30.2945 61.5296 32.56 60.7522 33.1948 60.2977C35.0594 58.963 36.4755 55.6818 36.4755 55.6818C36.4755 55.6818 35.9759 54.6222 35.5351 54.624Z" fill="white"/>
<path d="M23.8037 58.5852C23.8037 58.5852 23.8624 58.2751 23.9625 58.1663C23.9625 58.1663 24.8713 58.102 25.6263 58.2175C26.3814 58.333 26.5683 58.4649 26.5683 58.4649L26.6896 59.0708C26.6896 59.0708 24.7563 59.0148 24.3174 58.9588C23.8783 58.9027 23.8037 58.5852 23.8037 58.5852Z" fill="#DBE3E9"/>
<path d="M117.047 109.619H87.873C87.7511 109.619 87.6523 109.52 87.6523 109.398V70.6308C87.6523 70.5089 87.7511 70.4102 87.873 70.4102H117.047C117.169 70.4102 117.268 70.5089 117.268 70.6308V109.398C117.268 109.52 117.169 109.619 117.047 109.619Z" fill="#5C429A"/>
<path d="M110.143 78.6035C104.659 80.8815 100.295 80.8961 94.7758 78.6035C92.9651 85.1764 91.1544 91.7492 89.3438 98.3221C98.3143 102.395 106.61 102.393 115.576 98.3221C113.765 91.7492 111.954 85.1764 110.143 78.6035Z" fill="#34425D"/>
<path d="M107.871 88.4636C107.755 88.4477 106.535 88.2804 105.954 88.1238C105.233 87.9286 104.364 87.6018 103.868 87.0849C103.506 86.7079 103.451 85.9377 103.446 85.5676V81.8982C103.447 81.8347 103.449 81.7973 103.449 81.7973C103.448 81.7968 103.447 81.7962 103.446 81.7957V81.7928H103.441C103.015 81.4933 102.663 81.7946 102.663 81.7946C102.662 81.8061 102.633 85.6807 102.663 86.1243V98.4847C103.387 98.5986 103.43 98.4069 103.446 98.4043V88.6457C103.45 88.6492 103.454 88.6526 103.458 88.6561C104.483 89.5325 107.897 90.462 107.897 90.462C108.313 90.3656 108.178 89.9793 108.178 89.9793C104.82 89.0865 103.865 87.9557 103.853 87.9332C104.016 88.0221 104.474 88.2162 104.651 88.2857C105.741 88.7148 107.719 88.8996 107.719 88.8996C107.897 88.8016 107.897 88.4673 107.897 88.4673C107.897 88.4673 107.888 88.4655 107.871 88.4636Z" fill="#C4C5CD"/>
<path d="M107.168 90.68C107.168 90.68 105.636 90.3112 104.849 91.5747C104.502 92.1325 104.362 93.1427 104.362 95.016V97.9147C104.634 98.0204 104.95 97.9731 105.238 97.851C105.279 96.7386 105.335 93.6318 105.411 93.3171C105.673 92.2281 106.422 92.0704 107.359 92.1492C107.359 92.1492 107.718 91.092 107.168 90.68Z" fill="#A6AAB9"/>
<path d="M96.9173 88.5397C97.0333 88.5238 97.517 88.4526 98.0977 88.296C98.8182 88.1009 99.9346 87.5136 100.43 86.9967C100.792 86.6197 101.436 85.9371 101.441 85.567V81.8976C101.44 81.8341 101.438 81.7967 101.438 81.7967C101.439 81.7961 101.439 81.7956 101.441 81.7951V81.7922H101.446C101.859 81.4789 102.218 81.7852 102.224 81.7922H102.224V81.794C102.225 81.8054 102.253 85.6801 102.224 86.1237V98.4841C101.5 98.598 101.457 98.4063 101.441 98.4037V88.6451C101.437 88.6486 101.434 88.6531 101.429 88.6555C98.4091 90.159 96.575 90.4003 96.575 90.4003C96.1593 90.3039 96.2944 89.9176 96.2944 89.9176C99.4004 89.3126 100.977 88.1194 101.148 87.6434C100.902 87.8932 99.5781 88.3884 99.4004 88.4579C98.3111 88.887 97.0694 88.9757 97.0694 88.9757C96.8912 88.8777 96.8912 88.5434 96.8912 88.5434C96.8912 88.5434 96.9003 88.5413 96.9173 88.5397Z" fill="#C4C5CD"/>
<path d="M97.9347 90.68C97.9347 90.68 99.4663 90.3112 100.253 91.5747C100.6 92.1325 100.74 93.1427 100.74 95.016V97.9723C100.468 98.078 100.153 98.0308 99.8646 97.9086C99.8231 96.7962 99.7669 93.632 99.6912 93.3171C99.4289 92.2281 98.6797 92.0704 97.7432 92.1492C97.7432 92.1492 97.3838 91.092 97.9347 90.68Z" fill="#A6AAB9"/>
<path d="M111.886 90.6946C111.699 91.9544 111.126 93.0435 110.222 93.7337C108.747 94.8602 106.944 94.8937 106.285 93.8394C105.269 92.2186 106.842 90.9349 106.842 90.9349C106.842 90.9349 106.424 90.7692 106.152 89.9677C105.869 89.1343 106.277 88.4129 106.277 88.4129C106.277 88.4129 104.919 88.0545 104.955 86.5736C104.956 86.4825 104.963 86.387 104.976 86.2879C105.206 84.5497 107.019 84.2556 107.954 84.362C109.177 84.5017 111.031 85.4814 111.687 87.8493C111.959 88.8298 112.018 89.8044 111.886 90.6946Z" fill="#979BA8"/>
<path d="M93.0338 90.6946C93.2207 91.9544 93.7934 93.0435 94.6979 93.7337C96.173 94.8602 97.9752 94.8937 98.6347 93.8394C99.6502 92.2186 98.0771 90.9349 98.0771 90.9349C98.0771 90.9349 98.4958 90.7692 98.7674 89.9677C99.0507 89.1343 98.6426 88.4129 98.6426 88.4129C98.6426 88.4129 100 88.0545 99.9645 86.5736C99.9637 86.4825 99.956 86.387 99.9433 86.2879C99.7131 84.5497 97.9 84.2556 96.9652 84.362C95.7421 84.5017 93.8884 85.4814 93.2324 87.8493C92.9605 88.8298 92.901 89.8044 93.0338 90.6946Z" fill="#979BA8"/>
<g opacity="0.4">
<path d="M97.3435 73.1445H90.7656V73.3779H97.3435V73.1445Z" fill="#A6AAB9"/>
<path d="M97.3435 74.124H90.7656V74.3574H97.3435V74.124Z" fill="#A6AAB9"/>
<path d="M97.3435 75.1045H90.7656V75.3379H97.3435V75.1045Z" fill="#A6AAB9"/>
<path d="M95.5629 76.083H90.7656V76.3164H95.5629V76.083Z" fill="#A6AAB9"/>
</g>
<g opacity="0.4">
<path d="M107.573 73.3799H114.151V73.1465H107.573V73.3799Z" fill="#A6AAB9"/>
<path d="M107.573 74.3604H114.151V74.127H107.573V74.3604Z" fill="#A6AAB9"/>
<path d="M107.573 75.3389H114.151V75.1055H107.573V75.3389Z" fill="#A6AAB9"/>
<path d="M109.354 76.3193H114.151V76.086H109.354V76.3193Z" fill="#A6AAB9"/>
</g>
<g opacity="0.4">
<path d="M109.757 103.984H114.148V103.751H109.757V103.984Z" fill="#A6AAB9"/>
<path d="M109.757 104.965H114.148V104.731H109.757V104.965Z" fill="#A6AAB9"/>
<path d="M109.757 105.944H114.148V105.711H109.757V105.944Z" fill="#A6AAB9"/>
<path d="M110.946 106.924H114.148V106.69H110.946V106.924Z" fill="#A6AAB9"/>
</g>
</g>
<defs>
<linearGradient id="paint0_linear_2690_2555" x1="-60.7633" y1="33.6288" x2="38.4149" y2="196.806" gradientUnits="userSpaceOnUse">
<stop stop-color="#9EB5D7"/>
<stop offset="0.41" stop-color="#C6D1E4"/>
<stop offset="0.79" stop-color="#E4E6EE"/>
<stop offset="1" stop-color="#F0EEF2"/>
</linearGradient>
<clipPath id="clip0_2690_2555">
<rect width="134" height="134" fill="white"/>
</clipPath>
</defs>
</svg>
