<svg width="134" height="134" viewBox="0 0 134 134" fill="none" xmlns="http://www.w3.org/2000/svg">
<g clip-path="url(#clip0_2690_2804)">
<mask id="mask0_2690_2804" style="mask-type:alpha" maskUnits="userSpaceOnUse" x="0" y="0" width="134" height="134">
<path fill-rule="evenodd" clip-rule="evenodd" d="M0 67.0001C0 29.997 29.9968 0 67 0C104.003 0 134 29.997 134 67.0001C134 104.003 104.003 134 67 134C29.9968 134 0 104.003 0 67.0001Z" fill="white"/>
</mask>
<g mask="url(#mask0_2690_2804)">
<path d="M-1.18066 137.916H136.376V-3.22266H-1.18066V137.916Z" fill="url(#paint0_linear_2690_2804)"/>
</g>
<path d="M1.5937 80.096C4.47842 94.9652 12.4404 108.382 24.1483 118.102C35.8561 127.822 50.5999 133.256 65.9141 133.496C81.2282 133.736 96.1843 128.767 108.281 119.42C120.378 110.072 128.882 96.9139 132.372 82.1446L67.2635 67.3556L1.5937 80.096Z" fill="#C1CDE2"/>
<path d="M42.9365 25.1011V76.6973H114.463C114.463 76.6973 114.414 76.2434 114.242 75.4726C114.006 74.4018 113.537 72.7183 112.648 70.7887C110.147 65.3616 104.321 57.99 90.9888 56.8496C90.4687 56.805 89.9379 56.7702 89.3943 56.744C89.231 56.7376 89.0657 56.7298 88.8984 56.7248C69.6609 56.0611 72.2546 46.3677 67.7364 37.3559C67.2846 36.456 66.7638 35.5646 66.142 34.6881C65.4037 33.6463 64.5241 32.6273 63.4545 31.6486C55.1223 24.0175 47.6147 24.199 44.4828 24.7302C43.4901 24.8976 42.9365 25.1011 42.9365 25.1011Z" fill="#FCFCFA"/>
<path d="M115.758 76.3184H41.6514V78.6451H115.758V76.3184Z" fill="#EEF2F1"/>
<path d="M112.648 70.79V77.7099H114.242V75.474C114.007 74.4031 113.537 72.7196 112.648 70.79Z" fill="#EEF2F1"/>
<path d="M89.3965 56.7441V77.7094H90.9909V56.8498C90.4708 56.8044 89.9393 56.7697 89.3965 56.7441Z" fill="#E4EAE8"/>
<path d="M66.1445 34.6885V77.7104H67.739V37.3563C67.2871 36.4564 66.7657 35.5643 66.1445 34.6885Z" fill="#EEF2F1"/>
<path d="M44.485 23.9932H42.8906V77.7104H44.485V23.9932Z" fill="#EEF2F1"/>
<mask id="mask1_2690_2804" style="mask-type:luminance" maskUnits="userSpaceOnUse" x="7" y="23" width="113" height="81">
<path d="M119.412 23.4961H7V103.304H119.412V23.4961Z" fill="white"/>
</mask>
<g mask="url(#mask1_2690_2804)">
<path d="M7.25098 67.6305L8.17871 73.6526L17.924 73.1612L17.9822 66.5859L7.25098 67.6305Z" fill="black"/>
<path d="M37.393 97.668H10.9297V104.257H37.393V97.668Z" fill="black"/>
<path d="M9.37619 68.5437L7.50977 68.79L11.3934 101.823L13.2599 101.576L9.37619 68.5437Z" fill="black"/>
</g>
<mask id="mask2_2690_2804" style="mask-type:luminance" maskUnits="userSpaceOnUse" x="7" y="23" width="113" height="81">
<path d="M119.412 23.4961H7V103.304H119.412V23.4961Z" fill="white"/>
</mask>
<g mask="url(#mask2_2690_2804)">
<path d="M59.4225 63.4273C57.5456 64.7236 55.737 65.3072 55.3829 64.7314C55.0288 64.1556 56.2624 62.638 58.1393 61.3424C60.0155 60.0461 61.8241 59.4624 62.1782 60.0383C62.5323 60.6141 61.2987 62.1317 59.4225 63.4273Z" fill="#387775"/>
</g>
<mask id="mask3_2690_2804" style="mask-type:luminance" maskUnits="userSpaceOnUse" x="7" y="23" width="113" height="81">
<path d="M119.412 23.4961H7V103.304H119.412V23.4961Z" fill="white"/>
</mask>
<g mask="url(#mask3_2690_2804)">
<path d="M51.8182 46.905C51.8182 46.905 51.2017 47.3815 52.6241 49.248C52.0337 49.9557 50.2619 54.7794 51.1837 55.5353C52.1047 56.2906 55.7869 56.3522 55.7869 56.3522L57.4663 57.2905L58.2026 55.1034C58.5969 53.9341 58.0835 52.6391 57.0198 52.1172C57.0198 52.1172 55.7139 49.743 54.3223 49.0934C53.2634 47.2064 52.4635 46.2526 51.8182 46.905Z" fill="#FFAB6D"/>
<path d="M87.9199 31.4671C87.9199 31.4671 89.7921 30.4629 91.1328 31.6983C92.3223 32.7932 92.3698 34.4789 91.8484 35.2227C95.4469 36.0858 94.9228 42.4362 90.9782 42.144C91.1322 45.0203 88.9547 46.7478 85.4466 45.3806C81.5763 46.316 79.8996 47.0024 77.862 43.2375C75.305 42.5419 74.0373 38.3217 75.7348 36.763C73.7428 34.2455 76.536 29.2858 79.6271 30.7927C81.2577 27.6278 87.5069 28.7631 87.9199 31.4671Z" fill="#110903"/>
<path d="M88.9095 35.813C88.9095 35.813 90.1927 43.469 86.1865 43.569C85.6042 43.5839 85.4241 46.619 84.8444 46.6835C82.1248 46.9842 80.7961 42.8669 81.6088 38.868C82.5231 34.3685 87.4309 31.0362 88.9095 35.813Z" fill="#110903"/>
<path d="M85.2631 42.7834C85.2631 42.7834 80.7877 45.7796 76.8284 39.1731C76.4482 38.5384 76.1905 37.7215 76.141 36.8386C75.9101 32.7156 79.3077 30.679 83.9457 32.2072C88.3923 33.6708 90.0209 40.7063 85.2631 42.7834Z" fill="#110903"/>
<path d="M83.7736 52.992C85.5702 52.992 87.0254 51.4496 87.0254 49.5462V41.3066H80.5205V49.5462C80.5205 51.4496 81.977 52.992 83.7736 52.992Z" fill="#FFAB6D"/>
<path d="M81.31 47.5384C83.6654 47.5384 85.2592 45.2024 85.2773 45.1762C85.3067 45.1315 85.2967 45.0705 85.2552 45.0386C85.213 45.0074 85.1548 45.0173 85.126 45.062C85.1073 45.0897 83.2116 47.8646 80.5395 47.2533C80.4893 47.2419 80.4404 47.2753 80.429 47.3285C80.4177 47.3816 80.4498 47.4341 80.5007 47.4455C80.7778 47.5093 81.0482 47.5384 81.31 47.5384Z" fill="#EE7035"/>
<path d="M87.3413 40.3008C87.3413 40.3008 85.4784 47.5617 80.8779 47.2823C76.2787 47.0029 76.1354 37.2855 76.8717 35.258C77.6087 33.2305 82.6504 30.8244 86.1619 34.512C88.1619 36.6125 87.3413 40.3008 87.3413 40.3008Z" fill="#FFAB6D"/>
<path d="M86.7103 41.8172C86.7103 41.8172 85.158 40.5117 85.5248 38.2651C85.5603 38.0495 85.6554 37.8467 85.808 37.7013C86.5202 37.0227 87.7512 38.0722 88.3482 39.5416C89.0203 41.1939 88.1213 43.0483 86.7103 41.8172Z" fill="#110903"/>
<path d="M89.1604 48.8704C87.837 51.7162 87.6302 57.9801 84.4333 57.9801C81.3067 57.9801 80.7799 51.7665 79.4251 49.0221L77.9023 49.2647C79.0329 49.0299 80.1815 48.9023 81.3335 48.8824L86.0471 48.8016C86.2828 48.7973 86.5184 48.7959 86.7527 48.7952C88.1423 48.7909 87.7708 48.764 89.1604 48.8704Z" fill="#FFAB6D"/>
<path d="M78.6732 43.1447C78.4296 43.1447 77.7743 43.0958 77.7301 42.5732C77.6906 42.1009 78.119 41.8995 78.3907 41.8491L78.6746 40.4904C78.6833 40.4486 78.7221 40.4223 78.7609 40.4315C78.8004 40.4408 78.8252 40.4819 78.8158 40.523L78.5213 41.9342C78.5146 41.9654 78.4891 41.9902 78.459 41.9938C78.4336 41.9966 77.8339 42.0796 77.874 42.5597C77.9149 43.0412 78.7435 42.9894 78.7522 42.9887C78.7917 42.9866 78.8265 43.0185 78.8292 43.0611C78.8319 43.1036 78.8011 43.1398 78.7609 43.1426C78.7549 43.1426 78.7221 43.1447 78.6732 43.1447Z" fill="#603F36"/>
<path d="M77.8613 40.5066C78.0253 40.9462 77.3727 41.22 77.2087 40.781C77.046 40.3463 77.6913 40.0541 77.8613 40.5066Z" fill="#603F36"/>
<path d="M80.4412 40.2564C80.6058 40.6961 79.9539 40.9698 79.7886 40.5308C79.6266 40.0968 80.2718 39.804 80.4412 40.2564Z" fill="#603F36"/>
<path d="M81.0107 41.7197C81.0107 41.9544 81.1915 42.1445 81.4124 42.1445C81.6339 42.1445 81.8133 41.9544 81.8133 41.7197C81.8133 41.485 81.6339 41.2949 81.4124 41.2949C81.1908 41.2949 81.0107 41.485 81.0107 41.7197Z" fill="#EE7035"/>
<path d="M81.4776 43.9128C81.4689 43.9383 81.4595 43.9639 81.4468 43.9887C81.234 44.4404 80.5526 44.7567 79.9073 44.4425C79.7801 44.3816 79.6536 44.295 79.5324 44.1794C79.3544 44.01 79.4053 43.7064 79.6402 43.6625C79.9776 43.5994 80.3966 43.4533 80.6316 43.1179C81.0526 42.5179 81.7032 43.2703 81.4776 43.9128Z" fill="#171226"/>
<path d="M81.4785 43.9117C81.4698 43.9372 81.4604 43.9628 81.4477 43.9876C81.2349 44.4393 80.5535 44.7556 79.9082 44.4415C80.2094 44.0571 81.1017 43.0402 81.4785 43.9117Z" fill="#EC6957"/>
<path d="M85.4492 40.0982C86.0209 39.5543 87.4566 38.4303 88.1099 39.8656C88.8215 41.43 86.6259 42.5341 85.9244 42.8398L85.4492 40.0982Z" fill="#FFAB6D"/>
<path d="M86.0249 40.9682C86.0684 40.9618 86.1072 40.9292 86.1206 40.881C86.4118 39.8527 87.3442 40.0683 87.3837 40.0775C87.4473 40.0924 87.5095 40.0513 87.5249 39.9846C87.539 39.918 87.5001 39.8513 87.4366 39.8364C87.4245 39.8336 86.2505 39.562 85.8964 40.8101C85.8783 40.876 85.9131 40.9455 85.9747 40.9647C85.9914 40.9696 86.0088 40.9704 86.0249 40.9682Z" fill="#EE7035"/>
<path d="M59.0941 70.5269C58.3786 69.7327 58.325 68.5023 58.9689 67.6428C62.5273 62.8972 73.6956 48.7944 78.6094 51.8196C82.1965 54.0286 80.0459 58.0516 77.8176 60.8577C76.5812 62.4136 75.1548 63.7851 73.5952 64.9615L65.3734 71.1645C63.4189 72.6388 60.7541 72.3679 59.0941 70.5269Z" fill="#FFAB6D"/>
<path d="M63.2188 61.7566L65.275 71.8733C65.275 71.8733 84.0199 60.5319 80.1168 51.5136C76.7807 43.8066 63.2188 61.7566 63.2188 61.7566Z" fill="#FCBB7F"/>
<path d="M97.0437 54.6083L100.809 105.124H64.1719L74.9707 66.2702C74.9962 63.6832 74.7485 61.1012 74.2331 58.5738L73.5236 55.1047C72.9941 52.5056 74.5805 49.952 77.0438 49.4421L79.5518 48.9989C80.1496 50.2101 79.8832 51.4306 80.5198 52.5687C81.8679 54.9784 87.113 55.4245 88.3821 52.9673C88.9725 51.8256 88.9591 50.103 88.9591 48.8535C91.2296 49.0351 90.9759 48.9188 92.6265 49.2045C94.5456 49.5364 97.3007 51.9681 97.0437 54.6083Z" fill="#FCBB7F"/>
<path d="M65.9734 66.2714L57.8574 52.9678L54.1357 54.9924C54.1357 54.9924 55.3232 72.0488 62.1534 72.1041C67.9393 72.1516 65.9734 66.2714 65.9734 66.2714Z" fill="#FFAB6D"/>
<path d="M61.7185 59.2949C61.7185 59.2949 60.671 63.5491 55.2812 64.6164C57.4955 72.6836 61.3189 73.1219 64.0184 72.395C66.718 71.6681 69.4925 68.6075 69.4925 68.6075L64.1824 60.5267L63.2185 61.7521L61.7185 59.2949Z" fill="#FCBB7F"/>
<path d="M62.4837 72.8939C61.5861 72.8939 60.6845 72.6818 59.8418 72.25C58.489 71.5564 57.4173 70.3693 56.8229 68.907L55.1629 64.8145C55.1348 64.7451 55.1649 64.6656 55.2305 64.6351C55.2961 64.6053 55.3717 64.638 55.3998 64.7068L57.0605 68.7993C57.6302 70.202 58.6576 71.3401 59.9542 72.0046C61.9174 73.0102 64.22 72.774 65.9631 71.3869L74.8783 64.2976L75.1407 61.8801C75.1487 61.8056 75.211 61.7517 75.2833 61.7595C75.3536 61.768 75.4044 61.8361 75.3964 61.9106L75.1286 64.3869C75.1246 64.4238 75.1066 64.4579 75.0778 64.4805L66.1183 71.6046C65.0447 72.4577 63.7696 72.8939 62.4837 72.8939Z" fill="#86A1BC"/>
<path d="M64.5948 64.2266C64.5526 64.2266 64.5111 64.2046 64.487 64.1642L61.6081 59.4469C61.57 59.3838 61.5874 59.2994 61.6469 59.2583C61.7065 59.2172 61.7861 59.2356 61.8256 59.2987L64.7032 64.016C64.7421 64.0791 64.7247 64.1635 64.6651 64.2046C64.643 64.2195 64.6182 64.2266 64.5948 64.2266Z" fill="#387775"/>
<path d="M69.8718 50.7692L52.7891 47.1289L48.3192 70.6721L65.4019 74.3124L69.8718 50.7692Z" fill="white"/>
<path d="M65.3821 74.4572C65.356 74.4551 48.2739 70.8136 48.2739 70.8136C48.2049 70.7987 48.1594 70.7271 48.1734 70.6526L52.6441 47.1103C52.6515 47.0749 52.6709 47.0437 52.699 47.0238C52.7278 47.004 52.7626 46.9962 52.7961 47.004L69.8789 50.6447C69.9117 50.6518 69.9418 50.6731 69.9606 50.7029C69.9793 50.7327 69.986 50.7695 69.9793 50.805L65.508 74.3473C65.4959 74.4125 65.4424 74.4572 65.3821 74.4572ZM48.4513 70.5732L65.2811 74.1608L69.7009 50.8858L52.8704 47.299L48.4513 70.5732Z" fill="#E3E3E5"/>
<path d="M64.703 69.0584L64.1515 69.125C59.4974 69.6902 54.7971 68.6237 50.7695 66.0885L56.4825 52.6855L64.7311 54.4435L64.703 69.0584Z" fill="#E3E3E5"/>
<path d="M66.8867 52.4004L54.9443 49.8555L54.7203 51.0353L66.6627 53.5802L66.8867 52.4004Z" fill="#8A83A3"/>
<path d="M64.0585 58.2474C64.0772 57.1737 63.5999 55.9859 62.8181 56.3079C62.3543 56.0604 61.5477 56.7745 61.5992 57.2993C61.2043 57.1298 60.8007 57.2262 60.6132 57.7829C60.2745 57.8531 60.0249 57.9034 59.9339 58.2332C59.6983 57.8878 59.4292 57.7574 59.2679 58.0049C59.2679 58.0049 59.1454 57.5134 58.5831 57.6992C58.4452 57.4177 57.9485 57.5964 57.8227 57.8368C57.8214 57.1752 57.4813 56.7369 57.154 56.5497C57.1506 56.4532 57.1158 56.371 57.0349 56.3157C57.1727 55.832 57.0696 55.3626 56.2898 55.5959C55.4029 55.8604 55.2383 57.0667 55.4029 57.7737C54.9103 58.7594 54.4712 59.4742 54.5589 60.172C54.2101 61.04 53.4912 64.1369 55.1338 64.5255C55.9578 64.7602 56.8059 63.4362 56.8059 63.4362C56.8059 63.4362 57.6199 63.7419 58.1286 62.9526C58.4679 63.0391 58.6031 62.8923 58.6748 62.5349C58.7886 63.3908 59.3917 63.5483 59.3917 63.5483C59.3917 63.5483 59.3207 65.1091 60.6822 65.0623C61.541 66.648 63.6153 65.0063 62.9995 63.8333C63.357 63.5766 63.1368 62.7767 63.1368 62.7767C63.1368 62.7767 64.2104 61.0407 63.8416 59.2452C63.9286 59.0863 63.9882 58.8885 64.0217 58.6715C64.0685 58.5963 64.0899 58.4672 64.0618 58.2609C64.0612 58.2566 64.0591 58.2524 64.0585 58.2474Z" fill="#F59678"/>
<path d="M56.5253 59.3538C56.5253 59.3538 57.0883 58.5688 58.0508 58.6893C59.9672 58.929 59.2798 60.5289 57.7161 61.6536C56.0193 65.344 54.5052 64.6774 54.3526 62.8655C54.1765 60.7849 54.8111 59.2141 56.5253 59.3538Z" fill="#E57D61"/>
<path d="M55.6267 63.9723C55.5952 63.9723 55.5731 63.9411 55.5764 63.8992C55.5798 63.8545 55.6106 63.8148 55.6454 63.8106C55.7927 63.7914 55.9466 63.7248 56.1032 63.6141C56.1347 63.5914 56.1715 63.6035 56.1836 63.6411C56.1956 63.6787 56.1802 63.7283 56.1481 63.751C55.9734 63.8751 55.8007 63.9496 55.634 63.9716C55.6307 63.9716 55.6287 63.9723 55.6267 63.9723ZM55.1634 63.873C55.0081 63.7858 54.8883 63.6624 54.7846 63.5021C54.7659 63.4723 54.7739 63.4227 54.802 63.3915C54.8308 63.3603 54.8696 63.3581 54.8884 63.3879C54.9841 63.5347 55.0932 63.6461 55.213 63.7191C55.2411 63.7361 55.2478 63.7829 55.2277 63.8241C55.2136 63.8538 55.1875 63.873 55.1634 63.873ZM56.5343 63.3617C56.5196 63.3617 56.5062 63.3553 56.4955 63.3411C56.4748 63.312 56.4787 63.2631 56.5055 63.2319C56.6213 63.0929 56.7324 62.9348 56.8335 62.7632C56.8543 62.7284 56.8917 62.7171 56.9172 62.7376C56.9426 62.7589 56.9473 62.805 56.9266 62.8405C56.8208 63.022 56.7043 63.1894 56.5818 63.3369C56.5678 63.3539 56.5511 63.3617 56.5343 63.3617ZM54.6052 63.0525C54.5858 63.0525 54.5684 63.0404 54.5624 63.0192C54.5082 62.8532 54.468 62.6745 54.4426 62.4887C54.4372 62.4519 54.46 62.4093 54.4928 62.3937C54.5256 62.3781 54.5564 62.3951 54.561 62.432C54.5858 62.6086 54.6246 62.7781 54.6768 62.9355C54.6889 62.9702 54.6715 63.017 54.64 63.0404C54.6293 63.049 54.6166 63.0525 54.6052 63.0525ZM57.1321 62.3547C57.0832 62.3356 57.0725 62.2937 57.0886 62.2568C57.1615 62.0803 57.2211 61.9065 57.2639 61.7384C57.2733 61.7016 57.3061 61.6746 57.3355 61.6817C57.365 61.6888 57.3824 61.7214 57.3744 61.7576C57.3289 61.9406 57.2679 62.1242 57.1909 62.3086C57.1782 62.337 57.1548 62.3547 57.1321 62.3547ZM54.4573 61.9952C54.4312 61.9952 54.4124 61.9732 54.4131 61.9406C54.4185 61.7491 54.4392 61.5654 54.4754 61.3924C54.4834 61.3555 54.5149 61.3257 54.545 61.3257C54.5751 61.3257 54.5945 61.3548 54.5871 61.3917C54.5537 61.5541 54.5349 61.7285 54.5316 61.9101C54.5302 61.9476 54.5035 61.9845 54.4707 61.993C54.4653 61.9944 54.462 61.9952 54.4573 61.9952ZM57.3824 61.2832C57.3536 61.2832 57.3322 61.2576 57.3329 61.2243C57.3349 61.0591 57.3161 60.8995 57.2793 60.7499C57.2706 60.718 57.288 60.6811 57.3175 60.6683C57.3456 60.6556 57.3764 60.6712 57.3844 60.7031C57.4252 60.8626 57.446 61.0336 57.4446 61.2116C57.4446 61.247 57.4199 61.2796 57.3884 61.2832C57.3858 61.2832 57.3837 61.2832 57.3824 61.2832ZM54.6855 60.9477C54.6434 60.935 54.6347 60.8995 54.6501 60.8662C54.727 60.6995 54.8227 60.5442 54.9312 60.4038C54.9533 60.3762 54.9881 60.3684 55.0088 60.3861C55.0296 60.4045 55.0289 60.4421 55.0068 60.4705C54.9064 60.6017 54.8187 60.7463 54.7464 60.9016C54.7344 60.93 54.709 60.9477 54.6855 60.9477ZM57.1528 60.3677C57.1374 60.3677 57.122 60.3599 57.1133 60.345C57.041 60.2244 56.9527 60.1216 56.8516 60.0379C56.8295 60.0202 56.8275 59.9833 56.8469 59.9564C56.8656 59.9294 56.8991 59.9223 56.9212 59.9408C57.0297 60.0294 57.1254 60.14 57.2037 60.2691C57.2191 60.2953 57.2117 60.3329 57.1869 60.3542C57.1769 60.3634 57.1649 60.3677 57.1528 60.3677ZM55.3067 60.1422C55.292 60.1422 55.2779 60.1351 55.2699 60.1209C55.2558 60.0953 55.2665 60.0585 55.2926 60.0379C55.4245 59.9344 55.5637 59.8521 55.707 59.794C55.7358 59.7819 55.7632 59.7968 55.7692 59.8259C55.7746 59.8557 55.7552 59.889 55.7271 59.901C55.5945 59.9556 55.4653 60.0322 55.3428 60.1287C55.3315 60.1372 55.3194 60.1422 55.3067 60.1422ZM56.529 59.8564C56.4908 59.8464 56.4674 59.8401 56.4426 59.8344C56.3616 59.8145 56.2773 59.806 56.1916 59.8053C56.1708 59.8053 56.1494 59.806 56.1287 59.8067C56.0992 59.8096 56.0791 59.784 56.0832 59.7528C56.0865 59.7209 56.1126 59.694 56.1414 59.6926C56.1648 59.6911 56.1876 59.6904 56.211 59.6904C56.3027 59.6904 56.3924 59.7011 56.4794 59.7216C56.5062 59.728 56.5316 59.7351 56.5571 59.7429C56.5832 59.7514 56.5959 59.7833 56.5838 59.8138C56.5745 59.8393 56.5511 59.8564 56.529 59.8564Z" fill="white"/>
<g opacity="0.64">
<path d="M56.5678 61.63C56.4239 62.1228 55.9761 62.4526 55.5778 62.3491C55.1809 62.2462 55.0062 61.7612 55.1762 61.2832C55.3395 60.8237 55.7659 60.5358 56.1361 60.6244C56.5096 60.7138 56.7063 61.157 56.5678 61.63Z" fill="#554E75"/>
</g>
<path d="M57.3328 61.0493C57.2184 61.0493 57.1099 61.0337 57.0115 61.0018C56.9827 60.9926 56.9694 60.9578 56.9807 60.9238C56.9928 60.8898 57.0242 60.8699 57.0523 60.8784C57.1782 60.9188 57.3208 60.9309 57.4741 60.9146C57.5055 60.9103 57.5289 60.9366 57.5289 60.972C57.5289 61.0068 57.5035 61.0387 57.4734 61.0422C57.4245 61.0465 57.3783 61.0493 57.3328 61.0493ZM57.9132 60.9167C57.8911 60.9167 57.8723 60.9018 57.8649 60.877C57.8556 60.8444 57.873 60.8075 57.9018 60.7947C58.0417 60.7316 58.1709 60.6486 58.2846 60.5472C58.3094 60.526 58.3429 60.5302 58.3596 60.5565C58.377 60.5827 58.3716 60.6217 58.3469 60.643C58.2237 60.7522 58.0838 60.843 57.9332 60.9117C57.9259 60.9153 57.9192 60.9167 57.9132 60.9167ZM56.6641 60.7578C56.6507 60.7578 56.6373 60.7522 56.6286 60.7401C56.5276 60.6061 56.48 60.438 56.4921 60.2565C56.4941 60.2239 56.5195 60.1948 56.5496 60.192C56.5791 60.1905 56.6005 60.2139 56.5992 60.2473C56.5898 60.399 56.63 60.5387 56.7157 60.6508C56.7337 60.6749 56.7297 60.7146 56.7049 60.7387C56.6935 60.7522 56.6782 60.7578 56.6641 60.7578ZM58.6153 60.2799C58.5651 60.2558 58.5577 60.2196 58.5725 60.1905C58.6414 60.0636 58.6775 59.9359 58.6829 59.8111C58.6829 59.7948 58.6836 59.7792 58.6829 59.7636C58.6822 59.7324 58.7043 59.7019 58.7331 59.6991C58.7612 59.6977 58.7853 59.7168 58.786 59.748C58.7873 59.7736 58.7873 59.7927 58.7867 59.8111C58.782 59.9558 58.7405 60.1026 58.6628 60.2487C58.6521 60.2685 58.634 60.2799 58.6153 60.2799ZM56.6962 59.848C56.6487 59.8253 56.6447 59.7899 56.6615 59.7622C56.7465 59.6289 56.8609 59.5019 56.9928 59.3963C57.0169 59.3771 57.0483 59.3807 57.0631 59.4041C57.0778 59.4282 57.0711 59.4629 57.047 59.4828C56.9258 59.5807 56.8214 59.6963 56.7451 59.8182C56.7337 59.8374 56.715 59.848 56.6962 59.848ZM58.5705 59.4012C58.5571 59.4012 58.545 59.3963 58.5357 59.3849C58.4533 59.2942 58.3395 59.2261 58.2056 59.1878C58.1795 59.18 58.1648 59.1502 58.1742 59.1211C58.1829 59.0928 58.2117 59.075 58.2378 59.0828C58.3877 59.1254 58.5162 59.202 58.6106 59.3055C58.6294 59.3268 58.6287 59.3615 58.6086 59.3835C58.5972 59.3963 58.5839 59.4012 58.5705 59.4012ZM57.3984 59.2658C57.3783 59.2658 57.3602 59.253 57.3549 59.2318C57.3468 59.2034 57.3629 59.1722 57.3904 59.1608C57.4794 59.124 57.5711 59.0949 57.6628 59.075C57.713 59.0644 57.7639 59.0566 57.8134 59.0509C57.8408 59.0488 57.8643 59.0701 57.8643 59.0992C57.865 59.1289 57.8422 59.1559 57.8147 59.1587C57.7686 59.1637 57.7204 59.1715 57.6729 59.1814C57.5872 59.1999 57.5008 59.2268 57.4171 59.2615C57.4111 59.2644 57.4044 59.2658 57.3984 59.2658Z" fill="white"/>
<g opacity="0.64">
<path d="M57.9358 60.2284C57.8649 60.5114 57.6045 60.6993 57.3569 60.6405C57.1112 60.5823 56.98 60.3043 57.061 60.0263C57.14 59.7547 57.393 59.5824 57.6293 59.6356C57.8656 59.6895 58.0048 59.9519 57.9358 60.2284Z" fill="#554E75"/>
</g>
<path d="M54.0012 49.5835C54.0012 49.5835 50.4334 49.1105 51.0787 51.0649C50.0713 51.5571 50.9408 52.5442 51.0138 52.4946C51.0138 52.4946 50.39 52.4719 50.4415 53.3626C50.4964 54.3228 54.6324 54.5851 54.712 53.5881C54.7689 52.8867 53.7047 52.6719 53.7047 52.6719C53.7047 52.6719 54.963 52.9647 55.0862 51.9932C55.1397 51.3195 53.9436 51.1358 53.9436 51.1358C53.9436 51.1358 55.2763 51.3727 55.2823 50.46C55.2877 49.7296 54.0012 49.5835 54.0012 49.5835Z" fill="#FFAB6D"/>
<path d="M53.608 54.5671C53.5083 54.9961 52.7593 55.1698 51.9366 54.9543C51.1147 54.738 50.529 54.2153 50.6294 53.7856C50.7291 53.3558 51.4781 53.1828 52.3001 53.3984C53.1234 53.614 53.7091 54.1373 53.608 54.5671Z" fill="#FFAB6D"/>
</g>
<mask id="mask4_2690_2804" style="mask-type:luminance" maskUnits="userSpaceOnUse" x="7" y="23" width="113" height="81">
<path d="M119.412 23.4961H7V103.304H119.412V23.4961Z" fill="white"/>
</mask>
<g mask="url(#mask4_2690_2804)">
<path opacity="0.6" d="M76.9385 42.2394L78.1179 41.6395C78.1179 41.6395 78.4874 40.6892 79.1956 41.57C80.9446 42.1004 85.8497 40.8154 85.8497 40.8154C85.8497 40.8154 84.7078 43.5627 87.0258 42.2103C86.2902 45.6029 82.4534 48.4154 80.118 47.4084C77.7825 46.4014 77.3013 44.9129 76.9385 42.2394Z" fill="#FEFEFE"/>
</g>
<mask id="mask5_2690_2804" style="mask-type:luminance" maskUnits="userSpaceOnUse" x="7" y="23" width="113" height="81">
<path d="M119.412 23.4961H7V103.304H119.412V23.4961Z" fill="white"/>
</mask>
<g mask="url(#mask5_2690_2804)">
<path d="M77.8588 39.2929C77.9592 39.4234 77.8354 39.7071 77.5824 39.9269C77.3287 40.1468 77.0415 40.2191 76.9411 40.0893C76.8407 39.9595 76.9645 39.6752 77.2182 39.4553C77.4719 39.2355 77.7578 39.1632 77.8588 39.2929Z" fill="#603F36"/>
</g>
<mask id="mask6_2690_2804" style="mask-type:luminance" maskUnits="userSpaceOnUse" x="7" y="23" width="113" height="81">
<path d="M119.412 23.4961H7V103.304H119.412V23.4961Z" fill="white"/>
</mask>
<g mask="url(#mask6_2690_2804)">
<path d="M80.7349 39.751C80.6553 39.8971 80.3608 39.8744 80.0776 39.7006C79.7938 39.5269 79.6278 39.2688 79.7075 39.1227C79.7871 38.9766 80.0817 38.9993 80.3648 39.173C80.6486 39.3461 80.8139 39.6049 80.7349 39.751Z" fill="#603F36"/>
</g>
<mask id="mask7_2690_2804" style="mask-type:luminance" maskUnits="userSpaceOnUse" x="7" y="23" width="113" height="81">
<path d="M119.412 23.4961H7V103.304H119.412V23.4961Z" fill="white"/>
</mask>
<g mask="url(#mask7_2690_2804)">
<path d="M80.1172 51.5068L84.7071 63.5475L88.5786 52.3997C88.5786 52.3997 83.9459 56.6014 80.1172 51.5068Z" fill="#6A928F"/>
</g>
<mask id="mask8_2690_2804" style="mask-type:luminance" maskUnits="userSpaceOnUse" x="7" y="23" width="113" height="81">
<path d="M119.412 23.4961H7V103.304H119.412V23.4961Z" fill="white"/>
</mask>
<g mask="url(#mask8_2690_2804)">
<path d="M77.5369 49.2147L77.4746 55.3744L80.1179 55.0843L78.6909 58.4542L84.7078 63.5473L79.7652 48.207L77.5369 49.2147Z" fill="white"/>
</g>
<mask id="mask9_2690_2804" style="mask-type:luminance" maskUnits="userSpaceOnUse" x="7" y="23" width="113" height="81">
<path d="M119.412 23.4961H7V103.304H119.412V23.4961Z" fill="white"/>
</mask>
<g mask="url(#mask9_2690_2804)">
<path d="M84.7064 92.5974C84.6435 92.5974 84.5886 92.5485 84.5799 92.4804C83.0504 81.4454 84.5638 63.7131 84.5785 63.5351C84.5852 63.4607 84.6488 63.4046 84.7191 63.4117C84.7894 63.4188 84.8423 63.4855 84.8356 63.56C84.8202 63.7379 83.3101 81.4383 84.8349 92.4407C84.845 92.5152 84.7961 92.5847 84.7258 92.5953C84.7198 92.5967 84.7131 92.5974 84.7064 92.5974Z" fill="#86A1BC"/>
</g>
<mask id="mask10_2690_2804" style="mask-type:luminance" maskUnits="userSpaceOnUse" x="7" y="23" width="113" height="81">
<path d="M119.412 23.4961H7V103.304H119.412V23.4961Z" fill="white"/>
</mask>
<g mask="url(#mask10_2690_2804)">
<path d="M89.0526 82.036C88.9997 82.036 88.9502 82.0012 88.9315 81.9459C88.9074 81.875 88.9422 81.797 89.0084 81.7715C89.1008 81.7367 98.2129 78.2449 98.9311 74.9651C98.9472 74.8913 99.0161 74.8459 99.0857 74.8629C99.1553 74.88 99.1982 74.9537 99.1821 75.0268C98.4318 78.4505 89.4763 81.8835 89.0955 82.0275C89.0814 82.0331 89.0673 82.036 89.0526 82.036Z" fill="#86A1BC"/>
</g>
<mask id="mask11_2690_2804" style="mask-type:luminance" maskUnits="userSpaceOnUse" x="7" y="23" width="113" height="81">
<path d="M119.412 23.4961H7V103.304H119.412V23.4961Z" fill="white"/>
</mask>
<g mask="url(#mask11_2690_2804)">
<path d="M78.8299 36.0398C78.8299 36.0398 77.5735 38.8281 75.7682 38.2523C75.2341 37.4595 74.5413 36.5865 75.7682 35.0491C75.4851 33.4826 77.9249 30.3481 81.0114 32.0302C83.0549 30.6474 87.3964 32.1912 88.2492 37.4914C88.4058 38.9203 86.3582 39.6975 85.4794 39.1586C84.2303 39.7479 79.5421 38.9664 78.8299 36.0398Z" fill="#110903"/>
</g>
<mask id="mask12_2690_2804" style="mask-type:luminance" maskUnits="userSpaceOnUse" x="7" y="23" width="113" height="81">
<path d="M119.412 23.4961H7V103.304H119.412V23.4961Z" fill="white"/>
</mask>
<g mask="url(#mask12_2690_2804)">
<path d="M119.204 79.2168H34.8545V81.9406H38.2214V104.251H115.838V81.9406H119.204V79.2168Z" fill="#E4EAE8"/>
</g>
<mask id="mask13_2690_2804" style="mask-type:luminance" maskUnits="userSpaceOnUse" x="7" y="23" width="113" height="81">
<path d="M119.412 23.4961H7V103.304H119.412V23.4961Z" fill="white"/>
</mask>
<g mask="url(#mask13_2690_2804)">
<path d="M76.7548 76.5085C76.7548 76.5085 63.7684 76.0256 57.7314 83.327C69.0644 86.2934 70.9949 91.4184 70.9949 91.4184C70.9949 91.4184 73.1409 81.0187 83.0715 82.9526C81.7047 78.458 76.7548 76.5085 76.7548 76.5085Z" fill="white"/>
<path d="M71.1365 86.6943C71.117 86.6943 71.097 86.685 71.0849 86.6666C67.7321 81.8997 61.9448 81.465 61.8865 81.4615C61.8511 81.4593 61.8243 81.4267 61.8263 81.3891C61.8283 81.3515 61.8571 81.3232 61.8945 81.3253C61.9528 81.3289 67.7984 81.7664 71.188 86.5851C71.2088 86.6156 71.2028 86.6581 71.1753 86.6801C71.1633 86.69 71.1492 86.6943 71.1365 86.6943Z" fill="#2B2642"/>
<path d="M73.1426 84.2582C73.1272 84.2582 73.1112 84.2525 73.0991 84.2404C69.6472 80.8365 64.2173 80.1097 64.1631 80.1026C64.1277 80.0976 64.1029 80.0636 64.1069 80.0267C64.1109 79.9898 64.1444 79.9636 64.1792 79.9671C64.2341 79.9742 69.7048 80.7068 73.1868 84.1405C73.2129 84.166 73.2142 84.2093 73.1901 84.2369C73.1774 84.2511 73.16 84.2582 73.1426 84.2582Z" fill="#2B2642"/>
<path d="M75.3052 82.9249C75.2891 82.9249 75.2717 82.9185 75.2597 82.905C72.1866 79.6429 67.2688 79.038 67.22 79.0324C67.1845 79.0281 67.1591 78.9948 67.1624 78.9572C67.1664 78.9196 67.1992 78.8927 67.234 78.8969C67.2836 78.9026 72.2449 79.5125 75.3501 82.8093C75.3755 82.8362 75.3755 82.8788 75.3501 82.9057C75.338 82.9185 75.3219 82.9249 75.3052 82.9249Z" fill="#2B2642"/>
<path d="M77.745 82.0356C77.7262 82.0356 77.7068 82.0264 77.6948 82.0094C75.0501 78.4332 70.5487 78.0559 70.5038 78.0524C70.4677 78.0495 70.4409 78.0169 70.4435 77.9793C70.4462 77.9417 70.4804 77.9134 70.5118 77.9162C70.5573 77.9198 75.1151 78.2999 77.7952 81.9257C77.8173 81.9555 77.8126 81.9981 77.7844 82.0215C77.7731 82.0307 77.7584 82.0356 77.745 82.0356Z" fill="#2B2642"/>
</g>
<mask id="mask14_2690_2804" style="mask-type:luminance" maskUnits="userSpaceOnUse" x="8" y="23" width="52" height="80">
<path d="M60 23H8V103H60V23Z" fill="white"/>
</mask>
<g mask="url(#mask14_2690_2804)">
<path d="M29.9714 109.252H42.9129C42.9129 109.252 43.4437 103.476 42.8694 101.567C41.7408 97.8195 39.4951 94.556 36.2909 92.5682L24.6112 85.3229L15.3465 85.0293C15.3425 85.0328 12.1931 89.5863 14.2588 95.8573C15.6678 100.137 25.8395 101.82 29.268 105.444C30.0096 106.229 30.3101 107.368 30.1147 108.459L29.9714 109.252Z" fill="#B5BFB3"/>
<path d="M42.893 109.241C42.7926 109.218 42.7505 109.144 42.7685 109.071C42.7873 108.994 44.5845 101.359 40.7076 96.9281C37.0488 92.7477 34.0166 91.3116 33.9865 91.2974C33.9209 91.2677 33.8914 91.1868 33.9202 91.118C33.9483 91.0485 34.0246 91.0173 34.0896 91.0478C34.1203 91.062 37.1974 92.5172 40.8963 96.743C44.8703 101.284 43.037 109.061 43.0182 109.139C43.0028 109.201 42.9506 109.241 42.893 109.241Z" fill="#3E6864"/>
<path d="M42.912 109.252L56.5931 108.433L56.6005 107.415C56.6145 105.377 56.3221 103.368 55.7471 101.459C54.6192 97.711 52.1894 94.5567 48.9851 92.5683L37.3054 85.3229L28.0407 85.0293C28.0367 85.0328 17.8771 97.4727 41.4334 106.07C41.5719 106.121 41.7279 106.091 41.8765 106.099C42.5264 106.135 43.0298 106.715 42.9977 107.404L42.912 109.252Z" fill="#B5BFB3"/>
</g>
<mask id="mask15_2690_2804" style="mask-type:luminance" maskUnits="userSpaceOnUse" x="14" y="17" width="42" height="80">
<path d="M56 17H14V97H56V17Z" fill="white"/>
</mask>
<g mask="url(#mask15_2690_2804)">
<path d="M41.0906 58.746C41.8705 59.3864 40.9092 61.6443 39.268 63.8881C37.6267 66.1325 35.7002 67.7352 34.9204 67.0948C34.14 66.4545 34.8013 63.8129 36.4419 61.5685C38.0832 59.3254 40.3102 58.1057 41.0906 58.746Z" fill="#102B46"/>
<path d="M43.928 60.8146C43.8711 60.8522 43.7855 60.9039 43.7306 60.9351C43.7092 60.9472 43.6777 60.9656 43.661 60.9734C43.4749 61.0585 43.2774 61.1571 43.084 61.1968C42.6971 61.277 42.3209 61.3004 41.9447 61.2117C41.7151 61.1571 41.5297 61.067 41.3537 60.9522C41.3062 60.9167 41.2459 60.8727 41.1736 60.8188C41.1756 60.8195 41.1341 60.7891 41.0016 60.6905C40.774 60.5224 40.6488 60.4295 40.594 60.3891C40.4534 60.2856 40.2954 60.1678 40.1153 60.0345C37.3415 57.9794 34.1239 54.9407 31.2751 52.0453C29.5106 50.2525 26.6598 50.5525 25.2568 52.6729C25.0172 53.0345 24.7802 53.4359 24.5413 53.8812C23.8505 55.1669 24.1129 56.8008 25.1946 57.7362C28.9811 60.9869 32.7919 64.1341 37.0731 66.8104C37.0604 66.7842 37.0289 66.7565 36.9908 66.7282C37.5571 67.1225 38.1427 67.516 38.7726 67.7649C39.4587 68.0358 40.1569 68.267 40.8731 68.3401C41.928 68.4479 42.9267 68.3876 43.9287 68.1876V60.8146H43.928ZM36.8381 66.6239C36.8656 66.6431 36.8924 66.6615 36.9192 66.6807C36.8904 66.6608 36.8609 66.6417 36.8381 66.6239ZM41.1656 60.8153C41.2325 60.8649 41.2954 60.911 41.3496 60.9514C41.2385 60.8784 41.1308 60.7969 41.0183 60.7089C41.0103 60.7025 41.1321 60.7919 41.1656 60.8153Z" fill="#A34200"/>
<path d="M25.249 58.0243C27.4673 60.4914 30.6287 63.4989 35.0572 67.1737C34.7025 64.2137 37.6764 60.0744 40.882 58.6781C37.9268 55.9869 34.7968 53.0517 31.8731 50.7399C29.466 48.8365 26.0268 49.6216 24.569 52.4043C23.6104 54.2332 23.8869 56.5088 25.249 58.0243Z" fill="#FFE3AB"/>
<path d="M28.3147 41.9727L30.7358 45.9205C30.863 46.2091 30.9286 46.5446 30.9721 46.8906C31.0745 47.7154 31.0484 48.5522 30.9125 49.3712L30.7639 50.2619C30.7639 50.2619 25.9398 50.5668 23.832 50.1832C21.1639 49.6974 21.7349 49.735 21.7349 49.735C21.7349 49.735 22.9658 46.307 21.7924 41.1288C23.3614 40.5523 27.4278 40.5742 28.3147 41.9727Z" fill="#A34200"/>
<path d="M33.0275 40.9375C33.1172 40.9141 33.2022 40.99 33.1962 41.0872C33.1795 41.3694 33.1473 41.6403 33.1012 41.8984C33.063 42.1091 33.0175 42.3119 32.9646 42.5048C32.654 43.6146 31.8207 43.9394 30.8186 44.2677C26.3654 45.7342 21.8679 41.5708 21.8679 41.5708C21.8679 41.5708 18.0037 37.0351 19.0298 33.6638C20.0559 30.2939 25.5213 27.8296 29.5562 30.618C30.7771 31.4612 32.0717 32.6611 32.061 36.8982C32.6233 37.6925 33.0978 38.4151 33.2799 39.2441C33.3134 39.393 33.1996 39.4951 33.0637 39.5462C32.476 39.7667 31.5623 39.7065 31.5623 40.0894C31.5623 40.5475 32.1734 40.9758 32.7257 40.9758C32.8307 40.9758 32.9318 40.9624 33.0275 40.9375Z" fill="#A34200"/>
<path d="M31.727 36.0889C31.727 36.0889 32.3863 36.5399 33.5872 37.3731C33.8342 37.5448 33.9567 37.7844 33.7257 37.9795C33.4961 38.1745 33.136 38.4617 32.8924 38.5773C32.2451 38.8843 31.6514 38.946 31.6514 38.946L31.727 36.0889Z" fill="#A34200"/>
<path d="M17.6808 37.7758C17.32 37.3943 17.3802 37.5659 17.5864 36.6518C17.646 36.3887 17.6085 36.1114 17.49 35.8725C16.913 34.713 17.8401 34.7002 17.4164 33.8329C16.6379 32.8635 18.1968 32.6933 18.1507 31.8934C17.9432 30.7283 19.3529 30.8715 19.4399 29.8532C19.7143 28.3044 20.7853 29.7369 21.3054 27.9052C21.78 27.3598 22.4366 27.8052 23.0109 27.7938C23.7157 27.7988 23.9474 26.6401 24.7064 26.8727C25.2198 27.1535 25.6455 27.6853 26.1937 27.1372C26.8055 26.8939 27.1007 28.1108 27.7098 27.8215C28.1369 27.6187 28.3036 27.5371 28.649 27.9775C29.5037 28.5299 29.392 27.991 29.8645 29.1114C30.1811 29.4724 29.6128 29.8986 29.9033 30.3262C30.1376 31.0602 29.2126 31.1446 29.1389 31.702C29.7882 32.838 28.5124 32.7827 29.0887 34.0138C29.2547 34.9201 27.8304 34.5697 28.1429 35.5548C28.1664 36.3086 27.8645 36.1781 27.5432 36.5568C26.8176 37.5638 28.9141 37.4482 27.0117 38.9438C26.4474 39.387 26.2045 38.8112 26.1181 39.2012C25.7165 41.0187 25.5726 41.6818 24.7372 42.0144C24.1 42.2683 23.5732 42.7569 23.2084 43.3674C22.9165 43.8568 22.5049 44.2837 21.8784 44.1298C21.0832 43.9341 21.2766 42.8803 20.7317 42.5562C19.7504 41.9896 19.9647 40.3841 18.8488 39.9139C18.2337 39.7054 17.9987 39.3969 18.0476 38.9041C18.0871 38.4871 17.9599 38.0715 17.6808 37.7758Z" fill="#110903"/>
<path d="M25.7628 40.2378C26.3445 40.9229 27.0433 40.5718 27.5467 40.0925C28.05 39.6131 27.9864 38.6692 27.4047 37.9834C26.8231 37.2984 26.3786 37.3551 25.7782 37.6856C24.898 38.1721 25.1811 39.5521 25.7628 40.2378Z" fill="#A34200"/>
<path d="M30.6346 36.9954C30.7042 37.2301 30.9391 37.3613 31.1607 37.2882C31.3829 37.2145 31.5068 36.9649 31.4371 36.7301C31.3682 36.4947 31.1326 36.3642 30.911 36.4373C30.6895 36.5103 30.5649 36.7599 30.6346 36.9954Z" fill="#110903"/>
<path d="M31.1583 44.3354C29.5083 44.88 28.1187 44.8552 27.0216 44.2616C25.6287 43.5078 25.2397 42.1172 25.2237 42.0583C25.2009 41.9739 25.2458 41.886 25.3261 41.8626C25.4051 41.8385 25.4874 41.8874 25.5102 41.9711C25.5142 41.9846 25.8843 43.2944 27.1622 43.983C28.284 44.5886 29.7513 44.551 31.5244 43.8716C31.6014 43.8418 31.6871 43.8844 31.7152 43.9666C31.7433 44.0489 31.7031 44.139 31.6255 44.1687C31.4675 44.229 31.3116 44.2843 31.1583 44.3354Z" fill="#110903"/>
<path d="M35.5419 58.349C34.9502 55.8231 34.1329 53.5134 33.0171 51.632C32.0646 50.0265 30.9849 49.423 30.9849 49.423C30.2071 49.9088 28.4105 49.8733 26.8282 49.6974C25.4466 49.5443 24.1065 49.1074 22.8729 48.4309L21.8829 47.8877C15.5561 52.5624 16.9939 70.9166 15.2442 82.7076C15.1284 83.4862 14.9992 84.2365 14.8526 84.952C14.5159 86.5987 14.0882 88.0624 13.5312 89.2736C14.7615 90.1813 16.196 90.7444 17.7496 90.9337C42.1593 93.9093 42.1593 87.1887 42.1593 87.1887C42.1593 87.1887 37.0447 64.7527 35.5419 58.349Z" fill="#FCBB7F"/>
<path d="M29.4553 68.9686C29.4084 70.0132 27.1105 70.4749 24.4337 70.3387C21.7576 70.2033 19.4128 69.4523 19.4597 68.407C19.5065 67.3624 21.9289 66.42 24.605 66.5561C27.2812 66.6916 29.5028 67.9241 29.4553 68.9686Z" fill="#E8B458"/>
<path d="M25.0661 51.7432C27.5106 51.7439 29.3788 54.0451 29.0053 56.6044C28.4028 60.7373 27.9008 65.2737 27.9035 68.8592C27.9068 73.414 27.9008 67.7047 27.9048 70.0044C27.9055 70.5051 27.9015 70.0101 27.9015 70.0286C27.8914 70.4115 27.8955 70.7434 28.0434 71.1206C28.1907 71.4986 28.4243 71.8113 28.7087 72.1007C28.8506 72.2453 29.0408 72.3602 29.2128 72.473C29.2289 72.4836 29.261 72.5006 29.2811 72.5113C29.3413 72.5439 29.4404 72.5928 29.5013 72.6198C29.5562 72.6446 29.6037 72.6637 29.6633 72.6864C29.6854 72.695 29.7114 72.7063 29.7422 72.7155C29.7724 72.7247 29.684 72.7027 29.7777 72.7269C29.8715 72.7503 29.5194 72.6623 29.8755 72.7524C30.2322 72.8425 29.3781 72.634 30.2429 72.8474C31.1077 73.0609 30.9377 73.029 33.0342 73.4842C35.1306 73.9395 39.776 73.9735 42.5124 74.3083C44.0807 74.4997 45.2635 75.8478 45.1283 77.5774C44.9984 79.2383 43.8324 80.1651 42.2312 80.2304C39.2814 80.3509 34.2096 80.2339 31.8956 79.9885C29.5816 79.7425 29.6927 79.6177 28.7308 79.4751C27.7676 79.3333 28.7215 79.4666 28.3225 79.4007C27.9229 79.3354 28.3205 79.3971 28.2188 79.3808C28.117 79.3652 28.1994 79.3751 28.1271 79.3595C28.0555 79.3446 27.9524 79.3163 27.8854 79.2978C27.706 79.2496 27.5467 79.2035 27.3754 79.1482C27.204 79.0922 27.0501 79.0376 26.8767 78.9681C26.8118 78.9418 26.7114 78.9014 26.6418 78.8688C26.5722 78.8362 26.4677 78.7957 26.4088 78.7624C25.7796 78.4114 25.1651 78.1128 24.6149 77.632C23.5145 76.6704 22.6249 75.6103 21.9161 74.2827C21.5626 73.619 21.3404 72.8815 21.1556 72.1298C20.9716 71.3781 20.9488 70.5746 20.9294 69.7967C20.9274 69.8896 20.9482 70.047 20.918 70.1073C20.5298 64.8567 20.7748 59.7452 21.1128 54.6223C21.2166 53.1189 22.329 51.9531 23.7193 51.8148C24.2026 51.768 24.6491 51.7432 25.0661 51.7432Z" fill="#A34200"/>
<path d="M20.9214 54.8103C20.2875 58.1511 19.7761 62.6195 19.4775 68.5706C21.5619 66.5644 26.4677 66.7694 29.3882 68.7486C29.7724 64.6398 30.2443 60.2396 30.3534 56.3768C30.4431 53.1963 27.862 50.6632 24.8747 50.9951C22.9107 51.2135 21.3103 52.7588 20.9214 54.8103Z" fill="#FFE3AB"/>
<path d="M46.8987 74.1848C44.5004 74.1011 42.8691 74.138 42.5826 74.1287C39.9728 74.0401 40.2184 75.2152 40.8503 76.4065L40.1582 77.7312C40.1582 77.7312 40.1656 79.263 41.0284 80.2771L44.7206 80.1047C45.2132 80.1047 45.7032 79.9969 46.147 79.77C48.5902 80.3976 50.6792 83.3441 51.0086 82.5648C51.3365 81.7854 49.1899 79.4807 49.2562 79.2133C49.3224 78.946 51.0253 82.1372 51.0046 81.133C50.9905 80.4841 50.5788 79.3701 50.2589 78.5928C50.6016 79.3467 51.0748 80.2997 51.2014 80.1281C51.3212 79.9657 51.3345 79.2814 51.1043 78.4446C51.2094 78.5021 51.3071 78.4978 51.3874 78.3936C51.8279 77.8255 49.0541 74.2599 46.8987 74.1848Z" fill="#A34200"/>
<path d="M40.4775 50.0619L40.0411 48.7918C40.0411 48.7918 39.782 47.2119 38.6019 46.1808C37.4212 45.1497 36.0108 43.864 35.8522 43.4669C35.6935 43.0697 34.8374 43.7633 35.6514 45.2348C36.4647 46.707 36.1166 45.9744 35.6092 46.1418C33.4491 45.3057 31.3487 44.4121 31.0114 45.0199C30.674 45.6276 33.1285 46.4396 33.0549 46.6545C32.9819 46.8686 32.4933 47.5523 32.4023 47.7927C32.0321 48.772 32.164 49.7627 32.164 49.7627C32.164 49.7627 32.9739 50.8101 34.9111 51.1462C37.0677 51.5206 37.8221 52.5759 38.0791 52.6205C40.4259 53.0255 40.9842 51.1356 40.4775 50.0619Z" fill="#A34200"/>
<path d="M47.5396 61.2317C44.2523 54.9033 39.9128 48.3408 39.9128 48.3408L36.2246 49.9612C36.2246 49.9612 38.6524 54.6352 40.6197 64.8902C40.6706 65.1583 40.7214 65.4157 40.7716 65.6653C41.0722 67.1623 42.3874 68.1792 43.8246 68.0246L44.2035 67.9835C47.2799 67.6523 49.0296 64.1016 47.5396 61.2317Z" fill="#A34200"/>
<path d="M19.4773 68.7019C19.3996 68.6977 19.3454 68.6339 19.3488 68.5587L19.8475 58.1831C19.8515 58.108 19.911 58.0484 19.9826 58.0541C20.0536 58.0576 20.1085 58.1222 20.1052 58.1973L19.6065 68.5729C19.6024 68.6452 19.5449 68.7019 19.4773 68.7019Z" fill="#E8B458"/>
<path d="M29.3874 68.8786C29.3352 68.8786 29.2863 68.8453 29.2662 68.7907C28.0206 65.2917 28.9275 60.7227 28.9369 60.6773C28.9523 60.6035 29.0199 60.5567 29.0902 60.5723C29.1598 60.5886 29.204 60.661 29.1893 60.7347C29.1799 60.7801 28.289 65.2719 29.5086 68.6949C29.5333 68.7651 29.4999 68.8438 29.4336 68.8708C29.4175 68.875 29.4021 68.8786 29.3874 68.8786Z" fill="#E8B458"/>
<path d="M30.9648 36.1023C30.6663 36.3321 30.3443 36.4009 30.2459 36.2569C30.1468 36.1122 30.3089 35.8094 30.6074 35.5804C30.9053 35.3506 31.2279 35.2818 31.3263 35.4258C31.4253 35.5697 31.2634 35.8733 30.9648 36.1023Z" fill="#110903"/>
<path d="M27.0981 40.1976C27.0981 40.5153 26.8552 40.7735 26.554 40.7735C26.2541 40.7735 26.0098 40.5153 26.0098 40.1976C26.0098 39.8792 26.2534 39.6211 26.554 39.6211C26.8552 39.6218 27.0981 39.8792 27.0981 40.1976Z" fill="#E8B458"/>
<path d="M36.6902 67.3124C36.6239 67.3124 36.5677 67.2585 36.5623 67.1876C36.0215 60.5507 34.4967 57.0355 34.4819 57.0014C34.4518 56.9333 34.4793 56.8518 34.5436 56.8199C34.6085 56.7873 34.6848 56.817 34.7149 56.8858C34.7303 56.9206 36.2739 60.4734 36.8201 67.1642C36.8261 67.2394 36.7739 67.3054 36.7022 67.3117C36.6975 67.3124 36.6942 67.3124 36.6902 67.3124Z" fill="#E8B458"/>
</g>
<path d="M108.254 78.5898L105.515 78.8779L105.626 80.0684L108.365 79.7803L108.254 78.5898Z" fill="#D56035"/>
<path d="M108.357 78.7186L105.462 79.0234L105.574 80.2139L108.468 79.9091L108.357 78.7186Z" fill="#E5BC60"/>
<path d="M105.039 49.575C104.494 49.3538 104.22 48.7056 104.43 48.1276L105.581 44.945C105.791 44.367 106.402 44.0777 106.948 44.299C107.493 44.5209 107.767 45.1691 107.557 45.7463L106.406 48.929C106.198 49.5076 105.585 49.7963 105.039 49.575Z" fill="black"/>
<path d="M121.736 63.4693C121.632 63.4693 121.529 63.4261 121.454 63.3403L106.181 46.076C106.034 45.9108 106.043 45.652 106.198 45.4974C106.354 45.3428 106.599 45.3513 106.744 45.5158L122.017 62.78C122.163 62.9446 122.155 63.2041 121.999 63.358C121.926 63.4332 121.831 63.4693 121.736 63.4693Z" fill="black"/>
<path d="M110.523 79.9964C110.445 79.9964 110.366 79.9709 110.297 79.9191C110.124 79.7865 110.086 79.5312 110.21 79.3475L121.776 62.406L106.721 45.3878C106.574 45.2233 106.583 44.9638 106.738 44.8099C106.894 44.6553 107.139 44.6638 107.284 44.8283L122.557 62.0925C122.683 62.2358 122.696 62.4535 122.588 62.6123L110.835 79.8269C110.761 79.9375 110.643 79.9964 110.523 79.9964Z" fill="black"/>
<path d="M122.907 62.3834L121.371 60.7559V64.4817L122.907 62.8535C123.03 62.7237 123.03 62.5131 122.907 62.3834Z" fill="#E8B458"/>
<path d="M106.783 50.9501L107.538 48.7276C107.921 47.598 107.368 46.3534 106.302 45.9464C105.236 45.54 104.061 46.1258 103.678 47.2547L102.922 49.4772L106.783 50.9501Z" fill="#E8B458"/>
<path d="M108.746 56.9398C109.412 53.2132 108.035 49.6951 105.306 48.6541C102.577 47.613 99.3999 49.3937 97.6709 52.7147L108.746 56.9398Z" fill="#E8B458"/>
<path d="M112.686 80.5741C112.657 79.9103 112.056 79.3799 111.315 79.3799H101.769C101.029 79.3799 100.428 79.9103 100.397 80.5741H112.686Z" fill="black"/>
<path d="M113.1 79.9766H100.101V81.0027H113.1V79.9766Z" fill="black"/>
<path d="M111.589 78.9551H110.162V80.467H111.589V78.9551Z" fill="black"/>
</g>
<defs>
<linearGradient id="paint0_linear_2690_2804" x1="-60.7633" y1="33.6288" x2="38.4149" y2="196.806" gradientUnits="userSpaceOnUse">
<stop stop-color="#9EB5D7"/>
<stop offset="0.41" stop-color="#C6D1E4"/>
<stop offset="0.79" stop-color="#E4E6EE"/>
<stop offset="1" stop-color="#F0EEF2"/>
</linearGradient>
<clipPath id="clip0_2690_2804">
<rect width="134" height="134" fill="white"/>
</clipPath>
</defs>
</svg>
